%TF.GenerationSoftware,KiCad,Pcbnew,10.0.0*%
%TF.CreationDate,2026-03-24T01:09:45-04:00*%
%TF.ProjectId,tad5212-board,74616435-3231-4322-9d62-6f6172642e6b,rev?*%
%TF.SameCoordinates,Original*%
%TF.FileFunction,Legend,Top*%
%TF.FilePolarity,Positive*%
%FSLAX46Y46*%
G04 Gerber Fmt 4.6, Leading zero omitted, Abs format (unit mm)*
G04 Created by KiCad (PCBNEW 10.0.0) date 2026-03-24 01:09:45*
%MOMM*%
%LPD*%
G01*
G04 APERTURE LIST*
%ADD10C,0.150000*%
%ADD11C,0.120000*%
%ADD12C,0.000000*%
G04 APERTURE END LIST*
D10*
X136875966Y-58186262D02*
X136875966Y-58900547D01*
X136875966Y-58900547D02*
X136828347Y-59043404D01*
X136828347Y-59043404D02*
X136733109Y-59138643D01*
X136733109Y-59138643D02*
X136590252Y-59186262D01*
X136590252Y-59186262D02*
X136495014Y-59186262D01*
X137875966Y-59186262D02*
X137304538Y-59186262D01*
X137590252Y-59186262D02*
X137590252Y-58186262D01*
X137590252Y-58186262D02*
X137495014Y-58329119D01*
X137495014Y-58329119D02*
X137399776Y-58424357D01*
X137399776Y-58424357D02*
X137304538Y-58471976D01*
X146524350Y-70260051D02*
X146524350Y-70327395D01*
X146524350Y-70327395D02*
X146457006Y-70462082D01*
X146457006Y-70462082D02*
X146389663Y-70529425D01*
X146389663Y-70529425D02*
X146254976Y-70596769D01*
X146254976Y-70596769D02*
X146120289Y-70596769D01*
X146120289Y-70596769D02*
X146019274Y-70563097D01*
X146019274Y-70563097D02*
X145850915Y-70462082D01*
X145850915Y-70462082D02*
X145749900Y-70361067D01*
X145749900Y-70361067D02*
X145648884Y-70192708D01*
X145648884Y-70192708D02*
X145615213Y-70091693D01*
X145615213Y-70091693D02*
X145615213Y-69957006D01*
X145615213Y-69957006D02*
X145682556Y-69822319D01*
X145682556Y-69822319D02*
X145749900Y-69754975D01*
X145749900Y-69754975D02*
X145884587Y-69687632D01*
X145884587Y-69687632D02*
X145951930Y-69687632D01*
X146591693Y-69519273D02*
X146490678Y-69552945D01*
X146490678Y-69552945D02*
X146423335Y-69552945D01*
X146423335Y-69552945D02*
X146322319Y-69519273D01*
X146322319Y-69519273D02*
X146288648Y-69485601D01*
X146288648Y-69485601D02*
X146254976Y-69384586D01*
X146254976Y-69384586D02*
X146254976Y-69317242D01*
X146254976Y-69317242D02*
X146288648Y-69216227D01*
X146288648Y-69216227D02*
X146423335Y-69081540D01*
X146423335Y-69081540D02*
X146524350Y-69047868D01*
X146524350Y-69047868D02*
X146591693Y-69047868D01*
X146591693Y-69047868D02*
X146692709Y-69081540D01*
X146692709Y-69081540D02*
X146726380Y-69115212D01*
X146726380Y-69115212D02*
X146760052Y-69216227D01*
X146760052Y-69216227D02*
X146760052Y-69283571D01*
X146760052Y-69283571D02*
X146726380Y-69384586D01*
X146726380Y-69384586D02*
X146591693Y-69519273D01*
X146591693Y-69519273D02*
X146558022Y-69620288D01*
X146558022Y-69620288D02*
X146558022Y-69687632D01*
X146558022Y-69687632D02*
X146591693Y-69788647D01*
X146591693Y-69788647D02*
X146726380Y-69923334D01*
X146726380Y-69923334D02*
X146827396Y-69957006D01*
X146827396Y-69957006D02*
X146894739Y-69957006D01*
X146894739Y-69957006D02*
X146995754Y-69923334D01*
X146995754Y-69923334D02*
X147130441Y-69788647D01*
X147130441Y-69788647D02*
X147164113Y-69687632D01*
X147164113Y-69687632D02*
X147164113Y-69620288D01*
X147164113Y-69620288D02*
X147130441Y-69519273D01*
X147130441Y-69519273D02*
X146995754Y-69384586D01*
X146995754Y-69384586D02*
X146894739Y-69350914D01*
X146894739Y-69350914D02*
X146827396Y-69350914D01*
X146827396Y-69350914D02*
X146726380Y-69384586D01*
X148283333Y-78509580D02*
X148235714Y-78557200D01*
X148235714Y-78557200D02*
X148092857Y-78604819D01*
X148092857Y-78604819D02*
X147997619Y-78604819D01*
X147997619Y-78604819D02*
X147854762Y-78557200D01*
X147854762Y-78557200D02*
X147759524Y-78461961D01*
X147759524Y-78461961D02*
X147711905Y-78366723D01*
X147711905Y-78366723D02*
X147664286Y-78176247D01*
X147664286Y-78176247D02*
X147664286Y-78033390D01*
X147664286Y-78033390D02*
X147711905Y-77842914D01*
X147711905Y-77842914D02*
X147759524Y-77747676D01*
X147759524Y-77747676D02*
X147854762Y-77652438D01*
X147854762Y-77652438D02*
X147997619Y-77604819D01*
X147997619Y-77604819D02*
X148092857Y-77604819D01*
X148092857Y-77604819D02*
X148235714Y-77652438D01*
X148235714Y-77652438D02*
X148283333Y-77700057D01*
X149188095Y-77604819D02*
X148711905Y-77604819D01*
X148711905Y-77604819D02*
X148664286Y-78081009D01*
X148664286Y-78081009D02*
X148711905Y-78033390D01*
X148711905Y-78033390D02*
X148807143Y-77985771D01*
X148807143Y-77985771D02*
X149045238Y-77985771D01*
X149045238Y-77985771D02*
X149140476Y-78033390D01*
X149140476Y-78033390D02*
X149188095Y-78081009D01*
X149188095Y-78081009D02*
X149235714Y-78176247D01*
X149235714Y-78176247D02*
X149235714Y-78414342D01*
X149235714Y-78414342D02*
X149188095Y-78509580D01*
X149188095Y-78509580D02*
X149140476Y-78557200D01*
X149140476Y-78557200D02*
X149045238Y-78604819D01*
X149045238Y-78604819D02*
X148807143Y-78604819D01*
X148807143Y-78604819D02*
X148711905Y-78557200D01*
X148711905Y-78557200D02*
X148664286Y-78509580D01*
X141733333Y-79509580D02*
X141685714Y-79557200D01*
X141685714Y-79557200D02*
X141542857Y-79604819D01*
X141542857Y-79604819D02*
X141447619Y-79604819D01*
X141447619Y-79604819D02*
X141304762Y-79557200D01*
X141304762Y-79557200D02*
X141209524Y-79461961D01*
X141209524Y-79461961D02*
X141161905Y-79366723D01*
X141161905Y-79366723D02*
X141114286Y-79176247D01*
X141114286Y-79176247D02*
X141114286Y-79033390D01*
X141114286Y-79033390D02*
X141161905Y-78842914D01*
X141161905Y-78842914D02*
X141209524Y-78747676D01*
X141209524Y-78747676D02*
X141304762Y-78652438D01*
X141304762Y-78652438D02*
X141447619Y-78604819D01*
X141447619Y-78604819D02*
X141542857Y-78604819D01*
X141542857Y-78604819D02*
X141685714Y-78652438D01*
X141685714Y-78652438D02*
X141733333Y-78700057D01*
X142685714Y-79604819D02*
X142114286Y-79604819D01*
X142400000Y-79604819D02*
X142400000Y-78604819D01*
X142400000Y-78604819D02*
X142304762Y-78747676D01*
X142304762Y-78747676D02*
X142209524Y-78842914D01*
X142209524Y-78842914D02*
X142114286Y-78890533D01*
X139227887Y-72136411D02*
X139160543Y-72136411D01*
X139160543Y-72136411D02*
X139025856Y-72069067D01*
X139025856Y-72069067D02*
X138958513Y-72001724D01*
X138958513Y-72001724D02*
X138891169Y-71867037D01*
X138891169Y-71867037D02*
X138891169Y-71732350D01*
X138891169Y-71732350D02*
X138924841Y-71631335D01*
X138924841Y-71631335D02*
X139025856Y-71462976D01*
X139025856Y-71462976D02*
X139126871Y-71361961D01*
X139126871Y-71361961D02*
X139295230Y-71260945D01*
X139295230Y-71260945D02*
X139396245Y-71227274D01*
X139396245Y-71227274D02*
X139530932Y-71227274D01*
X139530932Y-71227274D02*
X139665619Y-71294617D01*
X139665619Y-71294617D02*
X139732963Y-71361961D01*
X139732963Y-71361961D02*
X139800306Y-71496648D01*
X139800306Y-71496648D02*
X139800306Y-71563991D01*
X140103352Y-71732350D02*
X140541085Y-72170083D01*
X140541085Y-72170083D02*
X140036009Y-72203754D01*
X140036009Y-72203754D02*
X140137024Y-72304770D01*
X140137024Y-72304770D02*
X140170696Y-72405785D01*
X140170696Y-72405785D02*
X140170696Y-72473128D01*
X140170696Y-72473128D02*
X140137024Y-72574144D01*
X140137024Y-72574144D02*
X139968665Y-72742502D01*
X139968665Y-72742502D02*
X139867650Y-72776174D01*
X139867650Y-72776174D02*
X139800306Y-72776174D01*
X139800306Y-72776174D02*
X139699291Y-72742502D01*
X139699291Y-72742502D02*
X139497261Y-72540472D01*
X139497261Y-72540472D02*
X139463589Y-72439457D01*
X139463589Y-72439457D02*
X139463589Y-72372113D01*
X144588095Y-76204819D02*
X144588095Y-77014342D01*
X144588095Y-77014342D02*
X144635714Y-77109580D01*
X144635714Y-77109580D02*
X144683333Y-77157200D01*
X144683333Y-77157200D02*
X144778571Y-77204819D01*
X144778571Y-77204819D02*
X144969047Y-77204819D01*
X144969047Y-77204819D02*
X145064285Y-77157200D01*
X145064285Y-77157200D02*
X145111904Y-77109580D01*
X145111904Y-77109580D02*
X145159523Y-77014342D01*
X145159523Y-77014342D02*
X145159523Y-76204819D01*
X146159523Y-77204819D02*
X145588095Y-77204819D01*
X145873809Y-77204819D02*
X145873809Y-76204819D01*
X145873809Y-76204819D02*
X145778571Y-76347676D01*
X145778571Y-76347676D02*
X145683333Y-76442914D01*
X145683333Y-76442914D02*
X145588095Y-76490533D01*
X141815500Y-70904819D02*
X141815500Y-71142914D01*
X141577405Y-71047676D02*
X141815500Y-71142914D01*
X141815500Y-71142914D02*
X142053595Y-71047676D01*
X141672643Y-71333390D02*
X141815500Y-71142914D01*
X141815500Y-71142914D02*
X141958357Y-71333390D01*
X152115966Y-58186262D02*
X152115966Y-58900547D01*
X152115966Y-58900547D02*
X152068347Y-59043404D01*
X152068347Y-59043404D02*
X151973109Y-59138643D01*
X151973109Y-59138643D02*
X151830252Y-59186262D01*
X151830252Y-59186262D02*
X151735014Y-59186262D01*
X152544538Y-58281500D02*
X152592157Y-58233881D01*
X152592157Y-58233881D02*
X152687395Y-58186262D01*
X152687395Y-58186262D02*
X152925490Y-58186262D01*
X152925490Y-58186262D02*
X153020728Y-58233881D01*
X153020728Y-58233881D02*
X153068347Y-58281500D01*
X153068347Y-58281500D02*
X153115966Y-58376738D01*
X153115966Y-58376738D02*
X153115966Y-58471976D01*
X153115966Y-58471976D02*
X153068347Y-58614833D01*
X153068347Y-58614833D02*
X152496919Y-59186262D01*
X152496919Y-59186262D02*
X153115966Y-59186262D01*
X139127887Y-67736411D02*
X139060543Y-67736411D01*
X139060543Y-67736411D02*
X138925856Y-67669067D01*
X138925856Y-67669067D02*
X138858513Y-67601724D01*
X138858513Y-67601724D02*
X138791169Y-67467037D01*
X138791169Y-67467037D02*
X138791169Y-67332350D01*
X138791169Y-67332350D02*
X138824841Y-67231335D01*
X138824841Y-67231335D02*
X138925856Y-67062976D01*
X138925856Y-67062976D02*
X139026871Y-66961961D01*
X139026871Y-66961961D02*
X139195230Y-66860945D01*
X139195230Y-66860945D02*
X139296245Y-66827274D01*
X139296245Y-66827274D02*
X139430932Y-66827274D01*
X139430932Y-66827274D02*
X139565619Y-66894617D01*
X139565619Y-66894617D02*
X139632963Y-66961961D01*
X139632963Y-66961961D02*
X139700306Y-67096648D01*
X139700306Y-67096648D02*
X139700306Y-67163991D01*
X140138039Y-67938441D02*
X139666635Y-68409846D01*
X140239054Y-67500709D02*
X139565619Y-67837426D01*
X139565619Y-67837426D02*
X140003352Y-68275159D01*
X139783333Y-79559580D02*
X139735714Y-79607200D01*
X139735714Y-79607200D02*
X139592857Y-79654819D01*
X139592857Y-79654819D02*
X139497619Y-79654819D01*
X139497619Y-79654819D02*
X139354762Y-79607200D01*
X139354762Y-79607200D02*
X139259524Y-79511961D01*
X139259524Y-79511961D02*
X139211905Y-79416723D01*
X139211905Y-79416723D02*
X139164286Y-79226247D01*
X139164286Y-79226247D02*
X139164286Y-79083390D01*
X139164286Y-79083390D02*
X139211905Y-78892914D01*
X139211905Y-78892914D02*
X139259524Y-78797676D01*
X139259524Y-78797676D02*
X139354762Y-78702438D01*
X139354762Y-78702438D02*
X139497619Y-78654819D01*
X139497619Y-78654819D02*
X139592857Y-78654819D01*
X139592857Y-78654819D02*
X139735714Y-78702438D01*
X139735714Y-78702438D02*
X139783333Y-78750057D01*
X140164286Y-78750057D02*
X140211905Y-78702438D01*
X140211905Y-78702438D02*
X140307143Y-78654819D01*
X140307143Y-78654819D02*
X140545238Y-78654819D01*
X140545238Y-78654819D02*
X140640476Y-78702438D01*
X140640476Y-78702438D02*
X140688095Y-78750057D01*
X140688095Y-78750057D02*
X140735714Y-78845295D01*
X140735714Y-78845295D02*
X140735714Y-78940533D01*
X140735714Y-78940533D02*
X140688095Y-79083390D01*
X140688095Y-79083390D02*
X140116667Y-79654819D01*
X140116667Y-79654819D02*
X140735714Y-79654819D01*
X140127888Y-66286411D02*
X140060544Y-66286411D01*
X140060544Y-66286411D02*
X139925857Y-66219067D01*
X139925857Y-66219067D02*
X139858514Y-66151724D01*
X139858514Y-66151724D02*
X139791170Y-66017037D01*
X139791170Y-66017037D02*
X139791170Y-65882350D01*
X139791170Y-65882350D02*
X139824842Y-65781335D01*
X139824842Y-65781335D02*
X139925857Y-65612976D01*
X139925857Y-65612976D02*
X140026872Y-65511961D01*
X140026872Y-65511961D02*
X140195231Y-65410945D01*
X140195231Y-65410945D02*
X140296246Y-65377274D01*
X140296246Y-65377274D02*
X140430933Y-65377274D01*
X140430933Y-65377274D02*
X140565620Y-65444617D01*
X140565620Y-65444617D02*
X140632964Y-65511961D01*
X140632964Y-65511961D02*
X140700307Y-65646648D01*
X140700307Y-65646648D02*
X140700307Y-65713991D01*
X141373742Y-66252739D02*
X141239055Y-66118052D01*
X141239055Y-66118052D02*
X141138040Y-66084380D01*
X141138040Y-66084380D02*
X141070697Y-66084380D01*
X141070697Y-66084380D02*
X140902338Y-66118052D01*
X140902338Y-66118052D02*
X140733979Y-66219067D01*
X140733979Y-66219067D02*
X140464605Y-66488441D01*
X140464605Y-66488441D02*
X140430933Y-66589457D01*
X140430933Y-66589457D02*
X140430933Y-66656800D01*
X140430933Y-66656800D02*
X140464605Y-66757815D01*
X140464605Y-66757815D02*
X140599292Y-66892502D01*
X140599292Y-66892502D02*
X140700307Y-66926174D01*
X140700307Y-66926174D02*
X140767651Y-66926174D01*
X140767651Y-66926174D02*
X140868666Y-66892502D01*
X140868666Y-66892502D02*
X141037025Y-66724144D01*
X141037025Y-66724144D02*
X141070697Y-66623128D01*
X141070697Y-66623128D02*
X141070697Y-66555785D01*
X141070697Y-66555785D02*
X141037025Y-66454770D01*
X141037025Y-66454770D02*
X140902338Y-66320083D01*
X140902338Y-66320083D02*
X140801323Y-66286411D01*
X140801323Y-66286411D02*
X140733979Y-66286411D01*
X140733979Y-66286411D02*
X140632964Y-66320083D01*
X146336411Y-65672112D02*
X146336411Y-65739456D01*
X146336411Y-65739456D02*
X146269067Y-65874143D01*
X146269067Y-65874143D02*
X146201724Y-65941486D01*
X146201724Y-65941486D02*
X146067037Y-66008830D01*
X146067037Y-66008830D02*
X145932350Y-66008830D01*
X145932350Y-66008830D02*
X145831335Y-65975158D01*
X145831335Y-65975158D02*
X145662976Y-65874143D01*
X145662976Y-65874143D02*
X145561961Y-65773128D01*
X145561961Y-65773128D02*
X145460945Y-65604769D01*
X145460945Y-65604769D02*
X145427274Y-65503754D01*
X145427274Y-65503754D02*
X145427274Y-65369067D01*
X145427274Y-65369067D02*
X145494617Y-65234380D01*
X145494617Y-65234380D02*
X145561961Y-65167036D01*
X145561961Y-65167036D02*
X145696648Y-65099693D01*
X145696648Y-65099693D02*
X145763991Y-65099693D01*
X145932350Y-64796647D02*
X146403754Y-64325242D01*
X146403754Y-64325242D02*
X146807815Y-65335395D01*
X140275750Y-62353246D02*
X140848170Y-62925666D01*
X140848170Y-62925666D02*
X140949185Y-62959338D01*
X140949185Y-62959338D02*
X141016529Y-62959338D01*
X141016529Y-62959338D02*
X141117544Y-62925666D01*
X141117544Y-62925666D02*
X141252231Y-62790979D01*
X141252231Y-62790979D02*
X141285903Y-62689964D01*
X141285903Y-62689964D02*
X141285903Y-62622620D01*
X141285903Y-62622620D02*
X141252231Y-62521605D01*
X141252231Y-62521605D02*
X140679811Y-61949185D01*
X141050201Y-61713483D02*
X141050201Y-61646140D01*
X141050201Y-61646140D02*
X141083872Y-61545124D01*
X141083872Y-61545124D02*
X141252231Y-61376766D01*
X141252231Y-61376766D02*
X141353246Y-61343094D01*
X141353246Y-61343094D02*
X141420590Y-61343094D01*
X141420590Y-61343094D02*
X141521605Y-61376766D01*
X141521605Y-61376766D02*
X141588949Y-61444109D01*
X141588949Y-61444109D02*
X141656292Y-61578796D01*
X141656292Y-61578796D02*
X141656292Y-62386918D01*
X141656292Y-62386918D02*
X142094025Y-61949185D01*
%TO.C,J1*%
D11*
X135829300Y-59731443D02*
X137209300Y-59731443D01*
X135829300Y-61111443D02*
X135829300Y-59731443D01*
X135829300Y-62381443D02*
X135829300Y-85351443D01*
X135829300Y-62381443D02*
X138589300Y-62381443D01*
X135829300Y-85351443D02*
X138589300Y-85351443D01*
X138589300Y-62381443D02*
X138589300Y-85351443D01*
%TO.C,C8*%
X144865010Y-67995543D02*
X144495543Y-68365010D01*
X145904457Y-69034990D02*
X145534990Y-69404457D01*
%TO.C,C5*%
X147940000Y-75840580D02*
X147940000Y-75559420D01*
X148960000Y-75840580D02*
X148960000Y-75559420D01*
%TO.C,C1*%
X141190000Y-76740580D02*
X141190000Y-76459420D01*
X142210000Y-76740580D02*
X142210000Y-76459420D01*
%TO.C,C3*%
X140089970Y-71311219D02*
X140288781Y-71510030D01*
X140811219Y-70589970D02*
X141010030Y-70788781D01*
D12*
%TO.C,U1*%
G36*
X145240563Y-76057500D02*
G01*
X144859563Y-76057500D01*
X144859563Y-75803500D01*
X145240563Y-75803500D01*
X145240563Y-76057500D01*
G37*
G36*
X145740689Y-70596500D02*
G01*
X145359689Y-70596500D01*
X145359689Y-70342500D01*
X145740689Y-70342500D01*
X145740689Y-70596500D01*
G37*
%TO.C,J2*%
D11*
X151069300Y-59731443D02*
X152449300Y-59731443D01*
X151069300Y-61111443D02*
X151069300Y-59731443D01*
X151069300Y-62381443D02*
X151069300Y-85351443D01*
X151069300Y-62381443D02*
X153829300Y-62381443D01*
X151069300Y-85351443D02*
X153829300Y-85351443D01*
X153829300Y-62381443D02*
X153829300Y-85351443D01*
%TO.C,C4*%
X140595543Y-69684990D02*
X140965010Y-70054457D01*
X141634990Y-68645543D02*
X142004457Y-69015010D01*
%TO.C,C2*%
X139215000Y-76861252D02*
X139215000Y-76338748D01*
X140685000Y-76861252D02*
X140685000Y-76338748D01*
%TO.C,C6*%
X141939970Y-68261219D02*
X142138781Y-68460030D01*
X142661219Y-67539970D02*
X142860030Y-67738781D01*
%TO.C,C7*%
X144238781Y-66489970D02*
X144039970Y-66688781D01*
X144960030Y-67211219D02*
X144761219Y-67410030D01*
%TO.C,U2*%
X144346554Y-64659619D02*
X143059619Y-65946554D01*
X144311198Y-64624264D02*
X144346554Y-64659619D01*
X142140381Y-62453446D02*
X142175736Y-62488802D01*
X143059619Y-65946554D02*
X143024264Y-65911198D01*
X142232304Y-65119239D02*
X141680761Y-64567696D01*
X140888802Y-63775736D02*
X140853446Y-63740381D01*
X140853446Y-63740381D02*
X142140381Y-62453446D01*
X145096087Y-64306066D02*
X144756676Y-64645477D01*
X144693036Y-64242426D01*
X145096087Y-64306066D01*
G36*
X145096087Y-64306066D02*
G01*
X144756676Y-64645477D01*
X144693036Y-64242426D01*
X145096087Y-64306066D01*
G37*
%TD*%
M02*
