M48
; DRILL file {KiCad 9.0.7} date 2026-02-14T20:26:56-0500
; FORMAT={-:-/ absolute / metric / decimal}
; #@! TF.CreationDate,2026-02-14T20:26:56-05:00
; #@! TF.GenerationSoftware,Kicad,Pcbnew,9.0.7
; #@! TF.FileFunction,Plated,1,4,PTH
FMAT,2
METRIC
; #@! TA.AperFunction,Plated,PTH,ViaDrill
T1C0.300
; #@! TA.AperFunction,Plated,PTH,ComponentDrill
T2C1.000
%
G90
G05
T1
X139.6Y-66.4
X139.6Y-75.1
X140.8Y-65.4
X141.2Y-78.8
X142.3Y-70.4
X142.7Y-78.7
X143.5Y-76.4
X143.903Y-77.005
X144.1Y-72.5
X144.1Y-73.9
X144.8Y-73.2
X144.8Y-73.2
X144.8Y-73.2
X144.8Y-73.2
X144.8Y-73.2
X144.8Y-73.2
X144.8Y-73.2
X145.5Y-72.5
X145.5Y-73.9
X145.5Y-73.9
X147.0Y-67.0
X147.7Y-71.0
X147.9Y-77.2
T2
X137.209Y-61.111
X137.209Y-63.651
X137.209Y-66.191
X137.209Y-68.731
X137.209Y-71.271
X137.209Y-73.811
X137.209Y-76.351
X137.209Y-78.891
X137.209Y-81.431
X137.209Y-83.971
X152.449Y-61.111
X152.449Y-63.651
X152.449Y-66.191
X152.449Y-68.731
X152.449Y-71.271
X152.449Y-73.811
X152.449Y-76.351
X152.449Y-78.891
X152.449Y-81.431
X152.449Y-83.971
M30
