%TF.GenerationSoftware,KiCad,Pcbnew,10.0.0*%
%TF.CreationDate,2026-03-24T01:09:45-04:00*%
%TF.ProjectId,tad5212-board,74616435-3231-4322-9d62-6f6172642e6b,rev?*%
%TF.SameCoordinates,Original*%
%TF.FileFunction,Soldermask,Bot*%
%TF.FilePolarity,Negative*%
%FSLAX46Y46*%
G04 Gerber Fmt 4.6, Leading zero omitted, Abs format (unit mm)*
G04 Created by KiCad (PCBNEW 10.0.0) date 2026-03-24 01:09:45*
%MOMM*%
%LPD*%
G01*
G04 APERTURE LIST*
%ADD10C,0.375000*%
%ADD11R,1.700000X1.700000*%
%ADD12C,1.700000*%
G04 APERTURE END LIST*
D10*
X142696928Y-60889567D02*
X142696928Y-61746710D01*
X144196928Y-61318138D02*
X142696928Y-61318138D01*
X143768357Y-62175281D02*
X143768357Y-62889567D01*
X144196928Y-62032424D02*
X142696928Y-62532424D01*
X142696928Y-62532424D02*
X144196928Y-63032424D01*
X144196928Y-63532423D02*
X142696928Y-63532423D01*
X142696928Y-63532423D02*
X142696928Y-63889566D01*
X142696928Y-63889566D02*
X142768357Y-64103852D01*
X142768357Y-64103852D02*
X142911214Y-64246709D01*
X142911214Y-64246709D02*
X143054071Y-64318138D01*
X143054071Y-64318138D02*
X143339785Y-64389566D01*
X143339785Y-64389566D02*
X143554071Y-64389566D01*
X143554071Y-64389566D02*
X143839785Y-64318138D01*
X143839785Y-64318138D02*
X143982642Y-64246709D01*
X143982642Y-64246709D02*
X144125500Y-64103852D01*
X144125500Y-64103852D02*
X144196928Y-63889566D01*
X144196928Y-63889566D02*
X144196928Y-63532423D01*
X142696928Y-66889566D02*
X142696928Y-66175280D01*
X142696928Y-66175280D02*
X143411214Y-66103852D01*
X143411214Y-66103852D02*
X143339785Y-66175280D01*
X143339785Y-66175280D02*
X143268357Y-66318138D01*
X143268357Y-66318138D02*
X143268357Y-66675280D01*
X143268357Y-66675280D02*
X143339785Y-66818138D01*
X143339785Y-66818138D02*
X143411214Y-66889566D01*
X143411214Y-66889566D02*
X143554071Y-66960995D01*
X143554071Y-66960995D02*
X143911214Y-66960995D01*
X143911214Y-66960995D02*
X144054071Y-66889566D01*
X144054071Y-66889566D02*
X144125500Y-66818138D01*
X144125500Y-66818138D02*
X144196928Y-66675280D01*
X144196928Y-66675280D02*
X144196928Y-66318138D01*
X144196928Y-66318138D02*
X144125500Y-66175280D01*
X144125500Y-66175280D02*
X144054071Y-66103852D01*
X142839785Y-67532423D02*
X142768357Y-67603851D01*
X142768357Y-67603851D02*
X142696928Y-67746709D01*
X142696928Y-67746709D02*
X142696928Y-68103851D01*
X142696928Y-68103851D02*
X142768357Y-68246709D01*
X142768357Y-68246709D02*
X142839785Y-68318137D01*
X142839785Y-68318137D02*
X142982642Y-68389566D01*
X142982642Y-68389566D02*
X143125500Y-68389566D01*
X143125500Y-68389566D02*
X143339785Y-68318137D01*
X143339785Y-68318137D02*
X144196928Y-67460994D01*
X144196928Y-67460994D02*
X144196928Y-68389566D01*
X144196928Y-69818137D02*
X144196928Y-68960994D01*
X144196928Y-69389565D02*
X142696928Y-69389565D01*
X142696928Y-69389565D02*
X142911214Y-69246708D01*
X142911214Y-69246708D02*
X143054071Y-69103851D01*
X143054071Y-69103851D02*
X143125500Y-68960994D01*
X142839785Y-70389565D02*
X142768357Y-70460993D01*
X142768357Y-70460993D02*
X142696928Y-70603851D01*
X142696928Y-70603851D02*
X142696928Y-70960993D01*
X142696928Y-70960993D02*
X142768357Y-71103851D01*
X142768357Y-71103851D02*
X142839785Y-71175279D01*
X142839785Y-71175279D02*
X142982642Y-71246708D01*
X142982642Y-71246708D02*
X143125500Y-71246708D01*
X143125500Y-71246708D02*
X143339785Y-71175279D01*
X143339785Y-71175279D02*
X144196928Y-70318136D01*
X144196928Y-70318136D02*
X144196928Y-71246708D01*
X146396928Y-61303852D02*
X144896928Y-61303852D01*
X145611214Y-62518138D02*
X145682642Y-62732424D01*
X145682642Y-62732424D02*
X145754071Y-62803853D01*
X145754071Y-62803853D02*
X145896928Y-62875281D01*
X145896928Y-62875281D02*
X146111214Y-62875281D01*
X146111214Y-62875281D02*
X146254071Y-62803853D01*
X146254071Y-62803853D02*
X146325500Y-62732424D01*
X146325500Y-62732424D02*
X146396928Y-62589567D01*
X146396928Y-62589567D02*
X146396928Y-62018138D01*
X146396928Y-62018138D02*
X144896928Y-62018138D01*
X144896928Y-62018138D02*
X144896928Y-62518138D01*
X144896928Y-62518138D02*
X144968357Y-62660996D01*
X144968357Y-62660996D02*
X145039785Y-62732424D01*
X145039785Y-62732424D02*
X145182642Y-62803853D01*
X145182642Y-62803853D02*
X145325500Y-62803853D01*
X145325500Y-62803853D02*
X145468357Y-62732424D01*
X145468357Y-62732424D02*
X145539785Y-62660996D01*
X145539785Y-62660996D02*
X145611214Y-62518138D01*
X145611214Y-62518138D02*
X145611214Y-62018138D01*
X144896928Y-63803853D02*
X144896928Y-64089567D01*
X144896928Y-64089567D02*
X144968357Y-64232424D01*
X144968357Y-64232424D02*
X145111214Y-64375281D01*
X145111214Y-64375281D02*
X145396928Y-64446710D01*
X145396928Y-64446710D02*
X145896928Y-64446710D01*
X145896928Y-64446710D02*
X146182642Y-64375281D01*
X146182642Y-64375281D02*
X146325500Y-64232424D01*
X146325500Y-64232424D02*
X146396928Y-64089567D01*
X146396928Y-64089567D02*
X146396928Y-63803853D01*
X146396928Y-63803853D02*
X146325500Y-63660996D01*
X146325500Y-63660996D02*
X146182642Y-63518138D01*
X146182642Y-63518138D02*
X145896928Y-63446710D01*
X145896928Y-63446710D02*
X145396928Y-63446710D01*
X145396928Y-63446710D02*
X145111214Y-63518138D01*
X145111214Y-63518138D02*
X144968357Y-63660996D01*
X144968357Y-63660996D02*
X144896928Y-63803853D01*
X146396928Y-65089567D02*
X144896928Y-65089567D01*
X144896928Y-65089567D02*
X145968357Y-65589567D01*
X145968357Y-65589567D02*
X144896928Y-66089567D01*
X144896928Y-66089567D02*
X146396928Y-66089567D01*
X145611214Y-67303853D02*
X145682642Y-67518139D01*
X145682642Y-67518139D02*
X145754071Y-67589568D01*
X145754071Y-67589568D02*
X145896928Y-67660996D01*
X145896928Y-67660996D02*
X146111214Y-67660996D01*
X146111214Y-67660996D02*
X146254071Y-67589568D01*
X146254071Y-67589568D02*
X146325500Y-67518139D01*
X146325500Y-67518139D02*
X146396928Y-67375282D01*
X146396928Y-67375282D02*
X146396928Y-66803853D01*
X146396928Y-66803853D02*
X144896928Y-66803853D01*
X144896928Y-66803853D02*
X144896928Y-67303853D01*
X144896928Y-67303853D02*
X144968357Y-67446711D01*
X144968357Y-67446711D02*
X145039785Y-67518139D01*
X145039785Y-67518139D02*
X145182642Y-67589568D01*
X145182642Y-67589568D02*
X145325500Y-67589568D01*
X145325500Y-67589568D02*
X145468357Y-67518139D01*
X145468357Y-67518139D02*
X145539785Y-67446711D01*
X145539785Y-67446711D02*
X145611214Y-67303853D01*
X145611214Y-67303853D02*
X145611214Y-66803853D01*
D11*
%TO.C,J1*%
X137209300Y-61111443D03*
D12*
X137209300Y-63651443D03*
X137209300Y-66191443D03*
X137209300Y-68731443D03*
X137209300Y-71271443D03*
X137209300Y-73811443D03*
X137209300Y-76351443D03*
X137209300Y-78891443D03*
X137209300Y-81431443D03*
X137209300Y-83971443D03*
%TD*%
D11*
%TO.C,J2*%
X152449300Y-61111443D03*
D12*
X152449300Y-63651443D03*
X152449300Y-66191443D03*
X152449300Y-68731443D03*
X152449300Y-71271443D03*
X152449300Y-73811443D03*
X152449300Y-76351443D03*
X152449300Y-78891443D03*
X152449300Y-81431443D03*
X152449300Y-83971443D03*
%TD*%
M02*
