%TF.GenerationSoftware,KiCad,Pcbnew,10.0.0*%
%TF.CreationDate,2026-04-05T23:22:58-04:00*%
%TF.ProjectId,tad5212-board,74616435-3231-4322-9d62-6f6172642e6b,rev?*%
%TF.SameCoordinates,Original*%
%TF.FileFunction,Legend,Bot*%
%TF.FilePolarity,Positive*%
%FSLAX46Y46*%
G04 Gerber Fmt 4.6, Leading zero omitted, Abs format (unit mm)*
G04 Created by KiCad (PCBNEW 10.0.0) date 2026-04-05 23:22:58*
%MOMM*%
%LPD*%
G01*
G04 APERTURE LIST*
%ADD10C,0.101600*%
%ADD11C,0.152400*%
%ADD12C,0.000000*%
G04 APERTURE END LIST*
D10*
X142615320Y-65241013D02*
X142615320Y-65705470D01*
X143428120Y-65371642D02*
X142615320Y-65473242D01*
X143195892Y-65865127D02*
X143195892Y-66252175D01*
X143428120Y-65758689D02*
X142615320Y-66131222D01*
X142615320Y-66131222D02*
X143428120Y-66300556D01*
X143428120Y-66571489D02*
X142615320Y-66673089D01*
X142615320Y-66673089D02*
X142615320Y-66866613D01*
X142615320Y-66866613D02*
X142654025Y-66977889D01*
X142654025Y-66977889D02*
X142731435Y-67045623D01*
X142731435Y-67045623D02*
X142808844Y-67074651D01*
X142808844Y-67074651D02*
X142963663Y-67094004D01*
X142963663Y-67094004D02*
X143079777Y-67079489D01*
X143079777Y-67079489D02*
X143234596Y-67021432D01*
X143234596Y-67021432D02*
X143312006Y-66973051D01*
X143312006Y-66973051D02*
X143389416Y-66885965D01*
X143389416Y-66885965D02*
X143428120Y-66765013D01*
X143428120Y-66765013D02*
X143428120Y-66571489D01*
X142615320Y-67872937D02*
X142615320Y-67485889D01*
X142615320Y-67485889D02*
X143002368Y-67398804D01*
X143002368Y-67398804D02*
X142963663Y-67442346D01*
X142963663Y-67442346D02*
X142924958Y-67524594D01*
X142924958Y-67524594D02*
X142924958Y-67718118D01*
X142924958Y-67718118D02*
X142963663Y-67790689D01*
X142963663Y-67790689D02*
X143002368Y-67824556D01*
X143002368Y-67824556D02*
X143079777Y-67853584D01*
X143079777Y-67853584D02*
X143273301Y-67829394D01*
X143273301Y-67829394D02*
X143350711Y-67781013D01*
X143350711Y-67781013D02*
X143389416Y-67737470D01*
X143389416Y-67737470D02*
X143428120Y-67655223D01*
X143428120Y-67655223D02*
X143428120Y-67461699D01*
X143428120Y-67461699D02*
X143389416Y-67389127D01*
X143389416Y-67389127D02*
X143350711Y-67355261D01*
X142692730Y-68211603D02*
X142654025Y-68255146D01*
X142654025Y-68255146D02*
X142615320Y-68337394D01*
X142615320Y-68337394D02*
X142615320Y-68530918D01*
X142615320Y-68530918D02*
X142654025Y-68603489D01*
X142654025Y-68603489D02*
X142692730Y-68637356D01*
X142692730Y-68637356D02*
X142770139Y-68666384D01*
X142770139Y-68666384D02*
X142847549Y-68656708D01*
X142847549Y-68656708D02*
X142963663Y-68603489D01*
X142963663Y-68603489D02*
X143428120Y-68080975D01*
X143428120Y-68080975D02*
X143428120Y-68584137D01*
X143428120Y-69358232D02*
X143428120Y-68893774D01*
X143428120Y-69126003D02*
X142615320Y-69227603D01*
X142615320Y-69227603D02*
X142731435Y-69135679D01*
X142731435Y-69135679D02*
X142808844Y-69048594D01*
X142808844Y-69048594D02*
X142847549Y-68966346D01*
X142692730Y-69759793D02*
X142654025Y-69803336D01*
X142654025Y-69803336D02*
X142615320Y-69885584D01*
X142615320Y-69885584D02*
X142615320Y-70079108D01*
X142615320Y-70079108D02*
X142654025Y-70151679D01*
X142654025Y-70151679D02*
X142692730Y-70185546D01*
X142692730Y-70185546D02*
X142770139Y-70214574D01*
X142770139Y-70214574D02*
X142847549Y-70204898D01*
X142847549Y-70204898D02*
X142963663Y-70151679D01*
X142963663Y-70151679D02*
X143428120Y-69629165D01*
X143428120Y-69629165D02*
X143428120Y-70132327D01*
X142886254Y-71090269D02*
X143428120Y-71216060D01*
X143428120Y-71216060D02*
X142886254Y-71477317D01*
X142886254Y-72135297D02*
X143428120Y-72067564D01*
X142576616Y-71980478D02*
X143157187Y-71714383D01*
X143157187Y-71714383D02*
X143157187Y-72217545D01*
X145046320Y-65449051D02*
X145007616Y-65415184D01*
X145007616Y-65415184D02*
X144891501Y-65352289D01*
X144891501Y-65352289D02*
X144814092Y-65323261D01*
X144814092Y-65323261D02*
X144697978Y-65299070D01*
X144697978Y-65299070D02*
X144504454Y-65284556D01*
X144504454Y-65284556D02*
X144349635Y-65303908D01*
X144349635Y-65303908D02*
X144156111Y-65366803D01*
X144156111Y-65366803D02*
X144039997Y-65420022D01*
X144039997Y-65420022D02*
X143962587Y-65468403D01*
X143962587Y-65468403D02*
X143846473Y-65560327D01*
X143846473Y-65560327D02*
X143807768Y-65603870D01*
X144194816Y-65787718D02*
X144736682Y-65874804D01*
X144736682Y-65874804D02*
X144349635Y-66078004D01*
X144349635Y-66078004D02*
X144736682Y-66184442D01*
X144736682Y-66184442D02*
X144194816Y-66406994D01*
X143885178Y-67335909D02*
X144930206Y-66508594D01*
X144697978Y-68434156D02*
X144736682Y-68351909D01*
X144736682Y-68351909D02*
X144736682Y-68197090D01*
X144736682Y-68197090D02*
X144697978Y-68124518D01*
X144697978Y-68124518D02*
X144620568Y-68095490D01*
X144620568Y-68095490D02*
X144310930Y-68134195D01*
X144310930Y-68134195D02*
X144233520Y-68182575D01*
X144233520Y-68182575D02*
X144194816Y-68264823D01*
X144194816Y-68264823D02*
X144194816Y-68419642D01*
X144194816Y-68419642D02*
X144233520Y-68492214D01*
X144233520Y-68492214D02*
X144310930Y-68521242D01*
X144310930Y-68521242D02*
X144388339Y-68511566D01*
X144388339Y-68511566D02*
X144465749Y-68114842D01*
X144736682Y-68738957D02*
X144194816Y-69232442D01*
X144194816Y-68806690D02*
X144736682Y-69164709D01*
X144194816Y-69425966D02*
X144194816Y-69735604D01*
X143923882Y-69575947D02*
X144620568Y-69488862D01*
X144620568Y-69488862D02*
X144697978Y-69517890D01*
X144697978Y-69517890D02*
X144736682Y-69590462D01*
X144736682Y-69590462D02*
X144736682Y-69667871D01*
X144697978Y-70253280D02*
X144736682Y-70171033D01*
X144736682Y-70171033D02*
X144736682Y-70016214D01*
X144736682Y-70016214D02*
X144697978Y-69943642D01*
X144697978Y-69943642D02*
X144620568Y-69914614D01*
X144620568Y-69914614D02*
X144310930Y-69953319D01*
X144310930Y-69953319D02*
X144233520Y-70001699D01*
X144233520Y-70001699D02*
X144194816Y-70083947D01*
X144194816Y-70083947D02*
X144194816Y-70238766D01*
X144194816Y-70238766D02*
X144233520Y-70311338D01*
X144233520Y-70311338D02*
X144310930Y-70340366D01*
X144310930Y-70340366D02*
X144388339Y-70330690D01*
X144388339Y-70330690D02*
X144465749Y-69933966D01*
X144736682Y-70635490D02*
X144194816Y-70703224D01*
X144349635Y-70683871D02*
X144272225Y-70732252D01*
X144272225Y-70732252D02*
X144233520Y-70775795D01*
X144233520Y-70775795D02*
X144194816Y-70858043D01*
X144194816Y-70858043D02*
X144194816Y-70935452D01*
X144194816Y-71206386D02*
X144736682Y-71138652D01*
X144272225Y-71196709D02*
X144233520Y-71240252D01*
X144233520Y-71240252D02*
X144194816Y-71322500D01*
X144194816Y-71322500D02*
X144194816Y-71438614D01*
X144194816Y-71438614D02*
X144233520Y-71511186D01*
X144233520Y-71511186D02*
X144310930Y-71540214D01*
X144310930Y-71540214D02*
X144736682Y-71486995D01*
X144736682Y-72222385D02*
X144310930Y-72275604D01*
X144310930Y-72275604D02*
X144233520Y-72246576D01*
X144233520Y-72246576D02*
X144194816Y-72174004D01*
X144194816Y-72174004D02*
X144194816Y-72019185D01*
X144194816Y-72019185D02*
X144233520Y-71936937D01*
X144697978Y-72227223D02*
X144736682Y-72144976D01*
X144736682Y-72144976D02*
X144736682Y-71951452D01*
X144736682Y-71951452D02*
X144697978Y-71878880D01*
X144697978Y-71878880D02*
X144620568Y-71849852D01*
X144620568Y-71849852D02*
X144543158Y-71859528D01*
X144543158Y-71859528D02*
X144465749Y-71907909D01*
X144465749Y-71907909D02*
X144427044Y-71990157D01*
X144427044Y-71990157D02*
X144427044Y-72183680D01*
X144427044Y-72183680D02*
X144388339Y-72265928D01*
X144736682Y-72725547D02*
X144697978Y-72652975D01*
X144697978Y-72652975D02*
X144620568Y-72623947D01*
X144620568Y-72623947D02*
X143923882Y-72711032D01*
X144736682Y-73770575D02*
X144697978Y-73698003D01*
X144697978Y-73698003D02*
X144659273Y-73664136D01*
X144659273Y-73664136D02*
X144581863Y-73635108D01*
X144581863Y-73635108D02*
X144349635Y-73664136D01*
X144349635Y-73664136D02*
X144272225Y-73712517D01*
X144272225Y-73712517D02*
X144233520Y-73756060D01*
X144233520Y-73756060D02*
X144194816Y-73838308D01*
X144194816Y-73838308D02*
X144194816Y-73954422D01*
X144194816Y-73954422D02*
X144233520Y-74026994D01*
X144233520Y-74026994D02*
X144272225Y-74060860D01*
X144272225Y-74060860D02*
X144349635Y-74089889D01*
X144349635Y-74089889D02*
X144581863Y-74060860D01*
X144581863Y-74060860D02*
X144659273Y-74012479D01*
X144659273Y-74012479D02*
X144697978Y-73968936D01*
X144697978Y-73968936D02*
X144736682Y-73886689D01*
X144736682Y-73886689D02*
X144736682Y-73770575D01*
X144697978Y-74355984D02*
X144736682Y-74428555D01*
X144736682Y-74428555D02*
X144736682Y-74583374D01*
X144736682Y-74583374D02*
X144697978Y-74665622D01*
X144697978Y-74665622D02*
X144620568Y-74714003D01*
X144620568Y-74714003D02*
X144581863Y-74718841D01*
X144581863Y-74718841D02*
X144504454Y-74689812D01*
X144504454Y-74689812D02*
X144465749Y-74617241D01*
X144465749Y-74617241D02*
X144465749Y-74501126D01*
X144465749Y-74501126D02*
X144427044Y-74428555D01*
X144427044Y-74428555D02*
X144349635Y-74399526D01*
X144349635Y-74399526D02*
X144310930Y-74404365D01*
X144310930Y-74404365D02*
X144233520Y-74452745D01*
X144233520Y-74452745D02*
X144194816Y-74534993D01*
X144194816Y-74534993D02*
X144194816Y-74651107D01*
X144194816Y-74651107D02*
X144233520Y-74723679D01*
X144697978Y-75401012D02*
X144736682Y-75318765D01*
X144736682Y-75318765D02*
X144736682Y-75163946D01*
X144736682Y-75163946D02*
X144697978Y-75091374D01*
X144697978Y-75091374D02*
X144659273Y-75057507D01*
X144659273Y-75057507D02*
X144581863Y-75028479D01*
X144581863Y-75028479D02*
X144349635Y-75057507D01*
X144349635Y-75057507D02*
X144272225Y-75105888D01*
X144272225Y-75105888D02*
X144233520Y-75149431D01*
X144233520Y-75149431D02*
X144194816Y-75231679D01*
X144194816Y-75231679D02*
X144194816Y-75386498D01*
X144194816Y-75386498D02*
X144233520Y-75459069D01*
X144736682Y-75744517D02*
X144194816Y-75812251D01*
X143923882Y-75846117D02*
X143962587Y-75802574D01*
X143962587Y-75802574D02*
X144001292Y-75836441D01*
X144001292Y-75836441D02*
X143962587Y-75879984D01*
X143962587Y-75879984D02*
X143923882Y-75846117D01*
X143923882Y-75846117D02*
X144001292Y-75836441D01*
X144736682Y-76247680D02*
X144697978Y-76175108D01*
X144697978Y-76175108D02*
X144620568Y-76146080D01*
X144620568Y-76146080D02*
X143923882Y-76233165D01*
X144736682Y-76673432D02*
X144697978Y-76600860D01*
X144697978Y-76600860D02*
X144620568Y-76571832D01*
X144620568Y-76571832D02*
X143923882Y-76658917D01*
X144736682Y-77331412D02*
X144310930Y-77384631D01*
X144310930Y-77384631D02*
X144233520Y-77355603D01*
X144233520Y-77355603D02*
X144194816Y-77283031D01*
X144194816Y-77283031D02*
X144194816Y-77128212D01*
X144194816Y-77128212D02*
X144233520Y-77045964D01*
X144697978Y-77336250D02*
X144736682Y-77254003D01*
X144736682Y-77254003D02*
X144736682Y-77060479D01*
X144736682Y-77060479D02*
X144697978Y-76987907D01*
X144697978Y-76987907D02*
X144620568Y-76958879D01*
X144620568Y-76958879D02*
X144543158Y-76968555D01*
X144543158Y-76968555D02*
X144465749Y-77016936D01*
X144465749Y-77016936D02*
X144427044Y-77099184D01*
X144427044Y-77099184D02*
X144427044Y-77292707D01*
X144427044Y-77292707D02*
X144388339Y-77374955D01*
X144194816Y-77670078D02*
X144194816Y-77979716D01*
X143923882Y-77820059D02*
X144620568Y-77732974D01*
X144620568Y-77732974D02*
X144697978Y-77762002D01*
X144697978Y-77762002D02*
X144736682Y-77834574D01*
X144736682Y-77834574D02*
X144736682Y-77911983D01*
X144736682Y-78299031D02*
X144697978Y-78226459D01*
X144697978Y-78226459D02*
X144659273Y-78192592D01*
X144659273Y-78192592D02*
X144581863Y-78163564D01*
X144581863Y-78163564D02*
X144349635Y-78192592D01*
X144349635Y-78192592D02*
X144272225Y-78240973D01*
X144272225Y-78240973D02*
X144233520Y-78284516D01*
X144233520Y-78284516D02*
X144194816Y-78366764D01*
X144194816Y-78366764D02*
X144194816Y-78482878D01*
X144194816Y-78482878D02*
X144233520Y-78555450D01*
X144233520Y-78555450D02*
X144272225Y-78589316D01*
X144272225Y-78589316D02*
X144349635Y-78618345D01*
X144349635Y-78618345D02*
X144581863Y-78589316D01*
X144581863Y-78589316D02*
X144659273Y-78540935D01*
X144659273Y-78540935D02*
X144697978Y-78497392D01*
X144697978Y-78497392D02*
X144736682Y-78415145D01*
X144736682Y-78415145D02*
X144736682Y-78299031D01*
X144736682Y-78918306D02*
X144194816Y-78986040D01*
X144349635Y-78966687D02*
X144272225Y-79015068D01*
X144272225Y-79015068D02*
X144233520Y-79058611D01*
X144233520Y-79058611D02*
X144194816Y-79140859D01*
X144194816Y-79140859D02*
X144194816Y-79218268D01*
X144697978Y-79387602D02*
X144736682Y-79460173D01*
X144736682Y-79460173D02*
X144736682Y-79614992D01*
X144736682Y-79614992D02*
X144697978Y-79697240D01*
X144697978Y-79697240D02*
X144620568Y-79745621D01*
X144620568Y-79745621D02*
X144581863Y-79750459D01*
X144581863Y-79750459D02*
X144504454Y-79721430D01*
X144504454Y-79721430D02*
X144465749Y-79648859D01*
X144465749Y-79648859D02*
X144465749Y-79532744D01*
X144465749Y-79532744D02*
X144427044Y-79460173D01*
X144427044Y-79460173D02*
X144349635Y-79431144D01*
X144349635Y-79431144D02*
X144310930Y-79435983D01*
X144310930Y-79435983D02*
X144233520Y-79484363D01*
X144233520Y-79484363D02*
X144194816Y-79566611D01*
X144194816Y-79566611D02*
X144194816Y-79682725D01*
X144194816Y-79682725D02*
X144233520Y-79755297D01*
X145046320Y-79963335D02*
X145007616Y-80006878D01*
X145007616Y-80006878D02*
X144891501Y-80098802D01*
X144891501Y-80098802D02*
X144814092Y-80147183D01*
X144814092Y-80147183D02*
X144697978Y-80200402D01*
X144697978Y-80200402D02*
X144504454Y-80263297D01*
X144504454Y-80263297D02*
X144349635Y-80282649D01*
X144349635Y-80282649D02*
X144156111Y-80268135D01*
X144156111Y-80268135D02*
X144039997Y-80243944D01*
X144039997Y-80243944D02*
X143962587Y-80214916D01*
X143962587Y-80214916D02*
X143846473Y-80152021D01*
X143846473Y-80152021D02*
X143807768Y-80118154D01*
X145619492Y-65579680D02*
X145658197Y-65690956D01*
X145658197Y-65690956D02*
X145696901Y-65724822D01*
X145696901Y-65724822D02*
X145774311Y-65753851D01*
X145774311Y-65753851D02*
X145890425Y-65739337D01*
X145890425Y-65739337D02*
X145967835Y-65690956D01*
X145967835Y-65690956D02*
X146006540Y-65647413D01*
X146006540Y-65647413D02*
X146045244Y-65565165D01*
X146045244Y-65565165D02*
X146045244Y-65255527D01*
X146045244Y-65255527D02*
X145232444Y-65357127D01*
X145232444Y-65357127D02*
X145232444Y-65628061D01*
X145232444Y-65628061D02*
X145271149Y-65700632D01*
X145271149Y-65700632D02*
X145309854Y-65734499D01*
X145309854Y-65734499D02*
X145387263Y-65763527D01*
X145387263Y-65763527D02*
X145464673Y-65753851D01*
X145464673Y-65753851D02*
X145542082Y-65705470D01*
X145542082Y-65705470D02*
X145580787Y-65661927D01*
X145580787Y-65661927D02*
X145619492Y-65579680D01*
X145619492Y-65579680D02*
X145619492Y-65308746D01*
X145503378Y-66058651D02*
X146045244Y-66184442D01*
X145503378Y-66445699D02*
X146045244Y-66184442D01*
X146045244Y-66184442D02*
X146238768Y-66082842D01*
X146238768Y-66082842D02*
X146277473Y-66039299D01*
X146277473Y-66039299D02*
X146316178Y-65957051D01*
X146045244Y-67306879D02*
X145232444Y-67408479D01*
X146006540Y-67660061D02*
X146045244Y-67732632D01*
X146045244Y-67732632D02*
X146045244Y-67887451D01*
X146045244Y-67887451D02*
X146006540Y-67969699D01*
X146006540Y-67969699D02*
X145929130Y-68018080D01*
X145929130Y-68018080D02*
X145890425Y-68022918D01*
X145890425Y-68022918D02*
X145813016Y-67993889D01*
X145813016Y-67993889D02*
X145774311Y-67921318D01*
X145774311Y-67921318D02*
X145774311Y-67805203D01*
X145774311Y-67805203D02*
X145735606Y-67732632D01*
X145735606Y-67732632D02*
X145658197Y-67703603D01*
X145658197Y-67703603D02*
X145619492Y-67708442D01*
X145619492Y-67708442D02*
X145542082Y-67756822D01*
X145542082Y-67756822D02*
X145503378Y-67839070D01*
X145503378Y-67839070D02*
X145503378Y-67955184D01*
X145503378Y-67955184D02*
X145542082Y-68027756D01*
X146045244Y-68700251D02*
X145619492Y-68753470D01*
X145619492Y-68753470D02*
X145542082Y-68724442D01*
X145542082Y-68724442D02*
X145503378Y-68651870D01*
X145503378Y-68651870D02*
X145503378Y-68497051D01*
X145503378Y-68497051D02*
X145542082Y-68414803D01*
X146006540Y-68705089D02*
X146045244Y-68622842D01*
X146045244Y-68622842D02*
X146045244Y-68429318D01*
X146045244Y-68429318D02*
X146006540Y-68356746D01*
X146006540Y-68356746D02*
X145929130Y-68327718D01*
X145929130Y-68327718D02*
X145851720Y-68337394D01*
X145851720Y-68337394D02*
X145774311Y-68385775D01*
X145774311Y-68385775D02*
X145735606Y-68468023D01*
X145735606Y-68468023D02*
X145735606Y-68661546D01*
X145735606Y-68661546D02*
X145696901Y-68743794D01*
X146045244Y-69087298D02*
X145503378Y-69155032D01*
X145232444Y-69188898D02*
X145271149Y-69145355D01*
X145271149Y-69145355D02*
X145309854Y-69179222D01*
X145309854Y-69179222D02*
X145271149Y-69222765D01*
X145271149Y-69222765D02*
X145232444Y-69188898D01*
X145232444Y-69188898D02*
X145309854Y-69179222D01*
X146045244Y-69822689D02*
X145619492Y-69875908D01*
X145619492Y-69875908D02*
X145542082Y-69846880D01*
X145542082Y-69846880D02*
X145503378Y-69774308D01*
X145503378Y-69774308D02*
X145503378Y-69619489D01*
X145503378Y-69619489D02*
X145542082Y-69537241D01*
X146006540Y-69827527D02*
X146045244Y-69745280D01*
X146045244Y-69745280D02*
X146045244Y-69551756D01*
X146045244Y-69551756D02*
X146006540Y-69479184D01*
X146006540Y-69479184D02*
X145929130Y-69450156D01*
X145929130Y-69450156D02*
X145851720Y-69459832D01*
X145851720Y-69459832D02*
X145774311Y-69508213D01*
X145774311Y-69508213D02*
X145735606Y-69590461D01*
X145735606Y-69590461D02*
X145735606Y-69783984D01*
X145735606Y-69783984D02*
X145696901Y-69866232D01*
X146045244Y-70209736D02*
X145232444Y-70311336D01*
X146045244Y-70558079D02*
X145619492Y-70611298D01*
X145619492Y-70611298D02*
X145542082Y-70582270D01*
X145542082Y-70582270D02*
X145503378Y-70509698D01*
X145503378Y-70509698D02*
X145503378Y-70393584D01*
X145503378Y-70393584D02*
X145542082Y-70311336D01*
X145542082Y-70311336D02*
X145580787Y-70267793D01*
X145271149Y-72086917D02*
X145232444Y-72014345D01*
X145232444Y-72014345D02*
X145232444Y-71898231D01*
X145232444Y-71898231D02*
X145271149Y-71777278D01*
X145271149Y-71777278D02*
X145348559Y-71690193D01*
X145348559Y-71690193D02*
X145425968Y-71641812D01*
X145425968Y-71641812D02*
X145580787Y-71583755D01*
X145580787Y-71583755D02*
X145696901Y-71569240D01*
X145696901Y-71569240D02*
X145851720Y-71588593D01*
X145851720Y-71588593D02*
X145929130Y-71617621D01*
X145929130Y-71617621D02*
X146006540Y-71685355D01*
X146006540Y-71685355D02*
X146045244Y-71796631D01*
X146045244Y-71796631D02*
X146045244Y-71874040D01*
X146045244Y-71874040D02*
X146006540Y-71994993D01*
X146006540Y-71994993D02*
X145967835Y-72038536D01*
X145967835Y-72038536D02*
X145696901Y-72072402D01*
X145696901Y-72072402D02*
X145696901Y-71917583D01*
X146045244Y-72725545D02*
X145619492Y-72778764D01*
X145619492Y-72778764D02*
X145542082Y-72749736D01*
X145542082Y-72749736D02*
X145503378Y-72677164D01*
X145503378Y-72677164D02*
X145503378Y-72522345D01*
X145503378Y-72522345D02*
X145542082Y-72440097D01*
X146006540Y-72730383D02*
X146045244Y-72648136D01*
X146045244Y-72648136D02*
X146045244Y-72454612D01*
X146045244Y-72454612D02*
X146006540Y-72382040D01*
X146006540Y-72382040D02*
X145929130Y-72353012D01*
X145929130Y-72353012D02*
X145851720Y-72362688D01*
X145851720Y-72362688D02*
X145774311Y-72411069D01*
X145774311Y-72411069D02*
X145735606Y-72493317D01*
X145735606Y-72493317D02*
X145735606Y-72686840D01*
X145735606Y-72686840D02*
X145696901Y-72769088D01*
X146045244Y-73112592D02*
X145503378Y-73180326D01*
X145580787Y-73170649D02*
X145542082Y-73214192D01*
X145542082Y-73214192D02*
X145503378Y-73296440D01*
X145503378Y-73296440D02*
X145503378Y-73412554D01*
X145503378Y-73412554D02*
X145542082Y-73485126D01*
X145542082Y-73485126D02*
X145619492Y-73514154D01*
X145619492Y-73514154D02*
X146045244Y-73460935D01*
X145619492Y-73514154D02*
X145542082Y-73562535D01*
X145542082Y-73562535D02*
X145503378Y-73644783D01*
X145503378Y-73644783D02*
X145503378Y-73760897D01*
X145503378Y-73760897D02*
X145542082Y-73833468D01*
X145542082Y-73833468D02*
X145619492Y-73862497D01*
X145619492Y-73862497D02*
X146045244Y-73809278D01*
X146045244Y-74196325D02*
X145232444Y-74297925D01*
X145542082Y-74259220D02*
X145503378Y-74341468D01*
X145503378Y-74341468D02*
X145503378Y-74496287D01*
X145503378Y-74496287D02*
X145542082Y-74568859D01*
X145542082Y-74568859D02*
X145580787Y-74602725D01*
X145580787Y-74602725D02*
X145658197Y-74631754D01*
X145658197Y-74631754D02*
X145890425Y-74602725D01*
X145890425Y-74602725D02*
X145967835Y-74554344D01*
X145967835Y-74554344D02*
X146006540Y-74510801D01*
X146006540Y-74510801D02*
X146045244Y-74428554D01*
X146045244Y-74428554D02*
X146045244Y-74273735D01*
X146045244Y-74273735D02*
X146006540Y-74201163D01*
X146045244Y-75047830D02*
X146006540Y-74975258D01*
X146006540Y-74975258D02*
X145929130Y-74946230D01*
X145929130Y-74946230D02*
X145232444Y-75033315D01*
X146006540Y-75671943D02*
X146045244Y-75589696D01*
X146045244Y-75589696D02*
X146045244Y-75434877D01*
X146045244Y-75434877D02*
X146006540Y-75362305D01*
X146006540Y-75362305D02*
X145929130Y-75333277D01*
X145929130Y-75333277D02*
X145619492Y-75371982D01*
X145619492Y-75371982D02*
X145542082Y-75420362D01*
X145542082Y-75420362D02*
X145503378Y-75502610D01*
X145503378Y-75502610D02*
X145503378Y-75657429D01*
X145503378Y-75657429D02*
X145542082Y-75730001D01*
X145542082Y-75730001D02*
X145619492Y-75759029D01*
X145619492Y-75759029D02*
X145696901Y-75749353D01*
X145696901Y-75749353D02*
X145774311Y-75352629D01*
D11*
X139857870Y-74092603D02*
X139857870Y-73279803D01*
X139857870Y-74053899D02*
X139935279Y-74092603D01*
X139935279Y-74092603D02*
X140090098Y-74092603D01*
X140090098Y-74092603D02*
X140167508Y-74053899D01*
X140167508Y-74053899D02*
X140206213Y-74015194D01*
X140206213Y-74015194D02*
X140244917Y-73937784D01*
X140244917Y-73937784D02*
X140244917Y-73705556D01*
X140244917Y-73705556D02*
X140206213Y-73628146D01*
X140206213Y-73628146D02*
X140167508Y-73589441D01*
X140167508Y-73589441D02*
X140090098Y-73550737D01*
X140090098Y-73550737D02*
X139935279Y-73550737D01*
X139935279Y-73550737D02*
X139857870Y-73589441D01*
X139470823Y-74092603D02*
X139470823Y-73550737D01*
X139470823Y-73279803D02*
X139509527Y-73318508D01*
X139509527Y-73318508D02*
X139470823Y-73357213D01*
X139470823Y-73357213D02*
X139432118Y-73318508D01*
X139432118Y-73318508D02*
X139470823Y-73279803D01*
X139470823Y-73279803D02*
X139470823Y-73357213D01*
X139083775Y-73550737D02*
X139083775Y-74092603D01*
X139083775Y-73628146D02*
X139045070Y-73589441D01*
X139045070Y-73589441D02*
X138967660Y-73550737D01*
X138967660Y-73550737D02*
X138851546Y-73550737D01*
X138851546Y-73550737D02*
X138774137Y-73589441D01*
X138774137Y-73589441D02*
X138735432Y-73666851D01*
X138735432Y-73666851D02*
X138735432Y-74092603D01*
X140244917Y-79053899D02*
X140167508Y-79092603D01*
X140167508Y-79092603D02*
X140012689Y-79092603D01*
X140012689Y-79092603D02*
X139935279Y-79053899D01*
X139935279Y-79053899D02*
X139896575Y-78976489D01*
X139896575Y-78976489D02*
X139896575Y-78937784D01*
X139896575Y-78937784D02*
X139935279Y-78860375D01*
X139935279Y-78860375D02*
X140012689Y-78821670D01*
X140012689Y-78821670D02*
X140128803Y-78821670D01*
X140128803Y-78821670D02*
X140206213Y-78782965D01*
X140206213Y-78782965D02*
X140244917Y-78705556D01*
X140244917Y-78705556D02*
X140244917Y-78666851D01*
X140244917Y-78666851D02*
X140206213Y-78589441D01*
X140206213Y-78589441D02*
X140128803Y-78550737D01*
X140128803Y-78550737D02*
X140012689Y-78550737D01*
X140012689Y-78550737D02*
X139935279Y-78589441D01*
X139199889Y-79053899D02*
X139277298Y-79092603D01*
X139277298Y-79092603D02*
X139432117Y-79092603D01*
X139432117Y-79092603D02*
X139509527Y-79053899D01*
X139509527Y-79053899D02*
X139548232Y-79015194D01*
X139548232Y-79015194D02*
X139586936Y-78937784D01*
X139586936Y-78937784D02*
X139586936Y-78705556D01*
X139586936Y-78705556D02*
X139548232Y-78628146D01*
X139548232Y-78628146D02*
X139509527Y-78589441D01*
X139509527Y-78589441D02*
X139432117Y-78550737D01*
X139432117Y-78550737D02*
X139277298Y-78550737D01*
X139277298Y-78550737D02*
X139199889Y-78589441D01*
X138735431Y-79092603D02*
X138812841Y-79053899D01*
X138812841Y-79053899D02*
X138851546Y-78976489D01*
X138851546Y-78976489D02*
X138851546Y-78279803D01*
X140544917Y-76553899D02*
X140467508Y-76592603D01*
X140467508Y-76592603D02*
X140312689Y-76592603D01*
X140312689Y-76592603D02*
X140235279Y-76553899D01*
X140235279Y-76553899D02*
X140196575Y-76476489D01*
X140196575Y-76476489D02*
X140196575Y-76437784D01*
X140196575Y-76437784D02*
X140235279Y-76360375D01*
X140235279Y-76360375D02*
X140312689Y-76321670D01*
X140312689Y-76321670D02*
X140428803Y-76321670D01*
X140428803Y-76321670D02*
X140506213Y-76282965D01*
X140506213Y-76282965D02*
X140544917Y-76205556D01*
X140544917Y-76205556D02*
X140544917Y-76166851D01*
X140544917Y-76166851D02*
X140506213Y-76089441D01*
X140506213Y-76089441D02*
X140428803Y-76050737D01*
X140428803Y-76050737D02*
X140312689Y-76050737D01*
X140312689Y-76050737D02*
X140235279Y-76089441D01*
X139499889Y-76592603D02*
X139499889Y-75779803D01*
X139499889Y-76553899D02*
X139577298Y-76592603D01*
X139577298Y-76592603D02*
X139732117Y-76592603D01*
X139732117Y-76592603D02*
X139809527Y-76553899D01*
X139809527Y-76553899D02*
X139848232Y-76515194D01*
X139848232Y-76515194D02*
X139886936Y-76437784D01*
X139886936Y-76437784D02*
X139886936Y-76205556D01*
X139886936Y-76205556D02*
X139848232Y-76128146D01*
X139848232Y-76128146D02*
X139809527Y-76089441D01*
X139809527Y-76089441D02*
X139732117Y-76050737D01*
X139732117Y-76050737D02*
X139577298Y-76050737D01*
X139577298Y-76050737D02*
X139499889Y-76089441D01*
X138764499Y-76592603D02*
X138764499Y-76166851D01*
X138764499Y-76166851D02*
X138803204Y-76089441D01*
X138803204Y-76089441D02*
X138880613Y-76050737D01*
X138880613Y-76050737D02*
X139035432Y-76050737D01*
X139035432Y-76050737D02*
X139112842Y-76089441D01*
X138764499Y-76553899D02*
X138841908Y-76592603D01*
X138841908Y-76592603D02*
X139035432Y-76592603D01*
X139035432Y-76592603D02*
X139112842Y-76553899D01*
X139112842Y-76553899D02*
X139151546Y-76476489D01*
X139151546Y-76476489D02*
X139151546Y-76399079D01*
X139151546Y-76399079D02*
X139112842Y-76321670D01*
X139112842Y-76321670D02*
X139035432Y-76282965D01*
X139035432Y-76282965D02*
X138841908Y-76282965D01*
X138841908Y-76282965D02*
X138764499Y-76244260D01*
X140457870Y-63450737D02*
X140457870Y-64108718D01*
X140457870Y-64108718D02*
X140496575Y-64186127D01*
X140496575Y-64186127D02*
X140535279Y-64224832D01*
X140535279Y-64224832D02*
X140612689Y-64263537D01*
X140612689Y-64263537D02*
X140728803Y-64263537D01*
X140728803Y-64263537D02*
X140806213Y-64224832D01*
X140457870Y-63953899D02*
X140535279Y-63992603D01*
X140535279Y-63992603D02*
X140690098Y-63992603D01*
X140690098Y-63992603D02*
X140767508Y-63953899D01*
X140767508Y-63953899D02*
X140806213Y-63915194D01*
X140806213Y-63915194D02*
X140844917Y-63837784D01*
X140844917Y-63837784D02*
X140844917Y-63605556D01*
X140844917Y-63605556D02*
X140806213Y-63528146D01*
X140806213Y-63528146D02*
X140767508Y-63489441D01*
X140767508Y-63489441D02*
X140690098Y-63450737D01*
X140690098Y-63450737D02*
X140535279Y-63450737D01*
X140535279Y-63450737D02*
X140457870Y-63489441D01*
X140070823Y-63450737D02*
X140070823Y-63992603D01*
X140070823Y-63528146D02*
X140032118Y-63489441D01*
X140032118Y-63489441D02*
X139954708Y-63450737D01*
X139954708Y-63450737D02*
X139838594Y-63450737D01*
X139838594Y-63450737D02*
X139761185Y-63489441D01*
X139761185Y-63489441D02*
X139722480Y-63566851D01*
X139722480Y-63566851D02*
X139722480Y-63992603D01*
X138987090Y-63992603D02*
X138987090Y-63179803D01*
X138987090Y-63953899D02*
X139064499Y-63992603D01*
X139064499Y-63992603D02*
X139219318Y-63992603D01*
X139219318Y-63992603D02*
X139296728Y-63953899D01*
X139296728Y-63953899D02*
X139335433Y-63915194D01*
X139335433Y-63915194D02*
X139374137Y-63837784D01*
X139374137Y-63837784D02*
X139374137Y-63605556D01*
X139374137Y-63605556D02*
X139335433Y-63528146D01*
X139335433Y-63528146D02*
X139296728Y-63489441D01*
X139296728Y-63489441D02*
X139219318Y-63450737D01*
X139219318Y-63450737D02*
X139064499Y-63450737D01*
X139064499Y-63450737D02*
X138987090Y-63489441D01*
X140906213Y-66392603D02*
X140906213Y-65579803D01*
X140906213Y-65889441D02*
X140828803Y-65850737D01*
X140828803Y-65850737D02*
X140673984Y-65850737D01*
X140673984Y-65850737D02*
X140596575Y-65889441D01*
X140596575Y-65889441D02*
X140557870Y-65928146D01*
X140557870Y-65928146D02*
X140519165Y-66005556D01*
X140519165Y-66005556D02*
X140519165Y-66237784D01*
X140519165Y-66237784D02*
X140557870Y-66315194D01*
X140557870Y-66315194D02*
X140596575Y-66353899D01*
X140596575Y-66353899D02*
X140673984Y-66392603D01*
X140673984Y-66392603D02*
X140828803Y-66392603D01*
X140828803Y-66392603D02*
X140906213Y-66353899D01*
X139822480Y-66353899D02*
X139899889Y-66392603D01*
X139899889Y-66392603D02*
X140054708Y-66392603D01*
X140054708Y-66392603D02*
X140132118Y-66353899D01*
X140132118Y-66353899D02*
X140170823Y-66315194D01*
X140170823Y-66315194D02*
X140209527Y-66237784D01*
X140209527Y-66237784D02*
X140209527Y-66005556D01*
X140209527Y-66005556D02*
X140170823Y-65928146D01*
X140170823Y-65928146D02*
X140132118Y-65889441D01*
X140132118Y-65889441D02*
X140054708Y-65850737D01*
X140054708Y-65850737D02*
X139899889Y-65850737D01*
X139899889Y-65850737D02*
X139822480Y-65889441D01*
X139358022Y-66392603D02*
X139435432Y-66353899D01*
X139435432Y-66353899D02*
X139474137Y-66276489D01*
X139474137Y-66276489D02*
X139474137Y-65579803D01*
X139048385Y-66392603D02*
X139048385Y-65579803D01*
X138970975Y-66082965D02*
X138738747Y-66392603D01*
X138738747Y-65850737D02*
X139048385Y-66160375D01*
X141083622Y-60579803D02*
X140580460Y-60579803D01*
X140580460Y-60579803D02*
X140851394Y-60889441D01*
X140851394Y-60889441D02*
X140735279Y-60889441D01*
X140735279Y-60889441D02*
X140657870Y-60928146D01*
X140657870Y-60928146D02*
X140619165Y-60966851D01*
X140619165Y-60966851D02*
X140580460Y-61044260D01*
X140580460Y-61044260D02*
X140580460Y-61237784D01*
X140580460Y-61237784D02*
X140619165Y-61315194D01*
X140619165Y-61315194D02*
X140657870Y-61353899D01*
X140657870Y-61353899D02*
X140735279Y-61392603D01*
X140735279Y-61392603D02*
X140967508Y-61392603D01*
X140967508Y-61392603D02*
X141044917Y-61353899D01*
X141044917Y-61353899D02*
X141083622Y-61315194D01*
X140232118Y-61315194D02*
X140193413Y-61353899D01*
X140193413Y-61353899D02*
X140232118Y-61392603D01*
X140232118Y-61392603D02*
X140270822Y-61353899D01*
X140270822Y-61353899D02*
X140232118Y-61315194D01*
X140232118Y-61315194D02*
X140232118Y-61392603D01*
X139922479Y-60579803D02*
X139419317Y-60579803D01*
X139419317Y-60579803D02*
X139690251Y-60889441D01*
X139690251Y-60889441D02*
X139574136Y-60889441D01*
X139574136Y-60889441D02*
X139496727Y-60928146D01*
X139496727Y-60928146D02*
X139458022Y-60966851D01*
X139458022Y-60966851D02*
X139419317Y-61044260D01*
X139419317Y-61044260D02*
X139419317Y-61237784D01*
X139419317Y-61237784D02*
X139458022Y-61315194D01*
X139458022Y-61315194D02*
X139496727Y-61353899D01*
X139496727Y-61353899D02*
X139574136Y-61392603D01*
X139574136Y-61392603D02*
X139806365Y-61392603D01*
X139806365Y-61392603D02*
X139883774Y-61353899D01*
X139883774Y-61353899D02*
X139922479Y-61315194D01*
X139148384Y-60850737D02*
X138954860Y-61392603D01*
X138954860Y-61392603D02*
X138761337Y-60850737D01*
X140757870Y-71592603D02*
X140757870Y-70779803D01*
X140757870Y-71553899D02*
X140835279Y-71592603D01*
X140835279Y-71592603D02*
X140990098Y-71592603D01*
X140990098Y-71592603D02*
X141067508Y-71553899D01*
X141067508Y-71553899D02*
X141106213Y-71515194D01*
X141106213Y-71515194D02*
X141144917Y-71437784D01*
X141144917Y-71437784D02*
X141144917Y-71205556D01*
X141144917Y-71205556D02*
X141106213Y-71128146D01*
X141106213Y-71128146D02*
X141067508Y-71089441D01*
X141067508Y-71089441D02*
X140990098Y-71050737D01*
X140990098Y-71050737D02*
X140835279Y-71050737D01*
X140835279Y-71050737D02*
X140757870Y-71089441D01*
X140254708Y-71592603D02*
X140332118Y-71553899D01*
X140332118Y-71553899D02*
X140370823Y-71515194D01*
X140370823Y-71515194D02*
X140409527Y-71437784D01*
X140409527Y-71437784D02*
X140409527Y-71205556D01*
X140409527Y-71205556D02*
X140370823Y-71128146D01*
X140370823Y-71128146D02*
X140332118Y-71089441D01*
X140332118Y-71089441D02*
X140254708Y-71050737D01*
X140254708Y-71050737D02*
X140138594Y-71050737D01*
X140138594Y-71050737D02*
X140061185Y-71089441D01*
X140061185Y-71089441D02*
X140022480Y-71128146D01*
X140022480Y-71128146D02*
X139983775Y-71205556D01*
X139983775Y-71205556D02*
X139983775Y-71437784D01*
X139983775Y-71437784D02*
X140022480Y-71515194D01*
X140022480Y-71515194D02*
X140061185Y-71553899D01*
X140061185Y-71553899D02*
X140138594Y-71592603D01*
X140138594Y-71592603D02*
X140254708Y-71592603D01*
X139287090Y-71050737D02*
X139287090Y-71592603D01*
X139635433Y-71050737D02*
X139635433Y-71476489D01*
X139635433Y-71476489D02*
X139596728Y-71553899D01*
X139596728Y-71553899D02*
X139519318Y-71592603D01*
X139519318Y-71592603D02*
X139403204Y-71592603D01*
X139403204Y-71592603D02*
X139325795Y-71553899D01*
X139325795Y-71553899D02*
X139287090Y-71515194D01*
X139016157Y-71050737D02*
X138706519Y-71050737D01*
X138900043Y-70779803D02*
X138900043Y-71476489D01*
X138900043Y-71476489D02*
X138861338Y-71553899D01*
X138861338Y-71553899D02*
X138783928Y-71592603D01*
X138783928Y-71592603D02*
X138706519Y-71592603D01*
X141057870Y-83700737D02*
X141057870Y-84358718D01*
X141057870Y-84358718D02*
X141096575Y-84436127D01*
X141096575Y-84436127D02*
X141135279Y-84474832D01*
X141135279Y-84474832D02*
X141212689Y-84513537D01*
X141212689Y-84513537D02*
X141328803Y-84513537D01*
X141328803Y-84513537D02*
X141406213Y-84474832D01*
X141057870Y-84203899D02*
X141135279Y-84242603D01*
X141135279Y-84242603D02*
X141290098Y-84242603D01*
X141290098Y-84242603D02*
X141367508Y-84203899D01*
X141367508Y-84203899D02*
X141406213Y-84165194D01*
X141406213Y-84165194D02*
X141444917Y-84087784D01*
X141444917Y-84087784D02*
X141444917Y-83855556D01*
X141444917Y-83855556D02*
X141406213Y-83778146D01*
X141406213Y-83778146D02*
X141367508Y-83739441D01*
X141367508Y-83739441D02*
X141290098Y-83700737D01*
X141290098Y-83700737D02*
X141135279Y-83700737D01*
X141135279Y-83700737D02*
X141057870Y-83739441D01*
X140670823Y-83700737D02*
X140670823Y-84513537D01*
X140670823Y-83739441D02*
X140593413Y-83700737D01*
X140593413Y-83700737D02*
X140438594Y-83700737D01*
X140438594Y-83700737D02*
X140361185Y-83739441D01*
X140361185Y-83739441D02*
X140322480Y-83778146D01*
X140322480Y-83778146D02*
X140283775Y-83855556D01*
X140283775Y-83855556D02*
X140283775Y-84087784D01*
X140283775Y-84087784D02*
X140322480Y-84165194D01*
X140322480Y-84165194D02*
X140361185Y-84203899D01*
X140361185Y-84203899D02*
X140438594Y-84242603D01*
X140438594Y-84242603D02*
X140593413Y-84242603D01*
X140593413Y-84242603D02*
X140670823Y-84203899D01*
X139935433Y-84242603D02*
X139935433Y-83700737D01*
X139935433Y-83429803D02*
X139974137Y-83468508D01*
X139974137Y-83468508D02*
X139935433Y-83507213D01*
X139935433Y-83507213D02*
X139896728Y-83468508D01*
X139896728Y-83468508D02*
X139935433Y-83429803D01*
X139935433Y-83429803D02*
X139935433Y-83507213D01*
X139432270Y-84242603D02*
X139509680Y-84203899D01*
X139509680Y-84203899D02*
X139548385Y-84165194D01*
X139548385Y-84165194D02*
X139587089Y-84087784D01*
X139587089Y-84087784D02*
X139587089Y-83855556D01*
X139587089Y-83855556D02*
X139548385Y-83778146D01*
X139548385Y-83778146D02*
X139509680Y-83739441D01*
X139509680Y-83739441D02*
X139432270Y-83700737D01*
X139432270Y-83700737D02*
X139316156Y-83700737D01*
X139316156Y-83700737D02*
X139238747Y-83739441D01*
X139238747Y-83739441D02*
X139200042Y-83778146D01*
X139200042Y-83778146D02*
X139161337Y-83855556D01*
X139161337Y-83855556D02*
X139161337Y-84087784D01*
X139161337Y-84087784D02*
X139200042Y-84165194D01*
X139200042Y-84165194D02*
X139238747Y-84203899D01*
X139238747Y-84203899D02*
X139316156Y-84242603D01*
X139316156Y-84242603D02*
X139432270Y-84242603D01*
X138851699Y-83507213D02*
X138812995Y-83468508D01*
X138812995Y-83468508D02*
X138735585Y-83429803D01*
X138735585Y-83429803D02*
X138542061Y-83429803D01*
X138542061Y-83429803D02*
X138464652Y-83468508D01*
X138464652Y-83468508D02*
X138425947Y-83507213D01*
X138425947Y-83507213D02*
X138387242Y-83584622D01*
X138387242Y-83584622D02*
X138387242Y-83662032D01*
X138387242Y-83662032D02*
X138425947Y-83778146D01*
X138425947Y-83778146D02*
X138890404Y-84242603D01*
X138890404Y-84242603D02*
X138387242Y-84242603D01*
X141622327Y-68450737D02*
X141312689Y-68450737D01*
X141506213Y-68992603D02*
X141506213Y-68295918D01*
X141506213Y-68295918D02*
X141467508Y-68218508D01*
X141467508Y-68218508D02*
X141390098Y-68179803D01*
X141390098Y-68179803D02*
X141312689Y-68179803D01*
X141080460Y-68953899D02*
X141003051Y-68992603D01*
X141003051Y-68992603D02*
X140848232Y-68992603D01*
X140848232Y-68992603D02*
X140770822Y-68953899D01*
X140770822Y-68953899D02*
X140732118Y-68876489D01*
X140732118Y-68876489D02*
X140732118Y-68837784D01*
X140732118Y-68837784D02*
X140770822Y-68760375D01*
X140770822Y-68760375D02*
X140848232Y-68721670D01*
X140848232Y-68721670D02*
X140964346Y-68721670D01*
X140964346Y-68721670D02*
X141041756Y-68682965D01*
X141041756Y-68682965D02*
X141080460Y-68605556D01*
X141080460Y-68605556D02*
X141080460Y-68566851D01*
X141080460Y-68566851D02*
X141041756Y-68489441D01*
X141041756Y-68489441D02*
X140964346Y-68450737D01*
X140964346Y-68450737D02*
X140848232Y-68450737D01*
X140848232Y-68450737D02*
X140770822Y-68489441D01*
X140461184Y-68450737D02*
X140267660Y-68992603D01*
X140074137Y-68450737D02*
X140267660Y-68992603D01*
X140267660Y-68992603D02*
X140345070Y-69186127D01*
X140345070Y-69186127D02*
X140383775Y-69224832D01*
X140383775Y-69224832D02*
X140461184Y-69263537D01*
X139764499Y-68450737D02*
X139764499Y-68992603D01*
X139764499Y-68528146D02*
X139725794Y-68489441D01*
X139725794Y-68489441D02*
X139648384Y-68450737D01*
X139648384Y-68450737D02*
X139532270Y-68450737D01*
X139532270Y-68450737D02*
X139454861Y-68489441D01*
X139454861Y-68489441D02*
X139416156Y-68566851D01*
X139416156Y-68566851D02*
X139416156Y-68992603D01*
X138680766Y-68953899D02*
X138758175Y-68992603D01*
X138758175Y-68992603D02*
X138912994Y-68992603D01*
X138912994Y-68992603D02*
X138990404Y-68953899D01*
X138990404Y-68953899D02*
X139029109Y-68915194D01*
X139029109Y-68915194D02*
X139067813Y-68837784D01*
X139067813Y-68837784D02*
X139067813Y-68605556D01*
X139067813Y-68605556D02*
X139029109Y-68528146D01*
X139029109Y-68528146D02*
X138990404Y-68489441D01*
X138990404Y-68489441D02*
X138912994Y-68450737D01*
X138912994Y-68450737D02*
X138758175Y-68450737D01*
X138758175Y-68450737D02*
X138680766Y-68489441D01*
X141157870Y-81250737D02*
X141157870Y-81908718D01*
X141157870Y-81908718D02*
X141196575Y-81986127D01*
X141196575Y-81986127D02*
X141235279Y-82024832D01*
X141235279Y-82024832D02*
X141312689Y-82063537D01*
X141312689Y-82063537D02*
X141428803Y-82063537D01*
X141428803Y-82063537D02*
X141506213Y-82024832D01*
X141157870Y-81753899D02*
X141235279Y-81792603D01*
X141235279Y-81792603D02*
X141390098Y-81792603D01*
X141390098Y-81792603D02*
X141467508Y-81753899D01*
X141467508Y-81753899D02*
X141506213Y-81715194D01*
X141506213Y-81715194D02*
X141544917Y-81637784D01*
X141544917Y-81637784D02*
X141544917Y-81405556D01*
X141544917Y-81405556D02*
X141506213Y-81328146D01*
X141506213Y-81328146D02*
X141467508Y-81289441D01*
X141467508Y-81289441D02*
X141390098Y-81250737D01*
X141390098Y-81250737D02*
X141235279Y-81250737D01*
X141235279Y-81250737D02*
X141157870Y-81289441D01*
X140770823Y-81250737D02*
X140770823Y-82063537D01*
X140770823Y-81289441D02*
X140693413Y-81250737D01*
X140693413Y-81250737D02*
X140538594Y-81250737D01*
X140538594Y-81250737D02*
X140461185Y-81289441D01*
X140461185Y-81289441D02*
X140422480Y-81328146D01*
X140422480Y-81328146D02*
X140383775Y-81405556D01*
X140383775Y-81405556D02*
X140383775Y-81637784D01*
X140383775Y-81637784D02*
X140422480Y-81715194D01*
X140422480Y-81715194D02*
X140461185Y-81753899D01*
X140461185Y-81753899D02*
X140538594Y-81792603D01*
X140538594Y-81792603D02*
X140693413Y-81792603D01*
X140693413Y-81792603D02*
X140770823Y-81753899D01*
X140035433Y-81792603D02*
X140035433Y-81250737D01*
X140035433Y-80979803D02*
X140074137Y-81018508D01*
X140074137Y-81018508D02*
X140035433Y-81057213D01*
X140035433Y-81057213D02*
X139996728Y-81018508D01*
X139996728Y-81018508D02*
X140035433Y-80979803D01*
X140035433Y-80979803D02*
X140035433Y-81057213D01*
X139532270Y-81792603D02*
X139609680Y-81753899D01*
X139609680Y-81753899D02*
X139648385Y-81715194D01*
X139648385Y-81715194D02*
X139687089Y-81637784D01*
X139687089Y-81637784D02*
X139687089Y-81405556D01*
X139687089Y-81405556D02*
X139648385Y-81328146D01*
X139648385Y-81328146D02*
X139609680Y-81289441D01*
X139609680Y-81289441D02*
X139532270Y-81250737D01*
X139532270Y-81250737D02*
X139416156Y-81250737D01*
X139416156Y-81250737D02*
X139338747Y-81289441D01*
X139338747Y-81289441D02*
X139300042Y-81328146D01*
X139300042Y-81328146D02*
X139261337Y-81405556D01*
X139261337Y-81405556D02*
X139261337Y-81637784D01*
X139261337Y-81637784D02*
X139300042Y-81715194D01*
X139300042Y-81715194D02*
X139338747Y-81753899D01*
X139338747Y-81753899D02*
X139416156Y-81792603D01*
X139416156Y-81792603D02*
X139532270Y-81792603D01*
X138487242Y-81792603D02*
X138951699Y-81792603D01*
X138719471Y-81792603D02*
X138719471Y-80979803D01*
X138719471Y-80979803D02*
X138796880Y-81095918D01*
X138796880Y-81095918D02*
X138874290Y-81173327D01*
X138874290Y-81173327D02*
X138951699Y-81212032D01*
X150590098Y-66492603D02*
X150667508Y-66453899D01*
X150667508Y-66453899D02*
X150706213Y-66415194D01*
X150706213Y-66415194D02*
X150744917Y-66337784D01*
X150744917Y-66337784D02*
X150744917Y-66105556D01*
X150744917Y-66105556D02*
X150706213Y-66028146D01*
X150706213Y-66028146D02*
X150667508Y-65989441D01*
X150667508Y-65989441D02*
X150590098Y-65950737D01*
X150590098Y-65950737D02*
X150473984Y-65950737D01*
X150473984Y-65950737D02*
X150396575Y-65989441D01*
X150396575Y-65989441D02*
X150357870Y-66028146D01*
X150357870Y-66028146D02*
X150319165Y-66105556D01*
X150319165Y-66105556D02*
X150319165Y-66337784D01*
X150319165Y-66337784D02*
X150357870Y-66415194D01*
X150357870Y-66415194D02*
X150396575Y-66453899D01*
X150396575Y-66453899D02*
X150473984Y-66492603D01*
X150473984Y-66492603D02*
X150590098Y-66492603D01*
X149622480Y-65950737D02*
X149622480Y-66492603D01*
X149970823Y-65950737D02*
X149970823Y-66376489D01*
X149970823Y-66376489D02*
X149932118Y-66453899D01*
X149932118Y-66453899D02*
X149854708Y-66492603D01*
X149854708Y-66492603D02*
X149738594Y-66492603D01*
X149738594Y-66492603D02*
X149661185Y-66453899D01*
X149661185Y-66453899D02*
X149622480Y-66415194D01*
X149351547Y-65950737D02*
X149041909Y-65950737D01*
X149235433Y-65679803D02*
X149235433Y-66376489D01*
X149235433Y-66376489D02*
X149196728Y-66453899D01*
X149196728Y-66453899D02*
X149119318Y-66492603D01*
X149119318Y-66492603D02*
X149041909Y-66492603D01*
X148809680Y-65757213D02*
X148770976Y-65718508D01*
X148770976Y-65718508D02*
X148693566Y-65679803D01*
X148693566Y-65679803D02*
X148500042Y-65679803D01*
X148500042Y-65679803D02*
X148422633Y-65718508D01*
X148422633Y-65718508D02*
X148383928Y-65757213D01*
X148383928Y-65757213D02*
X148345223Y-65834622D01*
X148345223Y-65834622D02*
X148345223Y-65912032D01*
X148345223Y-65912032D02*
X148383928Y-66028146D01*
X148383928Y-66028146D02*
X148848385Y-66492603D01*
X148848385Y-66492603D02*
X148345223Y-66492603D01*
X147996881Y-65950737D02*
X147996881Y-66763537D01*
X147996881Y-65989441D02*
X147919471Y-65950737D01*
X147919471Y-65950737D02*
X147764652Y-65950737D01*
X147764652Y-65950737D02*
X147687243Y-65989441D01*
X147687243Y-65989441D02*
X147648538Y-66028146D01*
X147648538Y-66028146D02*
X147609833Y-66105556D01*
X147609833Y-66105556D02*
X147609833Y-66337784D01*
X147609833Y-66337784D02*
X147648538Y-66415194D01*
X147648538Y-66415194D02*
X147687243Y-66453899D01*
X147687243Y-66453899D02*
X147764652Y-66492603D01*
X147764652Y-66492603D02*
X147919471Y-66492603D01*
X147919471Y-66492603D02*
X147996881Y-66453899D01*
X150590098Y-69092603D02*
X150667508Y-69053899D01*
X150667508Y-69053899D02*
X150706213Y-69015194D01*
X150706213Y-69015194D02*
X150744917Y-68937784D01*
X150744917Y-68937784D02*
X150744917Y-68705556D01*
X150744917Y-68705556D02*
X150706213Y-68628146D01*
X150706213Y-68628146D02*
X150667508Y-68589441D01*
X150667508Y-68589441D02*
X150590098Y-68550737D01*
X150590098Y-68550737D02*
X150473984Y-68550737D01*
X150473984Y-68550737D02*
X150396575Y-68589441D01*
X150396575Y-68589441D02*
X150357870Y-68628146D01*
X150357870Y-68628146D02*
X150319165Y-68705556D01*
X150319165Y-68705556D02*
X150319165Y-68937784D01*
X150319165Y-68937784D02*
X150357870Y-69015194D01*
X150357870Y-69015194D02*
X150396575Y-69053899D01*
X150396575Y-69053899D02*
X150473984Y-69092603D01*
X150473984Y-69092603D02*
X150590098Y-69092603D01*
X149622480Y-68550737D02*
X149622480Y-69092603D01*
X149970823Y-68550737D02*
X149970823Y-68976489D01*
X149970823Y-68976489D02*
X149932118Y-69053899D01*
X149932118Y-69053899D02*
X149854708Y-69092603D01*
X149854708Y-69092603D02*
X149738594Y-69092603D01*
X149738594Y-69092603D02*
X149661185Y-69053899D01*
X149661185Y-69053899D02*
X149622480Y-69015194D01*
X149351547Y-68550737D02*
X149041909Y-68550737D01*
X149235433Y-68279803D02*
X149235433Y-68976489D01*
X149235433Y-68976489D02*
X149196728Y-69053899D01*
X149196728Y-69053899D02*
X149119318Y-69092603D01*
X149119318Y-69092603D02*
X149041909Y-69092603D01*
X148345223Y-69092603D02*
X148809680Y-69092603D01*
X148577452Y-69092603D02*
X148577452Y-68279803D01*
X148577452Y-68279803D02*
X148654861Y-68395918D01*
X148654861Y-68395918D02*
X148732271Y-68473327D01*
X148732271Y-68473327D02*
X148809680Y-68512032D01*
X147996881Y-68550737D02*
X147996881Y-69363537D01*
X147996881Y-68589441D02*
X147919471Y-68550737D01*
X147919471Y-68550737D02*
X147764652Y-68550737D01*
X147764652Y-68550737D02*
X147687243Y-68589441D01*
X147687243Y-68589441D02*
X147648538Y-68628146D01*
X147648538Y-68628146D02*
X147609833Y-68705556D01*
X147609833Y-68705556D02*
X147609833Y-68937784D01*
X147609833Y-68937784D02*
X147648538Y-69015194D01*
X147648538Y-69015194D02*
X147687243Y-69053899D01*
X147687243Y-69053899D02*
X147764652Y-69092603D01*
X147764652Y-69092603D02*
X147919471Y-69092603D01*
X147919471Y-69092603D02*
X147996881Y-69053899D01*
X150590098Y-71592603D02*
X150667508Y-71553899D01*
X150667508Y-71553899D02*
X150706213Y-71515194D01*
X150706213Y-71515194D02*
X150744917Y-71437784D01*
X150744917Y-71437784D02*
X150744917Y-71205556D01*
X150744917Y-71205556D02*
X150706213Y-71128146D01*
X150706213Y-71128146D02*
X150667508Y-71089441D01*
X150667508Y-71089441D02*
X150590098Y-71050737D01*
X150590098Y-71050737D02*
X150473984Y-71050737D01*
X150473984Y-71050737D02*
X150396575Y-71089441D01*
X150396575Y-71089441D02*
X150357870Y-71128146D01*
X150357870Y-71128146D02*
X150319165Y-71205556D01*
X150319165Y-71205556D02*
X150319165Y-71437784D01*
X150319165Y-71437784D02*
X150357870Y-71515194D01*
X150357870Y-71515194D02*
X150396575Y-71553899D01*
X150396575Y-71553899D02*
X150473984Y-71592603D01*
X150473984Y-71592603D02*
X150590098Y-71592603D01*
X149622480Y-71050737D02*
X149622480Y-71592603D01*
X149970823Y-71050737D02*
X149970823Y-71476489D01*
X149970823Y-71476489D02*
X149932118Y-71553899D01*
X149932118Y-71553899D02*
X149854708Y-71592603D01*
X149854708Y-71592603D02*
X149738594Y-71592603D01*
X149738594Y-71592603D02*
X149661185Y-71553899D01*
X149661185Y-71553899D02*
X149622480Y-71515194D01*
X149351547Y-71050737D02*
X149041909Y-71050737D01*
X149235433Y-70779803D02*
X149235433Y-71476489D01*
X149235433Y-71476489D02*
X149196728Y-71553899D01*
X149196728Y-71553899D02*
X149119318Y-71592603D01*
X149119318Y-71592603D02*
X149041909Y-71592603D01*
X148345223Y-71592603D02*
X148809680Y-71592603D01*
X148577452Y-71592603D02*
X148577452Y-70779803D01*
X148577452Y-70779803D02*
X148654861Y-70895918D01*
X148654861Y-70895918D02*
X148732271Y-70973327D01*
X148732271Y-70973327D02*
X148809680Y-71012032D01*
X147996881Y-71592603D02*
X147996881Y-71050737D01*
X147996881Y-71128146D02*
X147958176Y-71089441D01*
X147958176Y-71089441D02*
X147880766Y-71050737D01*
X147880766Y-71050737D02*
X147764652Y-71050737D01*
X147764652Y-71050737D02*
X147687243Y-71089441D01*
X147687243Y-71089441D02*
X147648538Y-71166851D01*
X147648538Y-71166851D02*
X147648538Y-71592603D01*
X147648538Y-71166851D02*
X147609833Y-71089441D01*
X147609833Y-71089441D02*
X147532424Y-71050737D01*
X147532424Y-71050737D02*
X147416309Y-71050737D01*
X147416309Y-71050737D02*
X147338900Y-71089441D01*
X147338900Y-71089441D02*
X147300195Y-71166851D01*
X147300195Y-71166851D02*
X147300195Y-71592603D01*
X150690098Y-61492603D02*
X150767508Y-61453899D01*
X150767508Y-61453899D02*
X150806213Y-61376489D01*
X150806213Y-61376489D02*
X150806213Y-60679803D01*
X150032118Y-61492603D02*
X150032118Y-60679803D01*
X150032118Y-61453899D02*
X150109527Y-61492603D01*
X150109527Y-61492603D02*
X150264346Y-61492603D01*
X150264346Y-61492603D02*
X150341756Y-61453899D01*
X150341756Y-61453899D02*
X150380461Y-61415194D01*
X150380461Y-61415194D02*
X150419165Y-61337784D01*
X150419165Y-61337784D02*
X150419165Y-61105556D01*
X150419165Y-61105556D02*
X150380461Y-61028146D01*
X150380461Y-61028146D02*
X150341756Y-60989441D01*
X150341756Y-60989441D02*
X150264346Y-60950737D01*
X150264346Y-60950737D02*
X150109527Y-60950737D01*
X150109527Y-60950737D02*
X150032118Y-60989441D01*
X149528956Y-61492603D02*
X149606366Y-61453899D01*
X149606366Y-61453899D02*
X149645071Y-61415194D01*
X149645071Y-61415194D02*
X149683775Y-61337784D01*
X149683775Y-61337784D02*
X149683775Y-61105556D01*
X149683775Y-61105556D02*
X149645071Y-61028146D01*
X149645071Y-61028146D02*
X149606366Y-60989441D01*
X149606366Y-60989441D02*
X149528956Y-60950737D01*
X149528956Y-60950737D02*
X149412842Y-60950737D01*
X149412842Y-60950737D02*
X149335433Y-60989441D01*
X149335433Y-60989441D02*
X149296728Y-61028146D01*
X149296728Y-61028146D02*
X149258023Y-61105556D01*
X149258023Y-61105556D02*
X149258023Y-61337784D01*
X149258023Y-61337784D02*
X149296728Y-61415194D01*
X149296728Y-61415194D02*
X149335433Y-61453899D01*
X149335433Y-61453899D02*
X149412842Y-61492603D01*
X149412842Y-61492603D02*
X149528956Y-61492603D01*
X149103205Y-61570013D02*
X148483928Y-61570013D01*
X147980767Y-61453899D02*
X148058176Y-61492603D01*
X148058176Y-61492603D02*
X148212995Y-61492603D01*
X148212995Y-61492603D02*
X148290405Y-61453899D01*
X148290405Y-61453899D02*
X148329109Y-61376489D01*
X148329109Y-61376489D02*
X148329109Y-61066851D01*
X148329109Y-61066851D02*
X148290405Y-60989441D01*
X148290405Y-60989441D02*
X148212995Y-60950737D01*
X148212995Y-60950737D02*
X148058176Y-60950737D01*
X148058176Y-60950737D02*
X147980767Y-60989441D01*
X147980767Y-60989441D02*
X147942062Y-61066851D01*
X147942062Y-61066851D02*
X147942062Y-61144260D01*
X147942062Y-61144260D02*
X148329109Y-61221670D01*
X147593719Y-60950737D02*
X147593719Y-61492603D01*
X147593719Y-61028146D02*
X147555014Y-60989441D01*
X147555014Y-60989441D02*
X147477604Y-60950737D01*
X147477604Y-60950737D02*
X147361490Y-60950737D01*
X147361490Y-60950737D02*
X147284081Y-60989441D01*
X147284081Y-60989441D02*
X147245376Y-61066851D01*
X147245376Y-61066851D02*
X147245376Y-61492603D01*
X150690098Y-63992603D02*
X150767508Y-63953899D01*
X150767508Y-63953899D02*
X150806213Y-63915194D01*
X150806213Y-63915194D02*
X150844917Y-63837784D01*
X150844917Y-63837784D02*
X150844917Y-63605556D01*
X150844917Y-63605556D02*
X150806213Y-63528146D01*
X150806213Y-63528146D02*
X150767508Y-63489441D01*
X150767508Y-63489441D02*
X150690098Y-63450737D01*
X150690098Y-63450737D02*
X150573984Y-63450737D01*
X150573984Y-63450737D02*
X150496575Y-63489441D01*
X150496575Y-63489441D02*
X150457870Y-63528146D01*
X150457870Y-63528146D02*
X150419165Y-63605556D01*
X150419165Y-63605556D02*
X150419165Y-63837784D01*
X150419165Y-63837784D02*
X150457870Y-63915194D01*
X150457870Y-63915194D02*
X150496575Y-63953899D01*
X150496575Y-63953899D02*
X150573984Y-63992603D01*
X150573984Y-63992603D02*
X150690098Y-63992603D01*
X149722480Y-63450737D02*
X149722480Y-63992603D01*
X150070823Y-63450737D02*
X150070823Y-63876489D01*
X150070823Y-63876489D02*
X150032118Y-63953899D01*
X150032118Y-63953899D02*
X149954708Y-63992603D01*
X149954708Y-63992603D02*
X149838594Y-63992603D01*
X149838594Y-63992603D02*
X149761185Y-63953899D01*
X149761185Y-63953899D02*
X149722480Y-63915194D01*
X149451547Y-63450737D02*
X149141909Y-63450737D01*
X149335433Y-63179803D02*
X149335433Y-63876489D01*
X149335433Y-63876489D02*
X149296728Y-63953899D01*
X149296728Y-63953899D02*
X149219318Y-63992603D01*
X149219318Y-63992603D02*
X149141909Y-63992603D01*
X148909680Y-63257213D02*
X148870976Y-63218508D01*
X148870976Y-63218508D02*
X148793566Y-63179803D01*
X148793566Y-63179803D02*
X148600042Y-63179803D01*
X148600042Y-63179803D02*
X148522633Y-63218508D01*
X148522633Y-63218508D02*
X148483928Y-63257213D01*
X148483928Y-63257213D02*
X148445223Y-63334622D01*
X148445223Y-63334622D02*
X148445223Y-63412032D01*
X148445223Y-63412032D02*
X148483928Y-63528146D01*
X148483928Y-63528146D02*
X148948385Y-63992603D01*
X148948385Y-63992603D02*
X148445223Y-63992603D01*
X148096881Y-63992603D02*
X148096881Y-63450737D01*
X148096881Y-63528146D02*
X148058176Y-63489441D01*
X148058176Y-63489441D02*
X147980766Y-63450737D01*
X147980766Y-63450737D02*
X147864652Y-63450737D01*
X147864652Y-63450737D02*
X147787243Y-63489441D01*
X147787243Y-63489441D02*
X147748538Y-63566851D01*
X147748538Y-63566851D02*
X147748538Y-63992603D01*
X147748538Y-63566851D02*
X147709833Y-63489441D01*
X147709833Y-63489441D02*
X147632424Y-63450737D01*
X147632424Y-63450737D02*
X147516309Y-63450737D01*
X147516309Y-63450737D02*
X147438900Y-63489441D01*
X147438900Y-63489441D02*
X147400195Y-63566851D01*
X147400195Y-63566851D02*
X147400195Y-63992603D01*
X150707870Y-78500737D02*
X150707870Y-79158718D01*
X150707870Y-79158718D02*
X150746575Y-79236127D01*
X150746575Y-79236127D02*
X150785279Y-79274832D01*
X150785279Y-79274832D02*
X150862689Y-79313537D01*
X150862689Y-79313537D02*
X150978803Y-79313537D01*
X150978803Y-79313537D02*
X151056213Y-79274832D01*
X150707870Y-79003899D02*
X150785279Y-79042603D01*
X150785279Y-79042603D02*
X150940098Y-79042603D01*
X150940098Y-79042603D02*
X151017508Y-79003899D01*
X151017508Y-79003899D02*
X151056213Y-78965194D01*
X151056213Y-78965194D02*
X151094917Y-78887784D01*
X151094917Y-78887784D02*
X151094917Y-78655556D01*
X151094917Y-78655556D02*
X151056213Y-78578146D01*
X151056213Y-78578146D02*
X151017508Y-78539441D01*
X151017508Y-78539441D02*
X150940098Y-78500737D01*
X150940098Y-78500737D02*
X150785279Y-78500737D01*
X150785279Y-78500737D02*
X150707870Y-78539441D01*
X150320823Y-78500737D02*
X150320823Y-79313537D01*
X150320823Y-78539441D02*
X150243413Y-78500737D01*
X150243413Y-78500737D02*
X150088594Y-78500737D01*
X150088594Y-78500737D02*
X150011185Y-78539441D01*
X150011185Y-78539441D02*
X149972480Y-78578146D01*
X149972480Y-78578146D02*
X149933775Y-78655556D01*
X149933775Y-78655556D02*
X149933775Y-78887784D01*
X149933775Y-78887784D02*
X149972480Y-78965194D01*
X149972480Y-78965194D02*
X150011185Y-79003899D01*
X150011185Y-79003899D02*
X150088594Y-79042603D01*
X150088594Y-79042603D02*
X150243413Y-79042603D01*
X150243413Y-79042603D02*
X150320823Y-79003899D01*
X149585433Y-79042603D02*
X149585433Y-78500737D01*
X149585433Y-78229803D02*
X149624137Y-78268508D01*
X149624137Y-78268508D02*
X149585433Y-78307213D01*
X149585433Y-78307213D02*
X149546728Y-78268508D01*
X149546728Y-78268508D02*
X149585433Y-78229803D01*
X149585433Y-78229803D02*
X149585433Y-78307213D01*
X148772632Y-79042603D02*
X149237089Y-79042603D01*
X149004861Y-79042603D02*
X149004861Y-78229803D01*
X149004861Y-78229803D02*
X149082270Y-78345918D01*
X149082270Y-78345918D02*
X149159680Y-78423327D01*
X149159680Y-78423327D02*
X149237089Y-78462032D01*
X150707870Y-81792603D02*
X150707870Y-80979803D01*
X150707870Y-81753899D02*
X150785279Y-81792603D01*
X150785279Y-81792603D02*
X150940098Y-81792603D01*
X150940098Y-81792603D02*
X151017508Y-81753899D01*
X151017508Y-81753899D02*
X151056213Y-81715194D01*
X151056213Y-81715194D02*
X151094917Y-81637784D01*
X151094917Y-81637784D02*
X151094917Y-81405556D01*
X151094917Y-81405556D02*
X151056213Y-81328146D01*
X151056213Y-81328146D02*
X151017508Y-81289441D01*
X151017508Y-81289441D02*
X150940098Y-81250737D01*
X150940098Y-81250737D02*
X150785279Y-81250737D01*
X150785279Y-81250737D02*
X150707870Y-81289441D01*
X150320823Y-81792603D02*
X150320823Y-81250737D01*
X150320823Y-80979803D02*
X150359527Y-81018508D01*
X150359527Y-81018508D02*
X150320823Y-81057213D01*
X150320823Y-81057213D02*
X150282118Y-81018508D01*
X150282118Y-81018508D02*
X150320823Y-80979803D01*
X150320823Y-80979803D02*
X150320823Y-81057213D01*
X149972479Y-81753899D02*
X149895070Y-81792603D01*
X149895070Y-81792603D02*
X149740251Y-81792603D01*
X149740251Y-81792603D02*
X149662841Y-81753899D01*
X149662841Y-81753899D02*
X149624137Y-81676489D01*
X149624137Y-81676489D02*
X149624137Y-81637784D01*
X149624137Y-81637784D02*
X149662841Y-81560375D01*
X149662841Y-81560375D02*
X149740251Y-81521670D01*
X149740251Y-81521670D02*
X149856365Y-81521670D01*
X149856365Y-81521670D02*
X149933775Y-81482965D01*
X149933775Y-81482965D02*
X149972479Y-81405556D01*
X149972479Y-81405556D02*
X149972479Y-81366851D01*
X149972479Y-81366851D02*
X149933775Y-81289441D01*
X149933775Y-81289441D02*
X149856365Y-81250737D01*
X149856365Y-81250737D02*
X149740251Y-81250737D01*
X149740251Y-81250737D02*
X149662841Y-81289441D01*
X149469318Y-81870013D02*
X148850041Y-81870013D01*
X148308175Y-81753899D02*
X148385584Y-81792603D01*
X148385584Y-81792603D02*
X148540403Y-81792603D01*
X148540403Y-81792603D02*
X148617813Y-81753899D01*
X148617813Y-81753899D02*
X148656518Y-81715194D01*
X148656518Y-81715194D02*
X148695222Y-81637784D01*
X148695222Y-81637784D02*
X148695222Y-81405556D01*
X148695222Y-81405556D02*
X148656518Y-81328146D01*
X148656518Y-81328146D02*
X148617813Y-81289441D01*
X148617813Y-81289441D02*
X148540403Y-81250737D01*
X148540403Y-81250737D02*
X148385584Y-81250737D01*
X148385584Y-81250737D02*
X148308175Y-81289441D01*
X147843717Y-81792603D02*
X147921127Y-81753899D01*
X147921127Y-81753899D02*
X147959832Y-81676489D01*
X147959832Y-81676489D02*
X147959832Y-80979803D01*
X147534080Y-81792603D02*
X147534080Y-80979803D01*
X147456670Y-81482965D02*
X147224442Y-81792603D01*
X147224442Y-81250737D02*
X147534080Y-81560375D01*
X146450346Y-81792603D02*
X146914803Y-81792603D01*
X146682575Y-81792603D02*
X146682575Y-80979803D01*
X146682575Y-80979803D02*
X146759984Y-81095918D01*
X146759984Y-81095918D02*
X146837394Y-81173327D01*
X146837394Y-81173327D02*
X146914803Y-81212032D01*
X150707870Y-84292603D02*
X150707870Y-83479803D01*
X150707870Y-84253899D02*
X150785279Y-84292603D01*
X150785279Y-84292603D02*
X150940098Y-84292603D01*
X150940098Y-84292603D02*
X151017508Y-84253899D01*
X151017508Y-84253899D02*
X151056213Y-84215194D01*
X151056213Y-84215194D02*
X151094917Y-84137784D01*
X151094917Y-84137784D02*
X151094917Y-83905556D01*
X151094917Y-83905556D02*
X151056213Y-83828146D01*
X151056213Y-83828146D02*
X151017508Y-83789441D01*
X151017508Y-83789441D02*
X150940098Y-83750737D01*
X150940098Y-83750737D02*
X150785279Y-83750737D01*
X150785279Y-83750737D02*
X150707870Y-83789441D01*
X150320823Y-84292603D02*
X150320823Y-83750737D01*
X150320823Y-83479803D02*
X150359527Y-83518508D01*
X150359527Y-83518508D02*
X150320823Y-83557213D01*
X150320823Y-83557213D02*
X150282118Y-83518508D01*
X150282118Y-83518508D02*
X150320823Y-83479803D01*
X150320823Y-83479803D02*
X150320823Y-83557213D01*
X149972479Y-84253899D02*
X149895070Y-84292603D01*
X149895070Y-84292603D02*
X149740251Y-84292603D01*
X149740251Y-84292603D02*
X149662841Y-84253899D01*
X149662841Y-84253899D02*
X149624137Y-84176489D01*
X149624137Y-84176489D02*
X149624137Y-84137784D01*
X149624137Y-84137784D02*
X149662841Y-84060375D01*
X149662841Y-84060375D02*
X149740251Y-84021670D01*
X149740251Y-84021670D02*
X149856365Y-84021670D01*
X149856365Y-84021670D02*
X149933775Y-83982965D01*
X149933775Y-83982965D02*
X149972479Y-83905556D01*
X149972479Y-83905556D02*
X149972479Y-83866851D01*
X149972479Y-83866851D02*
X149933775Y-83789441D01*
X149933775Y-83789441D02*
X149856365Y-83750737D01*
X149856365Y-83750737D02*
X149740251Y-83750737D01*
X149740251Y-83750737D02*
X149662841Y-83789441D01*
X149469318Y-84370013D02*
X148850041Y-84370013D01*
X148308175Y-84253899D02*
X148385584Y-84292603D01*
X148385584Y-84292603D02*
X148540403Y-84292603D01*
X148540403Y-84292603D02*
X148617813Y-84253899D01*
X148617813Y-84253899D02*
X148656518Y-84215194D01*
X148656518Y-84215194D02*
X148695222Y-84137784D01*
X148695222Y-84137784D02*
X148695222Y-83905556D01*
X148695222Y-83905556D02*
X148656518Y-83828146D01*
X148656518Y-83828146D02*
X148617813Y-83789441D01*
X148617813Y-83789441D02*
X148540403Y-83750737D01*
X148540403Y-83750737D02*
X148385584Y-83750737D01*
X148385584Y-83750737D02*
X148308175Y-83789441D01*
X147843717Y-84292603D02*
X147921127Y-84253899D01*
X147921127Y-84253899D02*
X147959832Y-84176489D01*
X147959832Y-84176489D02*
X147959832Y-83479803D01*
X147534080Y-84292603D02*
X147534080Y-83479803D01*
X147456670Y-83982965D02*
X147224442Y-84292603D01*
X147224442Y-83750737D02*
X147534080Y-84060375D01*
X146914803Y-83557213D02*
X146876099Y-83518508D01*
X146876099Y-83518508D02*
X146798689Y-83479803D01*
X146798689Y-83479803D02*
X146605165Y-83479803D01*
X146605165Y-83479803D02*
X146527756Y-83518508D01*
X146527756Y-83518508D02*
X146489051Y-83557213D01*
X146489051Y-83557213D02*
X146450346Y-83634622D01*
X146450346Y-83634622D02*
X146450346Y-83712032D01*
X146450346Y-83712032D02*
X146489051Y-83828146D01*
X146489051Y-83828146D02*
X146953508Y-84292603D01*
X146953508Y-84292603D02*
X146450346Y-84292603D01*
D12*
%TO.C,G\u002A\u002A\u002A*%
G36*
X144427023Y-60714205D02*
G01*
X144464570Y-60722737D01*
X144471934Y-60725287D01*
X144481351Y-60730103D01*
X144492991Y-60737614D01*
X144507400Y-60748348D01*
X144525127Y-60762831D01*
X144546718Y-60781588D01*
X144572723Y-60805146D01*
X144603687Y-60834030D01*
X144640160Y-60868767D01*
X144682689Y-60909883D01*
X144731821Y-60957904D01*
X144788105Y-61013355D01*
X144852087Y-61076763D01*
X144924315Y-61148654D01*
X145005338Y-61229555D01*
X145095703Y-61319990D01*
X145195957Y-61420486D01*
X145306648Y-61531570D01*
X145316457Y-61541417D01*
X145414940Y-61640333D01*
X145503161Y-61729063D01*
X145581838Y-61808393D01*
X145651694Y-61879110D01*
X145713448Y-61942002D01*
X145767820Y-61997854D01*
X145815532Y-62047455D01*
X145857303Y-62091590D01*
X145893855Y-62131047D01*
X145925907Y-62166612D01*
X145954180Y-62199072D01*
X145979395Y-62229215D01*
X146002271Y-62257827D01*
X146023530Y-62285694D01*
X146043892Y-62313605D01*
X146064077Y-62342345D01*
X146084806Y-62372701D01*
X146106799Y-62405460D01*
X146108855Y-62408549D01*
X146147366Y-62469973D01*
X146186927Y-62539111D01*
X146225469Y-62611911D01*
X146260921Y-62684318D01*
X146291213Y-62752278D01*
X146314274Y-62811735D01*
X146331511Y-62865593D01*
X146350703Y-62934954D01*
X146368279Y-63007772D01*
X146382807Y-63078072D01*
X146392858Y-63139880D01*
X146396626Y-63175066D01*
X146399694Y-63269254D01*
X146394234Y-63369672D01*
X146380774Y-63471793D01*
X146359840Y-63571091D01*
X146331959Y-63663039D01*
X146319752Y-63695251D01*
X146267142Y-63807333D01*
X146201553Y-63913597D01*
X146124427Y-64012508D01*
X146037204Y-64102535D01*
X145941324Y-64182147D01*
X145838228Y-64249810D01*
X145729356Y-64303992D01*
X145656247Y-64330670D01*
X145566119Y-64355123D01*
X145470722Y-64373561D01*
X145374601Y-64385285D01*
X145282297Y-64389594D01*
X145198354Y-64385788D01*
X145122499Y-64375652D01*
X144990799Y-64347814D01*
X144861544Y-64308009D01*
X144739864Y-64257670D01*
X144708368Y-64241810D01*
X144653130Y-64210931D01*
X144593899Y-64174866D01*
X144535230Y-64136525D01*
X144481680Y-64098821D01*
X144437803Y-64064662D01*
X144401155Y-64033979D01*
X144316739Y-64097532D01*
X144286843Y-64119637D01*
X144183501Y-64189251D01*
X144081306Y-64246629D01*
X143976521Y-64293503D01*
X143865410Y-64331602D01*
X143744237Y-64362656D01*
X143724668Y-64366799D01*
X143599265Y-64384981D01*
X143473658Y-64388455D01*
X143346255Y-64377186D01*
X143215466Y-64351140D01*
X143105902Y-64316795D01*
X142992200Y-64265944D01*
X142884763Y-64201808D01*
X142784839Y-64125349D01*
X142693678Y-64037531D01*
X142612526Y-63939319D01*
X142542634Y-63831677D01*
X142541775Y-63830167D01*
X142508801Y-63767355D01*
X142480797Y-63702822D01*
X142455950Y-63631935D01*
X142432448Y-63550062D01*
X142423515Y-63515834D01*
X142416562Y-63487141D01*
X142411559Y-63461928D01*
X142408176Y-63437010D01*
X142406088Y-63409203D01*
X142404966Y-63375324D01*
X142404483Y-63332186D01*
X142404445Y-63319829D01*
X142527363Y-63319829D01*
X142539530Y-63439131D01*
X142565676Y-63554491D01*
X142605003Y-63664859D01*
X142656712Y-63769188D01*
X142720007Y-63866429D01*
X142794088Y-63955533D01*
X142878158Y-64035451D01*
X142971420Y-64105135D01*
X143073074Y-64163537D01*
X143182323Y-64209607D01*
X143298369Y-64242298D01*
X143323014Y-64246852D01*
X143383513Y-64253846D01*
X143452408Y-64257469D01*
X143525069Y-64257757D01*
X143596865Y-64254747D01*
X143663165Y-64248475D01*
X143719337Y-64238978D01*
X143806041Y-64216309D01*
X143937685Y-64169255D01*
X144064275Y-64108655D01*
X144183523Y-64035657D01*
X144293141Y-63951407D01*
X144332821Y-63917939D01*
X144365733Y-63891769D01*
X144388447Y-63875799D01*
X144400480Y-63870394D01*
X144406601Y-63873313D01*
X144421891Y-63883948D01*
X144441851Y-63899693D01*
X144445985Y-63903114D01*
X144471097Y-63923844D01*
X144501422Y-63948825D01*
X144531296Y-63973388D01*
X144532395Y-63974289D01*
X144639497Y-64053079D01*
X144753788Y-64120366D01*
X144873316Y-64175368D01*
X144996128Y-64217304D01*
X145120274Y-64245390D01*
X145243801Y-64258845D01*
X145318790Y-64259926D01*
X145442318Y-64250146D01*
X145560568Y-64225910D01*
X145673013Y-64187416D01*
X145779124Y-64134859D01*
X145878376Y-64068437D01*
X145970239Y-63988346D01*
X146021593Y-63935001D01*
X146073402Y-63872920D01*
X146117284Y-63809069D01*
X146156652Y-63738880D01*
X146189174Y-63669993D01*
X146229518Y-63560249D01*
X146256581Y-63447360D01*
X146271461Y-63327392D01*
X146273362Y-63284888D01*
X146268696Y-63178510D01*
X146251497Y-63066181D01*
X146222288Y-62949518D01*
X146181589Y-62830138D01*
X146129922Y-62709659D01*
X146067808Y-62589697D01*
X145995767Y-62471871D01*
X145976809Y-62443384D01*
X145956960Y-62414156D01*
X145937168Y-62385888D01*
X145916842Y-62357952D01*
X145895394Y-62329721D01*
X145872234Y-62300568D01*
X145846772Y-62269867D01*
X145818418Y-62236991D01*
X145786584Y-62201312D01*
X145750679Y-62162204D01*
X145710114Y-62119040D01*
X145664299Y-62071194D01*
X145612645Y-62018037D01*
X145554561Y-61958943D01*
X145489460Y-61893286D01*
X145416750Y-61820439D01*
X145335842Y-61739774D01*
X145246147Y-61650665D01*
X145147075Y-61552484D01*
X145038037Y-61444606D01*
X144918442Y-61326402D01*
X144867932Y-61276507D01*
X144787974Y-61197600D01*
X144717991Y-61128669D01*
X144657281Y-61069055D01*
X144605139Y-61018095D01*
X144560863Y-60975128D01*
X144523749Y-60939493D01*
X144493095Y-60910528D01*
X144468197Y-60887571D01*
X144448352Y-60869960D01*
X144432856Y-60857035D01*
X144421007Y-60848134D01*
X144412102Y-60842595D01*
X144405437Y-60839757D01*
X144400309Y-60838958D01*
X144398086Y-60839025D01*
X144388669Y-60840959D01*
X144377272Y-60846482D01*
X144362374Y-60856830D01*
X144342455Y-60873234D01*
X144315993Y-60896930D01*
X144281467Y-60929150D01*
X144237357Y-60971129D01*
X144200759Y-61006357D01*
X144149816Y-61055908D01*
X144092337Y-61112270D01*
X144029206Y-61174551D01*
X143961303Y-61241861D01*
X143889510Y-61313309D01*
X143814706Y-61388003D01*
X143737775Y-61465053D01*
X143659597Y-61543567D01*
X143581053Y-61622656D01*
X143503024Y-61701427D01*
X143426392Y-61778990D01*
X143352038Y-61854454D01*
X143280843Y-61926929D01*
X143213688Y-61995522D01*
X143151455Y-62059344D01*
X143095024Y-62117502D01*
X143045277Y-62169108D01*
X143003095Y-62213268D01*
X142969359Y-62249093D01*
X142944951Y-62275691D01*
X142930752Y-62292172D01*
X142914398Y-62313086D01*
X142831765Y-62426794D01*
X142757056Y-62543357D01*
X142691728Y-62660207D01*
X142637238Y-62774774D01*
X142595042Y-62884488D01*
X142576137Y-62944565D01*
X142551928Y-63039747D01*
X142536212Y-63132801D01*
X142527822Y-63229730D01*
X142527363Y-63319829D01*
X142404445Y-63319829D01*
X142404310Y-63276608D01*
X142404278Y-63254990D01*
X142404416Y-63202795D01*
X142405098Y-63161899D01*
X142406589Y-63129102D01*
X142409153Y-63101201D01*
X142413056Y-63074997D01*
X142418560Y-63047288D01*
X142425931Y-63014873D01*
X142427103Y-63009900D01*
X142468719Y-62861195D01*
X142522182Y-62717498D01*
X142588221Y-62577408D01*
X142667567Y-62439525D01*
X142760950Y-62302447D01*
X142869100Y-62164773D01*
X142871259Y-62162252D01*
X142886957Y-62145060D01*
X142912387Y-62118262D01*
X142946719Y-62082687D01*
X142989124Y-62039162D01*
X143038773Y-61988516D01*
X143094837Y-61931578D01*
X143156488Y-61869176D01*
X143222897Y-61802140D01*
X143293235Y-61731297D01*
X143366672Y-61657476D01*
X143442381Y-61581505D01*
X143519532Y-61504214D01*
X143597296Y-61426431D01*
X143674845Y-61348984D01*
X143751350Y-61272702D01*
X143825982Y-61198413D01*
X143897911Y-61126946D01*
X143966310Y-61059130D01*
X144030349Y-60995793D01*
X144089199Y-60937763D01*
X144142033Y-60885870D01*
X144188019Y-60840942D01*
X144226331Y-60803807D01*
X144256139Y-60775294D01*
X144276614Y-60756231D01*
X144286927Y-60747448D01*
X144293241Y-60743422D01*
X144322617Y-60728395D01*
X144352412Y-60717349D01*
X144374039Y-60712447D01*
X144398664Y-60710862D01*
X144427023Y-60714205D01*
G37*
G36*
X144402634Y-60988970D02*
G01*
X144417250Y-61000009D01*
X144441558Y-61020927D01*
X144474729Y-61050903D01*
X144515936Y-61089118D01*
X144564350Y-61134754D01*
X144619143Y-61186990D01*
X144679486Y-61245007D01*
X144744551Y-61307986D01*
X144813509Y-61375108D01*
X144885532Y-61445552D01*
X144959791Y-61518500D01*
X145035459Y-61593132D01*
X145111707Y-61668628D01*
X145187706Y-61744171D01*
X145262628Y-61818939D01*
X145335644Y-61892113D01*
X145405927Y-61962875D01*
X145472647Y-62030404D01*
X145534977Y-62093882D01*
X145592088Y-62152489D01*
X145643151Y-62205405D01*
X145687339Y-62251812D01*
X145723822Y-62290889D01*
X145751772Y-62321817D01*
X145770362Y-62343778D01*
X145795815Y-62376236D01*
X145878712Y-62487736D01*
X145949243Y-62592809D01*
X146008157Y-62692803D01*
X146056209Y-62789068D01*
X146094149Y-62882953D01*
X146122731Y-62975808D01*
X146128874Y-63000178D01*
X146154116Y-63128552D01*
X146165446Y-63250226D01*
X146162740Y-63365786D01*
X146145876Y-63475816D01*
X146114731Y-63580903D01*
X146069182Y-63681632D01*
X146009106Y-63778587D01*
X145934379Y-63872354D01*
X145906464Y-63902315D01*
X145822311Y-63977585D01*
X145730018Y-64039682D01*
X145630146Y-64088364D01*
X145523258Y-64123386D01*
X145409915Y-64144504D01*
X145290679Y-64151475D01*
X145249950Y-64150696D01*
X145136583Y-64140376D01*
X145027198Y-64117673D01*
X144920669Y-64082088D01*
X144815872Y-64033122D01*
X144711681Y-63970276D01*
X144606970Y-63893050D01*
X144500615Y-63800944D01*
X144495458Y-63796176D01*
X144457806Y-63762462D01*
X144429420Y-63739403D01*
X144409208Y-63726174D01*
X144396076Y-63721948D01*
X144390813Y-63722860D01*
X144375765Y-63730616D01*
X144353790Y-63747067D01*
X144323686Y-63773161D01*
X144284247Y-63809844D01*
X144213817Y-63873449D01*
X144119009Y-63947945D01*
X144023562Y-64009616D01*
X143925221Y-64059878D01*
X143821729Y-64100146D01*
X143802792Y-64106332D01*
X143721176Y-64128893D01*
X143642377Y-64143017D01*
X143560651Y-64149507D01*
X143470255Y-64149164D01*
X143376055Y-64141830D01*
X143266348Y-64121635D01*
X143164898Y-64088777D01*
X143070639Y-64042810D01*
X142982503Y-63983286D01*
X142899420Y-63909756D01*
X142838780Y-63844094D01*
X142767900Y-63749197D01*
X142711816Y-63649282D01*
X142670525Y-63544346D01*
X142663272Y-63520428D01*
X142649163Y-63464415D01*
X142640023Y-63408958D01*
X142639907Y-63407533D01*
X142821777Y-63407533D01*
X142822129Y-63408694D01*
X142832066Y-63412191D01*
X142856154Y-63413154D01*
X142895032Y-63411619D01*
X142935227Y-63409975D01*
X142973724Y-63411014D01*
X142997946Y-63415836D01*
X143008451Y-63424697D01*
X143005798Y-63437855D01*
X142990545Y-63455566D01*
X142982656Y-63464366D01*
X142964984Y-63492024D01*
X142947631Y-63528191D01*
X142932690Y-63568205D01*
X142922257Y-63607409D01*
X142921311Y-63612449D01*
X142917973Y-63644104D01*
X142918603Y-63673858D01*
X142922848Y-63697228D01*
X142930351Y-63709728D01*
X142932679Y-63709667D01*
X142945354Y-63703284D01*
X142965562Y-63689759D01*
X142990167Y-63671117D01*
X143008898Y-63656530D01*
X143039752Y-63634461D01*
X143070893Y-63615352D01*
X143104472Y-63598351D01*
X143142639Y-63582609D01*
X143187542Y-63567274D01*
X143241333Y-63551497D01*
X143306160Y-63534425D01*
X143384174Y-63515209D01*
X143390784Y-63513599D01*
X143480725Y-63487866D01*
X143559672Y-63457058D01*
X143631663Y-63419360D01*
X143700738Y-63372958D01*
X143740745Y-63341229D01*
X143807614Y-63276221D01*
X143861411Y-63204960D01*
X143903631Y-63125298D01*
X143935770Y-63035086D01*
X143938599Y-63025120D01*
X143946535Y-62994545D01*
X143951470Y-62968054D01*
X143953910Y-62940727D01*
X143954358Y-62907645D01*
X143954307Y-62905491D01*
X144083574Y-62905491D01*
X144083879Y-62939140D01*
X144085546Y-62966915D01*
X144089569Y-62988717D01*
X144096942Y-63009664D01*
X144108657Y-63034874D01*
X144137051Y-63080798D01*
X144177526Y-63127368D01*
X144224283Y-63167475D01*
X144272798Y-63196661D01*
X144284832Y-63202060D01*
X144306906Y-63210175D01*
X144329442Y-63214930D01*
X144357488Y-63217190D01*
X144396093Y-63217824D01*
X144428783Y-63217613D01*
X144457053Y-63216033D01*
X144479337Y-63212081D01*
X144500836Y-63204773D01*
X144526752Y-63193126D01*
X144535668Y-63188755D01*
X144595344Y-63150663D01*
X144644136Y-63103373D01*
X144681271Y-63048701D01*
X144705973Y-62988464D01*
X144717468Y-62924477D01*
X144715980Y-62885075D01*
X144838761Y-62885075D01*
X144845732Y-62964239D01*
X144863685Y-63045063D01*
X144891839Y-63123931D01*
X144929411Y-63197223D01*
X144945849Y-63222253D01*
X144995318Y-63282475D01*
X145056051Y-63340252D01*
X145124988Y-63393131D01*
X145199065Y-63438656D01*
X145275222Y-63474375D01*
X145289373Y-63479786D01*
X145323007Y-63491426D01*
X145361930Y-63503186D01*
X145408658Y-63515758D01*
X145465708Y-63529838D01*
X145535598Y-63546117D01*
X145547395Y-63548898D01*
X145646231Y-63579873D01*
X145735079Y-63622158D01*
X145813205Y-63675409D01*
X145821270Y-63681874D01*
X145846310Y-63700224D01*
X145862395Y-63706811D01*
X145871487Y-63700764D01*
X145875546Y-63681214D01*
X145876533Y-63647288D01*
X145876515Y-63643602D01*
X145868544Y-63581915D01*
X145847259Y-63521186D01*
X145814313Y-63466222D01*
X145806907Y-63456414D01*
X145793985Y-63438318D01*
X145789205Y-63427889D01*
X145791600Y-63421705D01*
X145800202Y-63416343D01*
X145817007Y-63412005D01*
X145849885Y-63410181D01*
X145897630Y-63411445D01*
X145925682Y-63412617D01*
X145955804Y-63412719D01*
X145972802Y-63410752D01*
X145978104Y-63406633D01*
X145977057Y-63401521D01*
X145967464Y-63383217D01*
X145949943Y-63358697D01*
X145927063Y-63330973D01*
X145901392Y-63303058D01*
X145875499Y-63277964D01*
X145851953Y-63258703D01*
X145844012Y-63253094D01*
X145777701Y-63211101D01*
X145714129Y-63180680D01*
X145648830Y-63160018D01*
X145577338Y-63147304D01*
X145567007Y-63145779D01*
X145547865Y-63140336D01*
X145542641Y-63133472D01*
X145544531Y-63130705D01*
X145552829Y-63125203D01*
X145569127Y-63117778D01*
X145595151Y-63107739D01*
X145632627Y-63094393D01*
X145683282Y-63077047D01*
X145690754Y-63073737D01*
X145697601Y-63064089D01*
X145691259Y-63052070D01*
X145673191Y-63038262D01*
X145644864Y-63023251D01*
X145607740Y-63007622D01*
X145563287Y-62991958D01*
X145512967Y-62976844D01*
X145458247Y-62962865D01*
X145400591Y-62950605D01*
X145341464Y-62940649D01*
X145299274Y-62933833D01*
X145209496Y-62913418D01*
X145131095Y-62885966D01*
X145061786Y-62850392D01*
X144999287Y-62805613D01*
X144941316Y-62750543D01*
X144930356Y-62738965D01*
X144909703Y-62718180D01*
X144894043Y-62703812D01*
X144886119Y-62698447D01*
X144881795Y-62700430D01*
X144872139Y-62714260D01*
X144861860Y-62738498D01*
X144852244Y-62769845D01*
X144844578Y-62805001D01*
X144843556Y-62811190D01*
X144838761Y-62885075D01*
X144715980Y-62885075D01*
X144714979Y-62858556D01*
X144697732Y-62792519D01*
X144695060Y-62785765D01*
X144663556Y-62728650D01*
X144619651Y-62677885D01*
X144565855Y-62635908D01*
X144504678Y-62605154D01*
X144496043Y-62602022D01*
X144431290Y-62587416D01*
X144366386Y-62587294D01*
X144303303Y-62600814D01*
X144244014Y-62627131D01*
X144190492Y-62665403D01*
X144144711Y-62714787D01*
X144108643Y-62774437D01*
X144098443Y-62796860D01*
X144090438Y-62818889D01*
X144085958Y-62840853D01*
X144084003Y-62867977D01*
X144083574Y-62905491D01*
X143954307Y-62905491D01*
X143953318Y-62863888D01*
X143952563Y-62842892D01*
X143950257Y-62802664D01*
X143946850Y-62773329D01*
X143941866Y-62751560D01*
X143934833Y-62734031D01*
X143930513Y-62725828D01*
X143919671Y-62708842D01*
X143911688Y-62701100D01*
X143909455Y-62701578D01*
X143897836Y-62709982D01*
X143880000Y-62726652D01*
X143858798Y-62749007D01*
X143797651Y-62807529D01*
X143728729Y-62855320D01*
X143650789Y-62892863D01*
X143562399Y-62920847D01*
X143462127Y-62939959D01*
X143422284Y-62945955D01*
X143319330Y-62966216D01*
X143231166Y-62991309D01*
X143157736Y-63021249D01*
X143144112Y-63028156D01*
X143117630Y-63044440D01*
X143106303Y-63058104D01*
X143110225Y-63070222D01*
X143129492Y-63081869D01*
X143164200Y-63094121D01*
X143166346Y-63094779D01*
X143197294Y-63105290D01*
X143224513Y-63116216D01*
X143242330Y-63125293D01*
X143263211Y-63139056D01*
X143243678Y-63144549D01*
X143241156Y-63145204D01*
X143218688Y-63148955D01*
X143192894Y-63150986D01*
X143188379Y-63151205D01*
X143147127Y-63158567D01*
X143098662Y-63174659D01*
X143046657Y-63197695D01*
X142994781Y-63225888D01*
X142946706Y-63257451D01*
X142906102Y-63290597D01*
X142902664Y-63293876D01*
X142880479Y-63317545D01*
X142858698Y-63344352D01*
X142839920Y-63370690D01*
X142826747Y-63392952D01*
X142821777Y-63407533D01*
X142639907Y-63407533D01*
X142635118Y-63348746D01*
X142633711Y-63278466D01*
X142634117Y-63249566D01*
X142644383Y-63125418D01*
X142668641Y-63001615D01*
X142707116Y-62877610D01*
X142760034Y-62752854D01*
X142827622Y-62626797D01*
X142910103Y-62498891D01*
X143007705Y-62368587D01*
X143011226Y-62364205D01*
X143047268Y-62321157D01*
X143092320Y-62269859D01*
X143144278Y-62212532D01*
X143168989Y-62185918D01*
X143526292Y-62185918D01*
X143531460Y-62198166D01*
X143543352Y-62215020D01*
X143562936Y-62237662D01*
X143591179Y-62267272D01*
X143629050Y-62305031D01*
X143677517Y-62352119D01*
X143678640Y-62353202D01*
X143719119Y-62392041D01*
X143756095Y-62427180D01*
X143788027Y-62457180D01*
X143813374Y-62480605D01*
X143830595Y-62496016D01*
X143838149Y-62501976D01*
X143839358Y-62501651D01*
X143849771Y-62493936D01*
X143868844Y-62477391D01*
X143894802Y-62453736D01*
X143925867Y-62424691D01*
X143960264Y-62391976D01*
X143996217Y-62357311D01*
X144031949Y-62322417D01*
X144065684Y-62289014D01*
X144095645Y-62258821D01*
X144120057Y-62233559D01*
X144137142Y-62214948D01*
X144145126Y-62204707D01*
X144147964Y-62196269D01*
X144147806Y-62192092D01*
X144643828Y-62192092D01*
X144646373Y-62200194D01*
X144652992Y-62208500D01*
X144669410Y-62226049D01*
X144694106Y-62251305D01*
X144725560Y-62282733D01*
X144762252Y-62318800D01*
X144802663Y-62357970D01*
X144813687Y-62368563D01*
X144864692Y-62416871D01*
X144905348Y-62454064D01*
X144935570Y-62480071D01*
X144955276Y-62494817D01*
X144964383Y-62498233D01*
X144965370Y-62497569D01*
X144976703Y-62488020D01*
X144996654Y-62469801D01*
X145023410Y-62444679D01*
X145055156Y-62414419D01*
X145090081Y-62380790D01*
X145126369Y-62345556D01*
X145162208Y-62310484D01*
X145195785Y-62277342D01*
X145225285Y-62247894D01*
X145248895Y-62223908D01*
X145264802Y-62207150D01*
X145271192Y-62199387D01*
X145272058Y-62192576D01*
X145266419Y-62177894D01*
X145264687Y-62176473D01*
X145257374Y-62173905D01*
X145243933Y-62171833D01*
X145223007Y-62170209D01*
X145193241Y-62168987D01*
X145153276Y-62168119D01*
X145101757Y-62167557D01*
X145037327Y-62167255D01*
X144958628Y-62167164D01*
X144898908Y-62167192D01*
X144829807Y-62167388D01*
X144774016Y-62167897D01*
X144730198Y-62168860D01*
X144697016Y-62170418D01*
X144673132Y-62172713D01*
X144657209Y-62175887D01*
X144647909Y-62180080D01*
X144643894Y-62185435D01*
X144643828Y-62192092D01*
X144147806Y-62192092D01*
X144147324Y-62179315D01*
X144146577Y-62177957D01*
X144142597Y-62175093D01*
X144134394Y-62172776D01*
X144120544Y-62170950D01*
X144099620Y-62169559D01*
X144070197Y-62168547D01*
X144030850Y-62167858D01*
X143980154Y-62167435D01*
X143916683Y-62167223D01*
X143839012Y-62167164D01*
X143823186Y-62167171D01*
X143756760Y-62167359D01*
X143695662Y-62167780D01*
X143641608Y-62168405D01*
X143596313Y-62169206D01*
X143561495Y-62170154D01*
X143538870Y-62171219D01*
X143530154Y-62172373D01*
X143526880Y-62177097D01*
X143526292Y-62185918D01*
X143168989Y-62185918D01*
X143201040Y-62151398D01*
X143260501Y-62088677D01*
X143320557Y-62026592D01*
X143379106Y-61967364D01*
X143434044Y-61913215D01*
X143434836Y-61912461D01*
X143993599Y-61912461D01*
X143997142Y-61917753D01*
X144005761Y-61922038D01*
X144020627Y-61925421D01*
X144042914Y-61928009D01*
X144073792Y-61929907D01*
X144114436Y-61931223D01*
X144166016Y-61932061D01*
X144229705Y-61932528D01*
X144306676Y-61932731D01*
X144398100Y-61932775D01*
X144447568Y-61932760D01*
X144530386Y-61932619D01*
X144599462Y-61932261D01*
X144656028Y-61931606D01*
X144701318Y-61930571D01*
X144736566Y-61929075D01*
X144763007Y-61927037D01*
X144781874Y-61924377D01*
X144794400Y-61921011D01*
X144801819Y-61916860D01*
X144805366Y-61911842D01*
X144806275Y-61905875D01*
X144801694Y-61899145D01*
X144787039Y-61882615D01*
X144763539Y-61857759D01*
X144732462Y-61825875D01*
X144695076Y-61788265D01*
X144652648Y-61746226D01*
X144606447Y-61701060D01*
X144563674Y-61659606D01*
X144520433Y-61617899D01*
X144481837Y-61580880D01*
X144449195Y-61549794D01*
X144423813Y-61525886D01*
X144406999Y-61510400D01*
X144400062Y-61504583D01*
X144399113Y-61504876D01*
X144389267Y-61512516D01*
X144370375Y-61529282D01*
X144343976Y-61553675D01*
X144311608Y-61584196D01*
X144274809Y-61619346D01*
X144235117Y-61657624D01*
X144194069Y-61697531D01*
X144153205Y-61737569D01*
X144114062Y-61776237D01*
X144078178Y-61812036D01*
X144047091Y-61843467D01*
X144022338Y-61869030D01*
X144005460Y-61887227D01*
X143997992Y-61896557D01*
X143997051Y-61898429D01*
X143993960Y-61906055D01*
X143993599Y-61912461D01*
X143434836Y-61912461D01*
X143483268Y-61866365D01*
X143498645Y-61851930D01*
X143530232Y-61821849D01*
X143570187Y-61783445D01*
X143616851Y-61738323D01*
X143668567Y-61688093D01*
X143723677Y-61634362D01*
X143780523Y-61578737D01*
X143837449Y-61522826D01*
X143865224Y-61495492D01*
X143925873Y-61435805D01*
X143987544Y-61375109D01*
X144048212Y-61315399D01*
X144105850Y-61258670D01*
X144158430Y-61206917D01*
X144203927Y-61162134D01*
X144240313Y-61126317D01*
X144261626Y-61105425D01*
X144307283Y-61061475D01*
X144343230Y-61028246D01*
X144370096Y-61005191D01*
X144388505Y-60991760D01*
X144399086Y-60987404D01*
X144402634Y-60988970D01*
G37*
%TD*%
M02*
