%TF.GenerationSoftware,KiCad,Pcbnew,10.0.0*%
%TF.CreationDate,2026-04-03T15:41:47-04:00*%
%TF.ProjectId,tad5212-board,74616435-3231-4322-9d62-6f6172642e6b,rev?*%
%TF.SameCoordinates,Original*%
%TF.FileFunction,Copper,L3,Inr*%
%TF.FilePolarity,Positive*%
%FSLAX46Y46*%
G04 Gerber Fmt 4.6, Leading zero omitted, Abs format (unit mm)*
G04 Created by KiCad (PCBNEW 10.0.0) date 2026-04-03 15:41:47*
%MOMM*%
%LPD*%
G01*
G04 APERTURE LIST*
%TA.AperFunction,ComponentPad*%
%ADD10R,1.700000X1.700000*%
%TD*%
%TA.AperFunction,ComponentPad*%
%ADD11C,1.700000*%
%TD*%
%TA.AperFunction,ViaPad*%
%ADD12C,0.600000*%
%TD*%
%TA.AperFunction,Conductor*%
%ADD13C,0.254000*%
%TD*%
%TA.AperFunction,Conductor*%
%ADD14C,0.127000*%
%TD*%
G04 APERTURE END LIST*
D10*
%TO.N,+3.3V*%
%TO.C,J1*%
X137209300Y-61111443D03*
D11*
%TO.N,GND*%
X137209300Y-63651443D03*
%TO.N,/BCLK*%
X137209300Y-66191443D03*
%TO.N,/FSYNC*%
X137209300Y-68731443D03*
%TO.N,/DOUT*%
X137209300Y-71271443D03*
%TO.N,/DIN*%
X137209300Y-73811443D03*
%TO.N,/SDA*%
X137209300Y-76351443D03*
%TO.N,/SCL*%
X137209300Y-78891443D03*
%TO.N,/GPIO1*%
X137209300Y-81431443D03*
%TO.N,/GPIO2*%
X137209300Y-83971443D03*
%TD*%
D10*
%TO.N,/LDO_EN*%
%TO.C,J2*%
X152449300Y-61111443D03*
D11*
%TO.N,/OUT2M*%
X152449300Y-63651443D03*
%TO.N,/OUT2P*%
X152449300Y-66191443D03*
%TO.N,/OUT1P*%
X152449300Y-68731443D03*
%TO.N,/OUT1M*%
X152449300Y-71271443D03*
%TO.N,unconnected-(J2-Pin_6-Pad6)*%
X152449300Y-73811443D03*
%TO.N,unconnected-(J2-Pin_7-Pad7)*%
X152449300Y-76351443D03*
%TO.N,/GPI1*%
X152449300Y-78891443D03*
%TO.N,/DIS_CLK1*%
X152449300Y-81431443D03*
%TO.N,/DIS_CLK2*%
X152449300Y-83971443D03*
%TD*%
D12*
%TO.N,+3.3V*%
X138800000Y-75100000D03*
X146700000Y-64550000D03*
X139600000Y-62150000D03*
%TO.N,GND*%
X143050000Y-79850000D03*
X139950000Y-68000000D03*
X145500000Y-73900000D03*
X145450000Y-83500000D03*
X150800000Y-79150000D03*
X147450000Y-62200000D03*
X139600000Y-60600000D03*
X142775000Y-70875000D03*
X145500000Y-73200000D03*
X141200000Y-66750000D03*
X144800000Y-73200000D03*
X149150000Y-72650000D03*
X148400000Y-68950000D03*
X144100000Y-73900000D03*
X150700000Y-77400000D03*
X145250000Y-68650000D03*
X147700000Y-71000000D03*
X144800000Y-73900000D03*
X141550000Y-60500000D03*
X150650000Y-60450000D03*
X139500000Y-83650000D03*
X146400000Y-60500000D03*
X148900000Y-79050000D03*
X150550000Y-71550000D03*
X148200000Y-76950000D03*
X147800000Y-64050000D03*
X146750000Y-80750000D03*
X150700000Y-76000000D03*
X149200000Y-84600000D03*
X149150000Y-76050000D03*
X138650000Y-64350000D03*
X140100000Y-65000000D03*
X150600000Y-74700000D03*
X143350000Y-61900000D03*
X146600000Y-67300000D03*
X148950000Y-67500000D03*
X138700000Y-63150000D03*
X149750000Y-75150000D03*
X145050000Y-67300000D03*
X142500000Y-83450000D03*
X142800000Y-75300000D03*
X141300000Y-74500000D03*
X145300000Y-65104000D03*
X144100000Y-79400000D03*
X140500000Y-61250000D03*
X150950000Y-80700000D03*
X145500000Y-72500000D03*
X140100000Y-66450000D03*
X149800000Y-64050000D03*
X144850000Y-62000000D03*
X147800000Y-72250000D03*
X144100000Y-73200000D03*
X138700000Y-79700000D03*
X147700000Y-73450000D03*
X143500000Y-65550000D03*
X149000000Y-62200000D03*
X144100000Y-72500000D03*
X150550000Y-62200000D03*
X140100000Y-78550000D03*
X147250000Y-63100000D03*
X146700000Y-78800000D03*
X150550000Y-63200000D03*
X147150000Y-75550000D03*
X144800000Y-72500000D03*
X141250000Y-69300000D03*
X148150000Y-65650000D03*
X139150000Y-78600000D03*
X141650000Y-84250000D03*
X148950000Y-64950000D03*
X141700000Y-78150000D03*
X141700000Y-63500000D03*
X143650000Y-60450000D03*
X145650000Y-65850000D03*
X139900000Y-74500000D03*
X150550000Y-73050000D03*
X147300000Y-66400000D03*
X143900000Y-80750000D03*
X150000000Y-66800000D03*
X139400000Y-69850000D03*
X149300000Y-63100000D03*
X150800000Y-65650000D03*
X149600000Y-68950000D03*
X139800000Y-79700000D03*
X145700000Y-63000000D03*
%TO.N,/SDA*%
X142654656Y-77889912D03*
%TO.N,/SCL*%
X142900000Y-77000000D03*
%TO.N,+1V8*%
X149700000Y-82250000D03*
X142950000Y-67450000D03*
X147850000Y-84250000D03*
X140700000Y-83100000D03*
X144000000Y-83400000D03*
%TO.N,/DIS_CLK2*%
X150950000Y-83950000D03*
X142500000Y-81425000D03*
%TD*%
%TO.N,+3.3V*%
D13*
X139600000Y-64183475D02*
X139600000Y-62150000D01*
X138800000Y-75100000D02*
X138800000Y-64983475D01*
X141900000Y-62150000D02*
X139600000Y-62150000D01*
X146700000Y-64550000D02*
X144300000Y-64550000D01*
X138800000Y-64983475D02*
X139600000Y-64183475D01*
X144300000Y-64550000D02*
X141900000Y-62150000D01*
%TO.N,/SDA*%
D14*
X142703760Y-77889912D02*
X142654656Y-77889912D01*
X142945115Y-76351443D02*
X137209300Y-76351443D01*
X143390500Y-76796828D02*
X143390500Y-77203172D01*
X143390500Y-77203172D02*
X142703760Y-77889912D01*
X142945115Y-76351443D02*
X143390500Y-76796828D01*
%TO.N,/SCL*%
X142850000Y-77050000D02*
X139050743Y-77050000D01*
X142900000Y-77000000D02*
X142850000Y-77050000D01*
X139050743Y-77050000D02*
X137209300Y-78891443D01*
%TO.N,/DIS_CLK2*%
X147907172Y-84886500D02*
X148843672Y-83950000D01*
X142500000Y-81425000D02*
X143100000Y-82025000D01*
X143100000Y-83636500D02*
X144350000Y-84886500D01*
X143100000Y-82025000D02*
X143100000Y-83636500D01*
X148843672Y-83950000D02*
X150950000Y-83950000D01*
X144350000Y-84886500D02*
X147907172Y-84886500D01*
%TD*%
%TA.AperFunction,Conductor*%
%TO.N,+1V8*%
G36*
X141058098Y-62797185D02*
G01*
X141103853Y-62849989D01*
X141113797Y-62919147D01*
X141084772Y-62982703D01*
X141078740Y-62989181D01*
X141078213Y-62989707D01*
X141078210Y-62989711D01*
X140990609Y-63120814D01*
X140990602Y-63120827D01*
X140930264Y-63266498D01*
X140930261Y-63266510D01*
X140899500Y-63421153D01*
X140899500Y-63578846D01*
X140930261Y-63733489D01*
X140930264Y-63733501D01*
X140990602Y-63879172D01*
X140990609Y-63879185D01*
X141078210Y-64010288D01*
X141078213Y-64010292D01*
X141189707Y-64121786D01*
X141189711Y-64121789D01*
X141320814Y-64209390D01*
X141320827Y-64209397D01*
X141388057Y-64237244D01*
X141466503Y-64269737D01*
X141621153Y-64300499D01*
X141621156Y-64300500D01*
X141621158Y-64300500D01*
X141778844Y-64300500D01*
X141778845Y-64300499D01*
X141933497Y-64269737D01*
X142079179Y-64209394D01*
X142210289Y-64121789D01*
X142321789Y-64010289D01*
X142409394Y-63879179D01*
X142435724Y-63815610D01*
X142479562Y-63761210D01*
X142545856Y-63739144D01*
X142613556Y-63756422D01*
X142637965Y-63775384D01*
X143416364Y-64553783D01*
X143449849Y-64615106D01*
X143444865Y-64684798D01*
X143402993Y-64740731D01*
X143352876Y-64763081D01*
X143266507Y-64780261D01*
X143266498Y-64780264D01*
X143120827Y-64840602D01*
X143120814Y-64840609D01*
X142989711Y-64928210D01*
X142989707Y-64928213D01*
X142878213Y-65039707D01*
X142878210Y-65039711D01*
X142790609Y-65170814D01*
X142790602Y-65170827D01*
X142730264Y-65316498D01*
X142730261Y-65316510D01*
X142699500Y-65471153D01*
X142699500Y-65628846D01*
X142730261Y-65783489D01*
X142730264Y-65783501D01*
X142790602Y-65929172D01*
X142790609Y-65929185D01*
X142878210Y-66060288D01*
X142878213Y-66060292D01*
X142989707Y-66171786D01*
X142989711Y-66171789D01*
X143120814Y-66259390D01*
X143120827Y-66259397D01*
X143194013Y-66289711D01*
X143266503Y-66319737D01*
X143421153Y-66350499D01*
X143421156Y-66350500D01*
X143421158Y-66350500D01*
X143578844Y-66350500D01*
X143578845Y-66350499D01*
X143733497Y-66319737D01*
X143879179Y-66259394D01*
X144010289Y-66171789D01*
X144121789Y-66060289D01*
X144209394Y-65929179D01*
X144215693Y-65913973D01*
X144240316Y-65854527D01*
X144269737Y-65783497D01*
X144300500Y-65628842D01*
X144300500Y-65471158D01*
X144300500Y-65471155D01*
X144271565Y-65325692D01*
X144277792Y-65256100D01*
X144320655Y-65200923D01*
X144386545Y-65177678D01*
X144393182Y-65177500D01*
X144396673Y-65177500D01*
X144463712Y-65197185D01*
X144509467Y-65249989D01*
X144518290Y-65277308D01*
X144530261Y-65337491D01*
X144530264Y-65337501D01*
X144590602Y-65483172D01*
X144590609Y-65483185D01*
X144678210Y-65614288D01*
X144678213Y-65614292D01*
X144789709Y-65725788D01*
X144794388Y-65728914D01*
X144839194Y-65782525D01*
X144849500Y-65832018D01*
X144849500Y-65928846D01*
X144880261Y-66083489D01*
X144880264Y-66083501D01*
X144940602Y-66229172D01*
X144940609Y-66229185D01*
X145000520Y-66318847D01*
X145021398Y-66385524D01*
X145002914Y-66452905D01*
X144950935Y-66499595D01*
X144921610Y-66509355D01*
X144816508Y-66530261D01*
X144816498Y-66530264D01*
X144670827Y-66590602D01*
X144670814Y-66590609D01*
X144539711Y-66678210D01*
X144539707Y-66678213D01*
X144428213Y-66789707D01*
X144428210Y-66789711D01*
X144340609Y-66920814D01*
X144340602Y-66920827D01*
X144280264Y-67066498D01*
X144280261Y-67066510D01*
X144249500Y-67221153D01*
X144249500Y-67378846D01*
X144280261Y-67533489D01*
X144280264Y-67533501D01*
X144340602Y-67679172D01*
X144340609Y-67679185D01*
X144428210Y-67810288D01*
X144428213Y-67810292D01*
X144539710Y-67921789D01*
X144598617Y-67961149D01*
X144643422Y-68014761D01*
X144652129Y-68084086D01*
X144629852Y-68133481D01*
X144631595Y-68134646D01*
X144540609Y-68270814D01*
X144540602Y-68270827D01*
X144480264Y-68416498D01*
X144480261Y-68416510D01*
X144449500Y-68571153D01*
X144449500Y-68728846D01*
X144480261Y-68883489D01*
X144480264Y-68883501D01*
X144540602Y-69029172D01*
X144540609Y-69029185D01*
X144628210Y-69160288D01*
X144628213Y-69160292D01*
X144739707Y-69271786D01*
X144739711Y-69271789D01*
X144870814Y-69359390D01*
X144870827Y-69359397D01*
X145016498Y-69419735D01*
X145016503Y-69419737D01*
X145171153Y-69450499D01*
X145171156Y-69450500D01*
X145171158Y-69450500D01*
X145328844Y-69450500D01*
X145328845Y-69450499D01*
X145483497Y-69419737D01*
X145629179Y-69359394D01*
X145760289Y-69271789D01*
X145871789Y-69160289D01*
X145959394Y-69029179D01*
X146019737Y-68883497D01*
X146050500Y-68728842D01*
X146050500Y-68571158D01*
X146050500Y-68571155D01*
X146050499Y-68571153D01*
X146024353Y-68439711D01*
X146019737Y-68416503D01*
X146004274Y-68379172D01*
X145959397Y-68270827D01*
X145959390Y-68270814D01*
X145871789Y-68139711D01*
X145871786Y-68139707D01*
X145760292Y-68028213D01*
X145760288Y-68028210D01*
X145701382Y-67988850D01*
X145692661Y-67978415D01*
X145688645Y-67976494D01*
X145681813Y-67965435D01*
X145656577Y-67935238D01*
X145654897Y-67921862D01*
X145651925Y-67917051D01*
X145652219Y-67900544D01*
X145647870Y-67865913D01*
X145653073Y-67852725D01*
X145653172Y-67847192D01*
X145665063Y-67822338D01*
X145667305Y-67816657D01*
X145671147Y-67810930D01*
X145671789Y-67810289D01*
X145721898Y-67735296D01*
X145722032Y-67735096D01*
X145748777Y-67712831D01*
X145775510Y-67690491D01*
X145775634Y-67690475D01*
X145775731Y-67690395D01*
X145810491Y-67686097D01*
X145844835Y-67681784D01*
X145844946Y-67681837D01*
X145845073Y-67681822D01*
X145876554Y-67696959D01*
X145907862Y-67711938D01*
X145907974Y-67712067D01*
X145908042Y-67712100D01*
X145908138Y-67712257D01*
X145928102Y-67735296D01*
X145978210Y-67810288D01*
X145978213Y-67810292D01*
X146089707Y-67921786D01*
X146089711Y-67921789D01*
X146220814Y-68009390D01*
X146220827Y-68009397D01*
X146366498Y-68069735D01*
X146366503Y-68069737D01*
X146521153Y-68100499D01*
X146521156Y-68100500D01*
X146521158Y-68100500D01*
X146678844Y-68100500D01*
X146678845Y-68100499D01*
X146833497Y-68069737D01*
X146979179Y-68009394D01*
X147110289Y-67921789D01*
X147221789Y-67810289D01*
X147309394Y-67679179D01*
X147369737Y-67533497D01*
X147400500Y-67378842D01*
X147400500Y-67297955D01*
X147420185Y-67230916D01*
X147472989Y-67185161D01*
X147500304Y-67176339D01*
X147533497Y-67169737D01*
X147679179Y-67109394D01*
X147810289Y-67021789D01*
X147921789Y-66910289D01*
X148009394Y-66779179D01*
X148069737Y-66633497D01*
X148078269Y-66590606D01*
X148086285Y-66550308D01*
X148118670Y-66488397D01*
X148179386Y-66453823D01*
X148207902Y-66450500D01*
X148228844Y-66450500D01*
X148228845Y-66450499D01*
X148383497Y-66419737D01*
X148501592Y-66370821D01*
X148529172Y-66359397D01*
X148529172Y-66359396D01*
X148529179Y-66359394D01*
X148660289Y-66271789D01*
X148771789Y-66160289D01*
X148859394Y-66029179D01*
X148865017Y-66015605D01*
X148879655Y-65980264D01*
X148919737Y-65883497D01*
X148926622Y-65848879D01*
X148959007Y-65786969D01*
X149019723Y-65752395D01*
X149024049Y-65751454D01*
X149104785Y-65735393D01*
X149183497Y-65719737D01*
X149329179Y-65659394D01*
X149460289Y-65571789D01*
X149571789Y-65460289D01*
X149659394Y-65329179D01*
X149719737Y-65183497D01*
X149750500Y-65028842D01*
X149750500Y-64974500D01*
X149770185Y-64907461D01*
X149822989Y-64861706D01*
X149874500Y-64850500D01*
X149878844Y-64850500D01*
X149878845Y-64850499D01*
X150033497Y-64819737D01*
X150179179Y-64759394D01*
X150310289Y-64671789D01*
X150421789Y-64560289D01*
X150509394Y-64429179D01*
X150569737Y-64283497D01*
X150600500Y-64128842D01*
X150600500Y-64107901D01*
X150620185Y-64040862D01*
X150672989Y-63995107D01*
X150700301Y-63986285D01*
X150783497Y-63969737D01*
X150929179Y-63909394D01*
X150934560Y-63905798D01*
X150944101Y-63899424D01*
X151010778Y-63878545D01*
X151078158Y-63897029D01*
X151124849Y-63949007D01*
X151130924Y-63964207D01*
X151132053Y-63967683D01*
X151132054Y-63967686D01*
X151197021Y-64167632D01*
X151197744Y-64169857D01*
X151294251Y-64359263D01*
X151419190Y-64531229D01*
X151569513Y-64681552D01*
X151741482Y-64806493D01*
X151750246Y-64810959D01*
X151801042Y-64858934D01*
X151817836Y-64926755D01*
X151795298Y-64992890D01*
X151765468Y-65022740D01*
X151758182Y-65027883D01*
X151741484Y-65036392D01*
X151581565Y-65152578D01*
X151580789Y-65153127D01*
X151548544Y-65164141D01*
X151516349Y-65175628D01*
X151515496Y-65175429D01*
X151514670Y-65175712D01*
X151481538Y-65167532D01*
X151448295Y-65159802D01*
X151447366Y-65159096D01*
X151446837Y-65158966D01*
X151445923Y-65157999D01*
X151421590Y-65139511D01*
X151310292Y-65028213D01*
X151310288Y-65028210D01*
X151179185Y-64940609D01*
X151179172Y-64940602D01*
X151033501Y-64880264D01*
X151033489Y-64880261D01*
X150878845Y-64849500D01*
X150878842Y-64849500D01*
X150721158Y-64849500D01*
X150721155Y-64849500D01*
X150566510Y-64880261D01*
X150566498Y-64880264D01*
X150420827Y-64940602D01*
X150420814Y-64940609D01*
X150289711Y-65028210D01*
X150289707Y-65028213D01*
X150178213Y-65139707D01*
X150178210Y-65139711D01*
X150090609Y-65270814D01*
X150090602Y-65270827D01*
X150030264Y-65416498D01*
X150030261Y-65416510D01*
X149999500Y-65571153D01*
X149999500Y-65728846D01*
X150024114Y-65852591D01*
X150017887Y-65922183D01*
X149975023Y-65977360D01*
X149926689Y-65998399D01*
X149766508Y-66030261D01*
X149766498Y-66030264D01*
X149620827Y-66090602D01*
X149620814Y-66090609D01*
X149489711Y-66178210D01*
X149489707Y-66178213D01*
X149378213Y-66289707D01*
X149378210Y-66289711D01*
X149290609Y-66420814D01*
X149290602Y-66420827D01*
X149230264Y-66566498D01*
X149230261Y-66566507D01*
X149221339Y-66611362D01*
X149188953Y-66673273D01*
X149128237Y-66707846D01*
X149075532Y-66708787D01*
X149028842Y-66699500D01*
X148871158Y-66699500D01*
X148871155Y-66699500D01*
X148716510Y-66730261D01*
X148716498Y-66730264D01*
X148570827Y-66790602D01*
X148570814Y-66790609D01*
X148439711Y-66878210D01*
X148439707Y-66878213D01*
X148328213Y-66989707D01*
X148328210Y-66989711D01*
X148240609Y-67120814D01*
X148240602Y-67120827D01*
X148180264Y-67266498D01*
X148180261Y-67266510D01*
X148149500Y-67421153D01*
X148149500Y-67578846D01*
X148180261Y-67733489D01*
X148180264Y-67733501D01*
X148240602Y-67879172D01*
X148240609Y-67879185D01*
X148306386Y-67977626D01*
X148327264Y-68044303D01*
X148308780Y-68111684D01*
X148256801Y-68158374D01*
X148227476Y-68168134D01*
X148166508Y-68180261D01*
X148166498Y-68180264D01*
X148020827Y-68240602D01*
X148020814Y-68240609D01*
X147889711Y-68328210D01*
X147889707Y-68328213D01*
X147778213Y-68439707D01*
X147778210Y-68439711D01*
X147690609Y-68570814D01*
X147690602Y-68570827D01*
X147630264Y-68716498D01*
X147630261Y-68716510D01*
X147599500Y-68871153D01*
X147599500Y-69028846D01*
X147630261Y-69183489D01*
X147630264Y-69183501D01*
X147690602Y-69329172D01*
X147690609Y-69329185D01*
X147778210Y-69460288D01*
X147778213Y-69460292D01*
X147889707Y-69571786D01*
X147889711Y-69571789D01*
X148020814Y-69659390D01*
X148020827Y-69659397D01*
X148166498Y-69719735D01*
X148166503Y-69719737D01*
X148321153Y-69750499D01*
X148321156Y-69750500D01*
X148321158Y-69750500D01*
X148478844Y-69750500D01*
X148478845Y-69750499D01*
X148633497Y-69719737D01*
X148779179Y-69659394D01*
X148910289Y-69571789D01*
X148912312Y-69569766D01*
X148913634Y-69569043D01*
X148914999Y-69567924D01*
X148915211Y-69568182D01*
X148973632Y-69536276D01*
X149043324Y-69541255D01*
X149084939Y-69567999D01*
X149085001Y-69567924D01*
X149085648Y-69568454D01*
X149087688Y-69569766D01*
X149089711Y-69571789D01*
X149220814Y-69659390D01*
X149220827Y-69659397D01*
X149366498Y-69719735D01*
X149366503Y-69719737D01*
X149521153Y-69750499D01*
X149521156Y-69750500D01*
X149521158Y-69750500D01*
X149678844Y-69750500D01*
X149678845Y-69750499D01*
X149833497Y-69719737D01*
X149979179Y-69659394D01*
X150110289Y-69571789D01*
X150221789Y-69460289D01*
X150309394Y-69329179D01*
X150369737Y-69183497D01*
X150400500Y-69028842D01*
X150400500Y-68871158D01*
X150400500Y-68871155D01*
X150400499Y-68871153D01*
X150393851Y-68837730D01*
X150369737Y-68716503D01*
X150331900Y-68625156D01*
X150309397Y-68570827D01*
X150309390Y-68570814D01*
X150221789Y-68439711D01*
X150221786Y-68439707D01*
X150110292Y-68328213D01*
X150110288Y-68328210D01*
X149979185Y-68240609D01*
X149979172Y-68240602D01*
X149833501Y-68180264D01*
X149833491Y-68180261D01*
X149684255Y-68150576D01*
X149622344Y-68118191D01*
X149587770Y-68057475D01*
X149591510Y-67987706D01*
X149605346Y-67960067D01*
X149621937Y-67935238D01*
X149630925Y-67921786D01*
X149659389Y-67879187D01*
X149659390Y-67879184D01*
X149659394Y-67879179D01*
X149719737Y-67733497D01*
X149728660Y-67688637D01*
X149761044Y-67626728D01*
X149821760Y-67592154D01*
X149874469Y-67591213D01*
X149921156Y-67600500D01*
X149921158Y-67600500D01*
X150078844Y-67600500D01*
X150078845Y-67600499D01*
X150233497Y-67569737D01*
X150379179Y-67509394D01*
X150510289Y-67421789D01*
X150621789Y-67310289D01*
X150709394Y-67179179D01*
X150769737Y-67033497D01*
X150800500Y-66878842D01*
X150800500Y-66721158D01*
X150800500Y-66721155D01*
X150800499Y-66721153D01*
X150775885Y-66597408D01*
X150782112Y-66527817D01*
X150824975Y-66472639D01*
X150873311Y-66451600D01*
X150878841Y-66450500D01*
X150878842Y-66450500D01*
X150959852Y-66434386D01*
X150991158Y-66428159D01*
X151060750Y-66434386D01*
X151115927Y-66477249D01*
X151133278Y-66511455D01*
X151197396Y-66708787D01*
X151197744Y-66709857D01*
X151294251Y-66899263D01*
X151419190Y-67071229D01*
X151569513Y-67221552D01*
X151741482Y-67346493D01*
X151750246Y-67350959D01*
X151801042Y-67398934D01*
X151817836Y-67466755D01*
X151795298Y-67532890D01*
X151750246Y-67571927D01*
X151741482Y-67576392D01*
X151569513Y-67701333D01*
X151419190Y-67851656D01*
X151294251Y-68023622D01*
X151197744Y-68213028D01*
X151132053Y-68415203D01*
X151104273Y-68590602D01*
X151098800Y-68625156D01*
X151098800Y-68837730D01*
X151108834Y-68901087D01*
X151129123Y-69029185D01*
X151132054Y-69047686D01*
X151190710Y-69228211D01*
X151197744Y-69249857D01*
X151294251Y-69439263D01*
X151419190Y-69611229D01*
X151569513Y-69761552D01*
X151741482Y-69886493D01*
X151750246Y-69890959D01*
X151801042Y-69938934D01*
X151817836Y-70006755D01*
X151795298Y-70072890D01*
X151750246Y-70111927D01*
X151741482Y-70116392D01*
X151569513Y-70241333D01*
X151419190Y-70391656D01*
X151294251Y-70563622D01*
X151197744Y-70753026D01*
X151177078Y-70816632D01*
X151137640Y-70874307D01*
X151073281Y-70901505D01*
X151004435Y-70889590D01*
X150990257Y-70881416D01*
X150929183Y-70840608D01*
X150929172Y-70840602D01*
X150783501Y-70780264D01*
X150783489Y-70780261D01*
X150628845Y-70749500D01*
X150628842Y-70749500D01*
X150471158Y-70749500D01*
X150471155Y-70749500D01*
X150316510Y-70780261D01*
X150316498Y-70780264D01*
X150170827Y-70840602D01*
X150170814Y-70840609D01*
X150039711Y-70928210D01*
X150039707Y-70928213D01*
X149928213Y-71039707D01*
X149928210Y-71039711D01*
X149840609Y-71170814D01*
X149840602Y-71170827D01*
X149780264Y-71316498D01*
X149780261Y-71316510D01*
X149749500Y-71471153D01*
X149749500Y-71628846D01*
X149780261Y-71783489D01*
X149780263Y-71783496D01*
X149809898Y-71855044D01*
X149817366Y-71924513D01*
X149786090Y-71986992D01*
X149726001Y-72022644D01*
X149656175Y-72020149D01*
X149626445Y-72005597D01*
X149529185Y-71940609D01*
X149529172Y-71940602D01*
X149383501Y-71880264D01*
X149383489Y-71880261D01*
X149228845Y-71849500D01*
X149228842Y-71849500D01*
X149071158Y-71849500D01*
X149071155Y-71849500D01*
X148916510Y-71880261D01*
X148916498Y-71880264D01*
X148770827Y-71940602D01*
X148770816Y-71940608D01*
X148714333Y-71978349D01*
X148647655Y-71999226D01*
X148580275Y-71980741D01*
X148533586Y-71928762D01*
X148530889Y-71922715D01*
X148509394Y-71870821D01*
X148509390Y-71870814D01*
X148421789Y-71739711D01*
X148421786Y-71739707D01*
X148341908Y-71659829D01*
X148308423Y-71598506D01*
X148313407Y-71528814D01*
X148326484Y-71503261D01*
X148409394Y-71379179D01*
X148469737Y-71233497D01*
X148500500Y-71078842D01*
X148500500Y-70921158D01*
X148500500Y-70921155D01*
X148500499Y-70921153D01*
X148491181Y-70874307D01*
X148469737Y-70766503D01*
X148440301Y-70695437D01*
X148409397Y-70620827D01*
X148409390Y-70620814D01*
X148321789Y-70489711D01*
X148321786Y-70489707D01*
X148210292Y-70378213D01*
X148210288Y-70378210D01*
X148079185Y-70290609D01*
X148079172Y-70290602D01*
X147933501Y-70230264D01*
X147933489Y-70230261D01*
X147778845Y-70199500D01*
X147778842Y-70199500D01*
X147621158Y-70199500D01*
X147621155Y-70199500D01*
X147466510Y-70230261D01*
X147466498Y-70230264D01*
X147320827Y-70290602D01*
X147320814Y-70290609D01*
X147189711Y-70378210D01*
X147189707Y-70378213D01*
X147078213Y-70489707D01*
X147078210Y-70489711D01*
X146990609Y-70620814D01*
X146990602Y-70620827D01*
X146930264Y-70766498D01*
X146930261Y-70766510D01*
X146899500Y-70921153D01*
X146899500Y-71078846D01*
X146930261Y-71233489D01*
X146930264Y-71233501D01*
X146990602Y-71379172D01*
X146990609Y-71379185D01*
X147078210Y-71510288D01*
X147078213Y-71510292D01*
X147158091Y-71590170D01*
X147191576Y-71651493D01*
X147186592Y-71721185D01*
X147173512Y-71746742D01*
X147090609Y-71870814D01*
X147090602Y-71870827D01*
X147030264Y-72016498D01*
X147030261Y-72016510D01*
X146999500Y-72171153D01*
X146999500Y-72328846D01*
X147030261Y-72483489D01*
X147030264Y-72483501D01*
X147090602Y-72629172D01*
X147090609Y-72629185D01*
X147153485Y-72723285D01*
X147174363Y-72789963D01*
X147155878Y-72857343D01*
X147138064Y-72879857D01*
X147078213Y-72939707D01*
X147078210Y-72939711D01*
X146990609Y-73070814D01*
X146990602Y-73070827D01*
X146930264Y-73216498D01*
X146930261Y-73216510D01*
X146899500Y-73371153D01*
X146899500Y-73528846D01*
X146930261Y-73683489D01*
X146930264Y-73683501D01*
X146990602Y-73829172D01*
X146990609Y-73829185D01*
X147078210Y-73960288D01*
X147078213Y-73960292D01*
X147189707Y-74071786D01*
X147189711Y-74071789D01*
X147320814Y-74159390D01*
X147320827Y-74159397D01*
X147394013Y-74189711D01*
X147466503Y-74219737D01*
X147621153Y-74250499D01*
X147621156Y-74250500D01*
X147621158Y-74250500D01*
X147778844Y-74250500D01*
X147778845Y-74250499D01*
X147933497Y-74219737D01*
X148079179Y-74159394D01*
X148210289Y-74071789D01*
X148321789Y-73960289D01*
X148409394Y-73829179D01*
X148412719Y-73821153D01*
X148433127Y-73771882D01*
X148469737Y-73683497D01*
X148500500Y-73528842D01*
X148500500Y-73410759D01*
X148520185Y-73343720D01*
X148572989Y-73297965D01*
X148642147Y-73288021D01*
X148693391Y-73307657D01*
X148770821Y-73359394D01*
X148770823Y-73359395D01*
X148770827Y-73359397D01*
X148894828Y-73410759D01*
X148916503Y-73419737D01*
X149071153Y-73450499D01*
X149071156Y-73450500D01*
X149071158Y-73450500D01*
X149228844Y-73450500D01*
X149228845Y-73450499D01*
X149383497Y-73419737D01*
X149529179Y-73359394D01*
X149624828Y-73295482D01*
X149691503Y-73274606D01*
X149758883Y-73293090D01*
X149805573Y-73345068D01*
X149808278Y-73351133D01*
X149840604Y-73429175D01*
X149840609Y-73429185D01*
X149928210Y-73560288D01*
X149928213Y-73560292D01*
X150039707Y-73671786D01*
X150039711Y-73671789D01*
X150170814Y-73759390D01*
X150170818Y-73759392D01*
X150170821Y-73759394D01*
X150182482Y-73764224D01*
X150200969Y-73771882D01*
X150255372Y-73815723D01*
X150277437Y-73882017D01*
X150260158Y-73949717D01*
X150222407Y-73989545D01*
X150089711Y-74078210D01*
X150089707Y-74078213D01*
X149978210Y-74189710D01*
X149908266Y-74294391D01*
X149854654Y-74339196D01*
X149805164Y-74349500D01*
X149671155Y-74349500D01*
X149516510Y-74380261D01*
X149516498Y-74380264D01*
X149370827Y-74440602D01*
X149370814Y-74440609D01*
X149239711Y-74528210D01*
X149239707Y-74528213D01*
X149128213Y-74639707D01*
X149128210Y-74639711D01*
X149040609Y-74770814D01*
X149040602Y-74770827D01*
X148980264Y-74916498D01*
X148980261Y-74916510D01*
X148949500Y-75071153D01*
X148949500Y-75183740D01*
X148929815Y-75250779D01*
X148877011Y-75296534D01*
X148872953Y-75298301D01*
X148770824Y-75340604D01*
X148770814Y-75340609D01*
X148639711Y-75428210D01*
X148639707Y-75428213D01*
X148528213Y-75539707D01*
X148528210Y-75539711D01*
X148440609Y-75670814D01*
X148440602Y-75670827D01*
X148380264Y-75816498D01*
X148380261Y-75816510D01*
X148349500Y-75971153D01*
X148349500Y-76025500D01*
X148329815Y-76092539D01*
X148277011Y-76138294D01*
X148225500Y-76149500D01*
X148121155Y-76149500D01*
X147966510Y-76180261D01*
X147966488Y-76180267D01*
X147964075Y-76181267D01*
X147962711Y-76181413D01*
X147960676Y-76182031D01*
X147960558Y-76181644D01*
X147894605Y-76188727D01*
X147832130Y-76157443D01*
X147796486Y-76097350D01*
X147798989Y-76027525D01*
X147813535Y-75997810D01*
X147859394Y-75929179D01*
X147919737Y-75783497D01*
X147950500Y-75628842D01*
X147950500Y-75471158D01*
X147950500Y-75471155D01*
X147950499Y-75471153D01*
X147932137Y-75378842D01*
X147919737Y-75316503D01*
X147919345Y-75315557D01*
X147859397Y-75170827D01*
X147859390Y-75170814D01*
X147771789Y-75039711D01*
X147771786Y-75039707D01*
X147660292Y-74928213D01*
X147660288Y-74928210D01*
X147529185Y-74840609D01*
X147529172Y-74840602D01*
X147383501Y-74780264D01*
X147383489Y-74780261D01*
X147228845Y-74749500D01*
X147228842Y-74749500D01*
X147071158Y-74749500D01*
X147071155Y-74749500D01*
X146916510Y-74780261D01*
X146916498Y-74780264D01*
X146770827Y-74840602D01*
X146770814Y-74840609D01*
X146639711Y-74928210D01*
X146639707Y-74928213D01*
X146528213Y-75039707D01*
X146528210Y-75039711D01*
X146440609Y-75170814D01*
X146440602Y-75170827D01*
X146380264Y-75316498D01*
X146380261Y-75316510D01*
X146349500Y-75471153D01*
X146349500Y-75628846D01*
X146380261Y-75783489D01*
X146380264Y-75783501D01*
X146440602Y-75929172D01*
X146440609Y-75929185D01*
X146528210Y-76060288D01*
X146528213Y-76060292D01*
X146639707Y-76171786D01*
X146639711Y-76171789D01*
X146770814Y-76259390D01*
X146770827Y-76259397D01*
X146916498Y-76319735D01*
X146916503Y-76319737D01*
X147031156Y-76342543D01*
X147071153Y-76350499D01*
X147071156Y-76350500D01*
X147071158Y-76350500D01*
X147228844Y-76350500D01*
X147228845Y-76350499D01*
X147383497Y-76319737D01*
X147384899Y-76319155D01*
X147385907Y-76318739D01*
X147387268Y-76318592D01*
X147389324Y-76317969D01*
X147389442Y-76318358D01*
X147455376Y-76311269D01*
X147517856Y-76342543D01*
X147553509Y-76402631D01*
X147551016Y-76472456D01*
X147536463Y-76502190D01*
X147490609Y-76570814D01*
X147490602Y-76570827D01*
X147430264Y-76716498D01*
X147430261Y-76716510D01*
X147399500Y-76871153D01*
X147399500Y-77028846D01*
X147430261Y-77183489D01*
X147430264Y-77183501D01*
X147490602Y-77329172D01*
X147490609Y-77329185D01*
X147578210Y-77460288D01*
X147578213Y-77460292D01*
X147689707Y-77571786D01*
X147689711Y-77571789D01*
X147820814Y-77659390D01*
X147820827Y-77659397D01*
X147962708Y-77718165D01*
X147966503Y-77719737D01*
X148116131Y-77749500D01*
X148121153Y-77750499D01*
X148121156Y-77750500D01*
X148121158Y-77750500D01*
X148278844Y-77750500D01*
X148278845Y-77750499D01*
X148433497Y-77719737D01*
X148579179Y-77659394D01*
X148710289Y-77571789D01*
X148821789Y-77460289D01*
X148909394Y-77329179D01*
X148912719Y-77321153D01*
X148969735Y-77183501D01*
X148969737Y-77183497D01*
X149000500Y-77028842D01*
X149000500Y-76974500D01*
X149020185Y-76907461D01*
X149072989Y-76861706D01*
X149124500Y-76850500D01*
X149228844Y-76850500D01*
X149228845Y-76850499D01*
X149383497Y-76819737D01*
X149529179Y-76759394D01*
X149660289Y-76671789D01*
X149771789Y-76560289D01*
X149810610Y-76502190D01*
X149838602Y-76460297D01*
X149892214Y-76415491D01*
X149961539Y-76406784D01*
X150024566Y-76436938D01*
X150034647Y-76447104D01*
X150040172Y-76453360D01*
X150078211Y-76510289D01*
X150182954Y-76615032D01*
X150185502Y-76617917D01*
X150198752Y-76646222D01*
X150213725Y-76673642D01*
X150213441Y-76677600D01*
X150215125Y-76681196D01*
X150210970Y-76712163D01*
X150208741Y-76743334D01*
X150206272Y-76747174D01*
X150205834Y-76750445D01*
X150199018Y-76758462D01*
X150180240Y-76787681D01*
X150078213Y-76889707D01*
X150078210Y-76889711D01*
X149990609Y-77020814D01*
X149990602Y-77020827D01*
X149930264Y-77166498D01*
X149930261Y-77166510D01*
X149899500Y-77321153D01*
X149899500Y-77478846D01*
X149930261Y-77633489D01*
X149930264Y-77633501D01*
X149990602Y-77779172D01*
X149990609Y-77779185D01*
X150078210Y-77910288D01*
X150078213Y-77910292D01*
X150189707Y-78021786D01*
X150189711Y-78021789D01*
X150320814Y-78109390D01*
X150320827Y-78109397D01*
X150466498Y-78169735D01*
X150466503Y-78169737D01*
X150476506Y-78171726D01*
X150538416Y-78204111D01*
X150572991Y-78264826D01*
X150569252Y-78334595D01*
X150528387Y-78391268D01*
X150499768Y-78407905D01*
X150420823Y-78440604D01*
X150420814Y-78440609D01*
X150289711Y-78528210D01*
X150289707Y-78528213D01*
X150178213Y-78639707D01*
X150178210Y-78639711D01*
X150090609Y-78770814D01*
X150090602Y-78770827D01*
X150030264Y-78916498D01*
X150030261Y-78916510D01*
X149999500Y-79071153D01*
X149999500Y-79228846D01*
X150030261Y-79383489D01*
X150030264Y-79383501D01*
X150090602Y-79529172D01*
X150090609Y-79529185D01*
X150178210Y-79660288D01*
X150178213Y-79660292D01*
X150289707Y-79771786D01*
X150289711Y-79771789D01*
X150420814Y-79859390D01*
X150426191Y-79862264D01*
X150425572Y-79863421D01*
X150474719Y-79903029D01*
X150496781Y-79969324D01*
X150479499Y-80037023D01*
X150444281Y-80074179D01*
X150444419Y-80074347D01*
X150443085Y-80075441D01*
X150441757Y-80076843D01*
X150439713Y-80078208D01*
X150439707Y-80078213D01*
X150328213Y-80189707D01*
X150328210Y-80189711D01*
X150240609Y-80320814D01*
X150240602Y-80320827D01*
X150180264Y-80466498D01*
X150180261Y-80466510D01*
X150149500Y-80621153D01*
X150149500Y-80778846D01*
X150180261Y-80933489D01*
X150180264Y-80933501D01*
X150240602Y-81079172D01*
X150240609Y-81079185D01*
X150328210Y-81210288D01*
X150328213Y-81210292D01*
X150439707Y-81321786D01*
X150439711Y-81321789D01*
X150570814Y-81409390D01*
X150570827Y-81409397D01*
X150716498Y-81469735D01*
X150716503Y-81469737D01*
X150871153Y-81500499D01*
X150871156Y-81500500D01*
X150986998Y-81500500D01*
X151054037Y-81520185D01*
X151099792Y-81572989D01*
X151109471Y-81605102D01*
X151132053Y-81747683D01*
X151132054Y-81747686D01*
X151193010Y-81935289D01*
X151197744Y-81949857D01*
X151294251Y-82139263D01*
X151419190Y-82311229D01*
X151569513Y-82461552D01*
X151741482Y-82586493D01*
X151750246Y-82590959D01*
X151801042Y-82638934D01*
X151817836Y-82706755D01*
X151795298Y-82772890D01*
X151750246Y-82811927D01*
X151741482Y-82816392D01*
X151569513Y-82941333D01*
X151419195Y-83091651D01*
X151372641Y-83155727D01*
X151317311Y-83198392D01*
X151247697Y-83204370D01*
X151224873Y-83197401D01*
X151210773Y-83191561D01*
X151183498Y-83180263D01*
X151183488Y-83180260D01*
X151028845Y-83149500D01*
X151028842Y-83149500D01*
X150871158Y-83149500D01*
X150871155Y-83149500D01*
X150716510Y-83180261D01*
X150716498Y-83180264D01*
X150570827Y-83240602D01*
X150570814Y-83240609D01*
X150439711Y-83328210D01*
X150439707Y-83328213D01*
X150418240Y-83349681D01*
X150356917Y-83383166D01*
X150330559Y-83386000D01*
X148769419Y-83386000D01*
X148638206Y-83421158D01*
X148638205Y-83421157D01*
X148625977Y-83424434D01*
X148625972Y-83424436D01*
X148497371Y-83498684D01*
X148497365Y-83498689D01*
X148392357Y-83603698D01*
X147709875Y-84286181D01*
X147648552Y-84319666D01*
X147622194Y-84322500D01*
X146058941Y-84322500D01*
X145991902Y-84302815D01*
X145946147Y-84250011D01*
X145936203Y-84180853D01*
X145965228Y-84117297D01*
X145971260Y-84110819D01*
X146071786Y-84010292D01*
X146071789Y-84010289D01*
X146159394Y-83879179D01*
X146162854Y-83870827D01*
X146217163Y-83739711D01*
X146219737Y-83733497D01*
X146250500Y-83578842D01*
X146250500Y-83421158D01*
X146250500Y-83421157D01*
X146250500Y-83421155D01*
X146250499Y-83421153D01*
X146246865Y-83402884D01*
X146219737Y-83266503D01*
X146218544Y-83263622D01*
X146159397Y-83120827D01*
X146159390Y-83120814D01*
X146071789Y-82989711D01*
X146071786Y-82989707D01*
X145960292Y-82878213D01*
X145960288Y-82878210D01*
X145829185Y-82790609D01*
X145829172Y-82790602D01*
X145683501Y-82730264D01*
X145683489Y-82730261D01*
X145528845Y-82699500D01*
X145528842Y-82699500D01*
X145371158Y-82699500D01*
X145371155Y-82699500D01*
X145216510Y-82730261D01*
X145216498Y-82730264D01*
X145070827Y-82790602D01*
X145070814Y-82790609D01*
X144939711Y-82878210D01*
X144939707Y-82878213D01*
X144828213Y-82989707D01*
X144828210Y-82989711D01*
X144740609Y-83120814D01*
X144740602Y-83120827D01*
X144680264Y-83266498D01*
X144680261Y-83266510D01*
X144649500Y-83421153D01*
X144649500Y-83578846D01*
X144680261Y-83733489D01*
X144680264Y-83733501D01*
X144740602Y-83879172D01*
X144740609Y-83879185D01*
X144828210Y-84010288D01*
X144828213Y-84010292D01*
X144928740Y-84110819D01*
X144962225Y-84172142D01*
X144957241Y-84241834D01*
X144915369Y-84297767D01*
X144849905Y-84322184D01*
X144841059Y-84322500D01*
X144634978Y-84322500D01*
X144567939Y-84302815D01*
X144547297Y-84286181D01*
X143700319Y-83439203D01*
X143666834Y-83377880D01*
X143664000Y-83351522D01*
X143664000Y-81950750D01*
X143664000Y-81950748D01*
X143625565Y-81807304D01*
X143569521Y-81710233D01*
X143553049Y-81642337D01*
X143575901Y-81576310D01*
X143630822Y-81533119D01*
X143700375Y-81526477D01*
X143701101Y-81526619D01*
X143821155Y-81550500D01*
X143821158Y-81550500D01*
X143978844Y-81550500D01*
X143978845Y-81550499D01*
X144133497Y-81519737D01*
X144279179Y-81459394D01*
X144410289Y-81371789D01*
X144521789Y-81260289D01*
X144609394Y-81129179D01*
X144669737Y-80983497D01*
X144700500Y-80828842D01*
X144700500Y-80671158D01*
X144700500Y-80671155D01*
X144700499Y-80671153D01*
X145949500Y-80671153D01*
X145949500Y-80828846D01*
X145980261Y-80983489D01*
X145980264Y-80983501D01*
X146040602Y-81129172D01*
X146040609Y-81129185D01*
X146128210Y-81260288D01*
X146128213Y-81260292D01*
X146239707Y-81371786D01*
X146239711Y-81371789D01*
X146370814Y-81459390D01*
X146370827Y-81459397D01*
X146478138Y-81503846D01*
X146516503Y-81519737D01*
X146671153Y-81550499D01*
X146671156Y-81550500D01*
X146671158Y-81550500D01*
X146828844Y-81550500D01*
X146828845Y-81550499D01*
X146983497Y-81519737D01*
X147129179Y-81459394D01*
X147260289Y-81371789D01*
X147371789Y-81260289D01*
X147459394Y-81129179D01*
X147519737Y-80983497D01*
X147550500Y-80828842D01*
X147550500Y-80671158D01*
X147550500Y-80671155D01*
X147550499Y-80671153D01*
X147534317Y-80589803D01*
X147519737Y-80516503D01*
X147519735Y-80516498D01*
X147459397Y-80370827D01*
X147459390Y-80370814D01*
X147371789Y-80239711D01*
X147371786Y-80239707D01*
X147260292Y-80128213D01*
X147260288Y-80128210D01*
X147129185Y-80040609D01*
X147129172Y-80040602D01*
X146983501Y-79980264D01*
X146983489Y-79980261D01*
X146828845Y-79949500D01*
X146828842Y-79949500D01*
X146671158Y-79949500D01*
X146671155Y-79949500D01*
X146516510Y-79980261D01*
X146516498Y-79980264D01*
X146370827Y-80040602D01*
X146370814Y-80040609D01*
X146239711Y-80128210D01*
X146239707Y-80128213D01*
X146128213Y-80239707D01*
X146128210Y-80239711D01*
X146040609Y-80370814D01*
X146040602Y-80370827D01*
X145980264Y-80516498D01*
X145980261Y-80516510D01*
X145949500Y-80671153D01*
X144700499Y-80671153D01*
X144684317Y-80589803D01*
X144669737Y-80516503D01*
X144669735Y-80516498D01*
X144609397Y-80370827D01*
X144609390Y-80370814D01*
X144518405Y-80234646D01*
X144520351Y-80233345D01*
X144497105Y-80178591D01*
X144508905Y-80109725D01*
X144551381Y-80061149D01*
X144610289Y-80021789D01*
X144721789Y-79910289D01*
X144809394Y-79779179D01*
X144812685Y-79771235D01*
X144823067Y-79746166D01*
X144869737Y-79633497D01*
X144900500Y-79478842D01*
X144900500Y-79321158D01*
X144900500Y-79321155D01*
X144900499Y-79321153D01*
X144898338Y-79310288D01*
X144869737Y-79166503D01*
X144869735Y-79166498D01*
X144809397Y-79020827D01*
X144809390Y-79020814D01*
X144721789Y-78889711D01*
X144721786Y-78889707D01*
X144610292Y-78778213D01*
X144610288Y-78778210D01*
X144524897Y-78721153D01*
X145899500Y-78721153D01*
X145899500Y-78878846D01*
X145930261Y-79033489D01*
X145930264Y-79033501D01*
X145990602Y-79179172D01*
X145990609Y-79179185D01*
X146078210Y-79310288D01*
X146078213Y-79310292D01*
X146189707Y-79421786D01*
X146189711Y-79421789D01*
X146320814Y-79509390D01*
X146320827Y-79509397D01*
X146466498Y-79569735D01*
X146466503Y-79569737D01*
X146621153Y-79600499D01*
X146621156Y-79600500D01*
X146621158Y-79600500D01*
X146778844Y-79600500D01*
X146778845Y-79600499D01*
X146933497Y-79569737D01*
X147079179Y-79509394D01*
X147210289Y-79421789D01*
X147321789Y-79310289D01*
X147409394Y-79179179D01*
X147469737Y-79033497D01*
X147482138Y-78971153D01*
X148099500Y-78971153D01*
X148099500Y-79128846D01*
X148130261Y-79283489D01*
X148130264Y-79283501D01*
X148190602Y-79429172D01*
X148190609Y-79429185D01*
X148278210Y-79560288D01*
X148278213Y-79560292D01*
X148389707Y-79671786D01*
X148389711Y-79671789D01*
X148520814Y-79759390D01*
X148520827Y-79759397D01*
X148621603Y-79801139D01*
X148666503Y-79819737D01*
X148821153Y-79850499D01*
X148821156Y-79850500D01*
X148821158Y-79850500D01*
X148978844Y-79850500D01*
X148978845Y-79850499D01*
X149133497Y-79819737D01*
X149279179Y-79759394D01*
X149410289Y-79671789D01*
X149521789Y-79560289D01*
X149609394Y-79429179D01*
X149669737Y-79283497D01*
X149700500Y-79128842D01*
X149700500Y-78971158D01*
X149700500Y-78971155D01*
X149700499Y-78971153D01*
X149678269Y-78859397D01*
X149669737Y-78816503D01*
X149630242Y-78721153D01*
X149609397Y-78670827D01*
X149609390Y-78670814D01*
X149521789Y-78539711D01*
X149521786Y-78539707D01*
X149410292Y-78428213D01*
X149410288Y-78428210D01*
X149279185Y-78340609D01*
X149279172Y-78340602D01*
X149133501Y-78280264D01*
X149133489Y-78280261D01*
X148978845Y-78249500D01*
X148978842Y-78249500D01*
X148821158Y-78249500D01*
X148821155Y-78249500D01*
X148666510Y-78280261D01*
X148666498Y-78280264D01*
X148520827Y-78340602D01*
X148520814Y-78340609D01*
X148389711Y-78428210D01*
X148389707Y-78428213D01*
X148278213Y-78539707D01*
X148278210Y-78539711D01*
X148190609Y-78670814D01*
X148190602Y-78670827D01*
X148130264Y-78816498D01*
X148130261Y-78816510D01*
X148099500Y-78971153D01*
X147482138Y-78971153D01*
X147486246Y-78950500D01*
X147488161Y-78940875D01*
X147488161Y-78940874D01*
X147500500Y-78878844D01*
X147500500Y-78721155D01*
X147500499Y-78721153D01*
X147488265Y-78659649D01*
X147469737Y-78566503D01*
X147469735Y-78566498D01*
X147409397Y-78420827D01*
X147409390Y-78420814D01*
X147321789Y-78289711D01*
X147321786Y-78289707D01*
X147210292Y-78178213D01*
X147210288Y-78178210D01*
X147079185Y-78090609D01*
X147079172Y-78090602D01*
X146933501Y-78030264D01*
X146933489Y-78030261D01*
X146778845Y-77999500D01*
X146778842Y-77999500D01*
X146621158Y-77999500D01*
X146621155Y-77999500D01*
X146466510Y-78030261D01*
X146466498Y-78030264D01*
X146320827Y-78090602D01*
X146320814Y-78090609D01*
X146189711Y-78178210D01*
X146189707Y-78178213D01*
X146078213Y-78289707D01*
X146078210Y-78289711D01*
X145990609Y-78420814D01*
X145990602Y-78420827D01*
X145930264Y-78566498D01*
X145930261Y-78566510D01*
X145899500Y-78721153D01*
X144524897Y-78721153D01*
X144479185Y-78690609D01*
X144479172Y-78690602D01*
X144333501Y-78630264D01*
X144333489Y-78630261D01*
X144178845Y-78599500D01*
X144178842Y-78599500D01*
X144021158Y-78599500D01*
X144021155Y-78599500D01*
X143866510Y-78630261D01*
X143866498Y-78630264D01*
X143720827Y-78690602D01*
X143720814Y-78690609D01*
X143589711Y-78778210D01*
X143589707Y-78778213D01*
X143478213Y-78889707D01*
X143478210Y-78889711D01*
X143389013Y-79023204D01*
X143335401Y-79068009D01*
X143266076Y-79076716D01*
X143261720Y-79075930D01*
X143128846Y-79049500D01*
X143128842Y-79049500D01*
X142971158Y-79049500D01*
X142971155Y-79049500D01*
X142816510Y-79080261D01*
X142816498Y-79080264D01*
X142670827Y-79140602D01*
X142670814Y-79140609D01*
X142539711Y-79228210D01*
X142539707Y-79228213D01*
X142428213Y-79339707D01*
X142428210Y-79339711D01*
X142340609Y-79470814D01*
X142340602Y-79470827D01*
X142280264Y-79616498D01*
X142280261Y-79616510D01*
X142249500Y-79771153D01*
X142249500Y-79928846D01*
X142280261Y-80083489D01*
X142280264Y-80083501D01*
X142340602Y-80229172D01*
X142340609Y-80229185D01*
X142428210Y-80360288D01*
X142428213Y-80360292D01*
X142483375Y-80415454D01*
X142516860Y-80476777D01*
X142511876Y-80546469D01*
X142470004Y-80602402D01*
X142419886Y-80624752D01*
X142266508Y-80655261D01*
X142266498Y-80655264D01*
X142120827Y-80715602D01*
X142120814Y-80715609D01*
X141989711Y-80803210D01*
X141989707Y-80803213D01*
X141878213Y-80914707D01*
X141878210Y-80914711D01*
X141790609Y-81045814D01*
X141790602Y-81045827D01*
X141730264Y-81191498D01*
X141730261Y-81191510D01*
X141699500Y-81346153D01*
X141699500Y-81503846D01*
X141730261Y-81658489D01*
X141730264Y-81658501D01*
X141790602Y-81804172D01*
X141790609Y-81804185D01*
X141878210Y-81935288D01*
X141878213Y-81935292D01*
X141989707Y-82046786D01*
X141989711Y-82046789D01*
X142120814Y-82134390D01*
X142120827Y-82134397D01*
X142266498Y-82194735D01*
X142266503Y-82194737D01*
X142421158Y-82225500D01*
X142421164Y-82225500D01*
X142424151Y-82225795D01*
X142425620Y-82226388D01*
X142427132Y-82226689D01*
X142427074Y-82226975D01*
X142488939Y-82251954D01*
X142529299Y-82308987D01*
X142536000Y-82349198D01*
X142536000Y-82525801D01*
X142516315Y-82592840D01*
X142463511Y-82638595D01*
X142424164Y-82649203D01*
X142421157Y-82649499D01*
X142266510Y-82680261D01*
X142266498Y-82680264D01*
X142120827Y-82740602D01*
X142120814Y-82740609D01*
X141989711Y-82828210D01*
X141989707Y-82828213D01*
X141878213Y-82939707D01*
X141878210Y-82939711D01*
X141790609Y-83070814D01*
X141790602Y-83070827D01*
X141730264Y-83216498D01*
X141730261Y-83216508D01*
X141703769Y-83349692D01*
X141671384Y-83411603D01*
X141610668Y-83446177D01*
X141582152Y-83449500D01*
X141571155Y-83449500D01*
X141416510Y-83480261D01*
X141416498Y-83480264D01*
X141270827Y-83540602D01*
X141270814Y-83540609D01*
X141139711Y-83628210D01*
X141139707Y-83628213D01*
X141028213Y-83739707D01*
X141028210Y-83739711D01*
X140940609Y-83870814D01*
X140940602Y-83870827D01*
X140880264Y-84016498D01*
X140880261Y-84016510D01*
X140849500Y-84171153D01*
X140849500Y-84328846D01*
X140880261Y-84483489D01*
X140880264Y-84483501D01*
X140940602Y-84629172D01*
X140940609Y-84629185D01*
X141025752Y-84756609D01*
X141046630Y-84823286D01*
X141028146Y-84890666D01*
X140976167Y-84937357D01*
X140922650Y-84949500D01*
X138411374Y-84949500D01*
X138344335Y-84929815D01*
X138298580Y-84877011D01*
X138288636Y-84807853D01*
X138311056Y-84752615D01*
X138364348Y-84679263D01*
X138364347Y-84679263D01*
X138364351Y-84679259D01*
X138460857Y-84489855D01*
X138526546Y-84287686D01*
X138559800Y-84077730D01*
X138559800Y-84077728D01*
X138560562Y-84072918D01*
X138562644Y-84073247D01*
X138584333Y-84016208D01*
X138640532Y-83974693D01*
X138710253Y-83970152D01*
X138771363Y-84004026D01*
X138786513Y-84024586D01*
X138787221Y-84024114D01*
X138878210Y-84160288D01*
X138878213Y-84160292D01*
X138989707Y-84271786D01*
X138989711Y-84271789D01*
X139120814Y-84359390D01*
X139120827Y-84359397D01*
X139266498Y-84419735D01*
X139266503Y-84419737D01*
X139421153Y-84450499D01*
X139421156Y-84450500D01*
X139421158Y-84450500D01*
X139578844Y-84450500D01*
X139578845Y-84450499D01*
X139733497Y-84419737D01*
X139879179Y-84359394D01*
X140010289Y-84271789D01*
X140121789Y-84160289D01*
X140209394Y-84029179D01*
X140211297Y-84024586D01*
X140269735Y-83883501D01*
X140269737Y-83883497D01*
X140300500Y-83728842D01*
X140300500Y-83571158D01*
X140300500Y-83571155D01*
X140300499Y-83571153D01*
X140286085Y-83498689D01*
X140269737Y-83416503D01*
X140264096Y-83402884D01*
X140209397Y-83270827D01*
X140209390Y-83270814D01*
X140121789Y-83139711D01*
X140121786Y-83139707D01*
X140010292Y-83028213D01*
X140010288Y-83028210D01*
X139879185Y-82940609D01*
X139879172Y-82940602D01*
X139733501Y-82880264D01*
X139733489Y-82880261D01*
X139578845Y-82849500D01*
X139578842Y-82849500D01*
X139421158Y-82849500D01*
X139421155Y-82849500D01*
X139266510Y-82880261D01*
X139266498Y-82880264D01*
X139120827Y-82940602D01*
X139120814Y-82940609D01*
X138989711Y-83028210D01*
X138989707Y-83028213D01*
X138878213Y-83139707D01*
X138878210Y-83139711D01*
X138790609Y-83270814D01*
X138790602Y-83270827D01*
X138730264Y-83416498D01*
X138730261Y-83416507D01*
X138716160Y-83487398D01*
X138683774Y-83549308D01*
X138623058Y-83583882D01*
X138553289Y-83580141D01*
X138496617Y-83539274D01*
X138476613Y-83501525D01*
X138460857Y-83453031D01*
X138364351Y-83263627D01*
X138364349Y-83263624D01*
X138364348Y-83263622D01*
X138239409Y-83091656D01*
X138089086Y-82941333D01*
X137917120Y-82816394D01*
X137916415Y-82816034D01*
X137908354Y-82811928D01*
X137857559Y-82763955D01*
X137840763Y-82696135D01*
X137863299Y-82629999D01*
X137908354Y-82590958D01*
X137917116Y-82586494D01*
X137939089Y-82570529D01*
X138089086Y-82461552D01*
X138089088Y-82461549D01*
X138089092Y-82461547D01*
X138239404Y-82311235D01*
X138239406Y-82311231D01*
X138239409Y-82311229D01*
X138364348Y-82139263D01*
X138364347Y-82139263D01*
X138364351Y-82139259D01*
X138460857Y-81949855D01*
X138526546Y-81747686D01*
X138559800Y-81537730D01*
X138559800Y-81325156D01*
X138526546Y-81115200D01*
X138460857Y-80913031D01*
X138364351Y-80723627D01*
X138364349Y-80723624D01*
X138364348Y-80723622D01*
X138314935Y-80655610D01*
X138291455Y-80589803D01*
X138307281Y-80521750D01*
X138357387Y-80473055D01*
X138425865Y-80459180D01*
X138462704Y-80468163D01*
X138466503Y-80469737D01*
X138621153Y-80500499D01*
X138621156Y-80500500D01*
X138621158Y-80500500D01*
X138778844Y-80500500D01*
X138778845Y-80500499D01*
X138933497Y-80469737D01*
X139079179Y-80409394D01*
X139181111Y-80341284D01*
X139247786Y-80320408D01*
X139315166Y-80338892D01*
X139318847Y-80341257D01*
X139420821Y-80409394D01*
X139420823Y-80409395D01*
X139420827Y-80409397D01*
X139541016Y-80459180D01*
X139566503Y-80469737D01*
X139721153Y-80500499D01*
X139721156Y-80500500D01*
X139721158Y-80500500D01*
X139878844Y-80500500D01*
X139878845Y-80500499D01*
X140033497Y-80469737D01*
X140179179Y-80409394D01*
X140310289Y-80321789D01*
X140421789Y-80210289D01*
X140509394Y-80079179D01*
X140511396Y-80074347D01*
X140526855Y-80037023D01*
X140569737Y-79933497D01*
X140600500Y-79778842D01*
X140600500Y-79621158D01*
X140600500Y-79621155D01*
X140600499Y-79621153D01*
X140582204Y-79529179D01*
X140569737Y-79466503D01*
X140569735Y-79466498D01*
X140521859Y-79350914D01*
X140514390Y-79281445D01*
X140545665Y-79218966D01*
X140567526Y-79200362D01*
X140610289Y-79171789D01*
X140721789Y-79060289D01*
X140809394Y-78929179D01*
X140869737Y-78783497D01*
X140879508Y-78734373D01*
X140911892Y-78672464D01*
X140972607Y-78637890D01*
X141042377Y-78641629D01*
X141088806Y-78670885D01*
X141189707Y-78771786D01*
X141189711Y-78771789D01*
X141320814Y-78859390D01*
X141320827Y-78859397D01*
X141394013Y-78889711D01*
X141466503Y-78919737D01*
X141621153Y-78950499D01*
X141621156Y-78950500D01*
X141621158Y-78950500D01*
X141778844Y-78950500D01*
X141778845Y-78950499D01*
X141933497Y-78919737D01*
X142079179Y-78859394D01*
X142210289Y-78771789D01*
X142292854Y-78689223D01*
X142354175Y-78655739D01*
X142416532Y-78658245D01*
X142421166Y-78659651D01*
X142575809Y-78690411D01*
X142575812Y-78690412D01*
X142575814Y-78690412D01*
X142733500Y-78690412D01*
X142733501Y-78690411D01*
X142888153Y-78659649D01*
X143033835Y-78599306D01*
X143164945Y-78511701D01*
X143276445Y-78400201D01*
X143364050Y-78269091D01*
X143424393Y-78123409D01*
X143455156Y-77968754D01*
X143455156Y-77968753D01*
X143455918Y-77964923D01*
X143488303Y-77903012D01*
X143489805Y-77901482D01*
X143726594Y-77664692D01*
X143726599Y-77664689D01*
X143736802Y-77654485D01*
X143736804Y-77654485D01*
X143841813Y-77549476D01*
X143916065Y-77420868D01*
X143926601Y-77381547D01*
X143931123Y-77364671D01*
X143931123Y-77364670D01*
X143940631Y-77329185D01*
X143954500Y-77277425D01*
X143954500Y-77128919D01*
X143954500Y-76881083D01*
X143954501Y-76881070D01*
X143954501Y-76722578D01*
X143954501Y-76722576D01*
X143916065Y-76579132D01*
X143876318Y-76510289D01*
X143841815Y-76450527D01*
X143841810Y-76450521D01*
X143399364Y-76008075D01*
X143365879Y-75946752D01*
X143370863Y-75877060D01*
X143399361Y-75832716D01*
X143421789Y-75810289D01*
X143509394Y-75679179D01*
X143512854Y-75670827D01*
X143567163Y-75539711D01*
X143569737Y-75533497D01*
X143600500Y-75378842D01*
X143600500Y-75221158D01*
X143600500Y-75221155D01*
X143600499Y-75221153D01*
X143595574Y-75196392D01*
X143569737Y-75066503D01*
X143564827Y-75054650D01*
X143509397Y-74920827D01*
X143509390Y-74920814D01*
X143421789Y-74789711D01*
X143421786Y-74789707D01*
X143310292Y-74678213D01*
X143310288Y-74678210D01*
X143179185Y-74590609D01*
X143179172Y-74590602D01*
X143033501Y-74530264D01*
X143033489Y-74530261D01*
X142878845Y-74499500D01*
X142878842Y-74499500D01*
X142721158Y-74499500D01*
X142721155Y-74499500D01*
X142566510Y-74530261D01*
X142566498Y-74530264D01*
X142420827Y-74590602D01*
X142420814Y-74590609D01*
X142293391Y-74675751D01*
X142226713Y-74696629D01*
X142159333Y-74678144D01*
X142112643Y-74626165D01*
X142100500Y-74572649D01*
X142100500Y-74421155D01*
X142100499Y-74421153D01*
X142086246Y-74349500D01*
X142069737Y-74266503D01*
X142069735Y-74266498D01*
X142009397Y-74120827D01*
X142009390Y-74120814D01*
X141921789Y-73989711D01*
X141921786Y-73989707D01*
X141810292Y-73878213D01*
X141810288Y-73878210D01*
X141679185Y-73790609D01*
X141679172Y-73790602D01*
X141533501Y-73730264D01*
X141533489Y-73730261D01*
X141378845Y-73699500D01*
X141378842Y-73699500D01*
X141221158Y-73699500D01*
X141221155Y-73699500D01*
X141066510Y-73730261D01*
X141066498Y-73730264D01*
X140920827Y-73790602D01*
X140920814Y-73790609D01*
X140789711Y-73878210D01*
X140789707Y-73878213D01*
X140687681Y-73980240D01*
X140626358Y-74013725D01*
X140556666Y-74008741D01*
X140512319Y-73980240D01*
X140410292Y-73878213D01*
X140410288Y-73878210D01*
X140279185Y-73790609D01*
X140279172Y-73790602D01*
X140133501Y-73730264D01*
X140133489Y-73730261D01*
X139978845Y-73699500D01*
X139978842Y-73699500D01*
X139821158Y-73699500D01*
X139821155Y-73699500D01*
X139666510Y-73730261D01*
X139666503Y-73730263D01*
X139598951Y-73758243D01*
X139529482Y-73765710D01*
X139467003Y-73734435D01*
X139431351Y-73674345D01*
X139427500Y-73643681D01*
X139427500Y-72421153D01*
X143299500Y-72421153D01*
X143299500Y-72578846D01*
X143330260Y-72733488D01*
X143330262Y-72733493D01*
X143330263Y-72733497D01*
X143356483Y-72796799D01*
X143358865Y-72802549D01*
X143366333Y-72872018D01*
X143358865Y-72897447D01*
X143330263Y-72966503D01*
X143330262Y-72966506D01*
X143330260Y-72966511D01*
X143299500Y-73121153D01*
X143299500Y-73278846D01*
X143330260Y-73433488D01*
X143330262Y-73433493D01*
X143330263Y-73433497D01*
X143337306Y-73450500D01*
X143358865Y-73502549D01*
X143366333Y-73572018D01*
X143358865Y-73597447D01*
X143330263Y-73666503D01*
X143330262Y-73666506D01*
X143330260Y-73666511D01*
X143299500Y-73821153D01*
X143299500Y-73978846D01*
X143330261Y-74133489D01*
X143330264Y-74133501D01*
X143390602Y-74279172D01*
X143390609Y-74279185D01*
X143478210Y-74410288D01*
X143478213Y-74410292D01*
X143589707Y-74521786D01*
X143589711Y-74521789D01*
X143720814Y-74609390D01*
X143720827Y-74609397D01*
X143856276Y-74665501D01*
X143866503Y-74669737D01*
X144021153Y-74700499D01*
X144021156Y-74700500D01*
X144021158Y-74700500D01*
X144178844Y-74700500D01*
X144178845Y-74700499D01*
X144333497Y-74669737D01*
X144402549Y-74641134D01*
X144472016Y-74633666D01*
X144497447Y-74641133D01*
X144566503Y-74669737D01*
X144721153Y-74700499D01*
X144721156Y-74700500D01*
X144721158Y-74700500D01*
X144878844Y-74700500D01*
X144878845Y-74700499D01*
X145033497Y-74669737D01*
X145102549Y-74641134D01*
X145172016Y-74633666D01*
X145197447Y-74641133D01*
X145266503Y-74669737D01*
X145421153Y-74700499D01*
X145421156Y-74700500D01*
X145421158Y-74700500D01*
X145578844Y-74700500D01*
X145578845Y-74700499D01*
X145733497Y-74669737D01*
X145879179Y-74609394D01*
X146010289Y-74521789D01*
X146121789Y-74410289D01*
X146209394Y-74279179D01*
X146269737Y-74133497D01*
X146300500Y-73978842D01*
X146300500Y-73821158D01*
X146300500Y-73821155D01*
X146300499Y-73821153D01*
X146290698Y-73771882D01*
X146269737Y-73666503D01*
X146241134Y-73597450D01*
X146233666Y-73527984D01*
X146241133Y-73502552D01*
X146269737Y-73433497D01*
X146300500Y-73278842D01*
X146300500Y-73121158D01*
X146300500Y-73121155D01*
X146300499Y-73121153D01*
X146270663Y-72971158D01*
X146269737Y-72966503D01*
X146241134Y-72897450D01*
X146233666Y-72827984D01*
X146241133Y-72802552D01*
X146269737Y-72733497D01*
X146300500Y-72578842D01*
X146300500Y-72421158D01*
X146300500Y-72421155D01*
X146300499Y-72421153D01*
X146282137Y-72328842D01*
X146269737Y-72266503D01*
X146240906Y-72196898D01*
X146209397Y-72120827D01*
X146209390Y-72120814D01*
X146121789Y-71989711D01*
X146121786Y-71989707D01*
X146010292Y-71878213D01*
X146010288Y-71878210D01*
X145879185Y-71790609D01*
X145879172Y-71790602D01*
X145733501Y-71730264D01*
X145733489Y-71730261D01*
X145578845Y-71699500D01*
X145578842Y-71699500D01*
X145421158Y-71699500D01*
X145421155Y-71699500D01*
X145266511Y-71730260D01*
X145266506Y-71730262D01*
X145266504Y-71730262D01*
X145266503Y-71730263D01*
X145197449Y-71758865D01*
X145127982Y-71766333D01*
X145102552Y-71758865D01*
X145033497Y-71730263D01*
X145033493Y-71730262D01*
X145033488Y-71730260D01*
X144878845Y-71699500D01*
X144878842Y-71699500D01*
X144721158Y-71699500D01*
X144721155Y-71699500D01*
X144566511Y-71730260D01*
X144566506Y-71730262D01*
X144566504Y-71730262D01*
X144566503Y-71730263D01*
X144497449Y-71758865D01*
X144427982Y-71766333D01*
X144402552Y-71758865D01*
X144333497Y-71730263D01*
X144333493Y-71730262D01*
X144333488Y-71730260D01*
X144178845Y-71699500D01*
X144178842Y-71699500D01*
X144021158Y-71699500D01*
X144021155Y-71699500D01*
X143866510Y-71730261D01*
X143866498Y-71730264D01*
X143720827Y-71790602D01*
X143720814Y-71790609D01*
X143589711Y-71878210D01*
X143589707Y-71878213D01*
X143478213Y-71989707D01*
X143478210Y-71989711D01*
X143390609Y-72120814D01*
X143390602Y-72120827D01*
X143330264Y-72266498D01*
X143330261Y-72266510D01*
X143299500Y-72421153D01*
X139427500Y-72421153D01*
X139427500Y-70796153D01*
X141974500Y-70796153D01*
X141974500Y-70953846D01*
X142005261Y-71108489D01*
X142005264Y-71108501D01*
X142065602Y-71254172D01*
X142065609Y-71254185D01*
X142153210Y-71385288D01*
X142153213Y-71385292D01*
X142264707Y-71496786D01*
X142264711Y-71496789D01*
X142395814Y-71584390D01*
X142395827Y-71584397D01*
X142503138Y-71628846D01*
X142541503Y-71644737D01*
X142696153Y-71675499D01*
X142696156Y-71675500D01*
X142696158Y-71675500D01*
X142853844Y-71675500D01*
X142853845Y-71675499D01*
X143008497Y-71644737D01*
X143121166Y-71598067D01*
X143154172Y-71584397D01*
X143154172Y-71584396D01*
X143154179Y-71584394D01*
X143285289Y-71496789D01*
X143396789Y-71385289D01*
X143484394Y-71254179D01*
X143544737Y-71108497D01*
X143575500Y-70953842D01*
X143575500Y-70796158D01*
X143575500Y-70796155D01*
X143575499Y-70796153D01*
X143555465Y-70695437D01*
X143544737Y-70641503D01*
X143536170Y-70620821D01*
X143484397Y-70495827D01*
X143484390Y-70495814D01*
X143396789Y-70364711D01*
X143396786Y-70364707D01*
X143285292Y-70253213D01*
X143285288Y-70253210D01*
X143154185Y-70165609D01*
X143154172Y-70165602D01*
X143008501Y-70105264D01*
X143008489Y-70105261D01*
X142853845Y-70074500D01*
X142853842Y-70074500D01*
X142696158Y-70074500D01*
X142696155Y-70074500D01*
X142541510Y-70105261D01*
X142541498Y-70105264D01*
X142395827Y-70165602D01*
X142395814Y-70165609D01*
X142264711Y-70253210D01*
X142264707Y-70253213D01*
X142153213Y-70364707D01*
X142153210Y-70364711D01*
X142065609Y-70495814D01*
X142065602Y-70495827D01*
X142005264Y-70641498D01*
X142005261Y-70641510D01*
X141974500Y-70796153D01*
X139427500Y-70796153D01*
X139427500Y-70762476D01*
X139447185Y-70695437D01*
X139499989Y-70649682D01*
X139527298Y-70640861D01*
X139633497Y-70619737D01*
X139779179Y-70559394D01*
X139910289Y-70471789D01*
X140021789Y-70360289D01*
X140109394Y-70229179D01*
X140169737Y-70083497D01*
X140200500Y-69928842D01*
X140200500Y-69771158D01*
X140200500Y-69771155D01*
X140200499Y-69771153D01*
X140182204Y-69679179D01*
X140169737Y-69616503D01*
X140167555Y-69611235D01*
X140109397Y-69470827D01*
X140109390Y-69470814D01*
X140021789Y-69339711D01*
X140021786Y-69339707D01*
X139910292Y-69228213D01*
X139910288Y-69228210D01*
X139899727Y-69221153D01*
X140449500Y-69221153D01*
X140449500Y-69378846D01*
X140480261Y-69533489D01*
X140480264Y-69533501D01*
X140540602Y-69679172D01*
X140540609Y-69679185D01*
X140628210Y-69810288D01*
X140628213Y-69810292D01*
X140739707Y-69921786D01*
X140739711Y-69921789D01*
X140870814Y-70009390D01*
X140870827Y-70009397D01*
X141016498Y-70069735D01*
X141016503Y-70069737D01*
X141171153Y-70100499D01*
X141171156Y-70100500D01*
X141171158Y-70100500D01*
X141328844Y-70100500D01*
X141328845Y-70100499D01*
X141483497Y-70069737D01*
X141629179Y-70009394D01*
X141760289Y-69921789D01*
X141871789Y-69810289D01*
X141959394Y-69679179D01*
X142019737Y-69533497D01*
X142050500Y-69378842D01*
X142050500Y-69221158D01*
X142050500Y-69221155D01*
X142050499Y-69221153D01*
X142019737Y-69066503D01*
X142011941Y-69047682D01*
X141959397Y-68920827D01*
X141959390Y-68920814D01*
X141871789Y-68789711D01*
X141871786Y-68789707D01*
X141760292Y-68678213D01*
X141760288Y-68678210D01*
X141629185Y-68590609D01*
X141629172Y-68590602D01*
X141483501Y-68530264D01*
X141483489Y-68530261D01*
X141328845Y-68499500D01*
X141328842Y-68499500D01*
X141171158Y-68499500D01*
X141171155Y-68499500D01*
X141016510Y-68530261D01*
X141016498Y-68530264D01*
X140870827Y-68590602D01*
X140870814Y-68590609D01*
X140766114Y-68660567D01*
X140766109Y-68660571D01*
X140739711Y-68678211D01*
X140628211Y-68789711D01*
X140540606Y-68920821D01*
X140538608Y-68925642D01*
X140538606Y-68925646D01*
X140480264Y-69066498D01*
X140480261Y-69066510D01*
X140449500Y-69221153D01*
X139899727Y-69221153D01*
X139779185Y-69140609D01*
X139779172Y-69140602D01*
X139633501Y-69080264D01*
X139633491Y-69080261D01*
X139527308Y-69059140D01*
X139465397Y-69026755D01*
X139430823Y-68966039D01*
X139427500Y-68937523D01*
X139427500Y-68835607D01*
X139447185Y-68768568D01*
X139499989Y-68722813D01*
X139569147Y-68712869D01*
X139598948Y-68721044D01*
X139716503Y-68769737D01*
X139871153Y-68800499D01*
X139871156Y-68800500D01*
X139871158Y-68800500D01*
X140028844Y-68800500D01*
X140028845Y-68800499D01*
X140183497Y-68769737D01*
X140329179Y-68709394D01*
X140460289Y-68621789D01*
X140571789Y-68510289D01*
X140659394Y-68379179D01*
X140719737Y-68233497D01*
X140750500Y-68078842D01*
X140750500Y-67921158D01*
X140750500Y-67921155D01*
X140750499Y-67921153D01*
X140728447Y-67810292D01*
X140719737Y-67766503D01*
X140706062Y-67733489D01*
X140659809Y-67621822D01*
X140652340Y-67552353D01*
X140683615Y-67489874D01*
X140743704Y-67454222D01*
X140813530Y-67456716D01*
X140821822Y-67459809D01*
X140941540Y-67509397D01*
X140966503Y-67519737D01*
X141121153Y-67550499D01*
X141121156Y-67550500D01*
X141121158Y-67550500D01*
X141278844Y-67550500D01*
X141278845Y-67550499D01*
X141433497Y-67519737D01*
X141579179Y-67459394D01*
X141710289Y-67371789D01*
X141821789Y-67260289D01*
X141909394Y-67129179D01*
X141912854Y-67120827D01*
X141924571Y-67092539D01*
X141969737Y-66983497D01*
X142000500Y-66828842D01*
X142000500Y-66671158D01*
X142000500Y-66671155D01*
X142000499Y-66671153D01*
X141993442Y-66635675D01*
X141969737Y-66516503D01*
X141969735Y-66516498D01*
X141909397Y-66370827D01*
X141909390Y-66370814D01*
X141821789Y-66239711D01*
X141821786Y-66239707D01*
X141710292Y-66128213D01*
X141710288Y-66128210D01*
X141579185Y-66040609D01*
X141579172Y-66040602D01*
X141433501Y-65980264D01*
X141433489Y-65980261D01*
X141278845Y-65949500D01*
X141278842Y-65949500D01*
X141121158Y-65949500D01*
X141121155Y-65949500D01*
X140966510Y-65980261D01*
X140966503Y-65980263D01*
X140890074Y-66011920D01*
X140820605Y-66019387D01*
X140758126Y-65988112D01*
X140752688Y-65982726D01*
X140745401Y-65975050D01*
X140721789Y-65939711D01*
X140610289Y-65828211D01*
X140598614Y-65820410D01*
X140589082Y-65810368D01*
X140579204Y-65791102D01*
X140565323Y-65774494D01*
X140563581Y-65760630D01*
X140557205Y-65748194D01*
X140559311Y-65726646D01*
X140556613Y-65705169D01*
X140562643Y-65692563D01*
X140564003Y-65678656D01*
X140577423Y-65661669D01*
X140586766Y-65642140D01*
X140605669Y-65625760D01*
X140605581Y-65625653D01*
X140606424Y-65624960D01*
X140607317Y-65623831D01*
X140608149Y-65623544D01*
X140609610Y-65622346D01*
X140610130Y-65621896D01*
X140610286Y-65621791D01*
X140610285Y-65621791D01*
X140610289Y-65621789D01*
X140721789Y-65510289D01*
X140809394Y-65379179D01*
X140869737Y-65233497D01*
X140900500Y-65078842D01*
X140900500Y-64921158D01*
X140900500Y-64921155D01*
X140900499Y-64921153D01*
X140886246Y-64849500D01*
X140869737Y-64766503D01*
X140835894Y-64684798D01*
X140809397Y-64620827D01*
X140809390Y-64620814D01*
X140721789Y-64489711D01*
X140721786Y-64489707D01*
X140610292Y-64378213D01*
X140610288Y-64378210D01*
X140479185Y-64290609D01*
X140479172Y-64290602D01*
X140333499Y-64230263D01*
X140333495Y-64230262D01*
X140327305Y-64229031D01*
X140265395Y-64196643D01*
X140230823Y-64135926D01*
X140227500Y-64107414D01*
X140227500Y-62901500D01*
X140247185Y-62834461D01*
X140299989Y-62788706D01*
X140351500Y-62777500D01*
X140991059Y-62777500D01*
X141058098Y-62797185D01*
G37*
%TD.AperFunction*%
%TD*%
M02*
