%TF.GenerationSoftware,KiCad,Pcbnew,10.0.0*%
%TF.CreationDate,2026-04-05T23:22:58-04:00*%
%TF.ProjectId,tad5212-board,74616435-3231-4322-9d62-6f6172642e6b,rev?*%
%TF.SameCoordinates,Original*%
%TF.FileFunction,Copper,L1,Top*%
%TF.FilePolarity,Positive*%
%FSLAX46Y46*%
G04 Gerber Fmt 4.6, Leading zero omitted, Abs format (unit mm)*
G04 Created by KiCad (PCBNEW 10.0.0) date 2026-04-05 23:22:58*
%MOMM*%
%LPD*%
G01*
G04 APERTURE LIST*
G04 Aperture macros list*
%AMRoundRect*
0 Rectangle with rounded corners*
0 $1 Rounding radius*
0 $2 $3 $4 $5 $6 $7 $8 $9 X,Y pos of 4 corners*
0 Add a 4 corners polygon primitive as box body*
4,1,4,$2,$3,$4,$5,$6,$7,$8,$9,$2,$3,0*
0 Add four circle primitives for the rounded corners*
1,1,$1+$1,$2,$3*
1,1,$1+$1,$4,$5*
1,1,$1+$1,$6,$7*
1,1,$1+$1,$8,$9*
0 Add four rect primitives between the rounded corners*
20,1,$1+$1,$2,$3,$4,$5,0*
20,1,$1+$1,$4,$5,$6,$7,0*
20,1,$1+$1,$6,$7,$8,$9,0*
20,1,$1+$1,$8,$9,$2,$3,0*%
G04 Aperture macros list end*
%TA.AperFunction,ComponentPad*%
%ADD10R,1.700000X1.700000*%
%TD*%
%TA.AperFunction,ComponentPad*%
%ADD11C,1.700000*%
%TD*%
%TA.AperFunction,SMDPad,CuDef*%
%ADD12RoundRect,0.250000X0.159099X-0.512652X0.512652X-0.159099X-0.159099X0.512652X-0.512652X0.159099X0*%
%TD*%
%TA.AperFunction,SMDPad,CuDef*%
%ADD13RoundRect,0.250000X-0.159099X0.512652X-0.512652X0.159099X0.159099X-0.512652X0.512652X-0.159099X0*%
%TD*%
%TA.AperFunction,SMDPad,CuDef*%
%ADD14RoundRect,0.200000X0.275000X-0.200000X0.275000X0.200000X-0.275000X0.200000X-0.275000X-0.200000X0*%
%TD*%
%TA.AperFunction,SMDPad,CuDef*%
%ADD15RoundRect,0.225000X0.250000X-0.225000X0.250000X0.225000X-0.250000X0.225000X-0.250000X-0.225000X0*%
%TD*%
%TA.AperFunction,SMDPad,CuDef*%
%ADD16RoundRect,0.225000X-0.335876X-0.017678X-0.017678X-0.335876X0.335876X0.017678X0.017678X0.335876X0*%
%TD*%
%TA.AperFunction,SMDPad,CuDef*%
%ADD17RoundRect,0.225000X0.225000X0.250000X-0.225000X0.250000X-0.225000X-0.250000X0.225000X-0.250000X0*%
%TD*%
%TA.AperFunction,SMDPad,CuDef*%
%ADD18R,0.812800X0.254000*%
%TD*%
%TA.AperFunction,SMDPad,CuDef*%
%ADD19R,0.254000X0.812800*%
%TD*%
%TA.AperFunction,SMDPad,CuDef*%
%ADD20R,2.209800X2.209800*%
%TD*%
%TA.AperFunction,SMDPad,CuDef*%
%ADD21R,0.254000X0.254000*%
%TD*%
%TA.AperFunction,SMDPad,CuDef*%
%ADD22C,0.250000*%
%TD*%
%TA.AperFunction,SMDPad,CuDef*%
%ADD23RoundRect,0.250000X-0.512652X-0.159099X-0.159099X-0.512652X0.512652X0.159099X0.159099X0.512652X0*%
%TD*%
%TA.AperFunction,SMDPad,CuDef*%
%ADD24RoundRect,0.150000X0.256326X0.468458X-0.468458X-0.256326X-0.256326X-0.468458X0.468458X0.256326X0*%
%TD*%
%TA.AperFunction,SMDPad,CuDef*%
%ADD25RoundRect,0.250000X0.475000X-0.250000X0.475000X0.250000X-0.475000X0.250000X-0.475000X-0.250000X0*%
%TD*%
%TA.AperFunction,SMDPad,CuDef*%
%ADD26RoundRect,0.225000X-0.017678X0.335876X-0.335876X0.017678X0.017678X-0.335876X0.335876X-0.017678X0*%
%TD*%
%TA.AperFunction,ViaPad*%
%ADD27C,0.600000*%
%TD*%
%TA.AperFunction,Conductor*%
%ADD28C,0.200000*%
%TD*%
%TA.AperFunction,Conductor*%
%ADD29C,0.254000*%
%TD*%
%TA.AperFunction,Conductor*%
%ADD30C,0.127000*%
%TD*%
%TA.AperFunction,Conductor*%
%ADD31C,0.150000*%
%TD*%
G04 APERTURE END LIST*
D10*
%TO.P,J1,1,Pin_1_1*%
%TO.N,+3.3V*%
X137209300Y-61111443D03*
D11*
%TO.P,J1,2,Pin_2_2*%
%TO.N,GND*%
X137209300Y-63651443D03*
%TO.P,J1,3,Pin_3_3*%
%TO.N,/BCLK*%
X137209300Y-66191443D03*
%TO.P,J1,4,Pin_4_4*%
%TO.N,/FSYNC*%
X137209300Y-68731443D03*
%TO.P,J1,5,Pin_5_5*%
%TO.N,/DOUT*%
X137209300Y-71271443D03*
%TO.P,J1,6,Pin_6_6*%
%TO.N,/DIN*%
X137209300Y-73811443D03*
%TO.P,J1,7,Pin_7_7*%
%TO.N,/SDA*%
X137209300Y-76351443D03*
%TO.P,J1,8,Pin_8_8*%
%TO.N,/SCL*%
X137209300Y-78891443D03*
%TO.P,J1,9,Pin_9_9*%
%TO.N,/GPIO1*%
X137209300Y-81431443D03*
%TO.P,J1,10,Pin_10_10*%
%TO.N,/GPIO2*%
X137209300Y-83971443D03*
%TD*%
D12*
%TO.P,C7,1*%
%TO.N,+3.3V*%
X145028249Y-63671751D03*
%TO.P,C7,2*%
%TO.N,GND*%
X146371751Y-62328249D03*
%TD*%
D13*
%TO.P,C11,1*%
%TO.N,GND*%
X145871751Y-68028249D03*
%TO.P,C11,2*%
%TO.N,+1V8*%
X144528249Y-69371751D03*
%TD*%
D14*
%TO.P,R2,1*%
%TO.N,+1V8*%
X141650000Y-82825000D03*
%TO.P,R2,2*%
%TO.N,/DIS_CLK2*%
X141650000Y-81175000D03*
%TD*%
D15*
%TO.P,C6,1*%
%TO.N,GND*%
X148200000Y-76025000D03*
%TO.P,C6,2*%
%TO.N,Net-(U1-MICBIAS)*%
X148200000Y-74475000D03*
%TD*%
%TO.P,C1,1*%
%TO.N,GND*%
X141750000Y-77225000D03*
%TO.P,C1,2*%
%TO.N,+3.3V*%
X141750000Y-75675000D03*
%TD*%
D16*
%TO.P,C3,1*%
%TO.N,GND*%
X140001992Y-70601992D03*
%TO.P,C3,2*%
%TO.N,/DREG*%
X141098008Y-71698008D03*
%TD*%
D17*
%TO.P,C13,1*%
%TO.N,+1V8*%
X144025000Y-84250000D03*
%TO.P,C13,2*%
%TO.N,GND*%
X142475000Y-84250000D03*
%TD*%
D18*
%TO.P,U1,1,DREG_1*%
%TO.N,/DREG*%
X142856900Y-71949685D03*
%TO.P,U1,2,BCLK_2*%
%TO.N,/BCLK*%
X142856900Y-72449811D03*
%TO.P,U1,3,FSYNC_3*%
%TO.N,/FSYNC*%
X142856900Y-72949937D03*
%TO.P,U1,4,DOUT_4*%
%TO.N,/DOUT*%
X142856900Y-73450063D03*
%TO.P,U1,5,DIN_5*%
%TO.N,/DIN*%
X142856900Y-73950189D03*
%TO.P,U1,6,IOVDD_6*%
%TO.N,+3.3V*%
X142856900Y-74450315D03*
D19*
%TO.P,U1,7,SCL_7*%
%TO.N,/SCL*%
X143549685Y-75143100D03*
%TO.P,U1,8,SDA_8*%
%TO.N,/SDA*%
X144049811Y-75143100D03*
%TO.P,U1,9,GPIO1_9*%
%TO.N,/GPIO1*%
X144549937Y-75143100D03*
%TO.P,U1,10,GPIO2_10*%
%TO.N,/GPIO2*%
X145050063Y-75143100D03*
%TO.P,U1,11,GPO1_11*%
%TO.N,Net-(U1-GPO1)*%
X145550189Y-75143100D03*
%TO.P,U1,12,GPI1_12*%
%TO.N,/GPI1*%
X146050315Y-75143100D03*
D18*
%TO.P,U1,13,ADDR_13*%
%TO.N,GND*%
X146743100Y-74450315D03*
%TO.P,U1,14,MICBIAS_14*%
%TO.N,Net-(U1-MICBIAS)*%
X146743100Y-73950189D03*
%TO.P,U1,15,IN1P_15*%
%TO.N,GND*%
X146743100Y-73450063D03*
%TO.P,U1,16,IN1M_16*%
X146743100Y-72949937D03*
%TO.P,U1,17,IN2P_17*%
X146743100Y-72449811D03*
%TO.P,U1,18,IN2M_18*%
X146743100Y-71949685D03*
D19*
%TO.P,U1,19,OUT1M_19*%
%TO.N,/OUT1M*%
X146050315Y-71256900D03*
%TO.P,U1,20,OUT1P_20*%
%TO.N,/OUT1P*%
X145550189Y-71256900D03*
%TO.P,U1,21,OUT2P_21*%
%TO.N,/OUT2P*%
X145050063Y-71256900D03*
%TO.P,U1,22,OUT2M_22*%
%TO.N,/OUT2M*%
X144549937Y-71256900D03*
%TO.P,U1,23,AVDD_23*%
%TO.N,+1V8*%
X144049811Y-71256900D03*
%TO.P,U1,24,VREF_24*%
%TO.N,Net-(U1-VREF)*%
X143549685Y-71256900D03*
D20*
%TO.P,U1,29,EPAD_29*%
%TO.N,GND*%
X144800000Y-73200000D03*
D21*
%TO.P,U1,A1,VSS_A1*%
X143074000Y-71473943D03*
%TO.P,U1,A2,VSS_A2*%
X143074000Y-74926057D03*
%TO.P,U1,A3,VSS_A3*%
X146526000Y-74926057D03*
%TO.P,U1,A4,VSS_A4*%
X146526000Y-71473943D03*
%TD*%
D10*
%TO.P,J2,1,Pin_1_1*%
%TO.N,/LDO_EN*%
X152449300Y-61111443D03*
D11*
%TO.P,J2,2,Pin_2_2*%
%TO.N,/OUT2M*%
X152449300Y-63651443D03*
%TO.P,J2,3,Pin_3_3*%
%TO.N,/OUT2P*%
X152449300Y-66191443D03*
%TO.P,J2,4,Pin_4_4*%
%TO.N,/OUT1P*%
X152449300Y-68731443D03*
%TO.P,J2,5,Pin_5_5*%
%TO.N,/OUT1M*%
X152449300Y-71271443D03*
%TO.P,J2,6,Pin_6_6*%
%TO.N,unconnected-(J2-Pin_6-Pad6)*%
X152449300Y-73811443D03*
%TO.P,J2,7,Pin_7_7*%
%TO.N,unconnected-(J2-Pin_7-Pad7)*%
X152449300Y-76351443D03*
%TO.P,J2,8,Pin_8_8*%
%TO.N,/GPI1*%
X152449300Y-78891443D03*
%TO.P,J2,9,Pin_9_9*%
%TO.N,/DIS_CLK1*%
X152449300Y-81431443D03*
%TO.P,J2,10,Pin_10_10*%
%TO.N,/DIS_CLK2*%
X152449300Y-83971443D03*
%TD*%
D22*
%TO.P,Y1,1,ST_1*%
%TO.N,/DIS_CLK1*%
X146440000Y-81250000D03*
%TO.P,Y1,2,OUT_2*%
%TO.N,/GPO1*%
X146440000Y-82250000D03*
%TO.P,Y1,3,VDD_3*%
%TO.N,+1V8*%
X146850000Y-82250000D03*
%TO.P,Y1,4,GND_4*%
%TO.N,GND*%
X146850000Y-81250000D03*
%TD*%
D23*
%TO.P,C4,1*%
%TO.N,GND*%
X140628249Y-68678249D03*
%TO.P,C4,2*%
%TO.N,/DREG*%
X141971751Y-70021751D03*
%TD*%
D17*
%TO.P,C12,1*%
%TO.N,+1V8*%
X147025000Y-84250000D03*
%TO.P,C12,2*%
%TO.N,GND*%
X145475000Y-84250000D03*
%TD*%
D14*
%TO.P,R1,1*%
%TO.N,+1V8*%
X148800000Y-82275000D03*
%TO.P,R1,2*%
%TO.N,/DIS_CLK1*%
X148800000Y-80625000D03*
%TD*%
D12*
%TO.P,C8,1*%
%TO.N,+1V8*%
X142778249Y-66221751D03*
%TO.P,C8,2*%
%TO.N,GND*%
X144121751Y-64878249D03*
%TD*%
D24*
%TO.P,U2,1,IN_1*%
%TO.N,+3.3V*%
X143226085Y-63317417D03*
%TO.P,U2,2,GND_2*%
%TO.N,GND*%
X142554334Y-62645666D03*
%TO.P,U2,3,EN_3*%
%TO.N,/LDO_EN*%
X141882583Y-61973915D03*
%TO.P,U2,4,NC_4*%
%TO.N,unconnected-(U2-NC-Pad4)*%
X140273915Y-63582583D03*
%TO.P,U2,5,OUT_5*%
%TO.N,+1V8*%
X141617417Y-64926085D03*
%TD*%
D22*
%TO.P,Y2,1,ST_1*%
%TO.N,/DIS_CLK2*%
X143590000Y-81250000D03*
%TO.P,Y2,2,OUT_2*%
%TO.N,/GPO1*%
X143590000Y-82250000D03*
%TO.P,Y2,3,VDD_3*%
%TO.N,+1V8*%
X144000000Y-82250000D03*
%TO.P,Y2,4,GND_4*%
%TO.N,GND*%
X144000000Y-81250000D03*
%TD*%
D15*
%TO.P,C5,1*%
%TO.N,/GPO1*%
X145400000Y-78975000D03*
%TO.P,C5,2*%
%TO.N,Net-(U1-GPO1)*%
X145400000Y-77425000D03*
%TD*%
D25*
%TO.P,C2,1*%
%TO.N,GND*%
X140000000Y-77550000D03*
%TO.P,C2,2*%
%TO.N,+3.3V*%
X140000000Y-75650000D03*
%TD*%
D16*
%TO.P,C9,1*%
%TO.N,GND*%
X141851992Y-67451992D03*
%TO.P,C9,2*%
%TO.N,Net-(U1-VREF)*%
X142948008Y-68548008D03*
%TD*%
D26*
%TO.P,C10,1*%
%TO.N,GND*%
X145048008Y-66401992D03*
%TO.P,C10,2*%
%TO.N,+1V8*%
X143951992Y-67498008D03*
%TD*%
D27*
%TO.N,+3.3V*%
X138800000Y-75100000D03*
X146700000Y-64550000D03*
X139600000Y-62150000D03*
%TO.N,GND*%
X143050000Y-79850000D03*
X139950000Y-68000000D03*
X145500000Y-73900000D03*
X145450000Y-83500000D03*
X150800000Y-79150000D03*
X147450000Y-62200000D03*
X139600000Y-60600000D03*
X142775000Y-70875000D03*
X145500000Y-73200000D03*
X141200000Y-66750000D03*
X144800000Y-73200000D03*
X149150000Y-72650000D03*
X148400000Y-68950000D03*
X144100000Y-73900000D03*
X150700000Y-77400000D03*
X145250000Y-68650000D03*
X147700000Y-71000000D03*
X144800000Y-73900000D03*
X141550000Y-60500000D03*
X150650000Y-60450000D03*
X139500000Y-83650000D03*
X146400000Y-60500000D03*
X148900000Y-79050000D03*
X150550000Y-71550000D03*
X148200000Y-76950000D03*
X147800000Y-64050000D03*
X146750000Y-80750000D03*
X150700000Y-76000000D03*
X149200000Y-84600000D03*
X149150000Y-76050000D03*
X138650000Y-64350000D03*
X140100000Y-65000000D03*
X150600000Y-74700000D03*
X143350000Y-61900000D03*
X146600000Y-67300000D03*
X148950000Y-67500000D03*
X138700000Y-63150000D03*
X149750000Y-75150000D03*
X145050000Y-67300000D03*
X142500000Y-83450000D03*
X142800000Y-75300000D03*
X141300000Y-74500000D03*
X145300000Y-65104000D03*
X144100000Y-79400000D03*
X140500000Y-61250000D03*
X150950000Y-80700000D03*
X145500000Y-72500000D03*
X140100000Y-66450000D03*
X149800000Y-64050000D03*
X144850000Y-62000000D03*
X147800000Y-72250000D03*
X144100000Y-73200000D03*
X138700000Y-79700000D03*
X147700000Y-73450000D03*
X143500000Y-65550000D03*
X149000000Y-62200000D03*
X144100000Y-72500000D03*
X150550000Y-62200000D03*
X140100000Y-78550000D03*
X147250000Y-63100000D03*
X146700000Y-78800000D03*
X150550000Y-63200000D03*
X147150000Y-75550000D03*
X144800000Y-72500000D03*
X141250000Y-69300000D03*
X148150000Y-65650000D03*
X139150000Y-78600000D03*
X141650000Y-84250000D03*
X148950000Y-64950000D03*
X141700000Y-78150000D03*
X141700000Y-63500000D03*
X143650000Y-60450000D03*
X145650000Y-65850000D03*
X139900000Y-74500000D03*
X150550000Y-73050000D03*
X147300000Y-66400000D03*
X143900000Y-80750000D03*
X150000000Y-66800000D03*
X139400000Y-69850000D03*
X149300000Y-63100000D03*
X150800000Y-65650000D03*
X149600000Y-68950000D03*
X139800000Y-79700000D03*
X145700000Y-63000000D03*
%TO.N,/SDA*%
X142654656Y-77889912D03*
%TO.N,/SCL*%
X142900000Y-77000000D03*
%TO.N,+1V8*%
X149700000Y-82250000D03*
X142950000Y-67450000D03*
X147850000Y-84250000D03*
X140700000Y-83100000D03*
X144000000Y-83400000D03*
%TO.N,/DIS_CLK2*%
X150950000Y-83950000D03*
X142500000Y-81425000D03*
%TD*%
%TO.N,+3.3V*%
D28*
X137209300Y-61111443D02*
X138561443Y-61111443D01*
D29*
X139400000Y-75100000D02*
X139950000Y-75650000D01*
X145028249Y-63671751D02*
X143580419Y-63671751D01*
X139950000Y-75650000D02*
X141525000Y-75650000D01*
D28*
X138561443Y-61111443D02*
X139600000Y-62150000D01*
X140100000Y-75600000D02*
X140100000Y-75825000D01*
D29*
X145028249Y-63671751D02*
X145821751Y-63671751D01*
X143580419Y-63671751D02*
X143226085Y-63317417D01*
D28*
X142856900Y-74450315D02*
X141700000Y-75607215D01*
D29*
X141525000Y-75650000D02*
X141700000Y-75825000D01*
X138800000Y-75100000D02*
X139400000Y-75100000D01*
X145821751Y-63671751D02*
X146700000Y-64550000D01*
D28*
X141700000Y-75607215D02*
X141700000Y-75825000D01*
%TO.N,GND*%
D30*
X142775000Y-70875000D02*
X143074000Y-71174000D01*
D29*
X145871751Y-68028249D02*
X146600000Y-67300000D01*
D30*
X145475000Y-83525000D02*
X145450000Y-83500000D01*
X147700000Y-71900000D02*
X147700000Y-71000000D01*
D31*
X146946392Y-74653607D02*
X146743100Y-74450315D01*
D30*
X147700000Y-72900000D02*
X147700000Y-72400000D01*
D28*
X143074000Y-75026000D02*
X142800000Y-75300000D01*
D29*
X145048008Y-66401992D02*
X145048008Y-67298008D01*
D30*
X147700000Y-73300000D02*
X147700000Y-72900000D01*
D28*
X141700000Y-78150000D02*
X141700000Y-78300000D01*
D30*
X142475000Y-83475000D02*
X142500000Y-83450000D01*
X146743100Y-72449811D02*
X147650189Y-72449811D01*
X140100000Y-77375000D02*
X140100000Y-77700000D01*
X142475000Y-84250000D02*
X141650000Y-84250000D01*
D28*
X143074000Y-74926057D02*
X143074000Y-75026000D01*
D31*
X147000000Y-74653607D02*
X147000000Y-74950000D01*
X146743100Y-75143100D02*
X147150000Y-75550000D01*
D30*
X146743100Y-73450063D02*
X147549937Y-73450063D01*
X142475000Y-84250000D02*
X142475000Y-83475000D01*
X147226057Y-71473943D02*
X147700000Y-71000000D01*
D29*
X141700000Y-78150000D02*
X141700000Y-77375000D01*
D30*
X146526000Y-71473943D02*
X147226057Y-71473943D01*
X146743100Y-71949685D02*
X147650315Y-71949685D01*
D31*
X146743043Y-75143100D02*
X146526000Y-74926057D01*
D30*
X147650189Y-72449811D02*
X147700000Y-72400000D01*
X146743100Y-72949937D02*
X147650063Y-72949937D01*
D29*
X145048008Y-67298008D02*
X145050000Y-67300000D01*
D28*
X140001992Y-68704506D02*
X140328249Y-68378249D01*
D31*
X147000000Y-74950000D02*
X147000000Y-75346392D01*
D30*
X146976057Y-74926057D02*
X147000000Y-74950000D01*
X147650315Y-71949685D02*
X147700000Y-71900000D01*
X145475000Y-84250000D02*
X145475000Y-83525000D01*
D29*
X144878249Y-64878249D02*
X144121751Y-64878249D01*
D30*
X146850000Y-80850000D02*
X146750000Y-80750000D01*
D29*
X145300000Y-65104000D02*
X145104000Y-65104000D01*
D30*
X146526000Y-74926057D02*
X146976057Y-74926057D01*
X144000000Y-81250000D02*
X144000000Y-80850000D01*
X144000000Y-80850000D02*
X143900000Y-80750000D01*
X147549937Y-73450063D02*
X147700000Y-73300000D01*
D31*
X146743100Y-75143100D02*
X146743043Y-75143100D01*
D28*
X141700000Y-78150000D02*
X141600000Y-78150000D01*
D30*
X147700000Y-72400000D02*
X147700000Y-71900000D01*
X146850000Y-81250000D02*
X146850000Y-80850000D01*
D31*
X147000000Y-74653607D02*
X146946392Y-74653607D01*
D29*
X145048008Y-66401992D02*
X145948008Y-66401992D01*
D30*
X143074000Y-71174000D02*
X143074000Y-71473943D01*
D29*
X145104000Y-65104000D02*
X144878249Y-64878249D01*
D30*
X147650063Y-72949937D02*
X147700000Y-72900000D01*
%TO.N,/BCLK*%
X140912632Y-72453792D02*
X141248028Y-72453792D01*
X138850000Y-71039376D02*
X140260435Y-72449811D01*
X141252009Y-72449811D02*
X142856900Y-72449811D01*
X137391443Y-66191443D02*
X138850000Y-67650000D01*
X141248028Y-72453792D02*
X141252009Y-72449811D01*
X137209300Y-66191443D02*
X137391443Y-66191443D01*
X140260435Y-72449811D02*
X140908651Y-72449811D01*
X138850000Y-67650000D02*
X138850000Y-71039376D01*
X140908651Y-72449811D02*
X140912632Y-72453792D01*
%TO.N,/FSYNC*%
X138450000Y-69972143D02*
X137209300Y-68731443D01*
X138450000Y-71650000D02*
X138450000Y-69972143D01*
X139749937Y-72949937D02*
X138450000Y-71650000D01*
X142856900Y-72949937D02*
X139749937Y-72949937D01*
%TO.N,/DOUT*%
X137209300Y-71271443D02*
X139387920Y-73450063D01*
X139387920Y-73450063D02*
X142856900Y-73450063D01*
%TO.N,/DIN*%
X137348046Y-73950189D02*
X137209300Y-73811443D01*
X142856900Y-73950189D02*
X137348046Y-73950189D01*
%TO.N,/SDA*%
X142654656Y-77889912D02*
X142710088Y-77889912D01*
X144000000Y-76600000D02*
X144000000Y-75192911D01*
X144000000Y-75192911D02*
X144049811Y-75143100D01*
X142710088Y-77889912D02*
X144000000Y-76600000D01*
%TO.N,/SCL*%
X143300000Y-75392785D02*
X143549685Y-75143100D01*
X143300000Y-76600000D02*
X143300000Y-75392785D01*
X142900000Y-77000000D02*
X143300000Y-76600000D01*
%TO.N,/GPIO1*%
X144500000Y-75193037D02*
X144500000Y-76750000D01*
X139818557Y-81431443D02*
X137209300Y-81431443D01*
X144549937Y-75143100D02*
X144500000Y-75193037D01*
X144500000Y-76750000D02*
X139818557Y-81431443D01*
%TO.N,/GPIO2*%
X137778557Y-83971443D02*
X137209300Y-83971443D01*
X145000000Y-76750000D02*
X137778557Y-83971443D01*
X145050063Y-75143100D02*
X145009500Y-75183663D01*
X145000000Y-75193163D02*
X145000000Y-76750000D01*
X145050063Y-75143100D02*
X145000000Y-75193163D01*
%TO.N,+1V8*%
D29*
X144528249Y-69371751D02*
X144528249Y-68074265D01*
X143453249Y-66946751D02*
X143453249Y-66896751D01*
X142778249Y-66086917D02*
X142070666Y-65379334D01*
D30*
X147025000Y-84250000D02*
X146850000Y-84075000D01*
D29*
X144049811Y-69850189D02*
X144528249Y-69371751D01*
X143951992Y-67395494D02*
X143453249Y-66896751D01*
D28*
X148800000Y-82275000D02*
X149675000Y-82275000D01*
X144025000Y-82275000D02*
X144000000Y-82250000D01*
D30*
X147025000Y-84250000D02*
X147850000Y-84250000D01*
D28*
X147025000Y-82425000D02*
X147025000Y-84250000D01*
D29*
X143453249Y-66896751D02*
X142778249Y-66221751D01*
X142778249Y-66221751D02*
X142778249Y-66086917D01*
X144528249Y-68074265D02*
X144202308Y-67748324D01*
D28*
X140975000Y-82825000D02*
X140700000Y-83100000D01*
X144025000Y-84250000D02*
X144025000Y-82275000D01*
D29*
X142950000Y-67450000D02*
X143453249Y-66946751D01*
D28*
X141650000Y-82825000D02*
X140975000Y-82825000D01*
X143951992Y-67498008D02*
X143951992Y-67205287D01*
D30*
X144025000Y-83425000D02*
X144000000Y-83400000D01*
D29*
X142070666Y-65379334D02*
X141617417Y-64926085D01*
D30*
X140725000Y-83075000D02*
X140700000Y-83100000D01*
D29*
X143951992Y-67498008D02*
X143951992Y-67395494D01*
D28*
X146850000Y-82250000D02*
X147025000Y-82425000D01*
X149675000Y-82275000D02*
X149700000Y-82250000D01*
D29*
X144049811Y-71256900D02*
X144049811Y-69850189D01*
%TO.N,/DIS_CLK2*%
D30*
X150971443Y-83971443D02*
X150950000Y-83950000D01*
X152449300Y-83971443D02*
X150971443Y-83971443D01*
X143590000Y-81250000D02*
X143415000Y-81425000D01*
X143415000Y-81425000D02*
X143100000Y-81425000D01*
X143100000Y-81425000D02*
X141600000Y-81425000D01*
%TO.N,Net-(U1-MICBIAS)*%
X147875000Y-74175000D02*
X148175000Y-74475000D01*
X147225189Y-73950189D02*
X147450000Y-74175000D01*
X148175000Y-74475000D02*
X148200000Y-74475000D01*
X147450000Y-74175000D02*
X147875000Y-74175000D01*
X146743100Y-73950189D02*
X147225189Y-73950189D01*
%TO.N,/DREG*%
D28*
X141671751Y-71024265D02*
X141671751Y-69721751D01*
X141098008Y-71598008D02*
X141671751Y-71024265D01*
X142856900Y-71949685D02*
X141449685Y-71949685D01*
X141449685Y-71949685D02*
X141098008Y-71598008D01*
%TO.N,Net-(U1-GPO1)*%
D29*
X145550189Y-77274811D02*
X145400000Y-77425000D01*
X145550189Y-75143100D02*
X145550189Y-77274811D01*
%TO.N,/GPI1*%
D30*
X147254500Y-78290500D02*
X151848357Y-78290500D01*
X146300000Y-75392785D02*
X146300000Y-77336000D01*
X146050315Y-75143100D02*
X146300000Y-75392785D01*
X151848357Y-78290500D02*
X152449300Y-78891443D01*
X146300000Y-77336000D02*
X147254500Y-78290500D01*
%TO.N,/OUT1M*%
D29*
X146900000Y-70400000D02*
X151577857Y-70400000D01*
X146050315Y-71256900D02*
X146050315Y-71249685D01*
X151577857Y-70400000D02*
X152449300Y-71271443D01*
X146050315Y-71249685D02*
X146900000Y-70400000D01*
%TO.N,/OUT1P*%
X146750000Y-69650000D02*
X151530743Y-69650000D01*
X145550189Y-71256900D02*
X145550189Y-70849811D01*
X145550189Y-70849811D02*
X146750000Y-69650000D01*
X151530743Y-69650000D02*
X152449300Y-68731443D01*
%TO.N,/OUT2P*%
X145050063Y-71256900D02*
X145050063Y-70799937D01*
X150440743Y-68200000D02*
X152449300Y-66191443D01*
X147650000Y-68200000D02*
X150440743Y-68200000D01*
X145050063Y-70799937D02*
X147650000Y-68200000D01*
%TO.N,/OUT2M*%
X151648557Y-63651443D02*
X152449300Y-63651443D01*
X144549937Y-70750063D02*
X151648557Y-63651443D01*
X144549937Y-71256900D02*
X144549937Y-70750063D01*
D28*
X152166246Y-63651443D02*
X152449300Y-63651443D01*
%TO.N,Net-(U1-VREF)*%
X143500000Y-69100000D02*
X142948008Y-68548008D01*
X143500000Y-71207215D02*
X143500000Y-69100000D01*
X143549685Y-71256900D02*
X143500000Y-71207215D01*
%TO.N,/LDO_EN*%
D29*
X141882583Y-61973915D02*
X142745055Y-61111443D01*
X142745055Y-61111443D02*
X152449300Y-61111443D01*
%TO.N,/DIS_CLK1*%
D30*
X146259500Y-80546828D02*
X146259500Y-81069500D01*
X149606443Y-81431443D02*
X148800000Y-80625000D01*
X146546828Y-80259500D02*
X146259500Y-80546828D01*
X152449300Y-81431443D02*
X152327357Y-81309500D01*
X152449300Y-81431443D02*
X149606443Y-81431443D01*
X146259500Y-81069500D02*
X146440000Y-81250000D01*
X148800000Y-80625000D02*
X148434500Y-80259500D01*
X148434500Y-80259500D02*
X146546828Y-80259500D01*
%TO.N,/GPO1*%
D28*
X143952196Y-81800000D02*
X145400000Y-81800000D01*
X145834500Y-82250000D02*
X145400000Y-81815500D01*
X145400000Y-81800000D02*
X145400000Y-81815500D01*
X146440000Y-82250000D02*
X145834500Y-82250000D01*
X145400000Y-79050000D02*
X145400000Y-81800000D01*
X143590000Y-82162196D02*
X143952196Y-81800000D01*
X143590000Y-82250000D02*
X143590000Y-82162196D01*
%TD*%
%TA.AperFunction,Conductor*%
%TO.N,GND*%
G36*
X140864120Y-81626812D02*
G01*
X140875087Y-81634969D01*
X140899888Y-81659540D01*
X140982076Y-81767922D01*
X141102655Y-81859359D01*
X141102658Y-81859361D01*
X141102660Y-81859362D01*
X141150191Y-81878106D01*
X141180842Y-81895592D01*
X141187702Y-81900929D01*
X141189770Y-81902538D01*
X141230593Y-81959241D01*
X141234278Y-82029014D01*
X141199657Y-82089703D01*
X141199648Y-82089711D01*
X141195051Y-82094139D01*
X141154519Y-82120186D01*
X141102655Y-82140639D01*
X140982080Y-82232074D01*
X140898350Y-82342489D01*
X140877252Y-82364195D01*
X140859193Y-82378717D01*
X140813585Y-82401859D01*
X140801116Y-82405200D01*
X140801111Y-82405202D01*
X140764981Y-82426061D01*
X140732214Y-82439178D01*
X140726722Y-82440510D01*
X140722229Y-82441175D01*
X140705495Y-82445658D01*
X140704064Y-82446006D01*
X140702089Y-82445911D01*
X140674834Y-82449500D01*
X140635926Y-82449500D01*
X140510273Y-82474493D01*
X140510265Y-82474495D01*
X140510245Y-82474502D01*
X140391880Y-82523529D01*
X140391870Y-82523534D01*
X140285328Y-82594724D01*
X140285327Y-82594725D01*
X140285321Y-82594730D01*
X140194730Y-82685321D01*
X140194725Y-82685327D01*
X140194724Y-82685328D01*
X140123534Y-82791870D01*
X140123529Y-82791880D01*
X140074502Y-82910245D01*
X140074495Y-82910265D01*
X140074493Y-82910273D01*
X140049500Y-83035923D01*
X140049500Y-83119702D01*
X140044237Y-83137622D01*
X140074494Y-83289726D01*
X140074495Y-83289732D01*
X140074502Y-83289753D01*
X140123529Y-83408118D01*
X140123534Y-83408128D01*
X140194724Y-83514670D01*
X140194725Y-83514671D01*
X140194730Y-83514677D01*
X140285321Y-83605268D01*
X140285327Y-83605273D01*
X140285331Y-83605276D01*
X140391866Y-83676461D01*
X140391872Y-83676464D01*
X140391873Y-83676465D01*
X140505362Y-83723473D01*
X140505947Y-83723724D01*
X140506141Y-83723884D01*
X140509055Y-83725262D01*
X140635926Y-83750500D01*
X140764071Y-83750500D01*
X140764072Y-83750500D01*
X140817408Y-83739890D01*
X140855559Y-83732301D01*
X140855560Y-83732301D01*
X140864162Y-83730589D01*
X140889744Y-83725501D01*
X141008127Y-83676465D01*
X141114669Y-83605276D01*
X141114672Y-83605273D01*
X141119380Y-83601410D01*
X141120140Y-83602336D01*
X141138746Y-83588299D01*
X141155676Y-83579054D01*
X141217168Y-83563904D01*
X141231905Y-83564150D01*
X141244597Y-83565016D01*
X141331898Y-83575500D01*
X141331903Y-83575500D01*
X141703880Y-83575500D01*
X141738812Y-83580522D01*
X141741663Y-83581359D01*
X141750992Y-83584098D01*
X141809771Y-83621871D01*
X141838797Y-83685426D01*
X141830621Y-83750528D01*
X141816441Y-83784761D01*
X141816639Y-83788442D01*
X141812143Y-83803263D01*
X141777134Y-83897125D01*
X141777131Y-83897146D01*
X141771000Y-83954158D01*
X141771000Y-83954163D01*
X141771000Y-84000000D01*
X142225000Y-84000000D01*
X142225000Y-83567805D01*
X142230022Y-83532873D01*
X142231707Y-83527134D01*
X142236487Y-83510854D01*
X142264452Y-83461571D01*
X142266682Y-83459161D01*
X142282763Y-83444583D01*
X142300207Y-83431355D01*
X142317922Y-83417922D01*
X142409361Y-83297342D01*
X142464877Y-83156564D01*
X142475500Y-83068102D01*
X142475500Y-82581898D01*
X142464877Y-82493436D01*
X142409361Y-82352658D01*
X142409360Y-82352657D01*
X142409360Y-82352656D01*
X142360807Y-82288630D01*
X142343698Y-82257754D01*
X142339230Y-82245997D01*
X142333815Y-82176337D01*
X142366921Y-82114809D01*
X142424104Y-82081894D01*
X142433579Y-82079445D01*
X142464608Y-82075500D01*
X142564072Y-82075500D01*
X142610260Y-82066312D01*
X142656449Y-82057124D01*
X142656450Y-82057124D01*
X142668891Y-82054649D01*
X142689744Y-82050501D01*
X142808127Y-82001465D01*
X142914669Y-81930276D01*
X142945136Y-81899808D01*
X142977270Y-81881364D01*
X142991190Y-81869294D01*
X143000683Y-81867925D01*
X143001329Y-81867555D01*
X143011255Y-81864949D01*
X143011622Y-81866348D01*
X143060345Y-81859326D01*
X143123911Y-81888328D01*
X143158888Y-81938641D01*
X143159103Y-81939216D01*
X143166394Y-81994443D01*
X143166180Y-81996682D01*
X143162516Y-82016983D01*
X143157614Y-82035274D01*
X143152422Y-82050579D01*
X143139606Y-82081555D01*
X143140411Y-82089028D01*
X143138153Y-82099121D01*
X143127000Y-82140747D01*
X143127000Y-82140748D01*
X143114894Y-82185928D01*
X143114500Y-82187399D01*
X143114500Y-82312601D01*
X143146905Y-82433536D01*
X143209505Y-82541964D01*
X143298036Y-82630495D01*
X143406464Y-82693095D01*
X143406466Y-82693095D01*
X143406467Y-82693096D01*
X143406465Y-82693096D01*
X143465372Y-82708879D01*
X143497817Y-82722772D01*
X143511162Y-82730906D01*
X143558158Y-82782599D01*
X143560495Y-82787409D01*
X143572086Y-82856310D01*
X143567939Y-82876533D01*
X143562065Y-82896538D01*
X143530769Y-82949284D01*
X143494731Y-82985321D01*
X143494723Y-82985330D01*
X143494720Y-82985335D01*
X143423534Y-83091870D01*
X143423529Y-83091880D01*
X143374502Y-83210245D01*
X143374495Y-83210265D01*
X143374493Y-83210273D01*
X143349500Y-83335923D01*
X143349500Y-83335928D01*
X143349500Y-83464073D01*
X143349500Y-83464075D01*
X143349499Y-83464075D01*
X143363125Y-83532571D01*
X143365014Y-83567817D01*
X143362783Y-83592745D01*
X143337653Y-83657177D01*
X143296192Y-83711211D01*
X143272138Y-83734983D01*
X143263791Y-83741233D01*
X143262785Y-83739890D01*
X143254517Y-83743526D01*
X143245289Y-83752325D01*
X143226103Y-83756021D01*
X143204927Y-83765334D01*
X143188713Y-83763225D01*
X143176682Y-83765544D01*
X143142383Y-83757221D01*
X143142312Y-83757192D01*
X143142183Y-83757176D01*
X143139035Y-83755892D01*
X143138960Y-83755851D01*
X143137560Y-83755290D01*
X143137147Y-83755122D01*
X143128081Y-83747897D01*
X143084711Y-83714617D01*
X143082161Y-83711211D01*
X143042188Y-83657814D01*
X143042185Y-83657811D01*
X143042174Y-83657802D01*
X142931934Y-83575276D01*
X142931922Y-83575268D01*
X142931923Y-83575268D01*
X142931921Y-83575267D01*
X142802872Y-83527134D01*
X142802867Y-83527133D01*
X142802859Y-83527132D01*
X142802852Y-83527131D01*
X142745840Y-83521000D01*
X142745836Y-83521000D01*
X142725000Y-83521000D01*
X142725000Y-84108170D01*
X142719975Y-84143114D01*
X142715570Y-84158112D01*
X142677827Y-84216855D01*
X142676458Y-84218042D01*
X142621597Y-84245518D01*
X142614039Y-84247163D01*
X142587668Y-84250000D01*
X142475000Y-84250000D01*
X142475000Y-84358170D01*
X142469975Y-84393114D01*
X142465570Y-84408112D01*
X142427827Y-84466855D01*
X142426458Y-84468042D01*
X142371597Y-84495518D01*
X142364039Y-84497163D01*
X142337668Y-84500000D01*
X141771000Y-84500000D01*
X141771000Y-84545840D01*
X141777131Y-84602852D01*
X141777134Y-84602876D01*
X141777135Y-84602880D01*
X141825264Y-84731913D01*
X141825268Y-84731922D01*
X141829005Y-84736913D01*
X141845921Y-84767891D01*
X141850357Y-84779784D01*
X141855342Y-84849476D01*
X141821858Y-84910799D01*
X141764853Y-84943264D01*
X141755528Y-84945645D01*
X141724851Y-84949500D01*
X138243793Y-84949500D01*
X138208855Y-84944476D01*
X138196429Y-84940827D01*
X138137652Y-84903051D01*
X138108629Y-84839494D01*
X138116471Y-84775215D01*
X138119959Y-84766622D01*
X138134532Y-84740381D01*
X138236060Y-84600642D01*
X138321847Y-84432275D01*
X138380240Y-84252561D01*
X138380646Y-84250000D01*
X138381096Y-84247163D01*
X138409800Y-84065928D01*
X138409800Y-83994875D01*
X138414822Y-83959942D01*
X138416519Y-83954163D01*
X138422234Y-83934697D01*
X138453528Y-83881955D01*
X139564541Y-82770943D01*
X140690146Y-81645336D01*
X140718394Y-81624190D01*
X140730691Y-81617475D01*
X140798963Y-81602624D01*
X140864120Y-81626812D01*
G37*
%TD.AperFunction*%
%TA.AperFunction,Conductor*%
G36*
X147845854Y-80675395D02*
G01*
X147845876Y-80675098D01*
X147850832Y-80675452D01*
X147856744Y-80676961D01*
X147867602Y-80678522D01*
X147871972Y-80679805D01*
X147871687Y-80680774D01*
X147887799Y-80684887D01*
X147888056Y-80684199D01*
X147890902Y-80685261D01*
X147891781Y-80685903D01*
X147893519Y-80686347D01*
X147896227Y-80687584D01*
X147895690Y-80688758D01*
X147906505Y-80696656D01*
X147916442Y-80699577D01*
X147943110Y-80722696D01*
X147944106Y-80723846D01*
X147944293Y-80724254D01*
X147945024Y-80724788D01*
X147945984Y-80726010D01*
X147945992Y-80726021D01*
X147946008Y-80726040D01*
X147947847Y-80728378D01*
X147959248Y-80756860D01*
X147973049Y-80786948D01*
X147973175Y-80787803D01*
X147973520Y-80792511D01*
X147973813Y-80793243D01*
X147973639Y-80794142D01*
X147974500Y-80805881D01*
X147974500Y-80868102D01*
X147974901Y-80871447D01*
X147974902Y-80871449D01*
X147975591Y-80877186D01*
X147978202Y-80898934D01*
X147984238Y-80949199D01*
X147984603Y-80955312D01*
X147984723Y-80955601D01*
X147985517Y-80957564D01*
X147994808Y-80981125D01*
X147994807Y-80981125D01*
X148040637Y-81097340D01*
X148040638Y-81097342D01*
X148132076Y-81217922D01*
X148243382Y-81302327D01*
X148252658Y-81309361D01*
X148252660Y-81309362D01*
X148300191Y-81328106D01*
X148330844Y-81345593D01*
X148339770Y-81352538D01*
X148380593Y-81409241D01*
X148384278Y-81479014D01*
X148349657Y-81539703D01*
X148349648Y-81539711D01*
X148345051Y-81544139D01*
X148304519Y-81570186D01*
X148252655Y-81590639D01*
X148132076Y-81682076D01*
X148040640Y-81802653D01*
X148040637Y-81802659D01*
X147985123Y-81943432D01*
X147985122Y-81943433D01*
X147983225Y-81959241D01*
X147982409Y-81966037D01*
X147974500Y-82031898D01*
X147974500Y-82518102D01*
X147979307Y-82558133D01*
X147985122Y-82606561D01*
X147985122Y-82606563D01*
X147985123Y-82606564D01*
X147988894Y-82616126D01*
X147988895Y-82616131D01*
X147994560Y-82630496D01*
X147994559Y-82630496D01*
X148040637Y-82747339D01*
X148040640Y-82747345D01*
X148132076Y-82867922D01*
X148245904Y-82954240D01*
X148252656Y-82959360D01*
X148252657Y-82959360D01*
X148252876Y-82959526D01*
X148255596Y-82960519D01*
X148393436Y-83014877D01*
X148481898Y-83025500D01*
X148481903Y-83025500D01*
X149118097Y-83025500D01*
X149118102Y-83025500D01*
X149206564Y-83014877D01*
X149347342Y-82959361D01*
X149410174Y-82911713D01*
X149441033Y-82894612D01*
X149464520Y-82885685D01*
X149532764Y-82879978D01*
X149615347Y-82896405D01*
X149635928Y-82900500D01*
X149764071Y-82900500D01*
X149764072Y-82900500D01*
X149838542Y-82885686D01*
X149876511Y-82878133D01*
X149876511Y-82878134D01*
X149876514Y-82878132D01*
X149889744Y-82875501D01*
X150008127Y-82826465D01*
X150114669Y-82755276D01*
X150205276Y-82664669D01*
X150276465Y-82558127D01*
X150325501Y-82439744D01*
X150334955Y-82392219D01*
X150340231Y-82365694D01*
X150340231Y-82365692D01*
X150342430Y-82354641D01*
X150350500Y-82314071D01*
X150350500Y-82185928D01*
X150341512Y-82140747D01*
X150326899Y-82067284D01*
X150325502Y-82060261D01*
X150325501Y-82060260D01*
X150325501Y-82060256D01*
X150325500Y-82060253D01*
X150325260Y-82059050D01*
X150323179Y-82054649D01*
X150318393Y-82043096D01*
X150314361Y-82033362D01*
X150305636Y-81999177D01*
X150304151Y-81985364D01*
X150316557Y-81916611D01*
X150364166Y-81865474D01*
X150365053Y-81864949D01*
X150368693Y-81862790D01*
X150431947Y-81845443D01*
X151219073Y-81845443D01*
X151254005Y-81850464D01*
X151270386Y-81855274D01*
X151327402Y-81891058D01*
X151335320Y-81899810D01*
X151336333Y-81900929D01*
X151354867Y-81927827D01*
X151386234Y-81989387D01*
X151422540Y-82060642D01*
X151533610Y-82213516D01*
X151667227Y-82347133D01*
X151820101Y-82458203D01*
X151852080Y-82474497D01*
X151988463Y-82543988D01*
X151989338Y-82544434D01*
X151993086Y-82545491D01*
X152031995Y-82558133D01*
X152078034Y-82573092D01*
X152093152Y-82578004D01*
X152093160Y-82578009D01*
X152124820Y-82593575D01*
X152127276Y-82595255D01*
X152134157Y-82599960D01*
X152145442Y-82613761D01*
X152150824Y-82617442D01*
X152153361Y-82623446D01*
X152178384Y-82654049D01*
X152186348Y-82723464D01*
X152155519Y-82786164D01*
X152155508Y-82786176D01*
X152153413Y-82788458D01*
X152100387Y-82822530D01*
X151988466Y-82858895D01*
X151820099Y-82944683D01*
X151732879Y-83008053D01*
X151732878Y-83008053D01*
X151679094Y-83047129D01*
X151671719Y-83051259D01*
X151533608Y-83189370D01*
X151434058Y-83326387D01*
X151409462Y-83351695D01*
X151397084Y-83361240D01*
X151331975Y-83386590D01*
X151331971Y-83386590D01*
X151328873Y-83386856D01*
X151270619Y-83377792D01*
X151229556Y-83360701D01*
X151218831Y-83357257D01*
X151139746Y-83324500D01*
X151139744Y-83324499D01*
X151139738Y-83324497D01*
X151139733Y-83324495D01*
X151139725Y-83324493D01*
X151014074Y-83299500D01*
X151014071Y-83299500D01*
X151014069Y-83299500D01*
X150885931Y-83299500D01*
X150885929Y-83299500D01*
X150885926Y-83299500D01*
X150760273Y-83324493D01*
X150760265Y-83324495D01*
X150760245Y-83324502D01*
X150641880Y-83373529D01*
X150641870Y-83373534D01*
X150535328Y-83444724D01*
X150535327Y-83444725D01*
X150535321Y-83444730D01*
X150444730Y-83535321D01*
X150444725Y-83535327D01*
X150444724Y-83535328D01*
X150373534Y-83641870D01*
X150373529Y-83641880D01*
X150324502Y-83760245D01*
X150324495Y-83760265D01*
X150324493Y-83760273D01*
X150299500Y-83885923D01*
X150299500Y-83969702D01*
X150294237Y-83987622D01*
X150324494Y-84139726D01*
X150324495Y-84139732D01*
X150324502Y-84139753D01*
X150373529Y-84258118D01*
X150373534Y-84258128D01*
X150444724Y-84364670D01*
X150444725Y-84364671D01*
X150444730Y-84364677D01*
X150535321Y-84455268D01*
X150535327Y-84455273D01*
X150535331Y-84455276D01*
X150641866Y-84526461D01*
X150641872Y-84526464D01*
X150641873Y-84526465D01*
X150755362Y-84573473D01*
X150755947Y-84573724D01*
X150756141Y-84573884D01*
X150759053Y-84575261D01*
X150760252Y-84575499D01*
X150760256Y-84575501D01*
X150760259Y-84575501D01*
X150760260Y-84575501D01*
X150760261Y-84575502D01*
X150857899Y-84594924D01*
X150885927Y-84600500D01*
X151014071Y-84600500D01*
X151014073Y-84600500D01*
X151041880Y-84594968D01*
X151098615Y-84583682D01*
X151139744Y-84575501D01*
X151243782Y-84532405D01*
X151247331Y-84531182D01*
X151251501Y-84530987D01*
X151274505Y-84525117D01*
X151290046Y-84523446D01*
X151315371Y-84528014D01*
X151317125Y-84527933D01*
X151318124Y-84528511D01*
X151358802Y-84535849D01*
X151362743Y-84537822D01*
X151406230Y-84574035D01*
X151408171Y-84576609D01*
X151419648Y-84594966D01*
X151422540Y-84600642D01*
X151522477Y-84738194D01*
X151538949Y-84769414D01*
X151543299Y-84781608D01*
X151547284Y-84851364D01*
X151512923Y-84912200D01*
X151456324Y-84943633D01*
X151447326Y-84945862D01*
X151417510Y-84949500D01*
X148387638Y-84949500D01*
X148352703Y-84944477D01*
X148341849Y-84941290D01*
X148283071Y-84903516D01*
X148254046Y-84839960D01*
X148263989Y-84770803D01*
X148267179Y-84763820D01*
X148292288Y-84727658D01*
X148355274Y-84664672D01*
X148355276Y-84664669D01*
X148426465Y-84558127D01*
X148475501Y-84439744D01*
X148490434Y-84364672D01*
X148500500Y-84314071D01*
X148500500Y-84185925D01*
X148475295Y-84059220D01*
X148473724Y-84055947D01*
X148473473Y-84055362D01*
X148426465Y-83941873D01*
X148426464Y-83941872D01*
X148426461Y-83941866D01*
X148355276Y-83835331D01*
X148355273Y-83835327D01*
X148355268Y-83835321D01*
X148264677Y-83744730D01*
X148264671Y-83744725D01*
X148264670Y-83744724D01*
X148158127Y-83673534D01*
X148158123Y-83673532D01*
X148158118Y-83673529D01*
X148039753Y-83624502D01*
X148039733Y-83624495D01*
X148039725Y-83624493D01*
X147914074Y-83599500D01*
X147914071Y-83599500D01*
X147914069Y-83599500D01*
X147785931Y-83599500D01*
X147785927Y-83599500D01*
X147769164Y-83602834D01*
X147733921Y-83604722D01*
X147708999Y-83602491D01*
X147644569Y-83577361D01*
X147562865Y-83514668D01*
X147535392Y-83493587D01*
X147511410Y-83469251D01*
X147508391Y-83465195D01*
X147508388Y-83465192D01*
X147507227Y-83463815D01*
X147506934Y-83463238D01*
X147506137Y-83462167D01*
X147506321Y-83462029D01*
X147481505Y-83413092D01*
X147478994Y-83402739D01*
X147475500Y-83373512D01*
X147475500Y-82365692D01*
X147475500Y-82365691D01*
X147444799Y-82251114D01*
X147444797Y-82251110D01*
X147419731Y-82207694D01*
X147385493Y-82148392D01*
X147385487Y-82148384D01*
X147291807Y-82054704D01*
X147287974Y-82050041D01*
X147287719Y-82049444D01*
X147285389Y-82046786D01*
X147275575Y-82033996D01*
X147266566Y-82020513D01*
X147264477Y-82016895D01*
X147264477Y-82016894D01*
X147264473Y-82016890D01*
X147255568Y-82001465D01*
X147230495Y-81958036D01*
X147141964Y-81869505D01*
X147141961Y-81869503D01*
X147141960Y-81869502D01*
X147050669Y-81816796D01*
X147034851Y-81805951D01*
X147015078Y-81790013D01*
X146975237Y-81732616D01*
X146972751Y-81662791D01*
X147005741Y-81605267D01*
X147014830Y-81596287D01*
X147015374Y-81592151D01*
X146940755Y-81517532D01*
X146919600Y-81489268D01*
X146916198Y-81483036D01*
X146901354Y-81414762D01*
X146925778Y-81349300D01*
X146981717Y-81307435D01*
X147051409Y-81302459D01*
X147112716Y-81335938D01*
X147192151Y-81415373D01*
X147203171Y-81396287D01*
X147229000Y-81299894D01*
X147229000Y-81200105D01*
X147203170Y-81103709D01*
X147203169Y-81103708D01*
X147203168Y-81103704D01*
X147195007Y-81089569D01*
X147195005Y-81089567D01*
X147192151Y-81084624D01*
X147192150Y-81084624D01*
X147192149Y-81084624D01*
X147116716Y-81160057D01*
X147094369Y-81172259D01*
X147079053Y-81186186D01*
X147064325Y-81188664D01*
X147055393Y-81193542D01*
X147023977Y-81196273D01*
X147021258Y-81196162D01*
X147021268Y-81195910D01*
X147010153Y-81197781D01*
X146945921Y-81170284D01*
X146906751Y-81112426D01*
X146905080Y-81042577D01*
X146918968Y-81010133D01*
X146920431Y-81007734D01*
X146938631Y-80984588D01*
X147015372Y-80907847D01*
X147015371Y-80907846D01*
X147015372Y-80907846D01*
X147014702Y-80902761D01*
X146999526Y-80887511D01*
X146984268Y-80877186D01*
X146980501Y-80868393D01*
X146979989Y-80867878D01*
X146974903Y-80858967D01*
X146976157Y-80858250D01*
X146956758Y-80812960D01*
X146968339Y-80744056D01*
X147007956Y-80697219D01*
X147008463Y-80696858D01*
X147059846Y-80675584D01*
X147062072Y-80675210D01*
X147082596Y-80673500D01*
X147832671Y-80673500D01*
X147845854Y-80675395D01*
G37*
%TD.AperFunction*%
%TA.AperFunction,Conductor*%
G36*
X145163637Y-82255521D02*
G01*
X145188881Y-82262934D01*
X145241626Y-82294229D01*
X145557886Y-82610490D01*
X145557887Y-82610491D01*
X145557889Y-82610492D01*
X145592532Y-82630493D01*
X145660613Y-82669799D01*
X145684821Y-82676284D01*
X145684824Y-82676286D01*
X145684825Y-82676286D01*
X145714947Y-82684357D01*
X145775191Y-82700500D01*
X146263559Y-82700500D01*
X146271946Y-82700784D01*
X146277632Y-82701171D01*
X146301296Y-82705107D01*
X146377399Y-82725500D01*
X146438224Y-82725500D01*
X146486811Y-82735416D01*
X146487928Y-82735891D01*
X146491793Y-82737625D01*
X146492452Y-82737818D01*
X146496135Y-82739387D01*
X146520833Y-82759697D01*
X146546546Y-82778802D01*
X146547832Y-82780507D01*
X146548858Y-82782742D01*
X146550101Y-82783765D01*
X146551918Y-82789412D01*
X146569998Y-82828810D01*
X146571664Y-82836466D01*
X146574500Y-82862832D01*
X146574500Y-83370507D01*
X146569476Y-83405445D01*
X146564174Y-83423500D01*
X146530767Y-83478305D01*
X146520103Y-83488473D01*
X146510022Y-83497105D01*
X146470890Y-83527133D01*
X146470889Y-83527133D01*
X146389551Y-83589546D01*
X146362731Y-83624499D01*
X146325106Y-83673533D01*
X146303021Y-83702315D01*
X146302806Y-83702595D01*
X146289991Y-83716859D01*
X146274192Y-83731920D01*
X146212086Y-83763930D01*
X146142533Y-83757281D01*
X146142524Y-83757277D01*
X146137868Y-83755412D01*
X146084710Y-83714615D01*
X146056150Y-83676465D01*
X146042188Y-83657814D01*
X146042185Y-83657811D01*
X146042174Y-83657802D01*
X145931934Y-83575276D01*
X145931922Y-83575268D01*
X145931923Y-83575268D01*
X145931921Y-83575267D01*
X145802872Y-83527134D01*
X145802867Y-83527133D01*
X145802859Y-83527132D01*
X145802852Y-83527131D01*
X145745840Y-83521000D01*
X145745836Y-83521000D01*
X145725000Y-83521000D01*
X145725000Y-84108170D01*
X145719975Y-84143114D01*
X145715570Y-84158112D01*
X145677827Y-84216855D01*
X145676458Y-84218042D01*
X145621597Y-84245518D01*
X145614039Y-84247163D01*
X145587668Y-84250000D01*
X145366830Y-84250000D01*
X145331889Y-84244975D01*
X145316890Y-84240570D01*
X145258144Y-84202827D01*
X145256957Y-84201458D01*
X145229477Y-84146583D01*
X145227832Y-84139021D01*
X145225000Y-84112668D01*
X145225000Y-83521000D01*
X145204163Y-83521000D01*
X145204158Y-83521000D01*
X145147146Y-83527131D01*
X145147136Y-83527132D01*
X145147132Y-83527133D01*
X145147127Y-83527134D01*
X145018078Y-83575267D01*
X145018077Y-83575267D01*
X145018076Y-83575268D01*
X144938334Y-83634963D01*
X144937103Y-83635872D01*
X144900229Y-83662771D01*
X144900050Y-83662592D01*
X144883655Y-83674862D01*
X144882959Y-83675371D01*
X144850783Y-83686921D01*
X144818714Y-83698880D01*
X144817942Y-83698712D01*
X144817199Y-83698979D01*
X144783911Y-83691306D01*
X144750448Y-83684024D01*
X144743308Y-83680125D01*
X144704370Y-83646786D01*
X144677779Y-83612131D01*
X144660499Y-83581362D01*
X144651474Y-83558017D01*
X144645517Y-83489112D01*
X144650500Y-83464069D01*
X144650500Y-83335931D01*
X144650500Y-83335928D01*
X144650500Y-83335925D01*
X144625262Y-83209054D01*
X144623175Y-83204641D01*
X144587574Y-83118691D01*
X144576466Y-83091875D01*
X144576461Y-83091866D01*
X144509591Y-82991788D01*
X144498560Y-82971369D01*
X144485365Y-82940297D01*
X144475500Y-82891829D01*
X144475500Y-82392329D01*
X144480523Y-82357393D01*
X144481914Y-82352658D01*
X144484927Y-82342394D01*
X144522672Y-82283644D01*
X144524041Y-82282457D01*
X144578920Y-82254977D01*
X144586479Y-82253333D01*
X144612832Y-82250500D01*
X145128705Y-82250500D01*
X145163637Y-82255521D01*
G37*
%TD.AperFunction*%
%TA.AperFunction,Conductor*%
G36*
X144600336Y-77884949D02*
G01*
X144604209Y-77887638D01*
X144626248Y-77914986D01*
X144629139Y-77912838D01*
X144635374Y-77921227D01*
X144643240Y-77933197D01*
X144647299Y-77940229D01*
X144647301Y-77940232D01*
X144647302Y-77940233D01*
X144726946Y-78044027D01*
X144739551Y-78060453D01*
X144749556Y-78068130D01*
X144764568Y-78079649D01*
X144779065Y-78090773D01*
X144803723Y-78116027D01*
X144811905Y-78127233D01*
X144817936Y-78144011D01*
X144820268Y-78147205D01*
X144820502Y-78151151D01*
X144835540Y-78192984D01*
X144819880Y-78261066D01*
X144815718Y-78268478D01*
X144783086Y-78306140D01*
X144739552Y-78339546D01*
X144739546Y-78339552D01*
X144647309Y-78459756D01*
X144647305Y-78459762D01*
X144647299Y-78459772D01*
X144589313Y-78599761D01*
X144588518Y-78603760D01*
X144588252Y-78607822D01*
X144574500Y-78712272D01*
X144574500Y-79237727D01*
X144587461Y-79336171D01*
X144589313Y-79350236D01*
X144647302Y-79490233D01*
X144739549Y-79610451D01*
X144859767Y-79702698D01*
X144859770Y-79702700D01*
X144866809Y-79706764D01*
X144866507Y-79707286D01*
X144886831Y-79719343D01*
X144899006Y-79729154D01*
X144938851Y-79786537D01*
X144943151Y-79799453D01*
X144949500Y-79838622D01*
X144949500Y-81207670D01*
X144944475Y-81242614D01*
X144940070Y-81257612D01*
X144902327Y-81316355D01*
X144900958Y-81317542D01*
X144846097Y-81345018D01*
X144838539Y-81346663D01*
X144812168Y-81349500D01*
X144520830Y-81349500D01*
X144485889Y-81344475D01*
X144470890Y-81340070D01*
X144412144Y-81302327D01*
X144410957Y-81300958D01*
X144383477Y-81246083D01*
X144381832Y-81238521D01*
X144379000Y-81212168D01*
X144379000Y-81200107D01*
X144379000Y-81200105D01*
X144353170Y-81103709D01*
X144353169Y-81103708D01*
X144353168Y-81103704D01*
X144345007Y-81089569D01*
X144345005Y-81089567D01*
X144342151Y-81084624D01*
X144342150Y-81084624D01*
X144342149Y-81084624D01*
X144266716Y-81160057D01*
X144244369Y-81172259D01*
X144229053Y-81186186D01*
X144214325Y-81188664D01*
X144205393Y-81193542D01*
X144173977Y-81196273D01*
X144171258Y-81196162D01*
X144171268Y-81195910D01*
X144160153Y-81197781D01*
X144095921Y-81170284D01*
X144056751Y-81112426D01*
X144055080Y-81042577D01*
X144068968Y-81010133D01*
X144070431Y-81007734D01*
X144088631Y-80984588D01*
X144165372Y-80907847D01*
X144154091Y-80901334D01*
X144146292Y-80896831D01*
X144146289Y-80896830D01*
X144049893Y-80871000D01*
X144049890Y-80871000D01*
X143991002Y-80871000D01*
X143987288Y-80870944D01*
X143941719Y-80869578D01*
X143941695Y-80869390D01*
X143910441Y-80868641D01*
X143910057Y-80868630D01*
X143905910Y-80867276D01*
X143851769Y-80852072D01*
X143845288Y-80848330D01*
X143844119Y-80847104D01*
X143843638Y-80846947D01*
X143841681Y-80844547D01*
X143816858Y-80818513D01*
X143733224Y-80796103D01*
X143733224Y-80796102D01*
X143669637Y-80779065D01*
X143652601Y-80774500D01*
X143652600Y-80774500D01*
X143527399Y-80774500D01*
X143446774Y-80796103D01*
X143446773Y-80796102D01*
X143406469Y-80806902D01*
X143406462Y-80806905D01*
X143298035Y-80869504D01*
X143209038Y-80958501D01*
X143194477Y-80970966D01*
X143175827Y-80984584D01*
X143173008Y-80986642D01*
X143121196Y-81008650D01*
X143118301Y-81009155D01*
X143096992Y-81011000D01*
X143075137Y-81011000D01*
X143040201Y-81005977D01*
X143014959Y-80998565D01*
X142962214Y-80967269D01*
X142914666Y-80919721D01*
X142808127Y-80848534D01*
X142808128Y-80848534D01*
X142808118Y-80848529D01*
X142689753Y-80799502D01*
X142689733Y-80799495D01*
X142689725Y-80799493D01*
X142564074Y-80774500D01*
X142564071Y-80774500D01*
X142564069Y-80774500D01*
X142539916Y-80774500D01*
X142504977Y-80769476D01*
X142489977Y-80765071D01*
X142431204Y-80727298D01*
X142408561Y-80701167D01*
X142403469Y-80694888D01*
X142317923Y-80582078D01*
X142197341Y-80490638D01*
X142197340Y-80490637D01*
X142136995Y-80466840D01*
X142106339Y-80449352D01*
X142095385Y-80440829D01*
X142054563Y-80384125D01*
X142050878Y-80314353D01*
X142052014Y-80309560D01*
X142084984Y-80250498D01*
X144429650Y-77905832D01*
X144457900Y-77884684D01*
X144470192Y-77877972D01*
X144538465Y-77863122D01*
X144600336Y-77884949D01*
G37*
%TD.AperFunction*%
%TA.AperFunction,Conductor*%
G36*
X138451157Y-75652113D02*
G01*
X138453919Y-75653333D01*
X138472701Y-75663655D01*
X138491869Y-75676463D01*
X138491872Y-75676464D01*
X138491873Y-75676465D01*
X138604651Y-75723179D01*
X138609053Y-75725261D01*
X138610252Y-75725499D01*
X138610256Y-75725501D01*
X138610259Y-75725501D01*
X138610260Y-75725501D01*
X138610261Y-75725502D01*
X138707899Y-75744924D01*
X138735927Y-75750500D01*
X138735928Y-75750500D01*
X138782671Y-75750500D01*
X138817607Y-75755523D01*
X138832605Y-75759927D01*
X138891356Y-75797672D01*
X138892543Y-75799041D01*
X138920019Y-75853902D01*
X138921664Y-75861460D01*
X138924501Y-75887831D01*
X138924501Y-75939363D01*
X138930764Y-75986940D01*
X138939953Y-76056752D01*
X138939958Y-76056768D01*
X138939959Y-76056771D01*
X138995240Y-76190231D01*
X139000463Y-76202839D01*
X139000464Y-76202841D01*
X139095363Y-76326517D01*
X139096718Y-76328282D01*
X139222159Y-76424536D01*
X139368238Y-76485044D01*
X139485639Y-76500500D01*
X140514360Y-76500499D01*
X140514363Y-76500499D01*
X140624248Y-76486033D01*
X140624743Y-76485973D01*
X140625022Y-76486019D01*
X140627755Y-76485839D01*
X140631219Y-76485268D01*
X140631760Y-76485044D01*
X140631762Y-76485044D01*
X140777841Y-76424536D01*
X140903282Y-76328282D01*
X140903286Y-76328276D01*
X140905579Y-76326517D01*
X140916428Y-76317226D01*
X140932846Y-76305238D01*
X140998590Y-76281605D01*
X141000527Y-76281490D01*
X141060549Y-76293025D01*
X141064603Y-76294928D01*
X141087399Y-76308801D01*
X141089548Y-76310450D01*
X141089549Y-76310451D01*
X141141833Y-76350570D01*
X141211582Y-76404091D01*
X141235646Y-76428536D01*
X141235759Y-76428689D01*
X141239412Y-76433664D01*
X141239602Y-76433864D01*
X141241948Y-76437022D01*
X141252820Y-76466517D01*
X141265409Y-76495326D01*
X141264812Y-76499048D01*
X141266114Y-76502579D01*
X141259367Y-76533030D01*
X141255489Y-76557236D01*
X141257113Y-76557887D01*
X141255413Y-76562131D01*
X141254517Y-76563297D01*
X141254369Y-76564227D01*
X141253976Y-76565053D01*
X141253385Y-76564772D01*
X141251908Y-76566696D01*
X141251001Y-76570795D01*
X141241614Y-76580110D01*
X141214616Y-76615288D01*
X141157811Y-76657813D01*
X141075267Y-76768077D01*
X141036839Y-76871108D01*
X141019922Y-76902087D01*
X141011604Y-76913198D01*
X140955670Y-76955068D01*
X140885978Y-76960051D01*
X140885969Y-76960049D01*
X140878374Y-76958396D01*
X140830435Y-76936500D01*
X140719027Y-76853103D01*
X140719025Y-76853102D01*
X140719024Y-76853101D01*
X140719022Y-76853100D01*
X140719018Y-76853098D01*
X140583234Y-76802452D01*
X140583228Y-76802451D01*
X140523235Y-76796000D01*
X140523227Y-76796000D01*
X140250000Y-76796000D01*
X140250000Y-78303999D01*
X140523207Y-78303999D01*
X140523218Y-78303998D01*
X140523418Y-78303976D01*
X140583235Y-78297547D01*
X140583238Y-78297546D01*
X140719021Y-78246900D01*
X140719027Y-78246896D01*
X140835047Y-78160047D01*
X140921896Y-78044027D01*
X140921897Y-78044025D01*
X140929261Y-78024284D01*
X140972545Y-77908237D01*
X140972545Y-77908236D01*
X140972546Y-77908234D01*
X140972709Y-77906709D01*
X140981434Y-77872521D01*
X140986750Y-77859686D01*
X141030587Y-77805286D01*
X141096876Y-77783220D01*
X141098119Y-77783175D01*
X141156055Y-77795237D01*
X141161204Y-77797701D01*
X141181990Y-77810286D01*
X141268075Y-77874730D01*
X141268078Y-77874732D01*
X141397127Y-77922865D01*
X141397132Y-77922866D01*
X141454163Y-77928999D01*
X141454170Y-77928999D01*
X141454176Y-77929000D01*
X141454180Y-77929000D01*
X141500000Y-77929000D01*
X141500000Y-77366829D01*
X141505023Y-77331893D01*
X141509427Y-77316895D01*
X141547172Y-77258144D01*
X141548541Y-77256957D01*
X141603420Y-77229477D01*
X141610979Y-77227833D01*
X141637332Y-77225000D01*
X141858170Y-77225000D01*
X141893106Y-77230023D01*
X141908104Y-77234427D01*
X141966855Y-77272172D01*
X141968042Y-77273541D01*
X141995518Y-77328402D01*
X141997163Y-77335960D01*
X142000000Y-77362331D01*
X142000000Y-77951957D01*
X142002533Y-77961884D01*
X142009601Y-77981363D01*
X142029150Y-78079640D01*
X142029154Y-78079653D01*
X142029159Y-78079667D01*
X142078185Y-78198030D01*
X142078190Y-78198040D01*
X142149380Y-78304582D01*
X142149381Y-78304583D01*
X142149386Y-78304589D01*
X142154368Y-78309571D01*
X142175520Y-78337826D01*
X142183011Y-78351545D01*
X142197863Y-78419806D01*
X142197734Y-78421612D01*
X142178366Y-78479815D01*
X142174185Y-78486321D01*
X142157549Y-78506964D01*
X139695999Y-80968516D01*
X139667748Y-80989665D01*
X139644660Y-81002273D01*
X139585230Y-81017443D01*
X138439527Y-81017443D01*
X138404590Y-81012419D01*
X138388210Y-81007609D01*
X138331198Y-80971828D01*
X138322265Y-80961955D01*
X138303734Y-80935063D01*
X138271633Y-80872061D01*
X138236060Y-80802244D01*
X138236058Y-80802241D01*
X138236057Y-80802239D01*
X138180680Y-80726021D01*
X138124990Y-80649370D01*
X137991373Y-80515753D01*
X137838499Y-80404683D01*
X137793781Y-80381898D01*
X137670136Y-80318897D01*
X137591775Y-80293436D01*
X137565452Y-80284883D01*
X137508617Y-80246461D01*
X137507762Y-80245438D01*
X137498446Y-80239069D01*
X137471243Y-80174712D01*
X137483152Y-80105865D01*
X137503067Y-80076735D01*
X137505171Y-80074443D01*
X137558207Y-80040355D01*
X137670132Y-80003990D01*
X137838499Y-79918203D01*
X137991373Y-79807133D01*
X138124990Y-79673516D01*
X138236060Y-79520642D01*
X138321847Y-79352275D01*
X138380240Y-79172561D01*
X138409800Y-78985929D01*
X138409800Y-78796956D01*
X138380240Y-78610324D01*
X138321845Y-78430606D01*
X138257633Y-78304584D01*
X138236060Y-78262244D01*
X138236059Y-78262243D01*
X138236057Y-78262239D01*
X138203814Y-78217861D01*
X138124990Y-78109370D01*
X137991373Y-77975753D01*
X137866027Y-77884683D01*
X137849096Y-77872382D01*
X137849093Y-77872380D01*
X137838499Y-77864683D01*
X137838498Y-77864682D01*
X137838496Y-77864681D01*
X137832381Y-77861565D01*
X137832373Y-77861560D01*
X137827587Y-77859122D01*
X137827586Y-77859121D01*
X137827585Y-77859121D01*
X137814519Y-77852463D01*
X137814508Y-77852459D01*
X137806193Y-77848222D01*
X139021001Y-77848222D01*
X139024949Y-77884949D01*
X139027452Y-77908235D01*
X139027453Y-77908238D01*
X139078099Y-78044021D01*
X139078103Y-78044027D01*
X139090398Y-78060451D01*
X139164951Y-78160047D01*
X139226660Y-78206240D01*
X139280972Y-78246896D01*
X139280974Y-78246897D01*
X139280980Y-78246899D01*
X139280988Y-78246903D01*
X139380381Y-78283975D01*
X139416768Y-78297547D01*
X139476780Y-78303999D01*
X139749999Y-78303999D01*
X139750000Y-78303998D01*
X139750000Y-77800000D01*
X139021001Y-77800000D01*
X139021001Y-77848222D01*
X137806193Y-77848222D01*
X137670140Y-77778898D01*
X137588774Y-77752461D01*
X137588769Y-77752459D01*
X137577011Y-77748638D01*
X137565446Y-77744880D01*
X137533780Y-77729311D01*
X137531323Y-77727631D01*
X137524445Y-77722927D01*
X137513153Y-77709120D01*
X137507771Y-77705439D01*
X137505234Y-77699435D01*
X137480216Y-77668841D01*
X137472249Y-77599427D01*
X137503070Y-77536732D01*
X137505171Y-77534443D01*
X137558207Y-77500355D01*
X137670132Y-77463990D01*
X137838499Y-77378203D01*
X137991373Y-77267133D01*
X138006743Y-77251763D01*
X139021000Y-77251763D01*
X139021000Y-77251772D01*
X139021000Y-77300000D01*
X139750000Y-77300000D01*
X139750000Y-76796000D01*
X139476791Y-76796000D01*
X139416763Y-76802452D01*
X139280977Y-76853099D01*
X139164951Y-76939951D01*
X139078103Y-77055971D01*
X139078095Y-77055988D01*
X139027452Y-77191764D01*
X139027451Y-77191770D01*
X139021000Y-77251763D01*
X138006743Y-77251763D01*
X138124990Y-77133516D01*
X138236060Y-76980642D01*
X138321847Y-76812275D01*
X138380240Y-76632561D01*
X138386114Y-76595473D01*
X138409800Y-76445929D01*
X138409800Y-76256956D01*
X138380240Y-76070324D01*
X138353146Y-75986940D01*
X138337687Y-75939363D01*
X138323350Y-75895237D01*
X138322287Y-75891469D01*
X138321282Y-75889445D01*
X138319497Y-75885761D01*
X138318563Y-75884165D01*
X138292471Y-75832957D01*
X138283058Y-75805337D01*
X138281787Y-75803008D01*
X138281870Y-75801849D01*
X138281088Y-75799555D01*
X138279000Y-75788438D01*
X138285971Y-75718916D01*
X138329422Y-75664201D01*
X138395539Y-75641663D01*
X138395729Y-75641655D01*
X138451157Y-75652113D01*
G37*
%TD.AperFunction*%
%TA.AperFunction,Conductor*%
G36*
X146238910Y-77916428D02*
G01*
X146241839Y-77915682D01*
X146259892Y-77921696D01*
X146297456Y-77931128D01*
X146298367Y-77931632D01*
X146298372Y-77931636D01*
X146309512Y-77937805D01*
X146337113Y-77958597D01*
X147000298Y-78621782D01*
X147094702Y-78676286D01*
X147199996Y-78704500D01*
X147309004Y-78704500D01*
X151106970Y-78704500D01*
X151141906Y-78709523D01*
X151156904Y-78713927D01*
X151215655Y-78751672D01*
X151216842Y-78753041D01*
X151244318Y-78807902D01*
X151245963Y-78815460D01*
X151248800Y-78841831D01*
X151248800Y-78985934D01*
X151278358Y-79172555D01*
X151278359Y-79172561D01*
X151336754Y-79352279D01*
X151407044Y-79490229D01*
X151422540Y-79520642D01*
X151422541Y-79520643D01*
X151422542Y-79520646D01*
X151468719Y-79584202D01*
X151533610Y-79673516D01*
X151667227Y-79807133D01*
X151729284Y-79852220D01*
X151820096Y-79918200D01*
X151820097Y-79918200D01*
X151820101Y-79918203D01*
X151899647Y-79958733D01*
X151982018Y-80000704D01*
X151983610Y-80001636D01*
X151987334Y-80003440D01*
X151989323Y-80004429D01*
X151993070Y-80005485D01*
X152074910Y-80032077D01*
X152093146Y-80038002D01*
X152149977Y-80076418D01*
X152150850Y-80077463D01*
X152160169Y-80083837D01*
X152187358Y-80148200D01*
X152175434Y-80217044D01*
X152155508Y-80246176D01*
X152153413Y-80248458D01*
X152100387Y-80282530D01*
X151988466Y-80318895D01*
X151820100Y-80404682D01*
X151743551Y-80460300D01*
X151679098Y-80507128D01*
X151671717Y-80511261D01*
X151529117Y-80653861D01*
X151524984Y-80661242D01*
X151496806Y-80700024D01*
X151496807Y-80700025D01*
X151422540Y-80802243D01*
X151422537Y-80802247D01*
X151422536Y-80802250D01*
X151355481Y-80933853D01*
X151335144Y-80962701D01*
X151323424Y-80975110D01*
X151265662Y-81009663D01*
X151255853Y-81012316D01*
X151252813Y-81013139D01*
X151220429Y-81017443D01*
X149847120Y-81017443D01*
X149812184Y-81012420D01*
X149786942Y-81005008D01*
X149734197Y-80973712D01*
X149674426Y-80913941D01*
X149653274Y-80885685D01*
X149640667Y-80862596D01*
X149625500Y-80803171D01*
X149625500Y-80381903D01*
X149625500Y-80381898D01*
X149614877Y-80293436D01*
X149559361Y-80152658D01*
X149559360Y-80152657D01*
X149559360Y-80152656D01*
X149555630Y-80147737D01*
X149555318Y-80147140D01*
X149554240Y-80145904D01*
X149467922Y-80032076D01*
X149347345Y-79940640D01*
X149347339Y-79940637D01*
X149251192Y-79902721D01*
X149251191Y-79902721D01*
X149207543Y-79885508D01*
X149205583Y-79884716D01*
X149205311Y-79884603D01*
X149199199Y-79884238D01*
X149159922Y-79879522D01*
X149118102Y-79874500D01*
X149118097Y-79874500D01*
X148621683Y-79874500D01*
X148605497Y-79873439D01*
X148589524Y-79871336D01*
X148573617Y-79868172D01*
X148540909Y-79859408D01*
X148489004Y-79845500D01*
X148489003Y-79845500D01*
X146492323Y-79845500D01*
X146444614Y-79858283D01*
X146444601Y-79858287D01*
X146439677Y-79859607D01*
X146387028Y-79873714D01*
X146387027Y-79873715D01*
X146363232Y-79887452D01*
X146363226Y-79887455D01*
X146292633Y-79928211D01*
X146292628Y-79928215D01*
X146292627Y-79928216D01*
X146292620Y-79928222D01*
X146074788Y-80146055D01*
X146046538Y-80167204D01*
X146036611Y-80172625D01*
X145968338Y-80187479D01*
X145902873Y-80163065D01*
X145861000Y-80107133D01*
X145858313Y-80099927D01*
X145850500Y-80056607D01*
X145850500Y-79840549D01*
X145855523Y-79805613D01*
X145856970Y-79800687D01*
X145859927Y-79790614D01*
X145897697Y-79731842D01*
X145901927Y-79728176D01*
X145907989Y-79722922D01*
X145933448Y-79707199D01*
X145933195Y-79706761D01*
X145940227Y-79702700D01*
X145940233Y-79702698D01*
X146060451Y-79610451D01*
X146152698Y-79490233D01*
X146210687Y-79350236D01*
X146225500Y-79237720D01*
X146225500Y-78712280D01*
X146210687Y-78599764D01*
X146152698Y-78459767D01*
X146125883Y-78424821D01*
X146071145Y-78353485D01*
X146071142Y-78353481D01*
X146060451Y-78339549D01*
X146060449Y-78339548D01*
X146060449Y-78339547D01*
X146053551Y-78334254D01*
X146052790Y-78333422D01*
X146051037Y-78332325D01*
X146020935Y-78309227D01*
X145996280Y-78283978D01*
X145987526Y-78271990D01*
X145963893Y-78206240D01*
X145978158Y-78140714D01*
X145980864Y-78135619D01*
X146014883Y-78095415D01*
X146060451Y-78060451D01*
X146130505Y-77969152D01*
X146165629Y-77937986D01*
X146171540Y-77934485D01*
X146171571Y-77934462D01*
X146174135Y-77932942D01*
X146205125Y-77925041D01*
X146235667Y-77915614D01*
X146238910Y-77916428D01*
G37*
%TD.AperFunction*%
%TA.AperFunction,Conductor*%
G36*
X151168147Y-70882521D02*
G01*
X151181466Y-70886432D01*
X151240244Y-70924206D01*
X151269270Y-70987761D01*
X151269270Y-70987767D01*
X151271122Y-71000651D01*
X151270857Y-71037692D01*
X151248800Y-71176956D01*
X151248800Y-71365934D01*
X151268804Y-71492231D01*
X151278359Y-71552561D01*
X151336754Y-71732279D01*
X151411842Y-71879646D01*
X151422540Y-71900642D01*
X151533610Y-72053516D01*
X151667227Y-72187133D01*
X151820101Y-72298203D01*
X151868397Y-72322811D01*
X151988463Y-72383988D01*
X151989338Y-72384434D01*
X151993086Y-72385491D01*
X152043385Y-72401833D01*
X152078034Y-72413092D01*
X152093152Y-72418004D01*
X152093160Y-72418009D01*
X152124821Y-72433576D01*
X152134157Y-72439960D01*
X152145442Y-72453761D01*
X152150824Y-72457442D01*
X152153361Y-72463446D01*
X152178384Y-72494049D01*
X152186348Y-72563464D01*
X152155519Y-72626162D01*
X152153787Y-72628049D01*
X152153413Y-72628458D01*
X152100387Y-72662530D01*
X151988466Y-72698895D01*
X151820099Y-72784683D01*
X151732879Y-72848053D01*
X151732878Y-72848053D01*
X151679094Y-72887129D01*
X151671719Y-72891259D01*
X151529116Y-73033862D01*
X151524986Y-73041237D01*
X151485910Y-73095021D01*
X151485910Y-73095022D01*
X151422540Y-73182242D01*
X151379647Y-73266424D01*
X151336754Y-73350606D01*
X151278359Y-73530324D01*
X151278358Y-73530327D01*
X151278358Y-73530329D01*
X151248800Y-73716950D01*
X151248800Y-73905934D01*
X151257327Y-73959770D01*
X151278359Y-74092561D01*
X151336754Y-74272279D01*
X151336755Y-74272280D01*
X151336756Y-74272284D01*
X151370533Y-74338574D01*
X151403137Y-74402561D01*
X151422540Y-74440642D01*
X151422541Y-74440643D01*
X151422542Y-74440646D01*
X151447370Y-74474818D01*
X151533610Y-74593516D01*
X151667227Y-74727133D01*
X151820101Y-74838203D01*
X151885776Y-74871666D01*
X151988463Y-74923988D01*
X151989338Y-74924434D01*
X151993086Y-74925491D01*
X152039511Y-74940575D01*
X152078034Y-74953092D01*
X152093152Y-74958004D01*
X152093160Y-74958009D01*
X152124821Y-74973576D01*
X152134157Y-74979960D01*
X152145442Y-74993761D01*
X152150824Y-74997442D01*
X152153361Y-75003446D01*
X152178384Y-75034049D01*
X152186348Y-75103464D01*
X152155519Y-75166162D01*
X152153787Y-75168049D01*
X152153413Y-75168458D01*
X152100387Y-75202530D01*
X151988466Y-75238895D01*
X151820098Y-75324684D01*
X151820095Y-75324685D01*
X151752395Y-75373874D01*
X151752394Y-75373875D01*
X151679097Y-75427128D01*
X151671718Y-75431260D01*
X151529117Y-75573861D01*
X151524989Y-75581233D01*
X151507528Y-75605269D01*
X151507523Y-75605276D01*
X151469451Y-75657677D01*
X151422540Y-75722242D01*
X151406269Y-75754176D01*
X151336754Y-75890606D01*
X151278359Y-76070324D01*
X151278359Y-76070325D01*
X151278358Y-76070329D01*
X151248800Y-76256950D01*
X151248800Y-76445934D01*
X151271966Y-76592196D01*
X151278359Y-76632561D01*
X151336754Y-76812279D01*
X151375242Y-76887815D01*
X151408613Y-76953310D01*
X151412047Y-76960049D01*
X151422540Y-76980642D01*
X151533610Y-77133516D01*
X151667227Y-77267133D01*
X151820101Y-77378203D01*
X151832727Y-77384636D01*
X151982026Y-77460708D01*
X151983614Y-77461638D01*
X151987313Y-77463430D01*
X151989328Y-77464431D01*
X151993086Y-77465491D01*
X152043385Y-77481833D01*
X152078034Y-77493092D01*
X152093152Y-77498004D01*
X152093160Y-77498009D01*
X152124821Y-77513576D01*
X152134157Y-77519960D01*
X152145442Y-77533761D01*
X152150824Y-77537442D01*
X152153361Y-77543446D01*
X152178384Y-77574049D01*
X152186348Y-77643464D01*
X152155519Y-77706164D01*
X152155508Y-77706176D01*
X152153413Y-77708458D01*
X152100388Y-77742530D01*
X152030763Y-77765152D01*
X151988463Y-77778897D01*
X151988461Y-77778897D01*
X151988461Y-77778898D01*
X151988457Y-77778899D01*
X151899104Y-77824429D01*
X151899100Y-77824431D01*
X151836507Y-77856322D01*
X151809167Y-77866409D01*
X151781414Y-77873073D01*
X151752462Y-77876500D01*
X147495176Y-77876500D01*
X147460240Y-77871477D01*
X147434998Y-77864065D01*
X147382253Y-77832769D01*
X146762926Y-77213442D01*
X146741774Y-77185186D01*
X146729167Y-77162097D01*
X146714000Y-77102672D01*
X146714000Y-76295840D01*
X147471000Y-76295840D01*
X147473552Y-76319569D01*
X147477133Y-76352867D01*
X147477134Y-76352872D01*
X147525267Y-76481921D01*
X147525268Y-76481922D01*
X147525276Y-76481934D01*
X147607802Y-76592174D01*
X147607812Y-76592186D01*
X147607824Y-76592196D01*
X147695477Y-76657813D01*
X147718075Y-76674730D01*
X147718078Y-76674732D01*
X147847127Y-76722865D01*
X147847132Y-76722866D01*
X147904163Y-76728999D01*
X147904170Y-76728999D01*
X147904176Y-76729000D01*
X147904180Y-76729000D01*
X147950000Y-76729000D01*
X148450000Y-76729000D01*
X148495813Y-76729000D01*
X148495820Y-76729000D01*
X148495836Y-76728999D01*
X148495852Y-76728997D01*
X148495856Y-76728997D01*
X148508949Y-76727588D01*
X148552867Y-76722866D01*
X148552872Y-76722865D01*
X148681921Y-76674732D01*
X148681924Y-76674730D01*
X148792185Y-76592188D01*
X148792188Y-76592185D01*
X148874730Y-76481924D01*
X148874732Y-76481921D01*
X148922865Y-76352872D01*
X148922866Y-76352867D01*
X148928999Y-76295836D01*
X148929000Y-76295819D01*
X148929000Y-76275000D01*
X148450000Y-76275000D01*
X148450000Y-76729000D01*
X147950000Y-76729000D01*
X147950000Y-76275000D01*
X147471000Y-76275000D01*
X147471000Y-76295840D01*
X146714000Y-76295840D01*
X146714000Y-75401889D01*
X146719022Y-75366957D01*
X146719604Y-75364974D01*
X146724934Y-75346821D01*
X146755454Y-75294858D01*
X146760174Y-75290053D01*
X146779722Y-75273865D01*
X146836124Y-75236180D01*
X146892263Y-75152161D01*
X146892264Y-75152160D01*
X146906826Y-75078943D01*
X146906893Y-75078735D01*
X146907000Y-75078076D01*
X146907000Y-75053057D01*
X146669645Y-75053057D01*
X146638651Y-75043956D01*
X146619651Y-75043588D01*
X146605819Y-75034315D01*
X146602606Y-75033372D01*
X146597948Y-75029038D01*
X146561616Y-75004682D01*
X146533828Y-74940575D01*
X146545110Y-74871623D01*
X146575692Y-74831589D01*
X146576398Y-74830977D01*
X146631235Y-74803534D01*
X146638794Y-74801890D01*
X146665147Y-74799057D01*
X146935551Y-74799057D01*
X146970486Y-74804080D01*
X146990920Y-74810080D01*
X146992090Y-74810831D01*
X146994286Y-74811068D01*
X146996755Y-74811793D01*
X147030040Y-74829204D01*
X147036020Y-74831314D01*
X147036021Y-74831314D01*
X147174513Y-74831314D01*
X147174515Y-74831314D01*
X147221824Y-74821904D01*
X147232734Y-74820236D01*
X147261177Y-74817176D01*
X147261178Y-74817177D01*
X147275508Y-74815635D01*
X147344264Y-74828036D01*
X147345896Y-74828853D01*
X147392243Y-74869015D01*
X147396656Y-74875371D01*
X147409360Y-74898636D01*
X147429518Y-74947300D01*
X147444050Y-74982383D01*
X147444051Y-74982385D01*
X147444050Y-74982385D01*
X147447298Y-74990225D01*
X147447300Y-74990229D01*
X147447302Y-74990233D01*
X147539549Y-75110451D01*
X147573047Y-75136155D01*
X147652588Y-75197190D01*
X147666845Y-75209996D01*
X147681912Y-75225798D01*
X147713927Y-75287901D01*
X147707291Y-75357441D01*
X147705428Y-75362096D01*
X147664617Y-75415288D01*
X147607811Y-75457813D01*
X147587995Y-75484284D01*
X147525269Y-75568075D01*
X147525267Y-75568078D01*
X147489415Y-75664201D01*
X147477134Y-75697127D01*
X147477131Y-75697146D01*
X147471000Y-75754158D01*
X147471000Y-75754163D01*
X147471000Y-75775000D01*
X148929000Y-75775000D01*
X148929000Y-75754176D01*
X148928998Y-75754158D01*
X148928998Y-75754154D01*
X148925891Y-75725261D01*
X148922866Y-75697132D01*
X148922865Y-75697127D01*
X148874732Y-75568078D01*
X148874730Y-75568075D01*
X148812004Y-75484284D01*
X148792188Y-75457813D01*
X148746108Y-75423318D01*
X148741927Y-75420188D01*
X148716971Y-75395231D01*
X148708653Y-75384119D01*
X148684238Y-75318655D01*
X148699090Y-75250385D01*
X148701688Y-75245626D01*
X148735025Y-75206693D01*
X148740230Y-75202698D01*
X148740233Y-75202698D01*
X148860451Y-75110451D01*
X148952698Y-74990233D01*
X149010687Y-74850236D01*
X149025500Y-74737720D01*
X149025500Y-74212280D01*
X149010687Y-74099764D01*
X148952698Y-73959767D01*
X148860451Y-73839549D01*
X148740233Y-73747302D01*
X148740229Y-73747300D01*
X148658213Y-73713328D01*
X148600236Y-73689313D01*
X148586171Y-73687461D01*
X148586170Y-73687460D01*
X148487728Y-73674500D01*
X148487727Y-73674500D01*
X148487720Y-73674500D01*
X147912280Y-73674500D01*
X147912272Y-73674500D01*
X147799766Y-73689312D01*
X147799764Y-73689313D01*
X147716025Y-73723997D01*
X147681827Y-73732725D01*
X147663682Y-73734675D01*
X147599300Y-73724352D01*
X147593452Y-73721705D01*
X147556903Y-73696419D01*
X147479393Y-73618909D01*
X147479391Y-73618907D01*
X147407557Y-73577433D01*
X147392027Y-73566818D01*
X147385449Y-73561548D01*
X147385282Y-73561310D01*
X147382218Y-73558959D01*
X147381171Y-73558120D01*
X147380830Y-73557632D01*
X147371050Y-73549057D01*
X147369369Y-73547377D01*
X147348189Y-73519091D01*
X147341538Y-73506909D01*
X147326689Y-73438635D01*
X147351108Y-73373175D01*
X147351477Y-73372684D01*
X147383561Y-73342872D01*
X147383913Y-73342645D01*
X147383917Y-73342644D01*
X147403499Y-73323063D01*
X147403499Y-73298047D01*
X147391190Y-73236164D01*
X147388809Y-73211977D01*
X147388809Y-73188016D01*
X147391190Y-73163842D01*
X147401982Y-73109583D01*
X147402704Y-73106860D01*
X147403500Y-73101956D01*
X147403500Y-73076937D01*
X147274000Y-73076937D01*
X147206961Y-73057252D01*
X147161206Y-73004448D01*
X147150000Y-72952937D01*
X147150000Y-72946937D01*
X147169685Y-72879898D01*
X147222489Y-72834143D01*
X147274000Y-72822937D01*
X147403499Y-72822937D01*
X147403499Y-72797921D01*
X147391191Y-72736040D01*
X147388809Y-72711851D01*
X147388809Y-72687890D01*
X147391190Y-72663716D01*
X147401982Y-72609457D01*
X147402704Y-72606734D01*
X147403500Y-72601830D01*
X147403500Y-72576811D01*
X147274000Y-72576811D01*
X147206961Y-72557126D01*
X147161206Y-72504322D01*
X147150000Y-72452811D01*
X147150000Y-72446811D01*
X147169685Y-72379772D01*
X147222489Y-72334017D01*
X147274000Y-72322811D01*
X147403499Y-72322811D01*
X147403499Y-72297795D01*
X147391191Y-72235914D01*
X147388809Y-72211725D01*
X147388809Y-72187764D01*
X147391190Y-72163590D01*
X147401982Y-72109331D01*
X147402704Y-72106608D01*
X147403500Y-72101704D01*
X147403500Y-72076685D01*
X147274000Y-72076685D01*
X147206961Y-72057000D01*
X147161206Y-72004196D01*
X147150000Y-71952685D01*
X147150000Y-71946685D01*
X147169685Y-71879646D01*
X147222489Y-71833891D01*
X147274000Y-71822685D01*
X147403499Y-71822685D01*
X147403499Y-71797671D01*
X147403499Y-71797670D01*
X147388762Y-71723578D01*
X147388761Y-71723575D01*
X147332623Y-71639561D01*
X147258756Y-71590204D01*
X147254011Y-71586310D01*
X147248606Y-71583421D01*
X147248603Y-71583420D01*
X147174521Y-71568685D01*
X147174520Y-71568685D01*
X147033623Y-71568685D01*
X147023165Y-71574396D01*
X147023164Y-71574395D01*
X147013322Y-71579771D01*
X147013317Y-71579772D01*
X147013311Y-71579776D01*
X147007079Y-71583179D01*
X147002322Y-71585777D01*
X146942899Y-71600943D01*
X146691536Y-71600943D01*
X146656598Y-71595919D01*
X146648575Y-71593563D01*
X146589798Y-71555787D01*
X146560775Y-71492231D01*
X146570720Y-71423073D01*
X146616476Y-71370270D01*
X146624090Y-71365753D01*
X146630764Y-71362109D01*
X146690187Y-71346943D01*
X146904682Y-71346943D01*
X146906999Y-71346943D01*
X146906999Y-71321928D01*
X146892262Y-71247836D01*
X146892260Y-71247830D01*
X146892258Y-71247827D01*
X146888608Y-71240373D01*
X146888775Y-71240290D01*
X146877458Y-71216637D01*
X146872787Y-71201720D01*
X146871539Y-71131862D01*
X146871542Y-71131851D01*
X146873486Y-71124767D01*
X146905382Y-71069903D01*
X147048863Y-70926422D01*
X147077120Y-70905271D01*
X147100209Y-70892665D01*
X147159630Y-70877500D01*
X151133215Y-70877500D01*
X151168147Y-70882521D01*
G37*
%TD.AperFunction*%
%TA.AperFunction,Conductor*%
G36*
X142759978Y-75255199D02*
G01*
X142825440Y-75279619D01*
X142846266Y-75299357D01*
X142855770Y-75310728D01*
X142882026Y-75364974D01*
X142883396Y-75371553D01*
X142886000Y-75396832D01*
X142886000Y-76219946D01*
X142880975Y-76254890D01*
X142876570Y-76269888D01*
X142838809Y-76328647D01*
X142833257Y-76333459D01*
X142776237Y-76361373D01*
X142710258Y-76374498D01*
X142638878Y-76404064D01*
X142610370Y-76407128D01*
X142595205Y-76413114D01*
X142580941Y-76410292D01*
X142569409Y-76411532D01*
X142540716Y-76402334D01*
X142526664Y-76399555D01*
X142476334Y-76351092D01*
X142460102Y-76285197D01*
X142460142Y-76284076D01*
X142474510Y-76230409D01*
X142475573Y-76228407D01*
X142486739Y-76211029D01*
X142502698Y-76190233D01*
X142560687Y-76050236D01*
X142575500Y-75937720D01*
X142575500Y-75438008D01*
X142580522Y-75403075D01*
X142587934Y-75377830D01*
X142619232Y-75325084D01*
X142627296Y-75317021D01*
X142645901Y-75298415D01*
X142674147Y-75277270D01*
X142687872Y-75269775D01*
X142756142Y-75254925D01*
X142759978Y-75255199D01*
G37*
%TD.AperFunction*%
%TA.AperFunction,Conductor*%
G36*
X141993106Y-74369212D02*
G01*
X142008104Y-74373616D01*
X142066855Y-74411361D01*
X142068042Y-74412730D01*
X142095522Y-74467605D01*
X142097091Y-74474818D01*
X142094901Y-74536109D01*
X142087565Y-74561094D01*
X142056269Y-74613841D01*
X141844538Y-74825573D01*
X141816287Y-74846722D01*
X141793199Y-74859330D01*
X141733769Y-74874500D01*
X141462272Y-74874500D01*
X141357822Y-74888252D01*
X141353760Y-74888518D01*
X141349761Y-74889313D01*
X141209771Y-74947299D01*
X141209761Y-74947305D01*
X141209759Y-74947306D01*
X141117589Y-75018031D01*
X141086819Y-75035312D01*
X141072239Y-75040949D01*
X141002612Y-75046763D01*
X141000812Y-75046394D01*
X140945665Y-75019598D01*
X140939758Y-75014601D01*
X140921466Y-74995416D01*
X140905996Y-74975255D01*
X140903282Y-74971718D01*
X140777841Y-74875464D01*
X140777616Y-74875371D01*
X140730894Y-74856018D01*
X140635826Y-74816639D01*
X140632899Y-74815303D01*
X140631761Y-74814954D01*
X140516240Y-74799747D01*
X140514558Y-74799500D01*
X140514367Y-74799500D01*
X140514361Y-74799500D01*
X140514354Y-74799500D01*
X139843979Y-74799500D01*
X139809043Y-74794477D01*
X139783801Y-74787065D01*
X139731055Y-74755768D01*
X139693200Y-74717912D01*
X139693188Y-74717902D01*
X139693187Y-74717901D01*
X139634479Y-74684007D01*
X139584310Y-74655042D01*
X139584309Y-74655041D01*
X139584307Y-74655040D01*
X139584305Y-74655039D01*
X139553945Y-74646904D01*
X139553945Y-74646903D01*
X139462865Y-74622500D01*
X139462864Y-74622500D01*
X139462861Y-74622500D01*
X139310712Y-74622500D01*
X139276794Y-74617771D01*
X139276308Y-74617632D01*
X139262343Y-74613532D01*
X139261857Y-74613523D01*
X139253870Y-74611252D01*
X139230624Y-74596591D01*
X139205731Y-74584947D01*
X139196267Y-74574924D01*
X139194772Y-74573981D01*
X139194179Y-74572713D01*
X139190268Y-74568570D01*
X139188325Y-74566096D01*
X139171949Y-74525116D01*
X139165205Y-74510675D01*
X139165451Y-74508853D01*
X139162399Y-74501215D01*
X139175666Y-74432616D01*
X139220707Y-74383993D01*
X139222843Y-74382675D01*
X139287980Y-74364189D01*
X141958170Y-74364189D01*
X141993106Y-74369212D01*
G37*
%TD.AperFunction*%
%TA.AperFunction,Conductor*%
G36*
X142997130Y-70354070D02*
G01*
X143038999Y-70409998D01*
X143041680Y-70417185D01*
X143049500Y-70460524D01*
X143049500Y-70951113D01*
X143044475Y-70986055D01*
X143043973Y-70987767D01*
X143040070Y-71001055D01*
X143002304Y-71059819D01*
X143000932Y-71061008D01*
X142946089Y-71088464D01*
X142935469Y-71090775D01*
X142923039Y-71092733D01*
X142847891Y-71107680D01*
X142847886Y-71107683D01*
X142763875Y-71163819D01*
X142726073Y-71220392D01*
X142726071Y-71220396D01*
X142707736Y-71247838D01*
X142707735Y-71247839D01*
X142693000Y-71321921D01*
X142693000Y-71346361D01*
X142688935Y-71361844D01*
X142688326Y-71362853D01*
X142687975Y-71365297D01*
X142687790Y-71365929D01*
X142683570Y-71380297D01*
X142645827Y-71439040D01*
X142644458Y-71440227D01*
X142589597Y-71467703D01*
X142582039Y-71469348D01*
X142555668Y-71472185D01*
X142417239Y-71472185D01*
X142349111Y-71482110D01*
X142347687Y-71482721D01*
X142347606Y-71482534D01*
X142347296Y-71482621D01*
X142326456Y-71489708D01*
X142299287Y-71495994D01*
X142271340Y-71499185D01*
X142149352Y-71499185D01*
X142114411Y-71494160D01*
X142102439Y-71490644D01*
X142043663Y-71452867D01*
X142014641Y-71389309D01*
X142023103Y-71323538D01*
X142029388Y-71308617D01*
X142029387Y-71308616D01*
X142030734Y-71305420D01*
X142037617Y-71291564D01*
X142091550Y-71198152D01*
X142105013Y-71147906D01*
X142116801Y-71103909D01*
X142130690Y-71071474D01*
X142146358Y-71045768D01*
X142176748Y-71011935D01*
X142209437Y-70986853D01*
X142825217Y-70371070D01*
X142853460Y-70349928D01*
X142863395Y-70344503D01*
X142931666Y-70329653D01*
X142997130Y-70354070D01*
G37*
%TD.AperFunction*%
%TA.AperFunction,Conductor*%
G36*
X151141906Y-60155523D02*
G01*
X151156904Y-60159927D01*
X151215655Y-60197672D01*
X151216842Y-60199041D01*
X151244318Y-60253902D01*
X151245963Y-60261460D01*
X151248800Y-60287831D01*
X151248800Y-60492113D01*
X151243775Y-60527057D01*
X151239370Y-60542055D01*
X151201627Y-60600798D01*
X151200258Y-60601985D01*
X151145397Y-60629461D01*
X151137839Y-60631106D01*
X151111468Y-60633943D01*
X142682189Y-60633943D01*
X142609323Y-60653467D01*
X142609322Y-60653466D01*
X142560744Y-60666484D01*
X142548241Y-60673702D01*
X142548203Y-60673725D01*
X142451866Y-60729345D01*
X142451865Y-60729346D01*
X142441650Y-60739561D01*
X142230326Y-60950884D01*
X142202070Y-60972035D01*
X142175234Y-60986688D01*
X142133456Y-61000593D01*
X141996452Y-61020290D01*
X141996448Y-61020291D01*
X141865539Y-61080076D01*
X141865533Y-61080079D01*
X141818845Y-61117705D01*
X141818836Y-61117713D01*
X141026376Y-61910176D01*
X141026373Y-61910180D01*
X141026355Y-61910199D01*
X140988747Y-61956867D01*
X140988743Y-61956873D01*
X140928959Y-62087780D01*
X140928958Y-62087785D01*
X140908478Y-62230240D01*
X140928958Y-62372695D01*
X140928959Y-62372699D01*
X140974281Y-62471937D01*
X140988747Y-62503613D01*
X140988750Y-62503618D01*
X140988751Y-62503619D01*
X140988753Y-62503622D01*
X141026359Y-62550290D01*
X141026361Y-62550293D01*
X141026366Y-62550297D01*
X141306193Y-62830123D01*
X141306197Y-62830127D01*
X141312394Y-62835121D01*
X141352884Y-62867750D01*
X141352885Y-62867750D01*
X141352886Y-62867751D01*
X141382366Y-62881214D01*
X141483800Y-62927538D01*
X141584409Y-62942003D01*
X141618270Y-62951945D01*
X141633362Y-62958837D01*
X141685198Y-63003109D01*
X141692986Y-63014853D01*
X141707568Y-63045056D01*
X141721315Y-63087365D01*
X141721419Y-63087685D01*
X141721423Y-63087691D01*
X141737131Y-63109313D01*
X141737132Y-63109313D01*
X143017981Y-61828464D01*
X143017980Y-61828463D01*
X143017980Y-61828462D01*
X143011476Y-61823737D01*
X142969289Y-61769614D01*
X142968785Y-61768359D01*
X142961893Y-61759415D01*
X142955937Y-61689800D01*
X142988564Y-61628016D01*
X143016515Y-61606476D01*
X143019219Y-61604950D01*
X143080158Y-61588943D01*
X145409351Y-61588943D01*
X145444278Y-61593964D01*
X145455131Y-61597150D01*
X145513912Y-61634920D01*
X145542941Y-61698474D01*
X145533002Y-61767633D01*
X145533001Y-61767635D01*
X145532097Y-61769614D01*
X145530311Y-61773527D01*
X145529816Y-61774610D01*
X145504699Y-61810786D01*
X145468648Y-61846835D01*
X145468627Y-61846857D01*
X145468619Y-61846866D01*
X145430747Y-61893862D01*
X145370540Y-62025696D01*
X145349915Y-62169149D01*
X145370540Y-62312602D01*
X145396833Y-62370176D01*
X145430746Y-62444435D01*
X145430747Y-62444436D01*
X145432154Y-62446463D01*
X145434083Y-62448588D01*
X145434542Y-62449145D01*
X145468624Y-62491439D01*
X145468628Y-62491443D01*
X145661816Y-62684630D01*
X145661817Y-62684630D01*
X146018200Y-62328246D01*
X146725304Y-62328246D01*
X146725304Y-62328248D01*
X147240782Y-62843729D01*
X147240783Y-62843729D01*
X147240784Y-62843729D01*
X147274869Y-62809644D01*
X147274878Y-62809634D01*
X147312754Y-62762634D01*
X147372960Y-62630801D01*
X147393586Y-62487348D01*
X147372960Y-62343894D01*
X147312755Y-62212062D01*
X147312754Y-62212061D01*
X147312751Y-62212058D01*
X147311347Y-62210033D01*
X147309416Y-62207907D01*
X147308975Y-62207371D01*
X147274877Y-62165058D01*
X147274873Y-62165054D01*
X147081685Y-61971867D01*
X147081683Y-61971867D01*
X146725304Y-62328246D01*
X146018200Y-62328246D01*
X146157242Y-62189204D01*
X146708579Y-61637866D01*
X146736829Y-61616718D01*
X146759921Y-61604110D01*
X146819346Y-61588943D01*
X151106970Y-61588943D01*
X151141906Y-61593966D01*
X151156904Y-61598370D01*
X151215655Y-61636115D01*
X151216842Y-61637484D01*
X151244318Y-61692345D01*
X151245963Y-61699903D01*
X151248800Y-61726274D01*
X151248800Y-61994703D01*
X151258726Y-62062834D01*
X151310103Y-62167928D01*
X151392814Y-62250639D01*
X151392815Y-62250639D01*
X151392817Y-62250641D01*
X151497907Y-62302016D01*
X151531973Y-62306979D01*
X151566039Y-62311943D01*
X151899560Y-62311943D01*
X151938029Y-62323238D01*
X151966901Y-62328876D01*
X151979553Y-62340999D01*
X151981842Y-62342742D01*
X151981644Y-62343001D01*
X152017351Y-62377214D01*
X152033659Y-62445154D01*
X152010647Y-62511125D01*
X151986229Y-62536610D01*
X151983121Y-62539042D01*
X151963001Y-62551871D01*
X151820099Y-62624683D01*
X151779672Y-62654056D01*
X151741484Y-62681802D01*
X151686766Y-62721557D01*
X151679097Y-62727129D01*
X151671717Y-62731261D01*
X151529118Y-62873860D01*
X151524985Y-62881241D01*
X151491348Y-62927538D01*
X151491347Y-62927537D01*
X151422544Y-63022237D01*
X151422536Y-63022250D01*
X151398078Y-63070251D01*
X151336752Y-63190610D01*
X151336751Y-63190612D01*
X151336750Y-63190615D01*
X151303629Y-63292546D01*
X151291426Y-63319017D01*
X151276512Y-63343354D01*
X151258466Y-63366244D01*
X146867552Y-67757157D01*
X146839296Y-67778309D01*
X146825575Y-67785801D01*
X146757315Y-67800653D01*
X146755509Y-67800524D01*
X146697308Y-67781156D01*
X146690793Y-67776969D01*
X146670157Y-67760339D01*
X146581685Y-67671867D01*
X146581684Y-67671867D01*
X146048528Y-68205026D01*
X145576051Y-68677500D01*
X145515369Y-68738182D01*
X145600659Y-68823472D01*
X145621811Y-68851728D01*
X145629303Y-68865449D01*
X145644155Y-68933709D01*
X145644026Y-68935515D01*
X145624657Y-68993719D01*
X145620474Y-69000228D01*
X145603839Y-69020870D01*
X145592286Y-69032423D01*
X145564030Y-69053575D01*
X145550309Y-69061067D01*
X145482049Y-69075919D01*
X145480243Y-69075790D01*
X145422042Y-69056422D01*
X145415527Y-69052235D01*
X145394891Y-69035605D01*
X145054675Y-68695389D01*
X145033523Y-68667133D01*
X145020916Y-68644044D01*
X145005749Y-68584619D01*
X145005749Y-68526459D01*
X145010772Y-68491523D01*
X145015176Y-68476525D01*
X145052921Y-68417774D01*
X145054290Y-68416587D01*
X145109169Y-68389107D01*
X145116728Y-68387463D01*
X145143081Y-68384630D01*
X145161816Y-68384630D01*
X145518197Y-68028249D01*
X145518197Y-68028248D01*
X145002717Y-67512768D01*
X144994524Y-67512768D01*
X144959583Y-67507743D01*
X144944584Y-67503338D01*
X144885818Y-67465572D01*
X144881796Y-67460931D01*
X144852766Y-67397377D01*
X144852574Y-67395988D01*
X144848555Y-67365450D01*
X144848554Y-67365448D01*
X144848367Y-67364025D01*
X144848438Y-67331132D01*
X144849464Y-67323595D01*
X144849464Y-67323591D01*
X144849930Y-67320167D01*
X144851644Y-67320400D01*
X144854707Y-67312369D01*
X144855033Y-67298674D01*
X144866256Y-67282090D01*
X144874109Y-67261501D01*
X144886944Y-67251521D01*
X144894193Y-67240810D01*
X144924330Y-67222439D01*
X144924366Y-67222423D01*
X144924425Y-67222378D01*
X144927454Y-67221093D01*
X144927513Y-67221076D01*
X144929217Y-67220346D01*
X144929402Y-67220268D01*
X144937152Y-67219369D01*
X144995447Y-67211694D01*
X145065686Y-67221792D01*
X145117259Y-67214377D01*
X145164061Y-67167574D01*
X145192304Y-67146431D01*
X145206030Y-67138936D01*
X145274286Y-67124083D01*
X145276095Y-67124212D01*
X145334306Y-67143583D01*
X145340813Y-67147765D01*
X145361446Y-67164392D01*
X145369054Y-67171999D01*
X145369059Y-67172004D01*
X145369060Y-67172005D01*
X145871751Y-67674695D01*
X145871752Y-67674695D01*
X146228132Y-67318314D01*
X146034938Y-67125122D01*
X146034936Y-67125121D01*
X145987937Y-67087244D01*
X145987934Y-67087243D01*
X145937054Y-67064007D01*
X145856108Y-67027039D01*
X145856103Y-67027038D01*
X145767324Y-67014274D01*
X145733459Y-67004330D01*
X145721913Y-66999057D01*
X145669109Y-66953302D01*
X145649425Y-66886262D01*
X145666784Y-66822990D01*
X145671703Y-66814700D01*
X145690650Y-66790310D01*
X145754983Y-66725978D01*
X145790989Y-66681297D01*
X145848208Y-66556007D01*
X145867809Y-66419670D01*
X145867809Y-66419669D01*
X145848208Y-66283333D01*
X145848207Y-66283329D01*
X145821152Y-66224088D01*
X145790990Y-66158042D01*
X145783502Y-66148750D01*
X145754983Y-66113360D01*
X145722588Y-66080965D01*
X145722586Y-66080965D01*
X145325072Y-66478479D01*
X145296816Y-66499631D01*
X145283095Y-66507123D01*
X145214835Y-66521975D01*
X145213029Y-66521846D01*
X145154828Y-66502478D01*
X145148313Y-66498291D01*
X145127677Y-66481661D01*
X144971518Y-66325502D01*
X144950366Y-66297246D01*
X144942874Y-66283525D01*
X144928022Y-66215265D01*
X144928151Y-66213456D01*
X144947517Y-66155261D01*
X144951710Y-66148737D01*
X144968331Y-66128112D01*
X145369033Y-65727411D01*
X145369033Y-65727410D01*
X145336644Y-65695021D01*
X145336643Y-65695019D01*
X145291956Y-65659008D01*
X145166670Y-65601792D01*
X145166666Y-65601791D01*
X145093831Y-65591320D01*
X145059960Y-65581374D01*
X145048415Y-65576101D01*
X144995613Y-65530344D01*
X144975931Y-65463304D01*
X144993291Y-65400034D01*
X144998213Y-65391739D01*
X145017160Y-65367352D01*
X145024871Y-65359642D01*
X145024877Y-65359635D01*
X145062755Y-65312633D01*
X145122960Y-65180801D01*
X145143586Y-65037348D01*
X145129903Y-64942186D01*
X145129903Y-64906897D01*
X145132127Y-64891425D01*
X145161147Y-64827870D01*
X145162093Y-64826778D01*
X145213142Y-64791561D01*
X145221047Y-64788667D01*
X145247498Y-64782165D01*
X145344110Y-64769447D01*
X145490189Y-64708939D01*
X145584133Y-64636853D01*
X145747564Y-64473419D01*
X145775819Y-64452270D01*
X145789539Y-64444779D01*
X145857799Y-64429928D01*
X145859610Y-64430058D01*
X145917804Y-64449425D01*
X145924317Y-64453611D01*
X145944957Y-64470244D01*
X146001227Y-64526514D01*
X146022377Y-64554767D01*
X146037398Y-64582275D01*
X146050184Y-64617512D01*
X146074493Y-64739725D01*
X146074495Y-64739733D01*
X146074502Y-64739753D01*
X146123529Y-64858118D01*
X146123534Y-64858128D01*
X146194724Y-64964670D01*
X146194725Y-64964671D01*
X146194730Y-64964677D01*
X146285321Y-65055268D01*
X146285327Y-65055273D01*
X146285331Y-65055276D01*
X146391866Y-65126461D01*
X146391872Y-65126464D01*
X146391873Y-65126465D01*
X146505362Y-65173473D01*
X146505947Y-65173724D01*
X146506141Y-65173884D01*
X146509053Y-65175261D01*
X146510252Y-65175499D01*
X146510256Y-65175501D01*
X146510259Y-65175501D01*
X146510260Y-65175501D01*
X146510261Y-65175502D01*
X146605856Y-65194518D01*
X146635927Y-65200500D01*
X146764071Y-65200500D01*
X146764072Y-65200500D01*
X146823174Y-65188743D01*
X146855006Y-65182411D01*
X146855007Y-65182411D01*
X146863748Y-65180671D01*
X146889744Y-65175501D01*
X147008127Y-65126465D01*
X147114669Y-65055276D01*
X147205276Y-64964669D01*
X147276465Y-64858127D01*
X147325501Y-64739744D01*
X147333823Y-64697904D01*
X147339422Y-64669761D01*
X147339422Y-64669758D01*
X147350500Y-64614071D01*
X147350500Y-64485925D01*
X147325295Y-64359220D01*
X147323724Y-64355947D01*
X147323473Y-64355362D01*
X147276465Y-64241873D01*
X147276464Y-64241872D01*
X147276461Y-64241866D01*
X147205276Y-64135331D01*
X147205273Y-64135327D01*
X147205268Y-64135321D01*
X147114677Y-64044730D01*
X147114671Y-64044725D01*
X147114670Y-64044724D01*
X147008127Y-63973534D01*
X147008128Y-63973534D01*
X147008118Y-63973529D01*
X146889753Y-63924502D01*
X146889733Y-63924495D01*
X146889725Y-63924493D01*
X146776361Y-63901944D01*
X146754126Y-63895308D01*
X146750379Y-63893795D01*
X146721291Y-63882049D01*
X146680038Y-63854751D01*
X146391725Y-63566438D01*
X146370576Y-63538188D01*
X146365154Y-63528258D01*
X146350301Y-63459988D01*
X146374715Y-63394523D01*
X146430645Y-63352651D01*
X146433856Y-63351453D01*
X146494819Y-63344903D01*
X146530850Y-63350084D01*
X146674303Y-63329458D01*
X146806135Y-63269252D01*
X146853140Y-63231375D01*
X146887232Y-63197283D01*
X146887232Y-63197282D01*
X146887232Y-63197281D01*
X146371750Y-62681802D01*
X146371749Y-62681802D01*
X146371748Y-62681802D01*
X146015369Y-63038181D01*
X146015369Y-63052421D01*
X146010344Y-63087363D01*
X146010248Y-63087691D01*
X146005939Y-63102363D01*
X145968196Y-63161106D01*
X145966827Y-63162293D01*
X145911966Y-63189769D01*
X145904408Y-63191414D01*
X145878037Y-63194251D01*
X145822729Y-63194251D01*
X145787793Y-63189228D01*
X145762551Y-63181816D01*
X145709806Y-63150520D01*
X145265932Y-62706646D01*
X145171999Y-62634568D01*
X145171988Y-62634561D01*
X145171982Y-62634558D01*
X145025912Y-62574055D01*
X144869152Y-62553416D01*
X144869151Y-62553416D01*
X144869149Y-62553416D01*
X144869148Y-62553416D01*
X144809988Y-62561205D01*
X144712387Y-62574055D01*
X144712386Y-62574055D01*
X144712383Y-62574056D01*
X144566316Y-62634558D01*
X144566312Y-62634560D01*
X144566304Y-62634565D01*
X144472368Y-62706644D01*
X144472361Y-62706650D01*
X144343891Y-62835121D01*
X144315634Y-62856274D01*
X144303451Y-62862926D01*
X144235178Y-62877776D01*
X144169714Y-62853357D01*
X144164933Y-62849778D01*
X144126456Y-62802029D01*
X144122215Y-62792743D01*
X144120452Y-62788376D01*
X144082308Y-62741041D01*
X143802467Y-62461202D01*
X143793021Y-62453590D01*
X143793020Y-62453589D01*
X143760954Y-62427748D01*
X143757656Y-62424786D01*
X143757645Y-62424777D01*
X143756006Y-62423682D01*
X143703181Y-62399558D01*
X143669274Y-62370176D01*
X143524256Y-62349327D01*
X143490397Y-62339385D01*
X143475303Y-62332492D01*
X143423466Y-62288220D01*
X143415679Y-62276475D01*
X143401097Y-62246272D01*
X143390634Y-62214071D01*
X143387245Y-62203640D01*
X143371535Y-62182017D01*
X143371534Y-62182016D01*
X142731111Y-62822442D01*
X142090685Y-63462864D01*
X142090685Y-63462865D01*
X142090686Y-63462866D01*
X142112306Y-63478576D01*
X142112312Y-63478579D01*
X142154083Y-63492151D01*
X142185749Y-63507719D01*
X142199452Y-63517089D01*
X142242977Y-63569548D01*
X142248646Y-63582445D01*
X142257867Y-63614696D01*
X142272460Y-63716198D01*
X142282570Y-63738335D01*
X142332249Y-63847115D01*
X142332252Y-63847120D01*
X142332253Y-63847121D01*
X142332255Y-63847124D01*
X142369861Y-63893792D01*
X142369868Y-63893799D01*
X142649695Y-64173625D01*
X142649699Y-64173629D01*
X142649703Y-64173632D01*
X142696386Y-64211252D01*
X142696387Y-64211252D01*
X142696388Y-64211253D01*
X142737584Y-64230067D01*
X142827302Y-64271040D01*
X142827301Y-64271040D01*
X142847783Y-64273984D01*
X142969759Y-64291522D01*
X143027612Y-64283204D01*
X143062901Y-64283204D01*
X143076639Y-64285179D01*
X143140195Y-64314204D01*
X143177821Y-64372477D01*
X143177838Y-64372534D01*
X143180176Y-64434331D01*
X143178533Y-64441884D01*
X143170162Y-64467037D01*
X143120542Y-64575692D01*
X143099915Y-64719150D01*
X143120540Y-64862602D01*
X143133703Y-64891425D01*
X143180746Y-64994435D01*
X143180747Y-64994436D01*
X143187075Y-65003551D01*
X143184547Y-65005305D01*
X143195168Y-65024757D01*
X143216407Y-65038971D01*
X143220845Y-65043912D01*
X143220257Y-65044439D01*
X143252108Y-65102740D01*
X143250739Y-65121930D01*
X143402247Y-65230666D01*
X143411816Y-65234630D01*
X143411817Y-65234630D01*
X143844689Y-64801756D01*
X143872938Y-64780609D01*
X143886662Y-64773115D01*
X143954924Y-64758264D01*
X143956735Y-64758394D01*
X144014929Y-64777761D01*
X144021442Y-64781947D01*
X144042082Y-64798580D01*
X144198238Y-64954736D01*
X144219390Y-64982992D01*
X144226882Y-64996713D01*
X144241734Y-65064973D01*
X144241605Y-65066779D01*
X144222237Y-65124981D01*
X144221285Y-65126464D01*
X144218056Y-65131488D01*
X144201420Y-65152131D01*
X143765369Y-65588181D01*
X143765369Y-65588182D01*
X143958491Y-65781304D01*
X143958494Y-65781306D01*
X143958563Y-65781375D01*
X143958565Y-65781376D01*
X144005564Y-65819253D01*
X144005567Y-65819254D01*
X144109230Y-65866595D01*
X144137395Y-65879458D01*
X144157036Y-65882282D01*
X144230089Y-65892785D01*
X144263945Y-65902727D01*
X144276575Y-65908495D01*
X144329378Y-65954247D01*
X144349063Y-66021286D01*
X144349063Y-66022524D01*
X144334934Y-66080007D01*
X144332294Y-66085053D01*
X144318974Y-66105377D01*
X144305027Y-66122682D01*
X144305024Y-66122688D01*
X144247807Y-66247974D01*
X144228207Y-66384310D01*
X144228207Y-66384319D01*
X144237140Y-66446456D01*
X144237140Y-66481744D01*
X144235165Y-66495483D01*
X144206142Y-66559039D01*
X144147365Y-66596815D01*
X144147361Y-66596816D01*
X144142174Y-66598339D01*
X144091054Y-66602301D01*
X144011262Y-66591796D01*
X143976128Y-66581738D01*
X143962438Y-66575514D01*
X143910253Y-66530917D01*
X143909240Y-66529381D01*
X143889176Y-66471410D01*
X143888532Y-66463695D01*
X143889164Y-66437204D01*
X143896584Y-66380849D01*
X143887637Y-66312895D01*
X143875945Y-66224088D01*
X143822834Y-66095866D01*
X143815439Y-66078013D01*
X143815436Y-66078008D01*
X143796244Y-66052997D01*
X143743351Y-65984065D01*
X143743346Y-65984059D01*
X143743333Y-65984045D01*
X143015940Y-65256655D01*
X143015933Y-65256648D01*
X142993260Y-65239251D01*
X142987239Y-65234631D01*
X142987238Y-65234629D01*
X142987238Y-65234630D01*
X142921990Y-65184562D01*
X142921982Y-65184558D01*
X142775912Y-65124055D01*
X142632278Y-65105144D01*
X142598294Y-65095602D01*
X142593258Y-65093374D01*
X142585602Y-65089987D01*
X142532259Y-65044861D01*
X142511782Y-64978075D01*
X142511759Y-64976155D01*
X142511693Y-64970640D01*
X142522889Y-64917650D01*
X142571040Y-64812216D01*
X142591522Y-64669759D01*
X142588446Y-64648368D01*
X142571040Y-64527302D01*
X142567075Y-64518620D01*
X142511252Y-64396386D01*
X142511249Y-64396381D01*
X142494729Y-64375880D01*
X142473640Y-64349709D01*
X142193799Y-64069870D01*
X142193795Y-64069866D01*
X142171056Y-64051542D01*
X142147116Y-64032250D01*
X142147115Y-64032249D01*
X142147111Y-64032246D01*
X142094513Y-64008226D01*
X142060606Y-63978845D01*
X141873743Y-63951980D01*
X141731287Y-63972460D01*
X141731282Y-63972461D01*
X141600373Y-64032246D01*
X141600367Y-64032249D01*
X141558451Y-64066029D01*
X141553686Y-64069870D01*
X141553670Y-64069883D01*
X140761210Y-64862346D01*
X140761207Y-64862350D01*
X140761189Y-64862369D01*
X140723581Y-64909037D01*
X140723577Y-64909043D01*
X140663793Y-65039950D01*
X140663792Y-65039955D01*
X140643543Y-65180801D01*
X140643312Y-65182411D01*
X140645053Y-65194518D01*
X140663792Y-65324865D01*
X140663793Y-65324869D01*
X140717140Y-65441679D01*
X140723581Y-65455783D01*
X140723584Y-65455788D01*
X140723585Y-65455789D01*
X140723587Y-65455792D01*
X140761190Y-65502457D01*
X140761200Y-65502467D01*
X141041027Y-65782293D01*
X141041031Y-65782297D01*
X141041035Y-65782300D01*
X141087718Y-65819920D01*
X141087719Y-65819920D01*
X141087720Y-65819921D01*
X141136201Y-65842062D01*
X141136204Y-65842063D01*
X141218634Y-65879708D01*
X141218633Y-65879708D01*
X141236540Y-65882282D01*
X141361091Y-65900190D01*
X141503548Y-65879708D01*
X141503550Y-65879707D01*
X141504930Y-65879509D01*
X141522568Y-65878247D01*
X141540229Y-65878247D01*
X141607268Y-65897932D01*
X141653014Y-65950715D01*
X141655007Y-65955077D01*
X141665161Y-66022794D01*
X141661909Y-66047498D01*
X141659914Y-66062651D01*
X141659914Y-66062652D01*
X141675611Y-66181880D01*
X141680553Y-66219412D01*
X141680554Y-66219417D01*
X141741056Y-66365484D01*
X141741058Y-66365488D01*
X141741061Y-66365493D01*
X141798327Y-66440124D01*
X141815607Y-66470893D01*
X141820612Y-66483838D01*
X141826428Y-66553465D01*
X141793677Y-66615184D01*
X141793676Y-66615186D01*
X141792266Y-66616630D01*
X141743413Y-66647415D01*
X141716746Y-66656469D01*
X141712791Y-66660593D01*
X141702629Y-66665812D01*
X141653578Y-66688214D01*
X141608035Y-66709013D01*
X141563357Y-66745016D01*
X141530964Y-66777410D01*
X141928480Y-67174926D01*
X141949632Y-67203182D01*
X141957124Y-67216903D01*
X141971976Y-67285163D01*
X141971847Y-67286969D01*
X141952479Y-67345172D01*
X141948298Y-67351678D01*
X141931663Y-67372321D01*
X141851992Y-67451992D01*
X141928479Y-67528479D01*
X141949631Y-67556735D01*
X141957123Y-67570456D01*
X141971975Y-67638716D01*
X141971846Y-67640522D01*
X141952478Y-67698724D01*
X141948650Y-67704682D01*
X141948297Y-67705231D01*
X141931661Y-67725874D01*
X141562065Y-68095468D01*
X141562060Y-68095474D01*
X141555794Y-68103250D01*
X141546929Y-68113120D01*
X141533601Y-68126448D01*
X140981802Y-68678247D01*
X140981802Y-68678248D01*
X140981802Y-68678249D01*
X141338183Y-69034630D01*
X141531363Y-68841450D01*
X141531372Y-68841440D01*
X141569253Y-68794435D01*
X141569254Y-68794433D01*
X141570604Y-68791961D01*
X141571993Y-68788433D01*
X141629458Y-68662603D01*
X141650084Y-68519150D01*
X141635989Y-68421128D01*
X141635989Y-68385842D01*
X141638011Y-68371776D01*
X141667031Y-68308223D01*
X141724870Y-68270725D01*
X141737651Y-68266862D01*
X141771543Y-68261578D01*
X141911967Y-68259356D01*
X141946966Y-68263825D01*
X141959961Y-68267418D01*
X141959482Y-68269149D01*
X141967520Y-68273449D01*
X141979467Y-68275167D01*
X141993555Y-68287375D01*
X142014683Y-68298677D01*
X142023226Y-68313087D01*
X142032270Y-68320924D01*
X142046930Y-68353029D01*
X142046952Y-68353105D01*
X142047056Y-68353280D01*
X142048016Y-68356667D01*
X142048038Y-68356801D01*
X142048517Y-68358434D01*
X142048686Y-68359028D01*
X142048661Y-68361711D01*
X142052328Y-68409055D01*
X142052106Y-68410740D01*
X142051900Y-68411984D01*
X142031667Y-68565682D01*
X142031667Y-68565689D01*
X142051443Y-68715920D01*
X142051792Y-68717060D01*
X142053124Y-68719977D01*
X142060533Y-68737862D01*
X142069262Y-68772061D01*
X142070747Y-68785862D01*
X142058340Y-68854621D01*
X142010731Y-68905756D01*
X141998797Y-68912837D01*
X141977835Y-68922484D01*
X141977841Y-68922499D01*
X141977477Y-68922649D01*
X141975382Y-68923614D01*
X141974092Y-68924051D01*
X141828012Y-68984560D01*
X141828004Y-68984565D01*
X141734073Y-69056640D01*
X141734058Y-69056654D01*
X141734050Y-69056661D01*
X141493620Y-69297091D01*
X141481427Y-69307785D01*
X141468631Y-69317604D01*
X141455144Y-69326615D01*
X141395174Y-69361239D01*
X141395137Y-69361261D01*
X141311260Y-69445139D01*
X141310760Y-69445833D01*
X141309400Y-69448362D01*
X141276607Y-69505158D01*
X141267598Y-69518640D01*
X141257791Y-69531421D01*
X141247095Y-69543617D01*
X141006646Y-69784066D01*
X140934568Y-69877999D01*
X140934561Y-69878010D01*
X140934558Y-69878016D01*
X140874056Y-70024083D01*
X140874055Y-70024087D01*
X140859084Y-70137796D01*
X140849542Y-70171779D01*
X140843217Y-70186075D01*
X140798105Y-70239410D01*
X140793015Y-70242768D01*
X140743704Y-70261803D01*
X140743549Y-70261827D01*
X140724575Y-70263287D01*
X140694247Y-70263287D01*
X140279056Y-70678479D01*
X140250800Y-70699631D01*
X140237079Y-70707123D01*
X140168814Y-70721975D01*
X140167009Y-70721846D01*
X140108810Y-70702477D01*
X140104383Y-70699632D01*
X140102300Y-70698293D01*
X140081659Y-70681659D01*
X140001992Y-70601992D01*
X139925503Y-70678481D01*
X139897247Y-70699632D01*
X139883526Y-70707124D01*
X139815266Y-70721976D01*
X139813460Y-70721847D01*
X139755259Y-70702479D01*
X139748744Y-70698292D01*
X139728108Y-70681662D01*
X139312926Y-70266480D01*
X139291774Y-70238224D01*
X139279167Y-70215135D01*
X139264000Y-70155710D01*
X139264000Y-69927410D01*
X139680965Y-69927410D01*
X139680965Y-69927411D01*
X140001992Y-70248438D01*
X140340696Y-69909734D01*
X140340696Y-69909733D01*
X140337699Y-69902498D01*
X140329167Y-69891101D01*
X140323747Y-69881175D01*
X140308895Y-69812902D01*
X140333312Y-69747438D01*
X140389234Y-69705571D01*
X140392427Y-69704380D01*
X140453410Y-69697821D01*
X140469148Y-69700084D01*
X140612603Y-69679458D01*
X140744435Y-69619253D01*
X140744436Y-69619252D01*
X140744444Y-69619244D01*
X140746778Y-69617626D01*
X140749604Y-69615087D01*
X140791436Y-69581377D01*
X140984630Y-69388182D01*
X140984630Y-69388181D01*
X140628250Y-69031802D01*
X140628249Y-69031802D01*
X140628248Y-69031802D01*
X140112768Y-69547280D01*
X140112768Y-69547282D01*
X140126708Y-69561222D01*
X140147857Y-69589472D01*
X140153278Y-69599399D01*
X140168132Y-69667672D01*
X140143718Y-69733137D01*
X140087786Y-69775010D01*
X140087768Y-69775017D01*
X140084579Y-69776206D01*
X140023625Y-69782758D01*
X140019675Y-69782191D01*
X140019671Y-69782191D01*
X140019667Y-69782191D01*
X139883332Y-69801791D01*
X139883328Y-69801792D01*
X139758039Y-69859011D01*
X139758037Y-69859011D01*
X139758035Y-69859012D01*
X139713357Y-69895016D01*
X139685425Y-69922950D01*
X139680965Y-69927410D01*
X139264000Y-69927410D01*
X139264000Y-68837347D01*
X139606413Y-68837347D01*
X139627038Y-68980801D01*
X139670419Y-69075790D01*
X139687245Y-69112634D01*
X139725124Y-69159640D01*
X139759214Y-69193730D01*
X140274695Y-68678248D01*
X139918314Y-68321867D01*
X139725186Y-68514996D01*
X139725183Y-68514999D01*
X139725122Y-68515061D01*
X139725121Y-68515063D01*
X139687244Y-68562062D01*
X139687243Y-68562065D01*
X139679541Y-68578928D01*
X139679540Y-68578931D01*
X139627038Y-68693893D01*
X139606413Y-68837347D01*
X139264000Y-68837347D01*
X139264000Y-67968313D01*
X140271867Y-67968313D01*
X140271867Y-67968314D01*
X140628248Y-68324695D01*
X140628249Y-68324695D01*
X141003572Y-67949370D01*
X141094958Y-67857984D01*
X141101218Y-67850215D01*
X141110083Y-67840347D01*
X141498438Y-67451992D01*
X141177411Y-67130965D01*
X141177410Y-67130965D01*
X141145016Y-67163357D01*
X141109012Y-67208035D01*
X141109011Y-67208037D01*
X141051792Y-67333328D01*
X141051791Y-67333332D01*
X141032191Y-67469666D01*
X141032191Y-67469675D01*
X141038664Y-67514699D01*
X141038663Y-67549994D01*
X141037694Y-67556735D01*
X141036687Y-67563735D01*
X141007658Y-67627289D01*
X140948881Y-67665058D01*
X140941425Y-67667247D01*
X140888846Y-67671007D01*
X140787348Y-67656413D01*
X140787347Y-67656413D01*
X140643894Y-67677038D01*
X140512060Y-67737245D01*
X140510033Y-67738652D01*
X140507909Y-67740581D01*
X140507351Y-67741040D01*
X140465058Y-67775122D01*
X140465054Y-67775126D01*
X140460820Y-67779359D01*
X140460815Y-67779364D01*
X140271867Y-67968313D01*
X139264000Y-67968313D01*
X139264000Y-67595498D01*
X139263999Y-67595494D01*
X139254623Y-67560503D01*
X139254622Y-67560501D01*
X139251808Y-67549998D01*
X139235786Y-67490202D01*
X139181282Y-67395798D01*
X139104202Y-67318718D01*
X138416611Y-66631127D01*
X138395462Y-66602877D01*
X138387277Y-66587887D01*
X138372265Y-66522267D01*
X138372930Y-66508972D01*
X138378845Y-66476850D01*
X138380240Y-66472561D01*
X138397198Y-66365493D01*
X138409800Y-66285929D01*
X138409800Y-66096956D01*
X138380240Y-65910324D01*
X138350649Y-65819253D01*
X138321847Y-65730611D01*
X138321845Y-65730608D01*
X138321845Y-65730606D01*
X138319600Y-65726200D01*
X138319291Y-65725408D01*
X138318560Y-65724159D01*
X138276590Y-65641790D01*
X138276589Y-65641788D01*
X138256210Y-65601791D01*
X138236060Y-65562244D01*
X138236058Y-65562241D01*
X138236057Y-65562239D01*
X138192629Y-65502467D01*
X138124990Y-65409370D01*
X137991373Y-65275753D01*
X137838499Y-65164683D01*
X137795367Y-65142706D01*
X137670136Y-65078897D01*
X137490418Y-65020502D01*
X137395295Y-65005436D01*
X137347418Y-64997853D01*
X137310326Y-64980269D01*
X137279340Y-64966121D01*
X137241562Y-64907345D01*
X137241558Y-64837475D01*
X137279329Y-64778695D01*
X137309019Y-64759612D01*
X137311688Y-64758393D01*
X137314409Y-64757150D01*
X137346520Y-64747470D01*
X137467821Y-64728258D01*
X137633093Y-64674558D01*
X137633095Y-64674556D01*
X137633098Y-64674556D01*
X137701854Y-64639522D01*
X137787924Y-64595667D01*
X137794900Y-64590596D01*
X137794899Y-64590595D01*
X137794900Y-64590595D01*
X137465450Y-64261145D01*
X137431965Y-64199822D01*
X137436949Y-64130130D01*
X137478821Y-64074197D01*
X137491122Y-64066082D01*
X137516307Y-64051542D01*
X137609399Y-63958450D01*
X137623934Y-63933273D01*
X137674499Y-63885059D01*
X137743105Y-63871834D01*
X137807971Y-63897801D01*
X137819002Y-63907592D01*
X138148452Y-64237042D01*
X138148453Y-64237043D01*
X138153524Y-64230067D01*
X138232415Y-64075236D01*
X138286116Y-63909964D01*
X138313300Y-63738335D01*
X138313300Y-63564550D01*
X138286116Y-63392921D01*
X138232415Y-63227649D01*
X138232413Y-63227646D01*
X138232413Y-63227644D01*
X138176359Y-63117634D01*
X138153528Y-63072825D01*
X138148453Y-63065841D01*
X138148451Y-63065840D01*
X137819001Y-63395291D01*
X137757678Y-63428776D01*
X137687986Y-63423792D01*
X137632053Y-63381920D01*
X137623933Y-63369610D01*
X137621990Y-63366244D01*
X137609399Y-63344436D01*
X137516307Y-63251344D01*
X137491130Y-63236808D01*
X137442914Y-63186241D01*
X137429692Y-63117634D01*
X137455660Y-63052769D01*
X137465449Y-63041740D01*
X137565738Y-62941451D01*
X137794901Y-62712289D01*
X137794900Y-62712287D01*
X137787926Y-62707220D01*
X137787924Y-62707219D01*
X137787925Y-62707219D01*
X137787923Y-62707218D01*
X137787903Y-62707206D01*
X137787499Y-62707002D01*
X137633099Y-62628329D01*
X137633095Y-62628328D01*
X137633093Y-62628327D01*
X137467821Y-62574626D01*
X137467817Y-62574625D01*
X137467813Y-62574624D01*
X137467816Y-62574624D01*
X137383083Y-62561205D01*
X137343217Y-62547654D01*
X137338091Y-62544865D01*
X137340253Y-62540890D01*
X137314283Y-62528529D01*
X137277445Y-62469159D01*
X137278553Y-62399298D01*
X137317254Y-62341126D01*
X137347240Y-62322520D01*
X137347637Y-62322346D01*
X137397354Y-62311943D01*
X138092562Y-62311943D01*
X138097103Y-62311281D01*
X138115271Y-62308634D01*
X138160693Y-62302016D01*
X138265783Y-62250641D01*
X138348498Y-62167926D01*
X138399873Y-62062836D01*
X138409800Y-61994703D01*
X138409800Y-61914094D01*
X138414821Y-61879167D01*
X138418007Y-61868314D01*
X138455777Y-61809533D01*
X138519331Y-61780504D01*
X138588486Y-61790442D01*
X138595472Y-61793632D01*
X138631642Y-61818745D01*
X138900573Y-62087676D01*
X138921727Y-62115936D01*
X138925622Y-62123070D01*
X138938404Y-62158299D01*
X138974493Y-62339726D01*
X138974502Y-62339753D01*
X139023529Y-62458118D01*
X139023534Y-62458128D01*
X139094724Y-62564670D01*
X139094725Y-62564671D01*
X139094730Y-62564677D01*
X139185321Y-62655268D01*
X139185327Y-62655273D01*
X139185331Y-62655276D01*
X139291866Y-62726461D01*
X139291872Y-62726464D01*
X139291873Y-62726465D01*
X139405362Y-62773473D01*
X139405947Y-62773724D01*
X139406141Y-62773884D01*
X139409053Y-62775261D01*
X139410252Y-62775499D01*
X139410256Y-62775501D01*
X139410259Y-62775501D01*
X139410260Y-62775501D01*
X139410261Y-62775502D01*
X139496933Y-62792743D01*
X139535927Y-62800500D01*
X139664071Y-62800500D01*
X139664073Y-62800500D01*
X139690151Y-62795311D01*
X139748615Y-62783682D01*
X139789744Y-62775501D01*
X139836680Y-62756058D01*
X139842345Y-62754324D01*
X139847103Y-62754269D01*
X139865385Y-62749602D01*
X139874333Y-62748640D01*
X139902031Y-62753636D01*
X139912210Y-62753519D01*
X139916587Y-62756261D01*
X139943091Y-62761042D01*
X139994231Y-62808651D01*
X140011513Y-62876349D01*
X139993090Y-62937091D01*
X139990397Y-62941451D01*
X139972580Y-62963970D01*
X139417708Y-63518844D01*
X139417705Y-63518848D01*
X139417687Y-63518867D01*
X139380079Y-63565535D01*
X139380075Y-63565541D01*
X139320291Y-63696448D01*
X139320290Y-63696453D01*
X139299810Y-63838908D01*
X139299810Y-63838909D01*
X139300990Y-63847115D01*
X139320290Y-63981363D01*
X139320291Y-63981367D01*
X139360709Y-64069868D01*
X139380079Y-64112281D01*
X139380082Y-64112286D01*
X139380083Y-64112287D01*
X139380085Y-64112290D01*
X139417688Y-64158955D01*
X139417698Y-64158965D01*
X139697525Y-64438791D01*
X139697529Y-64438795D01*
X139697533Y-64438798D01*
X139744216Y-64476418D01*
X139744217Y-64476418D01*
X139744218Y-64476419D01*
X139792699Y-64498560D01*
X139792702Y-64498561D01*
X139875132Y-64536206D01*
X139875131Y-64536206D01*
X139893038Y-64538780D01*
X140017589Y-64556688D01*
X140160046Y-64536206D01*
X140290962Y-64476418D01*
X140337644Y-64438800D01*
X141130130Y-63646312D01*
X141167750Y-63599630D01*
X141227538Y-63468714D01*
X141248020Y-63326257D01*
X141227538Y-63183800D01*
X141167750Y-63052884D01*
X141167747Y-63052879D01*
X141151337Y-63032515D01*
X141130138Y-63006207D01*
X141087901Y-62963970D01*
X140850297Y-62726368D01*
X140826535Y-62707219D01*
X140825824Y-62706646D01*
X140808782Y-62692912D01*
X140805956Y-62690374D01*
X140803612Y-62688746D01*
X140751011Y-62664724D01*
X140717104Y-62635343D01*
X140530241Y-62608478D01*
X140387785Y-62628958D01*
X140387781Y-62628959D01*
X140332829Y-62654056D01*
X140313145Y-62657936D01*
X140309579Y-62660426D01*
X140298333Y-62660856D01*
X140276465Y-62665167D01*
X140265484Y-62664737D01*
X140265586Y-62662108D01*
X140239760Y-62663096D01*
X140179581Y-62627596D01*
X140148148Y-62565196D01*
X140146122Y-62542877D01*
X140146122Y-62541286D01*
X140157822Y-62488707D01*
X140158043Y-62488236D01*
X140167237Y-62471937D01*
X140176465Y-62458127D01*
X140225501Y-62339744D01*
X140237752Y-62278155D01*
X140250500Y-62214071D01*
X140250500Y-62085928D01*
X140250500Y-62085925D01*
X140225295Y-61959220D01*
X140223724Y-61955947D01*
X140223473Y-61955362D01*
X140176465Y-61841873D01*
X140176464Y-61841872D01*
X140176461Y-61841866D01*
X140105276Y-61735331D01*
X140105273Y-61735327D01*
X140105268Y-61735321D01*
X140014677Y-61644730D01*
X140014671Y-61644725D01*
X140014670Y-61644724D01*
X139908127Y-61573534D01*
X139908128Y-61573534D01*
X139908118Y-61573529D01*
X139789753Y-61524502D01*
X139789733Y-61524495D01*
X139789725Y-61524493D01*
X139664074Y-61499500D01*
X139664071Y-61499500D01*
X139664069Y-61499500D01*
X139655795Y-61499500D01*
X139620859Y-61494477D01*
X139595617Y-61487065D01*
X139542872Y-61455769D01*
X138838059Y-60750956D01*
X138838057Y-60750954D01*
X138818324Y-60739561D01*
X138790836Y-60723690D01*
X138790826Y-60723685D01*
X138786693Y-60721299D01*
X138735331Y-60691644D01*
X138718716Y-60687192D01*
X138718713Y-60687191D01*
X138711116Y-60685156D01*
X138709405Y-60684697D01*
X138709404Y-60684697D01*
X138664888Y-60672769D01*
X138620752Y-60660943D01*
X138620751Y-60660943D01*
X138546104Y-60660943D01*
X138497573Y-60651052D01*
X138496550Y-60650617D01*
X138492564Y-60648834D01*
X138491898Y-60648638D01*
X138488222Y-60647075D01*
X138463568Y-60626821D01*
X138437783Y-60607671D01*
X138436493Y-60605962D01*
X138435472Y-60603739D01*
X138434235Y-60602723D01*
X138432416Y-60597082D01*
X138414296Y-60557611D01*
X138412633Y-60549965D01*
X138409800Y-60523611D01*
X138409800Y-60292329D01*
X138414823Y-60257393D01*
X138419227Y-60242395D01*
X138456972Y-60183644D01*
X138458341Y-60182457D01*
X138513220Y-60154977D01*
X138520779Y-60153333D01*
X138547132Y-60150500D01*
X151106970Y-60150500D01*
X151141906Y-60155523D01*
G37*
%TD.AperFunction*%
%TA.AperFunction,Conductor*%
G36*
X151270517Y-68200171D02*
G01*
X151312389Y-68256103D01*
X151319295Y-68314460D01*
X151318817Y-68318377D01*
X151313661Y-68341675D01*
X151294721Y-68399964D01*
X151294719Y-68399973D01*
X151278360Y-68450320D01*
X151278360Y-68450323D01*
X151248800Y-68636956D01*
X151248800Y-68825929D01*
X151250609Y-68837348D01*
X151276257Y-68999287D01*
X151277734Y-69015165D01*
X151278493Y-69041895D01*
X151260719Y-69109467D01*
X151209251Y-69156694D01*
X151202976Y-69159779D01*
X151148268Y-69172500D01*
X147669979Y-69172500D01*
X147635044Y-69167477D01*
X147624190Y-69164290D01*
X147565412Y-69126516D01*
X147536387Y-69062960D01*
X147546327Y-68993811D01*
X147549517Y-68986824D01*
X147574626Y-68950660D01*
X147798863Y-68726423D01*
X147827113Y-68705275D01*
X147850205Y-68692667D01*
X147909630Y-68677500D01*
X150503604Y-68677500D01*
X150503607Y-68677500D01*
X150625051Y-68644959D01*
X150733935Y-68582095D01*
X151099153Y-68216875D01*
X151100520Y-68215852D01*
X151100934Y-68215130D01*
X151102740Y-68214190D01*
X151127394Y-68195733D01*
X151136783Y-68190606D01*
X151156197Y-68186383D01*
X151162919Y-68182887D01*
X151169494Y-68183490D01*
X151205052Y-68175755D01*
X151270517Y-68200171D01*
G37*
%TD.AperFunction*%
%TA.AperFunction,Conductor*%
G36*
X151551885Y-64494691D02*
G01*
X151553802Y-64495399D01*
X151556005Y-64495082D01*
X151556059Y-64495090D01*
X151559067Y-64495523D01*
X151558818Y-64497251D01*
X151616688Y-64518620D01*
X151616967Y-64518826D01*
X151630994Y-64530900D01*
X151667227Y-64567133D01*
X151820101Y-64678203D01*
X151880422Y-64708938D01*
X151988463Y-64763988D01*
X151988464Y-64763988D01*
X151989337Y-64764433D01*
X151993087Y-64765491D01*
X152065911Y-64789153D01*
X152093147Y-64798002D01*
X152124814Y-64813572D01*
X152134151Y-64819956D01*
X152178382Y-64874044D01*
X152186349Y-64943457D01*
X152155523Y-65006158D01*
X152153787Y-65008049D01*
X152153413Y-65008458D01*
X152100387Y-65042530D01*
X151988466Y-65078895D01*
X151820099Y-65164683D01*
X151732879Y-65228053D01*
X151732878Y-65228053D01*
X151679094Y-65267129D01*
X151671719Y-65271259D01*
X151529117Y-65413861D01*
X151524984Y-65421242D01*
X151499888Y-65455782D01*
X151499889Y-65455783D01*
X151422539Y-65562243D01*
X151382009Y-65641788D01*
X151336754Y-65730606D01*
X151278359Y-65910324D01*
X151278359Y-65910326D01*
X151278358Y-65910329D01*
X151248800Y-66096950D01*
X151248800Y-66096956D01*
X151248800Y-66285929D01*
X151278360Y-66472562D01*
X151278360Y-66472565D01*
X151302533Y-66546959D01*
X151303041Y-66548692D01*
X151303039Y-66551379D01*
X151307999Y-66580035D01*
X151308486Y-66597101D01*
X151292070Y-66662385D01*
X151285442Y-66673928D01*
X151265590Y-66699863D01*
X150291882Y-67673573D01*
X150263631Y-67694722D01*
X150240543Y-67707330D01*
X150181113Y-67722500D01*
X148569979Y-67722500D01*
X148535044Y-67717477D01*
X148524190Y-67714290D01*
X148465412Y-67676516D01*
X148436387Y-67612960D01*
X148446327Y-67543811D01*
X148449517Y-67536824D01*
X148474626Y-67500660D01*
X151437410Y-64537875D01*
X151453902Y-64524029D01*
X151461650Y-64518597D01*
X151469005Y-64516111D01*
X151484389Y-64506984D01*
X151484081Y-64506309D01*
X151486849Y-64505044D01*
X151487921Y-64504889D01*
X151489522Y-64503940D01*
X151492312Y-64502900D01*
X151492792Y-64504187D01*
X151512838Y-64501300D01*
X151527843Y-64496230D01*
X151535217Y-64498076D01*
X151550153Y-64495924D01*
X151550250Y-64494574D01*
X151551885Y-64494691D01*
G37*
%TD.AperFunction*%
%TA.AperFunction,Conductor*%
G36*
X136730610Y-63879090D02*
G01*
X136786544Y-63920961D01*
X136794663Y-63933271D01*
X136809196Y-63958443D01*
X136809199Y-63958447D01*
X136809201Y-63958450D01*
X136902293Y-64051542D01*
X136927469Y-64066077D01*
X136975684Y-64116645D01*
X136988906Y-64185252D01*
X136962938Y-64250116D01*
X136953149Y-64261145D01*
X136623698Y-64590595D01*
X136623698Y-64590596D01*
X136630679Y-64595669D01*
X136630681Y-64595670D01*
X136630680Y-64595670D01*
X136785501Y-64674556D01*
X136785503Y-64674556D01*
X136785506Y-64674558D01*
X136950778Y-64728259D01*
X136950781Y-64728259D01*
X136950783Y-64728260D01*
X136983939Y-64733511D01*
X137071180Y-64747328D01*
X137108244Y-64764898D01*
X137139267Y-64779067D01*
X137177040Y-64837846D01*
X137177038Y-64907716D01*
X137139262Y-64966493D01*
X137109571Y-64985574D01*
X137104184Y-64988034D01*
X137072074Y-64997711D01*
X136928182Y-65020502D01*
X136748465Y-65078896D01*
X136580099Y-65164683D01*
X136492879Y-65228053D01*
X136492878Y-65228054D01*
X136439095Y-65267129D01*
X136431715Y-65271262D01*
X136424787Y-65278191D01*
X136396532Y-65299344D01*
X136386608Y-65304763D01*
X136318335Y-65319615D01*
X136252870Y-65295199D01*
X136210999Y-65239265D01*
X136210997Y-65239261D01*
X136208313Y-65232063D01*
X136200500Y-65188743D01*
X136200500Y-64375880D01*
X136205522Y-64340947D01*
X136206867Y-64336366D01*
X136212934Y-64315702D01*
X136244228Y-64262960D01*
X136599598Y-63907589D01*
X136660919Y-63874106D01*
X136730610Y-63879090D01*
G37*
%TD.AperFunction*%
%TA.AperFunction,Conductor*%
G36*
X137050817Y-62316961D02*
G01*
X137054692Y-62318098D01*
X137056678Y-62318681D01*
X137115462Y-62356446D01*
X137144496Y-62419998D01*
X137134563Y-62489158D01*
X137088816Y-62541968D01*
X137088800Y-62541979D01*
X137088439Y-62542211D01*
X137040798Y-62560368D01*
X136950784Y-62574625D01*
X136950780Y-62574625D01*
X136923156Y-62583601D01*
X136785506Y-62628327D01*
X136714048Y-62664737D01*
X136630676Y-62707217D01*
X136623698Y-62712287D01*
X136623697Y-62712287D01*
X136953150Y-63041740D01*
X136986635Y-63103063D01*
X136981651Y-63172755D01*
X136939779Y-63228688D01*
X136927471Y-63236807D01*
X136902296Y-63251342D01*
X136902290Y-63251346D01*
X136809203Y-63344433D01*
X136809199Y-63344439D01*
X136794664Y-63369614D01*
X136744096Y-63417828D01*
X136675489Y-63431050D01*
X136610625Y-63405081D01*
X136599597Y-63395293D01*
X136249426Y-63045122D01*
X136228274Y-63016866D01*
X136215667Y-62993777D01*
X136200500Y-62934352D01*
X136200500Y-62453772D01*
X136205523Y-62418836D01*
X136209927Y-62403838D01*
X136247672Y-62345087D01*
X136249041Y-62343900D01*
X136303920Y-62316420D01*
X136311479Y-62314776D01*
X136337832Y-62311943D01*
X137015900Y-62311943D01*
X137050817Y-62316961D01*
G37*
%TD.AperFunction*%
%TD*%
M02*
