%TF.GenerationSoftware,KiCad,Pcbnew,9.0.7*%
%TF.CreationDate,2026-02-14T20:26:59-05:00*%
%TF.ProjectId,tad5212-board,74616435-3231-4322-9d62-6f6172642e6b,rev?*%
%TF.SameCoordinates,Original*%
%TF.FileFunction,Paste,Top*%
%TF.FilePolarity,Positive*%
%FSLAX46Y46*%
G04 Gerber Fmt 4.6, Leading zero omitted, Abs format (unit mm)*
G04 Created by KiCad (PCBNEW 9.0.7) date 2026-02-14 20:26:59*
%MOMM*%
%LPD*%
G01*
G04 APERTURE LIST*
G04 Aperture macros list*
%AMRoundRect*
0 Rectangle with rounded corners*
0 $1 Rounding radius*
0 $2 $3 $4 $5 $6 $7 $8 $9 X,Y pos of 4 corners*
0 Add a 4 corners polygon primitive as box body*
4,1,4,$2,$3,$4,$5,$6,$7,$8,$9,$2,$3,0*
0 Add four circle primitives for the rounded corners*
1,1,$1+$1,$2,$3*
1,1,$1+$1,$4,$5*
1,1,$1+$1,$6,$7*
1,1,$1+$1,$8,$9*
0 Add four rect primitives between the rounded corners*
20,1,$1+$1,$2,$3,$4,$5,0*
20,1,$1+$1,$4,$5,$6,$7,0*
20,1,$1+$1,$6,$7,$8,$9,0*
20,1,$1+$1,$8,$9,$2,$3,0*%
G04 Aperture macros list end*
%ADD10RoundRect,0.225000X0.250000X-0.225000X0.250000X0.225000X-0.250000X0.225000X-0.250000X-0.225000X0*%
%ADD11R,0.812800X0.254000*%
%ADD12R,0.254000X0.812800*%
%ADD13R,0.254000X0.254000*%
%ADD14R,2.209800X2.209800*%
%ADD15RoundRect,0.225000X0.225000X0.250000X-0.225000X0.250000X-0.225000X-0.250000X0.225000X-0.250000X0*%
%ADD16RoundRect,0.225000X-0.250000X0.225000X-0.250000X-0.225000X0.250000X-0.225000X0.250000X0.225000X0*%
%ADD17RoundRect,0.225000X-0.225000X-0.250000X0.225000X-0.250000X0.225000X0.250000X-0.225000X0.250000X0*%
G04 APERTURE END LIST*
D10*
%TO.C,C2*%
X140100000Y-75825000D03*
X140100000Y-77375000D03*
%TD*%
D11*
%TO.C,U1*%
X142856900Y-71949685D03*
X142856900Y-72449811D03*
X142856900Y-72949937D03*
X142856900Y-73450063D03*
X142856900Y-73950189D03*
X142856900Y-74450315D03*
D12*
X143549685Y-75143100D03*
X144049811Y-75143100D03*
X144549937Y-75143100D03*
X145050063Y-75143100D03*
X145550189Y-75143100D03*
X146050315Y-75143100D03*
D11*
X146743100Y-74450315D03*
X146743100Y-73950189D03*
X146743100Y-73450063D03*
X146743100Y-72949937D03*
X146743100Y-72449811D03*
X146743100Y-71949685D03*
D12*
X146050315Y-71256900D03*
X145550189Y-71256900D03*
X145050063Y-71256900D03*
X144549937Y-71256900D03*
X144049811Y-71256900D03*
X143549685Y-71256900D03*
D13*
X143074000Y-71473943D03*
X143074000Y-74926057D03*
X146526000Y-74926057D03*
X146526000Y-71473943D03*
D14*
X144800000Y-73200000D03*
%TD*%
D15*
%TO.C,C8*%
X145375000Y-69000000D03*
X143825000Y-69000000D03*
%TD*%
%TO.C,C7*%
X145375000Y-67500000D03*
X143825000Y-67500000D03*
%TD*%
D16*
%TO.C,C6*%
X142400000Y-64425000D03*
X142400000Y-65975000D03*
%TD*%
D10*
%TO.C,C5*%
X149300000Y-77575000D03*
X149300000Y-76025000D03*
%TD*%
D17*
%TO.C,C4*%
X140225000Y-69100000D03*
X141775000Y-69100000D03*
%TD*%
%TO.C,C3*%
X140225000Y-67600000D03*
X141775000Y-67600000D03*
%TD*%
D10*
%TO.C,C1*%
X141600000Y-77375000D03*
X141600000Y-75825000D03*
%TD*%
M02*
