%TF.GenerationSoftware,KiCad,Pcbnew,10.0.0*%
%TF.CreationDate,2026-03-24T01:09:45-04:00*%
%TF.ProjectId,tad5212-board,74616435-3231-4322-9d62-6f6172642e6b,rev?*%
%TF.SameCoordinates,Original*%
%TF.FileFunction,Copper,L3,Inr*%
%TF.FilePolarity,Positive*%
%FSLAX46Y46*%
G04 Gerber Fmt 4.6, Leading zero omitted, Abs format (unit mm)*
G04 Created by KiCad (PCBNEW 10.0.0) date 2026-03-24 01:09:45*
%MOMM*%
%LPD*%
G01*
G04 APERTURE LIST*
%TA.AperFunction,ComponentPad*%
%ADD10R,1.700000X1.700000*%
%TD*%
%TA.AperFunction,ComponentPad*%
%ADD11C,1.700000*%
%TD*%
%TA.AperFunction,ViaPad*%
%ADD12C,0.600000*%
%TD*%
%TA.AperFunction,Conductor*%
%ADD13C,0.127000*%
%TD*%
G04 APERTURE END LIST*
D10*
%TO.N,+3.3V*%
%TO.C,J1*%
X137209300Y-61111443D03*
D11*
%TO.N,GND*%
X137209300Y-63651443D03*
%TO.N,/BCLK*%
X137209300Y-66191443D03*
%TO.N,/FSYNC*%
X137209300Y-68731443D03*
%TO.N,/DOUT*%
X137209300Y-71271443D03*
%TO.N,/DIN*%
X137209300Y-73811443D03*
%TO.N,/SDA*%
X137209300Y-76351443D03*
%TO.N,/SCL*%
X137209300Y-78891443D03*
%TO.N,/GPIO1*%
X137209300Y-81431443D03*
%TO.N,/GPIO2*%
X137209300Y-83971443D03*
%TD*%
D10*
%TO.N,/LDO_EN*%
%TO.C,J2*%
X152449300Y-61111443D03*
D11*
%TO.N,/OUT2M*%
X152449300Y-63651443D03*
%TO.N,/OUT2P*%
X152449300Y-66191443D03*
%TO.N,/OUT1P*%
X152449300Y-68731443D03*
%TO.N,/OUT1M*%
X152449300Y-71271443D03*
%TO.N,unconnected-(J2-Pin_6-Pad6)*%
X152449300Y-73811443D03*
%TO.N,unconnected-(J2-Pin_7-Pad7)*%
X152449300Y-76351443D03*
%TO.N,unconnected-(J2-Pin_8-Pad8)*%
X152449300Y-78891443D03*
%TO.N,/GPI1*%
X152449300Y-81431443D03*
%TO.N,/GPO1*%
X152449300Y-83971443D03*
%TD*%
D12*
%TO.N,+3.3V*%
X145200000Y-64400000D03*
X138800000Y-75100000D03*
X139600000Y-62150000D03*
%TO.N,GND*%
X144100000Y-62700000D03*
X145500000Y-73900000D03*
X142650000Y-70750000D03*
X145500000Y-73200000D03*
X141050000Y-66650000D03*
X144800000Y-73200000D03*
X147350000Y-76500000D03*
X148400000Y-71450000D03*
X144100000Y-73900000D03*
X147700000Y-71000000D03*
X144800000Y-73900000D03*
X140700000Y-67400000D03*
X148450000Y-77500000D03*
X142350000Y-78550000D03*
X149500000Y-76450000D03*
X138650000Y-64350000D03*
X138600000Y-62550000D03*
X146600000Y-67300000D03*
X144250000Y-65600000D03*
X138700000Y-63150000D03*
X142800000Y-75300000D03*
X145500000Y-72500000D03*
X148400000Y-72400000D03*
X144100000Y-73200000D03*
X148350000Y-73350000D03*
X144100000Y-72500000D03*
X140100000Y-78550000D03*
X147150000Y-75550000D03*
X144800000Y-72500000D03*
X139150000Y-78600000D03*
X138700000Y-63750000D03*
X141400000Y-78600000D03*
X145850000Y-65550000D03*
%TO.N,/SCL*%
X142900000Y-77000000D03*
%TO.N,/SDA*%
X143414069Y-77514069D03*
%TD*%
%TO.N,/SDA*%
D13*
X143414069Y-77514069D02*
X143414069Y-76820397D01*
X143414069Y-76820397D02*
X142945115Y-76351443D01*
X142945115Y-76351443D02*
X137209300Y-76351443D01*
%TO.N,/SCL*%
X142900000Y-77000000D02*
X142850000Y-77050000D01*
X142850000Y-77050000D02*
X139050743Y-77050000D01*
X139050743Y-77050000D02*
X137209300Y-78891443D01*
%TD*%
%TA.AperFunction,Conductor*%
%TO.N,+3.3V*%
G36*
X151041839Y-60170185D02*
G01*
X151087594Y-60222989D01*
X151098800Y-60274500D01*
X151098800Y-62009313D01*
X151098801Y-62009319D01*
X151105208Y-62068926D01*
X151155502Y-62203771D01*
X151155506Y-62203778D01*
X151241752Y-62318987D01*
X151241755Y-62318990D01*
X151356964Y-62405236D01*
X151356971Y-62405240D01*
X151488382Y-62454253D01*
X151544316Y-62496124D01*
X151568733Y-62561588D01*
X151553882Y-62629861D01*
X151532731Y-62658116D01*
X151419189Y-62771658D01*
X151294251Y-62943622D01*
X151197744Y-63133028D01*
X151132053Y-63335203D01*
X151110745Y-63469737D01*
X151098800Y-63545156D01*
X151098800Y-63757730D01*
X151132054Y-63967686D01*
X151189695Y-64145087D01*
X151197744Y-64169857D01*
X151294251Y-64359263D01*
X151419190Y-64531229D01*
X151569513Y-64681552D01*
X151741482Y-64806493D01*
X151750246Y-64810959D01*
X151801042Y-64858934D01*
X151817836Y-64926755D01*
X151795298Y-64992890D01*
X151750246Y-65031927D01*
X151741482Y-65036392D01*
X151569513Y-65161333D01*
X151419190Y-65311656D01*
X151294251Y-65483622D01*
X151197744Y-65673028D01*
X151132053Y-65875203D01*
X151121694Y-65940609D01*
X151098800Y-66085156D01*
X151098800Y-66297730D01*
X151132054Y-66507686D01*
X151187461Y-66678211D01*
X151197744Y-66709857D01*
X151294251Y-66899263D01*
X151419190Y-67071229D01*
X151569513Y-67221552D01*
X151741482Y-67346493D01*
X151750246Y-67350959D01*
X151801042Y-67398934D01*
X151817836Y-67466755D01*
X151795298Y-67532890D01*
X151750246Y-67571927D01*
X151741482Y-67576392D01*
X151569513Y-67701333D01*
X151419190Y-67851656D01*
X151294251Y-68023622D01*
X151197744Y-68213028D01*
X151132053Y-68415203D01*
X151098800Y-68625156D01*
X151098800Y-68837729D01*
X151132053Y-69047682D01*
X151197744Y-69249857D01*
X151294251Y-69439263D01*
X151419190Y-69611229D01*
X151569513Y-69761552D01*
X151741482Y-69886493D01*
X151750246Y-69890959D01*
X151801042Y-69938934D01*
X151817836Y-70006755D01*
X151795298Y-70072890D01*
X151750246Y-70111927D01*
X151741482Y-70116392D01*
X151569513Y-70241333D01*
X151419190Y-70391656D01*
X151294251Y-70563622D01*
X151197744Y-70753028D01*
X151132053Y-70955203D01*
X151113742Y-71070814D01*
X151098800Y-71165156D01*
X151098800Y-71377730D01*
X151108834Y-71441087D01*
X151122734Y-71528846D01*
X151132054Y-71587686D01*
X151191206Y-71769737D01*
X151197744Y-71789857D01*
X151294251Y-71979263D01*
X151419190Y-72151229D01*
X151569513Y-72301552D01*
X151741482Y-72426493D01*
X151750246Y-72430959D01*
X151801042Y-72478934D01*
X151817836Y-72546755D01*
X151795298Y-72612890D01*
X151750246Y-72651927D01*
X151741482Y-72656392D01*
X151569513Y-72781333D01*
X151419190Y-72931656D01*
X151294251Y-73103622D01*
X151197744Y-73293028D01*
X151132053Y-73495203D01*
X151098800Y-73705156D01*
X151098800Y-73917729D01*
X151130794Y-74119735D01*
X151132054Y-74127686D01*
X151181279Y-74279185D01*
X151197744Y-74329857D01*
X151294251Y-74519263D01*
X151419190Y-74691229D01*
X151569513Y-74841552D01*
X151741482Y-74966493D01*
X151750246Y-74970959D01*
X151801042Y-75018934D01*
X151817836Y-75086755D01*
X151795298Y-75152890D01*
X151750246Y-75191927D01*
X151741482Y-75196392D01*
X151569513Y-75321333D01*
X151419190Y-75471656D01*
X151294251Y-75643622D01*
X151197744Y-75833028D01*
X151132053Y-76035203D01*
X151098800Y-76245156D01*
X151098800Y-76457729D01*
X151117982Y-76578843D01*
X151132054Y-76667686D01*
X151184528Y-76829185D01*
X151197744Y-76869857D01*
X151294251Y-77059263D01*
X151419190Y-77231229D01*
X151569513Y-77381552D01*
X151741482Y-77506493D01*
X151750246Y-77510959D01*
X151801042Y-77558934D01*
X151817836Y-77626755D01*
X151795298Y-77692890D01*
X151750246Y-77731927D01*
X151741482Y-77736392D01*
X151569513Y-77861333D01*
X151419190Y-78011656D01*
X151294251Y-78183622D01*
X151197744Y-78373028D01*
X151132053Y-78575203D01*
X151123557Y-78628846D01*
X151098800Y-78785156D01*
X151098800Y-78997730D01*
X151132054Y-79207686D01*
X151194703Y-79400500D01*
X151197744Y-79409857D01*
X151294251Y-79599263D01*
X151419190Y-79771229D01*
X151569513Y-79921552D01*
X151741482Y-80046493D01*
X151750246Y-80050959D01*
X151801042Y-80098934D01*
X151817836Y-80166755D01*
X151795298Y-80232890D01*
X151750246Y-80271927D01*
X151741482Y-80276392D01*
X151569513Y-80401333D01*
X151419190Y-80551656D01*
X151294251Y-80723622D01*
X151197744Y-80913028D01*
X151132053Y-81115203D01*
X151098800Y-81325156D01*
X151098800Y-81537729D01*
X151132053Y-81747682D01*
X151197744Y-81949857D01*
X151294251Y-82139263D01*
X151419190Y-82311229D01*
X151569513Y-82461552D01*
X151741482Y-82586493D01*
X151750246Y-82590959D01*
X151801042Y-82638934D01*
X151817836Y-82706755D01*
X151795298Y-82772890D01*
X151750246Y-82811927D01*
X151741482Y-82816392D01*
X151569513Y-82941333D01*
X151419190Y-83091656D01*
X151294251Y-83263622D01*
X151197744Y-83453028D01*
X151132053Y-83655203D01*
X151098800Y-83865156D01*
X151098800Y-84077729D01*
X151132053Y-84287682D01*
X151197744Y-84489857D01*
X151294251Y-84679263D01*
X151347544Y-84752615D01*
X151371024Y-84818422D01*
X151355198Y-84886475D01*
X151305092Y-84935170D01*
X151247226Y-84949500D01*
X138411374Y-84949500D01*
X138344335Y-84929815D01*
X138298580Y-84877011D01*
X138288636Y-84807853D01*
X138311056Y-84752615D01*
X138364348Y-84679263D01*
X138364347Y-84679263D01*
X138364351Y-84679259D01*
X138460857Y-84489855D01*
X138526546Y-84287686D01*
X138559800Y-84077730D01*
X138559800Y-83865156D01*
X138526546Y-83655200D01*
X138460857Y-83453031D01*
X138364351Y-83263627D01*
X138364349Y-83263624D01*
X138364348Y-83263622D01*
X138239409Y-83091656D01*
X138089086Y-82941333D01*
X137917120Y-82816394D01*
X137916415Y-82816034D01*
X137908354Y-82811928D01*
X137857559Y-82763955D01*
X137840763Y-82696135D01*
X137863299Y-82629999D01*
X137908354Y-82590958D01*
X137917116Y-82586494D01*
X137939089Y-82570529D01*
X138089086Y-82461552D01*
X138089088Y-82461549D01*
X138089092Y-82461547D01*
X138239404Y-82311235D01*
X138239406Y-82311231D01*
X138239409Y-82311229D01*
X138364348Y-82139263D01*
X138364347Y-82139263D01*
X138364351Y-82139259D01*
X138460857Y-81949855D01*
X138526546Y-81747686D01*
X138559800Y-81537730D01*
X138559800Y-81325156D01*
X138526546Y-81115200D01*
X138460857Y-80913031D01*
X138364351Y-80723627D01*
X138364349Y-80723624D01*
X138364348Y-80723622D01*
X138239409Y-80551656D01*
X138089086Y-80401333D01*
X137917120Y-80276394D01*
X137916415Y-80276034D01*
X137908354Y-80271928D01*
X137857559Y-80223955D01*
X137840763Y-80156135D01*
X137863299Y-80089999D01*
X137908354Y-80050958D01*
X137917116Y-80046494D01*
X137939089Y-80030529D01*
X138089086Y-79921552D01*
X138089088Y-79921549D01*
X138089092Y-79921547D01*
X138239404Y-79771235D01*
X138239406Y-79771231D01*
X138239409Y-79771229D01*
X138364348Y-79599263D01*
X138364347Y-79599263D01*
X138364351Y-79599259D01*
X138460857Y-79409855D01*
X138492347Y-79312936D01*
X138531785Y-79255262D01*
X138596143Y-79228064D01*
X138664989Y-79239979D01*
X138679168Y-79248153D01*
X138770821Y-79309394D01*
X138770823Y-79309395D01*
X138770827Y-79309397D01*
X138870060Y-79350500D01*
X138916503Y-79369737D01*
X139071153Y-79400499D01*
X139071156Y-79400500D01*
X139071158Y-79400500D01*
X139228844Y-79400500D01*
X139228845Y-79400499D01*
X139383497Y-79369737D01*
X139529179Y-79309394D01*
X139594126Y-79265997D01*
X139660802Y-79245119D01*
X139714752Y-79258124D01*
X139715192Y-79257063D01*
X139866498Y-79319735D01*
X139866503Y-79319737D01*
X140021153Y-79350499D01*
X140021156Y-79350500D01*
X140021158Y-79350500D01*
X140178844Y-79350500D01*
X140178845Y-79350499D01*
X140333497Y-79319737D01*
X140446166Y-79273067D01*
X140479172Y-79259397D01*
X140479172Y-79259396D01*
X140479179Y-79259394D01*
X140610289Y-79171789D01*
X140637317Y-79144760D01*
X140698637Y-79111275D01*
X140768329Y-79116257D01*
X140812680Y-79144759D01*
X140889707Y-79221786D01*
X140889711Y-79221789D01*
X141020814Y-79309390D01*
X141020827Y-79309397D01*
X141120060Y-79350500D01*
X141166503Y-79369737D01*
X141321153Y-79400499D01*
X141321156Y-79400500D01*
X141321158Y-79400500D01*
X141478844Y-79400500D01*
X141478845Y-79400499D01*
X141633497Y-79369737D01*
X141779179Y-79309394D01*
X141844126Y-79265997D01*
X141910802Y-79245119D01*
X141964752Y-79258124D01*
X141965192Y-79257063D01*
X142116498Y-79319735D01*
X142116503Y-79319737D01*
X142271153Y-79350499D01*
X142271156Y-79350500D01*
X142271158Y-79350500D01*
X142428844Y-79350500D01*
X142428845Y-79350499D01*
X142583497Y-79319737D01*
X142696166Y-79273067D01*
X142729172Y-79259397D01*
X142729172Y-79259396D01*
X142729179Y-79259394D01*
X142860289Y-79171789D01*
X142971789Y-79060289D01*
X143059394Y-78929179D01*
X143119737Y-78783497D01*
X143150500Y-78628842D01*
X143150500Y-78471158D01*
X143146664Y-78451874D01*
X143152890Y-78382285D01*
X143195752Y-78327106D01*
X143261641Y-78303860D01*
X143292473Y-78306065D01*
X143335224Y-78314569D01*
X143335227Y-78314569D01*
X143492913Y-78314569D01*
X143492914Y-78314568D01*
X143647566Y-78283806D01*
X143793248Y-78223463D01*
X143924358Y-78135858D01*
X144035858Y-78024358D01*
X144123463Y-77893248D01*
X144183806Y-77747566D01*
X144214569Y-77592911D01*
X144214569Y-77435227D01*
X144214569Y-77435224D01*
X144214568Y-77435222D01*
X144207744Y-77400916D01*
X144183806Y-77280572D01*
X144183804Y-77280567D01*
X144123466Y-77134896D01*
X144123459Y-77134883D01*
X144035858Y-77003780D01*
X144035855Y-77003776D01*
X144014388Y-76982309D01*
X143980903Y-76920986D01*
X143978297Y-76902151D01*
X143978069Y-76898399D01*
X143978069Y-76746145D01*
X143969340Y-76713569D01*
X143946802Y-76629453D01*
X143939635Y-76602702D01*
X143912457Y-76555629D01*
X143865382Y-76474093D01*
X143760373Y-76369084D01*
X143760372Y-76369083D01*
X143756042Y-76364753D01*
X143756031Y-76364743D01*
X143403498Y-76012210D01*
X143399353Y-76008065D01*
X143382070Y-75976403D01*
X143365879Y-75946752D01*
X143365879Y-75946743D01*
X143365876Y-75946737D01*
X143368394Y-75911572D01*
X143370863Y-75877060D01*
X143370867Y-75877053D01*
X143370868Y-75877046D01*
X143370896Y-75877008D01*
X143399361Y-75832716D01*
X143421789Y-75810289D01*
X143509394Y-75679179D01*
X143569737Y-75533497D01*
X143582138Y-75471153D01*
X146349500Y-75471153D01*
X146349500Y-75628846D01*
X146380261Y-75783489D01*
X146380264Y-75783501D01*
X146440602Y-75929172D01*
X146440609Y-75929185D01*
X146528210Y-76060288D01*
X146528213Y-76060292D01*
X146566827Y-76098905D01*
X146600313Y-76160227D01*
X146595329Y-76229919D01*
X146593709Y-76234037D01*
X146580264Y-76266497D01*
X146580261Y-76266505D01*
X146549500Y-76421153D01*
X146549500Y-76578846D01*
X146580261Y-76733489D01*
X146580264Y-76733501D01*
X146640602Y-76879172D01*
X146640609Y-76879185D01*
X146728210Y-77010288D01*
X146728213Y-77010292D01*
X146839707Y-77121786D01*
X146839711Y-77121789D01*
X146970814Y-77209390D01*
X146970827Y-77209397D01*
X147070060Y-77250500D01*
X147116503Y-77269737D01*
X147271153Y-77300499D01*
X147271156Y-77300500D01*
X147271158Y-77300500D01*
X147428843Y-77300500D01*
X147444677Y-77297350D01*
X147502048Y-77285938D01*
X147571638Y-77292165D01*
X147626816Y-77335027D01*
X147650061Y-77400916D01*
X147649643Y-77419697D01*
X147649500Y-77421150D01*
X147649500Y-77578846D01*
X147680261Y-77733489D01*
X147680264Y-77733501D01*
X147740602Y-77879172D01*
X147740609Y-77879185D01*
X147828210Y-78010288D01*
X147828213Y-78010292D01*
X147939707Y-78121786D01*
X147939711Y-78121789D01*
X148070814Y-78209390D01*
X148070827Y-78209397D01*
X148216498Y-78269735D01*
X148216503Y-78269737D01*
X148371153Y-78300499D01*
X148371156Y-78300500D01*
X148371158Y-78300500D01*
X148528844Y-78300500D01*
X148528845Y-78300499D01*
X148683497Y-78269737D01*
X148829179Y-78209394D01*
X148960289Y-78121789D01*
X149071789Y-78010289D01*
X149159394Y-77879179D01*
X149219737Y-77733497D01*
X149250500Y-77578842D01*
X149250500Y-77421158D01*
X149250498Y-77421150D01*
X149244330Y-77390140D01*
X149250557Y-77320548D01*
X149293419Y-77265370D01*
X149359309Y-77242125D01*
X149390140Y-77244330D01*
X149421157Y-77250500D01*
X149421158Y-77250500D01*
X149578844Y-77250500D01*
X149578845Y-77250499D01*
X149733497Y-77219737D01*
X149879179Y-77159394D01*
X150010289Y-77071789D01*
X150121789Y-76960289D01*
X150209394Y-76829179D01*
X150269737Y-76683497D01*
X150300500Y-76528842D01*
X150300500Y-76371158D01*
X150300500Y-76371155D01*
X150300499Y-76371153D01*
X150279683Y-76266505D01*
X150269737Y-76216503D01*
X150246427Y-76160227D01*
X150209397Y-76070827D01*
X150209390Y-76070814D01*
X150121789Y-75939711D01*
X150121786Y-75939707D01*
X150010292Y-75828213D01*
X150010288Y-75828210D01*
X149879185Y-75740609D01*
X149879172Y-75740602D01*
X149733501Y-75680264D01*
X149733489Y-75680261D01*
X149578845Y-75649500D01*
X149578842Y-75649500D01*
X149421158Y-75649500D01*
X149421155Y-75649500D01*
X149266510Y-75680261D01*
X149266498Y-75680264D01*
X149120827Y-75740602D01*
X149120814Y-75740609D01*
X148989711Y-75828210D01*
X148989707Y-75828213D01*
X148878213Y-75939707D01*
X148878210Y-75939711D01*
X148790609Y-76070814D01*
X148790602Y-76070827D01*
X148730264Y-76216498D01*
X148730261Y-76216510D01*
X148699500Y-76371153D01*
X148699500Y-76371158D01*
X148699500Y-76528842D01*
X148699501Y-76528846D01*
X148705670Y-76559862D01*
X148699441Y-76629453D01*
X148656578Y-76684630D01*
X148590688Y-76707874D01*
X148559862Y-76705670D01*
X148528842Y-76699500D01*
X148371158Y-76699500D01*
X148371153Y-76699500D01*
X148297951Y-76714061D01*
X148228360Y-76707834D01*
X148173182Y-76664971D01*
X148149938Y-76599081D01*
X148150358Y-76580285D01*
X148150500Y-76578843D01*
X148150500Y-76421155D01*
X148150499Y-76421153D01*
X148119738Y-76266510D01*
X148119737Y-76266505D01*
X148119737Y-76266503D01*
X148104584Y-76229919D01*
X148059397Y-76120827D01*
X148059390Y-76120814D01*
X147971789Y-75989711D01*
X147971786Y-75989707D01*
X147933171Y-75951093D01*
X147899685Y-75889771D01*
X147904669Y-75820079D01*
X147906271Y-75816006D01*
X147919737Y-75783497D01*
X147950500Y-75628842D01*
X147950500Y-75471158D01*
X147950500Y-75471155D01*
X147950499Y-75471153D01*
X147920699Y-75321339D01*
X147919737Y-75316503D01*
X147869986Y-75196392D01*
X147859397Y-75170827D01*
X147859390Y-75170814D01*
X147771789Y-75039711D01*
X147771786Y-75039707D01*
X147660292Y-74928213D01*
X147660288Y-74928210D01*
X147529185Y-74840609D01*
X147529172Y-74840602D01*
X147383501Y-74780264D01*
X147383489Y-74780261D01*
X147228845Y-74749500D01*
X147228842Y-74749500D01*
X147071158Y-74749500D01*
X147071155Y-74749500D01*
X146916510Y-74780261D01*
X146916498Y-74780264D01*
X146770827Y-74840602D01*
X146770814Y-74840609D01*
X146639711Y-74928210D01*
X146639707Y-74928213D01*
X146528213Y-75039707D01*
X146528210Y-75039711D01*
X146440609Y-75170814D01*
X146440602Y-75170827D01*
X146380264Y-75316498D01*
X146380261Y-75316510D01*
X146349500Y-75471153D01*
X143582138Y-75471153D01*
X143586277Y-75450347D01*
X143588161Y-75440875D01*
X143588161Y-75440874D01*
X143600500Y-75378844D01*
X143600500Y-75221155D01*
X143600499Y-75221153D01*
X143594686Y-75191929D01*
X143569737Y-75066503D01*
X143568286Y-75063000D01*
X143509397Y-74920827D01*
X143509390Y-74920814D01*
X143421789Y-74789711D01*
X143421786Y-74789707D01*
X143310292Y-74678213D01*
X143310288Y-74678210D01*
X143179185Y-74590609D01*
X143179172Y-74590602D01*
X143033501Y-74530264D01*
X143033489Y-74530261D01*
X142878845Y-74499500D01*
X142878842Y-74499500D01*
X142721158Y-74499500D01*
X142721155Y-74499500D01*
X142566510Y-74530261D01*
X142566498Y-74530264D01*
X142420827Y-74590602D01*
X142420814Y-74590609D01*
X142289711Y-74678210D01*
X142289707Y-74678213D01*
X142178213Y-74789707D01*
X142178210Y-74789711D01*
X142090609Y-74920814D01*
X142090602Y-74920827D01*
X142030264Y-75066498D01*
X142030261Y-75066510D01*
X141999500Y-75221153D01*
X141999500Y-75378846D01*
X142030261Y-75533489D01*
X142030264Y-75533501D01*
X142064432Y-75615991D01*
X142071901Y-75685461D01*
X142040625Y-75747940D01*
X141980536Y-75783591D01*
X141949871Y-75787443D01*
X138513616Y-75787443D01*
X138446577Y-75767758D01*
X138403131Y-75719737D01*
X138364350Y-75643625D01*
X138239409Y-75471656D01*
X138089086Y-75321333D01*
X137917120Y-75196394D01*
X137916415Y-75196034D01*
X137908354Y-75191928D01*
X137857559Y-75143955D01*
X137840763Y-75076135D01*
X137863299Y-75009999D01*
X137908354Y-74970958D01*
X137917116Y-74966494D01*
X137969806Y-74928213D01*
X138089086Y-74841552D01*
X138089088Y-74841549D01*
X138089092Y-74841547D01*
X138239404Y-74691235D01*
X138239406Y-74691231D01*
X138239409Y-74691229D01*
X138364348Y-74519263D01*
X138364347Y-74519263D01*
X138364351Y-74519259D01*
X138460857Y-74329855D01*
X138526546Y-74127686D01*
X138559800Y-73917730D01*
X138559800Y-73705156D01*
X138526546Y-73495200D01*
X138460857Y-73293031D01*
X138364351Y-73103627D01*
X138364349Y-73103624D01*
X138364348Y-73103622D01*
X138239409Y-72931656D01*
X138089086Y-72781333D01*
X137917120Y-72656394D01*
X137916415Y-72656034D01*
X137908354Y-72651928D01*
X137857559Y-72603955D01*
X137840763Y-72536135D01*
X137863299Y-72469999D01*
X137893174Y-72440115D01*
X137900433Y-72434993D01*
X137917116Y-72426494D01*
X137924467Y-72421153D01*
X143299500Y-72421153D01*
X143299500Y-72578846D01*
X143330260Y-72733488D01*
X143330262Y-72733493D01*
X143330263Y-72733497D01*
X143358864Y-72802547D01*
X143358865Y-72802549D01*
X143366333Y-72872018D01*
X143358865Y-72897447D01*
X143330263Y-72966503D01*
X143330262Y-72966506D01*
X143330260Y-72966511D01*
X143299500Y-73121153D01*
X143299500Y-73278846D01*
X143330260Y-73433488D01*
X143330262Y-73433493D01*
X143330263Y-73433497D01*
X143355821Y-73495200D01*
X143358865Y-73502549D01*
X143366333Y-73572018D01*
X143358865Y-73597447D01*
X143330263Y-73666503D01*
X143330262Y-73666506D01*
X143330260Y-73666511D01*
X143299500Y-73821153D01*
X143299500Y-73978846D01*
X143330261Y-74133489D01*
X143330264Y-74133501D01*
X143390602Y-74279172D01*
X143390609Y-74279185D01*
X143478210Y-74410288D01*
X143478213Y-74410292D01*
X143589707Y-74521786D01*
X143589711Y-74521789D01*
X143720814Y-74609390D01*
X143720827Y-74609397D01*
X143866498Y-74669735D01*
X143866503Y-74669737D01*
X144021153Y-74700499D01*
X144021156Y-74700500D01*
X144021158Y-74700500D01*
X144178844Y-74700500D01*
X144178845Y-74700499D01*
X144333497Y-74669737D01*
X144402549Y-74641134D01*
X144472016Y-74633666D01*
X144497447Y-74641133D01*
X144566503Y-74669737D01*
X144721153Y-74700499D01*
X144721156Y-74700500D01*
X144721158Y-74700500D01*
X144878844Y-74700500D01*
X144878845Y-74700499D01*
X145033497Y-74669737D01*
X145102549Y-74641134D01*
X145172016Y-74633666D01*
X145197447Y-74641133D01*
X145266503Y-74669737D01*
X145421153Y-74700499D01*
X145421156Y-74700500D01*
X145421158Y-74700500D01*
X145578844Y-74700500D01*
X145578845Y-74700499D01*
X145733497Y-74669737D01*
X145879179Y-74609394D01*
X146010289Y-74521789D01*
X146121789Y-74410289D01*
X146209394Y-74279179D01*
X146269737Y-74133497D01*
X146300500Y-73978842D01*
X146300500Y-73821158D01*
X146300500Y-73821155D01*
X146300499Y-73821153D01*
X146282204Y-73729179D01*
X146269737Y-73666503D01*
X146241134Y-73597450D01*
X146233666Y-73527984D01*
X146241133Y-73502552D01*
X146269737Y-73433497D01*
X146300500Y-73278842D01*
X146300500Y-73121158D01*
X146300500Y-73121155D01*
X146300499Y-73121153D01*
X146270596Y-72970821D01*
X146269737Y-72966503D01*
X146241134Y-72897450D01*
X146233666Y-72827984D01*
X146241133Y-72802552D01*
X146269737Y-72733497D01*
X146300500Y-72578842D01*
X146300500Y-72421158D01*
X146300500Y-72421155D01*
X146300499Y-72421153D01*
X146269737Y-72266503D01*
X146269735Y-72266498D01*
X146209397Y-72120827D01*
X146209390Y-72120814D01*
X146121789Y-71989711D01*
X146121786Y-71989707D01*
X146010292Y-71878213D01*
X146010288Y-71878210D01*
X145879185Y-71790609D01*
X145879172Y-71790602D01*
X145733501Y-71730264D01*
X145733489Y-71730261D01*
X145578845Y-71699500D01*
X145578842Y-71699500D01*
X145421158Y-71699500D01*
X145421155Y-71699500D01*
X145266511Y-71730260D01*
X145266506Y-71730262D01*
X145266504Y-71730262D01*
X145266503Y-71730263D01*
X145197449Y-71758865D01*
X145127982Y-71766333D01*
X145102552Y-71758865D01*
X145033497Y-71730263D01*
X145033493Y-71730262D01*
X145033488Y-71730260D01*
X144878845Y-71699500D01*
X144878842Y-71699500D01*
X144721158Y-71699500D01*
X144721155Y-71699500D01*
X144566511Y-71730260D01*
X144566506Y-71730262D01*
X144566504Y-71730262D01*
X144566503Y-71730263D01*
X144497449Y-71758865D01*
X144427982Y-71766333D01*
X144402552Y-71758865D01*
X144333497Y-71730263D01*
X144333493Y-71730262D01*
X144333488Y-71730260D01*
X144178845Y-71699500D01*
X144178842Y-71699500D01*
X144021158Y-71699500D01*
X144021155Y-71699500D01*
X143866510Y-71730261D01*
X143866498Y-71730264D01*
X143720827Y-71790602D01*
X143720814Y-71790609D01*
X143589711Y-71878210D01*
X143589707Y-71878213D01*
X143478213Y-71989707D01*
X143478210Y-71989711D01*
X143390609Y-72120814D01*
X143390602Y-72120827D01*
X143330264Y-72266498D01*
X143330261Y-72266510D01*
X143299500Y-72421153D01*
X137924467Y-72421153D01*
X138089092Y-72301547D01*
X138239404Y-72151235D01*
X138239406Y-72151231D01*
X138239409Y-72151229D01*
X138364348Y-71979263D01*
X138364347Y-71979263D01*
X138364351Y-71979259D01*
X138460857Y-71789855D01*
X138526546Y-71587686D01*
X138559800Y-71377730D01*
X138559800Y-71165156D01*
X138526546Y-70955200D01*
X138460857Y-70753031D01*
X138460855Y-70753028D01*
X138460855Y-70753026D01*
X138444721Y-70721362D01*
X138444720Y-70721361D01*
X138423779Y-70680261D01*
X138419138Y-70671153D01*
X141849500Y-70671153D01*
X141849500Y-70828846D01*
X141880261Y-70983489D01*
X141880264Y-70983501D01*
X141940602Y-71129172D01*
X141940609Y-71129185D01*
X142028210Y-71260288D01*
X142028213Y-71260292D01*
X142139707Y-71371786D01*
X142139711Y-71371789D01*
X142270814Y-71459390D01*
X142270827Y-71459397D01*
X142416498Y-71519735D01*
X142416503Y-71519737D01*
X142571153Y-71550499D01*
X142571156Y-71550500D01*
X142571158Y-71550500D01*
X142728844Y-71550500D01*
X142728845Y-71550499D01*
X142883497Y-71519737D01*
X143029179Y-71459394D01*
X143160289Y-71371789D01*
X143271789Y-71260289D01*
X143359394Y-71129179D01*
X143419737Y-70983497D01*
X143432138Y-70921153D01*
X146899500Y-70921153D01*
X146899500Y-71078846D01*
X146930261Y-71233489D01*
X146930264Y-71233501D01*
X146990602Y-71379172D01*
X146990609Y-71379185D01*
X147078210Y-71510288D01*
X147078213Y-71510292D01*
X147189707Y-71621786D01*
X147189711Y-71621789D01*
X147320814Y-71709390D01*
X147320827Y-71709397D01*
X147440255Y-71758865D01*
X147466503Y-71769737D01*
X147510653Y-71778519D01*
X147627132Y-71801689D01*
X147626650Y-71804107D01*
X147681395Y-71826204D01*
X147707589Y-71854596D01*
X147708620Y-71856140D01*
X147729478Y-71922824D01*
X147710973Y-71990198D01*
X147708601Y-71993888D01*
X147690610Y-72020814D01*
X147690602Y-72020828D01*
X147630264Y-72166498D01*
X147630261Y-72166510D01*
X147599500Y-72321153D01*
X147599500Y-72478846D01*
X147630261Y-72633489D01*
X147630264Y-72633501D01*
X147692937Y-72784808D01*
X147691674Y-72785330D01*
X147704500Y-72846931D01*
X147684002Y-72905873D01*
X147640609Y-72970814D01*
X147640602Y-72970827D01*
X147580264Y-73116498D01*
X147580261Y-73116510D01*
X147549500Y-73271153D01*
X147549500Y-73428846D01*
X147580261Y-73583489D01*
X147580264Y-73583501D01*
X147640602Y-73729172D01*
X147640609Y-73729185D01*
X147728210Y-73860288D01*
X147728213Y-73860292D01*
X147839707Y-73971786D01*
X147839711Y-73971789D01*
X147970814Y-74059390D01*
X147970827Y-74059397D01*
X148116498Y-74119735D01*
X148116503Y-74119737D01*
X148271153Y-74150499D01*
X148271156Y-74150500D01*
X148271158Y-74150500D01*
X148428844Y-74150500D01*
X148428845Y-74150499D01*
X148583497Y-74119737D01*
X148729179Y-74059394D01*
X148860289Y-73971789D01*
X148971789Y-73860289D01*
X149059394Y-73729179D01*
X149119737Y-73583497D01*
X149150500Y-73428842D01*
X149150500Y-73271158D01*
X149150500Y-73271155D01*
X149150499Y-73271153D01*
X149119738Y-73116510D01*
X149119737Y-73116503D01*
X149114402Y-73103622D01*
X149057063Y-72965192D01*
X149058327Y-72964668D01*
X149045498Y-72903078D01*
X149065998Y-72844125D01*
X149068948Y-72839711D01*
X149109394Y-72779179D01*
X149169737Y-72633497D01*
X149200500Y-72478842D01*
X149200500Y-72321158D01*
X149200500Y-72321155D01*
X149200499Y-72321153D01*
X149169737Y-72166503D01*
X149109397Y-72020828D01*
X149109397Y-72020827D01*
X149109389Y-72020812D01*
X149091401Y-71993892D01*
X149070522Y-71927215D01*
X149089006Y-71859835D01*
X149091401Y-71856108D01*
X149109389Y-71829187D01*
X149109390Y-71829184D01*
X149109394Y-71829179D01*
X149169737Y-71683497D01*
X149200500Y-71528842D01*
X149200500Y-71371158D01*
X149200500Y-71371155D01*
X149200499Y-71371153D01*
X149178447Y-71260292D01*
X149169737Y-71216503D01*
X149133569Y-71129185D01*
X149109397Y-71070827D01*
X149109390Y-71070814D01*
X149021789Y-70939711D01*
X149021786Y-70939707D01*
X148910292Y-70828213D01*
X148910288Y-70828210D01*
X148779185Y-70740609D01*
X148779172Y-70740602D01*
X148633501Y-70680264D01*
X148633489Y-70680261D01*
X148472868Y-70648311D01*
X148473346Y-70645906D01*
X148418547Y-70623750D01*
X148392431Y-70595434D01*
X148321789Y-70489710D01*
X148210292Y-70378213D01*
X148210288Y-70378210D01*
X148079185Y-70290609D01*
X148079172Y-70290602D01*
X147933501Y-70230264D01*
X147933489Y-70230261D01*
X147778845Y-70199500D01*
X147778842Y-70199500D01*
X147621158Y-70199500D01*
X147621155Y-70199500D01*
X147466510Y-70230261D01*
X147466498Y-70230264D01*
X147320827Y-70290602D01*
X147320814Y-70290609D01*
X147189711Y-70378210D01*
X147189707Y-70378213D01*
X147078213Y-70489707D01*
X147078210Y-70489711D01*
X146990609Y-70620814D01*
X146990602Y-70620827D01*
X146930264Y-70766498D01*
X146930261Y-70766510D01*
X146899500Y-70921153D01*
X143432138Y-70921153D01*
X143438161Y-70890874D01*
X143450500Y-70828844D01*
X143450500Y-70671155D01*
X143450499Y-70671153D01*
X143435437Y-70595434D01*
X143419737Y-70516503D01*
X143419735Y-70516498D01*
X143359397Y-70370827D01*
X143359390Y-70370814D01*
X143271789Y-70239711D01*
X143271786Y-70239707D01*
X143160292Y-70128213D01*
X143160288Y-70128210D01*
X143029185Y-70040609D01*
X143029172Y-70040602D01*
X142883501Y-69980264D01*
X142883489Y-69980261D01*
X142728845Y-69949500D01*
X142728842Y-69949500D01*
X142571158Y-69949500D01*
X142571155Y-69949500D01*
X142416510Y-69980261D01*
X142416498Y-69980264D01*
X142270827Y-70040602D01*
X142270814Y-70040609D01*
X142139711Y-70128210D01*
X142139707Y-70128213D01*
X142028213Y-70239707D01*
X142028210Y-70239711D01*
X141940609Y-70370814D01*
X141940602Y-70370827D01*
X141880264Y-70516498D01*
X141880261Y-70516510D01*
X141849500Y-70671153D01*
X138419138Y-70671153D01*
X138364351Y-70563627D01*
X138364349Y-70563624D01*
X138364348Y-70563622D01*
X138239409Y-70391656D01*
X138089086Y-70241333D01*
X137917120Y-70116394D01*
X137916415Y-70116034D01*
X137908354Y-70111928D01*
X137857559Y-70063955D01*
X137840763Y-69996135D01*
X137863299Y-69929999D01*
X137908354Y-69890958D01*
X137917116Y-69886494D01*
X137939089Y-69870529D01*
X138089086Y-69761552D01*
X138089088Y-69761549D01*
X138089092Y-69761547D01*
X138239404Y-69611235D01*
X138239406Y-69611231D01*
X138239409Y-69611229D01*
X138364348Y-69439263D01*
X138364347Y-69439263D01*
X138364351Y-69439259D01*
X138460857Y-69249855D01*
X138526546Y-69047686D01*
X138559800Y-68837730D01*
X138559800Y-68625156D01*
X138526546Y-68415200D01*
X138460857Y-68213031D01*
X138364351Y-68023627D01*
X138364349Y-68023624D01*
X138364348Y-68023622D01*
X138239409Y-67851656D01*
X138089086Y-67701333D01*
X137917120Y-67576394D01*
X137916415Y-67576034D01*
X137908354Y-67571928D01*
X137857559Y-67523955D01*
X137840763Y-67456135D01*
X137863299Y-67389999D01*
X137908354Y-67350958D01*
X137917116Y-67346494D01*
X137951995Y-67321153D01*
X139899500Y-67321153D01*
X139899500Y-67478846D01*
X139930261Y-67633489D01*
X139930264Y-67633501D01*
X139990602Y-67779172D01*
X139990609Y-67779185D01*
X140078210Y-67910288D01*
X140078213Y-67910292D01*
X140189707Y-68021786D01*
X140189711Y-68021789D01*
X140320814Y-68109390D01*
X140320827Y-68109397D01*
X140466498Y-68169735D01*
X140466503Y-68169737D01*
X140621153Y-68200499D01*
X140621156Y-68200500D01*
X140621158Y-68200500D01*
X140778844Y-68200500D01*
X140778845Y-68200499D01*
X140933497Y-68169737D01*
X141079179Y-68109394D01*
X141210289Y-68021789D01*
X141321789Y-67910289D01*
X141409394Y-67779179D01*
X141469737Y-67633497D01*
X141500500Y-67478842D01*
X141500500Y-67378017D01*
X141520185Y-67310978D01*
X141535973Y-67291190D01*
X141544947Y-67282039D01*
X141560289Y-67271789D01*
X141610925Y-67221153D01*
X145799500Y-67221153D01*
X145799500Y-67378846D01*
X145830261Y-67533489D01*
X145830264Y-67533501D01*
X145890602Y-67679172D01*
X145890609Y-67679185D01*
X145978210Y-67810288D01*
X145978213Y-67810292D01*
X146089707Y-67921786D01*
X146089711Y-67921789D01*
X146220814Y-68009390D01*
X146220827Y-68009397D01*
X146366498Y-68069735D01*
X146366503Y-68069737D01*
X146521153Y-68100499D01*
X146521156Y-68100500D01*
X146521158Y-68100500D01*
X146678844Y-68100500D01*
X146678845Y-68100499D01*
X146833497Y-68069737D01*
X146979179Y-68009394D01*
X147110289Y-67921789D01*
X147221789Y-67810289D01*
X147309394Y-67679179D01*
X147369737Y-67533497D01*
X147400500Y-67378842D01*
X147400500Y-67221158D01*
X147400500Y-67221155D01*
X147400499Y-67221153D01*
X147383665Y-67136525D01*
X147369737Y-67066503D01*
X147369735Y-67066498D01*
X147309397Y-66920827D01*
X147309390Y-66920814D01*
X147221789Y-66789711D01*
X147221786Y-66789707D01*
X147110292Y-66678213D01*
X147110288Y-66678210D01*
X146979185Y-66590609D01*
X146979172Y-66590602D01*
X146833501Y-66530264D01*
X146833489Y-66530261D01*
X146678845Y-66499500D01*
X146678842Y-66499500D01*
X146521158Y-66499500D01*
X146521155Y-66499500D01*
X146366510Y-66530261D01*
X146366498Y-66530264D01*
X146220827Y-66590602D01*
X146220814Y-66590609D01*
X146089711Y-66678210D01*
X146089707Y-66678213D01*
X145978213Y-66789707D01*
X145978210Y-66789711D01*
X145890609Y-66920814D01*
X145890602Y-66920827D01*
X145830264Y-67066498D01*
X145830261Y-67066510D01*
X145799500Y-67221153D01*
X141610925Y-67221153D01*
X141671789Y-67160289D01*
X141759394Y-67029179D01*
X141762854Y-67020827D01*
X141773067Y-66996166D01*
X141819737Y-66883497D01*
X141850500Y-66728842D01*
X141850500Y-66571158D01*
X141850500Y-66571155D01*
X141850499Y-66571153D01*
X141842365Y-66530261D01*
X141819737Y-66416503D01*
X141819735Y-66416498D01*
X141759397Y-66270827D01*
X141759390Y-66270814D01*
X141671789Y-66139711D01*
X141671786Y-66139707D01*
X141560292Y-66028213D01*
X141560288Y-66028210D01*
X141429185Y-65940609D01*
X141429172Y-65940602D01*
X141283501Y-65880264D01*
X141283489Y-65880261D01*
X141128845Y-65849500D01*
X141128842Y-65849500D01*
X140971158Y-65849500D01*
X140971155Y-65849500D01*
X140816510Y-65880261D01*
X140816498Y-65880264D01*
X140670827Y-65940602D01*
X140670814Y-65940609D01*
X140539711Y-66028210D01*
X140539707Y-66028213D01*
X140428213Y-66139707D01*
X140428210Y-66139711D01*
X140340609Y-66270814D01*
X140340602Y-66270827D01*
X140280264Y-66416498D01*
X140280261Y-66416510D01*
X140249500Y-66571153D01*
X140249500Y-66671982D01*
X140229815Y-66739021D01*
X140194395Y-66775081D01*
X140189712Y-66778210D01*
X140189704Y-66778217D01*
X140078213Y-66889707D01*
X140078210Y-66889711D01*
X139990609Y-67020814D01*
X139990602Y-67020827D01*
X139930264Y-67166498D01*
X139930261Y-67166510D01*
X139899500Y-67321153D01*
X137951995Y-67321153D01*
X138089092Y-67221547D01*
X138239404Y-67071235D01*
X138239406Y-67071231D01*
X138239409Y-67071229D01*
X138364348Y-66899263D01*
X138364347Y-66899263D01*
X138364351Y-66899259D01*
X138460857Y-66709855D01*
X138526546Y-66507686D01*
X138559800Y-66297730D01*
X138559800Y-66085156D01*
X138526546Y-65875200D01*
X138460857Y-65673031D01*
X138383471Y-65521153D01*
X143449500Y-65521153D01*
X143449500Y-65678846D01*
X143480261Y-65833489D01*
X143480264Y-65833501D01*
X143540602Y-65979172D01*
X143540609Y-65979185D01*
X143628210Y-66110288D01*
X143628213Y-66110292D01*
X143739707Y-66221786D01*
X143739711Y-66221789D01*
X143870814Y-66309390D01*
X143870827Y-66309397D01*
X143970060Y-66350500D01*
X144016503Y-66369737D01*
X144171153Y-66400499D01*
X144171156Y-66400500D01*
X144171158Y-66400500D01*
X144328844Y-66400500D01*
X144328845Y-66400499D01*
X144483497Y-66369737D01*
X144629179Y-66309394D01*
X144760289Y-66221789D01*
X144871789Y-66110289D01*
X144917175Y-66042363D01*
X144962779Y-65974114D01*
X144964835Y-65975488D01*
X145006137Y-65933381D01*
X145074264Y-65917871D01*
X145139961Y-65941655D01*
X145169714Y-65972744D01*
X145228210Y-66060288D01*
X145228213Y-66060292D01*
X145339707Y-66171786D01*
X145339711Y-66171789D01*
X145470814Y-66259390D01*
X145470827Y-66259397D01*
X145616498Y-66319735D01*
X145616503Y-66319737D01*
X145771153Y-66350499D01*
X145771156Y-66350500D01*
X145771158Y-66350500D01*
X145928844Y-66350500D01*
X145928845Y-66350499D01*
X146083497Y-66319737D01*
X146201592Y-66270821D01*
X146229172Y-66259397D01*
X146229172Y-66259396D01*
X146229179Y-66259394D01*
X146360289Y-66171789D01*
X146471789Y-66060289D01*
X146559394Y-65929179D01*
X146619737Y-65783497D01*
X146650500Y-65628842D01*
X146650500Y-65471158D01*
X146650500Y-65471155D01*
X146650499Y-65471153D01*
X146629684Y-65366510D01*
X146619737Y-65316503D01*
X146605341Y-65281747D01*
X146559397Y-65170827D01*
X146559390Y-65170814D01*
X146471789Y-65039711D01*
X146471786Y-65039707D01*
X146360292Y-64928213D01*
X146360288Y-64928210D01*
X146229185Y-64840609D01*
X146229172Y-64840602D01*
X146083501Y-64780264D01*
X146083489Y-64780261D01*
X145928845Y-64749500D01*
X145928842Y-64749500D01*
X145771158Y-64749500D01*
X145771155Y-64749500D01*
X145616510Y-64780261D01*
X145616498Y-64780264D01*
X145470827Y-64840602D01*
X145470814Y-64840609D01*
X145339711Y-64928210D01*
X145339707Y-64928213D01*
X145228213Y-65039707D01*
X145228210Y-65039711D01*
X145137221Y-65175886D01*
X145135180Y-65174522D01*
X145093767Y-65216670D01*
X145025627Y-65232121D01*
X144959951Y-65208280D01*
X144930285Y-65177255D01*
X144871789Y-65089711D01*
X144871786Y-65089707D01*
X144760292Y-64978213D01*
X144760288Y-64978210D01*
X144629185Y-64890609D01*
X144629172Y-64890602D01*
X144483501Y-64830264D01*
X144483489Y-64830261D01*
X144328845Y-64799500D01*
X144328842Y-64799500D01*
X144171158Y-64799500D01*
X144171155Y-64799500D01*
X144016510Y-64830261D01*
X144016498Y-64830264D01*
X143870827Y-64890602D01*
X143870814Y-64890609D01*
X143739711Y-64978210D01*
X143739707Y-64978213D01*
X143628213Y-65089707D01*
X143628210Y-65089711D01*
X143540609Y-65220814D01*
X143540602Y-65220827D01*
X143480264Y-65366498D01*
X143480261Y-65366510D01*
X143449500Y-65521153D01*
X138383471Y-65521153D01*
X138364351Y-65483627D01*
X138355288Y-65471153D01*
X138239409Y-65311656D01*
X138227361Y-65299608D01*
X138193876Y-65238285D01*
X138198860Y-65168593D01*
X138240732Y-65112660D01*
X138306196Y-65088243D01*
X138362493Y-65097365D01*
X138416503Y-65119737D01*
X138571153Y-65150499D01*
X138571156Y-65150500D01*
X138571158Y-65150500D01*
X138728844Y-65150500D01*
X138728845Y-65150499D01*
X138883497Y-65119737D01*
X139029179Y-65059394D01*
X139160289Y-64971789D01*
X139271789Y-64860289D01*
X139359394Y-64729179D01*
X139419737Y-64583497D01*
X139450500Y-64428842D01*
X139450500Y-64271158D01*
X139450500Y-64271155D01*
X139425423Y-64145087D01*
X139431650Y-64075495D01*
X139432480Y-64073441D01*
X139469735Y-63983502D01*
X139469735Y-63983501D01*
X139469737Y-63983497D01*
X139500500Y-63828842D01*
X139500500Y-63671158D01*
X139500500Y-63671155D01*
X139500499Y-63671153D01*
X139469738Y-63516510D01*
X139469737Y-63516503D01*
X139461845Y-63497452D01*
X139454377Y-63427984D01*
X139461846Y-63402547D01*
X139469737Y-63383497D01*
X139500500Y-63228842D01*
X139500500Y-63071158D01*
X139500500Y-63071155D01*
X139500499Y-63071153D01*
X139473117Y-62933497D01*
X139469737Y-62916503D01*
X139409394Y-62770821D01*
X139409317Y-62770706D01*
X139409295Y-62770637D01*
X139406525Y-62765454D01*
X139407507Y-62764928D01*
X139388434Y-62704036D01*
X139389600Y-62684697D01*
X139390092Y-62681162D01*
X139400500Y-62628842D01*
X139400500Y-62621153D01*
X143299500Y-62621153D01*
X143299500Y-62778846D01*
X143330261Y-62933489D01*
X143330264Y-62933501D01*
X143390602Y-63079172D01*
X143390609Y-63079185D01*
X143478210Y-63210288D01*
X143478213Y-63210292D01*
X143589707Y-63321786D01*
X143589711Y-63321789D01*
X143720814Y-63409390D01*
X143720827Y-63409397D01*
X143818853Y-63450000D01*
X143866503Y-63469737D01*
X144005840Y-63497453D01*
X144021153Y-63500499D01*
X144021156Y-63500500D01*
X144021158Y-63500500D01*
X144178844Y-63500500D01*
X144178845Y-63500499D01*
X144333497Y-63469737D01*
X144479179Y-63409394D01*
X144610289Y-63321789D01*
X144721789Y-63210289D01*
X144809394Y-63079179D01*
X144812719Y-63071153D01*
X144869735Y-62933501D01*
X144869737Y-62933497D01*
X144900500Y-62778842D01*
X144900500Y-62621158D01*
X144900500Y-62621155D01*
X144900499Y-62621153D01*
X144869738Y-62466510D01*
X144869737Y-62466503D01*
X144842144Y-62399886D01*
X144809397Y-62320827D01*
X144809390Y-62320814D01*
X144721789Y-62189711D01*
X144721786Y-62189707D01*
X144610292Y-62078213D01*
X144610288Y-62078210D01*
X144479185Y-61990609D01*
X144479172Y-61990602D01*
X144333501Y-61930264D01*
X144333489Y-61930261D01*
X144178845Y-61899500D01*
X144178842Y-61899500D01*
X144021158Y-61899500D01*
X144021155Y-61899500D01*
X143866510Y-61930261D01*
X143866498Y-61930264D01*
X143720827Y-61990602D01*
X143720814Y-61990609D01*
X143589711Y-62078210D01*
X143589707Y-62078213D01*
X143478213Y-62189707D01*
X143478210Y-62189711D01*
X143390609Y-62320814D01*
X143390602Y-62320827D01*
X143330264Y-62466498D01*
X143330261Y-62466510D01*
X143299500Y-62621153D01*
X139400500Y-62621153D01*
X139400500Y-62471158D01*
X139400500Y-62471155D01*
X139400499Y-62471153D01*
X139386323Y-62399886D01*
X139369737Y-62316503D01*
X139363292Y-62300943D01*
X139309397Y-62170827D01*
X139309390Y-62170814D01*
X139221789Y-62039711D01*
X139221786Y-62039707D01*
X139110292Y-61928213D01*
X139110288Y-61928210D01*
X138979185Y-61840609D01*
X138979172Y-61840602D01*
X138833501Y-61780264D01*
X138833489Y-61780261D01*
X138678845Y-61749500D01*
X138678842Y-61749500D01*
X138521158Y-61749500D01*
X138521153Y-61749500D01*
X138461490Y-61761368D01*
X138391899Y-61755141D01*
X138336721Y-61712278D01*
X138313477Y-61646388D01*
X138313299Y-61639751D01*
X138313300Y-61238443D01*
X137692908Y-61238443D01*
X137709300Y-61177269D01*
X137709300Y-61045617D01*
X137692908Y-60984443D01*
X138313299Y-60984443D01*
X138313299Y-60274500D01*
X138332984Y-60207461D01*
X138385788Y-60161706D01*
X138437299Y-60150500D01*
X150974800Y-60150500D01*
X151041839Y-60170185D01*
G37*
%TD.AperFunction*%
%TD*%
M02*
