%TF.GenerationSoftware,KiCad,Pcbnew,10.0.0*%
%TF.CreationDate,2026-04-03T15:41:47-04:00*%
%TF.ProjectId,tad5212-board,74616435-3231-4322-9d62-6f6172642e6b,rev?*%
%TF.SameCoordinates,Original*%
%TF.FileFunction,Soldermask,Top*%
%TF.FilePolarity,Negative*%
%FSLAX46Y46*%
G04 Gerber Fmt 4.6, Leading zero omitted, Abs format (unit mm)*
G04 Created by KiCad (PCBNEW 10.0.0) date 2026-04-03 15:41:47*
%MOMM*%
%LPD*%
G01*
G04 APERTURE LIST*
G04 Aperture macros list*
%AMRoundRect*
0 Rectangle with rounded corners*
0 $1 Rounding radius*
0 $2 $3 $4 $5 $6 $7 $8 $9 X,Y pos of 4 corners*
0 Add a 4 corners polygon primitive as box body*
4,1,4,$2,$3,$4,$5,$6,$7,$8,$9,$2,$3,0*
0 Add four circle primitives for the rounded corners*
1,1,$1+$1,$2,$3*
1,1,$1+$1,$4,$5*
1,1,$1+$1,$6,$7*
1,1,$1+$1,$8,$9*
0 Add four rect primitives between the rounded corners*
20,1,$1+$1,$2,$3,$4,$5,0*
20,1,$1+$1,$4,$5,$6,$7,0*
20,1,$1+$1,$6,$7,$8,$9,0*
20,1,$1+$1,$8,$9,$2,$3,0*%
G04 Aperture macros list end*
%ADD10C,0.175000*%
%ADD11R,1.700000X1.700000*%
%ADD12C,1.700000*%
%ADD13RoundRect,0.250000X0.159099X-0.512652X0.512652X-0.159099X-0.159099X0.512652X-0.512652X0.159099X0*%
%ADD14RoundRect,0.250000X-0.159099X0.512652X-0.512652X0.159099X0.159099X-0.512652X0.512652X-0.159099X0*%
%ADD15RoundRect,0.200000X0.275000X-0.200000X0.275000X0.200000X-0.275000X0.200000X-0.275000X-0.200000X0*%
%ADD16RoundRect,0.225000X0.250000X-0.225000X0.250000X0.225000X-0.250000X0.225000X-0.250000X-0.225000X0*%
%ADD17RoundRect,0.225000X-0.335876X-0.017678X-0.017678X-0.335876X0.335876X0.017678X0.017678X0.335876X0*%
%ADD18RoundRect,0.225000X0.225000X0.250000X-0.225000X0.250000X-0.225000X-0.250000X0.225000X-0.250000X0*%
%ADD19R,0.812800X0.254000*%
%ADD20R,0.254000X0.812800*%
%ADD21R,2.209800X2.209800*%
%ADD22R,0.254000X0.254000*%
%ADD23RoundRect,0.250000X-0.512652X-0.159099X-0.159099X-0.512652X0.512652X0.159099X0.159099X0.512652X0*%
%ADD24RoundRect,0.150000X0.256326X0.468458X-0.468458X-0.256326X-0.256326X-0.468458X0.468458X0.256326X0*%
%ADD25RoundRect,0.250000X0.475000X-0.250000X0.475000X0.250000X-0.475000X0.250000X-0.475000X-0.250000X0*%
%ADD26RoundRect,0.225000X-0.017678X0.335876X-0.335876X0.017678X0.017678X-0.335876X0.335876X-0.017678X0*%
G04 APERTURE END LIST*
%TO.C,Y3*%
D10*
X146527500Y-81250000D02*
G75*
G02*
X146352500Y-81250000I-87500J0D01*
G01*
X146352500Y-81250000D02*
G75*
G02*
X146527500Y-81250000I87500J0D01*
G01*
X146527500Y-82250000D02*
G75*
G02*
X146352500Y-82250000I-87500J0D01*
G01*
X146352500Y-82250000D02*
G75*
G02*
X146527500Y-82250000I87500J0D01*
G01*
X146937500Y-81250000D02*
G75*
G02*
X146762500Y-81250000I-87500J0D01*
G01*
X146762500Y-81250000D02*
G75*
G02*
X146937500Y-81250000I87500J0D01*
G01*
X146937500Y-82250000D02*
G75*
G02*
X146762500Y-82250000I-87500J0D01*
G01*
X146762500Y-82250000D02*
G75*
G02*
X146937500Y-82250000I87500J0D01*
G01*
%TO.C,Y2*%
X143677500Y-81250000D02*
G75*
G02*
X143502500Y-81250000I-87500J0D01*
G01*
X143502500Y-81250000D02*
G75*
G02*
X143677500Y-81250000I87500J0D01*
G01*
X143677500Y-82250000D02*
G75*
G02*
X143502500Y-82250000I-87500J0D01*
G01*
X143502500Y-82250000D02*
G75*
G02*
X143677500Y-82250000I87500J0D01*
G01*
X144087500Y-81250000D02*
G75*
G02*
X143912500Y-81250000I-87500J0D01*
G01*
X143912500Y-81250000D02*
G75*
G02*
X144087500Y-81250000I87500J0D01*
G01*
X144087500Y-82250000D02*
G75*
G02*
X143912500Y-82250000I-87500J0D01*
G01*
X143912500Y-82250000D02*
G75*
G02*
X144087500Y-82250000I87500J0D01*
G01*
%TD*%
D11*
%TO.C,J1*%
X137209300Y-61111443D03*
D12*
X137209300Y-63651443D03*
X137209300Y-66191443D03*
X137209300Y-68731443D03*
X137209300Y-71271443D03*
X137209300Y-73811443D03*
X137209300Y-76351443D03*
X137209300Y-78891443D03*
X137209300Y-81431443D03*
X137209300Y-83971443D03*
%TD*%
D13*
%TO.C,C11*%
X145028249Y-63671751D03*
X146371751Y-62328249D03*
%TD*%
D14*
%TO.C,C8*%
X145871751Y-68028249D03*
X144528249Y-69371751D03*
%TD*%
D15*
%TO.C,R2*%
X141650000Y-82825000D03*
X141650000Y-81175000D03*
%TD*%
D16*
%TO.C,C5*%
X148200000Y-76025000D03*
X148200000Y-74475000D03*
%TD*%
%TO.C,C1*%
X141750000Y-77225000D03*
X141750000Y-75675000D03*
%TD*%
D17*
%TO.C,C3*%
X140001992Y-70601992D03*
X141098008Y-71698008D03*
%TD*%
D18*
%TO.C,C9*%
X144025000Y-84250000D03*
X142475000Y-84250000D03*
%TD*%
D19*
%TO.C,U1*%
X142856900Y-71949685D03*
X142856900Y-72449811D03*
X142856900Y-72949937D03*
X142856900Y-73450063D03*
X142856900Y-73950189D03*
X142856900Y-74450315D03*
D20*
X143549685Y-75143100D03*
X144049811Y-75143100D03*
X144549937Y-75143100D03*
X145050063Y-75143100D03*
X145550189Y-75143100D03*
X146050315Y-75143100D03*
D19*
X146743100Y-74450315D03*
X146743100Y-73950189D03*
X146743100Y-73450063D03*
X146743100Y-72949937D03*
X146743100Y-72449811D03*
X146743100Y-71949685D03*
D20*
X146050315Y-71256900D03*
X145550189Y-71256900D03*
X145050063Y-71256900D03*
X144549937Y-71256900D03*
X144049811Y-71256900D03*
X143549685Y-71256900D03*
D21*
X144800000Y-73200000D03*
D22*
X143074000Y-71473943D03*
X143074000Y-74926057D03*
X146526000Y-74926057D03*
X146526000Y-71473943D03*
%TD*%
D11*
%TO.C,J2*%
X152449300Y-61111443D03*
D12*
X152449300Y-63651443D03*
X152449300Y-66191443D03*
X152449300Y-68731443D03*
X152449300Y-71271443D03*
X152449300Y-73811443D03*
X152449300Y-76351443D03*
X152449300Y-78891443D03*
X152449300Y-81431443D03*
X152449300Y-83971443D03*
%TD*%
D23*
%TO.C,C4*%
X140628249Y-68678249D03*
X141971751Y-70021751D03*
%TD*%
D18*
%TO.C,C10*%
X147025000Y-84250000D03*
X145475000Y-84250000D03*
%TD*%
D15*
%TO.C,R1*%
X148800000Y-82275000D03*
X148800000Y-80625000D03*
%TD*%
D13*
%TO.C,C13*%
X142778249Y-66221751D03*
X144121751Y-64878249D03*
%TD*%
D24*
%TO.C,U2*%
X143226085Y-63317417D03*
X142554334Y-62645666D03*
X141882583Y-61973915D03*
X140273915Y-63582583D03*
X141617417Y-64926085D03*
%TD*%
D16*
%TO.C,C12*%
X145400000Y-78975000D03*
X145400000Y-77425000D03*
%TD*%
D25*
%TO.C,C2*%
X140000000Y-77550000D03*
X140000000Y-75650000D03*
%TD*%
D17*
%TO.C,C6*%
X141851992Y-67451992D03*
X142948008Y-68548008D03*
%TD*%
D26*
%TO.C,C7*%
X145048008Y-66401992D03*
X143951992Y-67498008D03*
%TD*%
M02*
