M48
; DRILL file KiCad 10.0.0 date 2026-04-03T15:41:47
; FORMAT={-:-/ absolute / metric / decimal}
; #@! TF.CreationDate,2026-04-03T15:41:47-04:00
; #@! TF.GenerationSoftware,Kicad,Pcbnew,10.0.0
; #@! TF.FileFunction,MixedPlating,1,4
FMAT,2
METRIC
; #@! TA.AperFunction,Plated,PTH,ViaDrill
T1C0.300
; #@! TA.AperFunction,Plated,PTH,ComponentDrill
T2C1.000
%
G90
G05
T1
X138.65Y-64.35
X138.7Y-63.15
X138.7Y-79.7
X138.8Y-75.1
X139.15Y-78.6
X139.4Y-69.85
X139.5Y-83.65
X139.6Y-60.6
X139.6Y-62.15
X139.8Y-79.7
X139.9Y-74.5
X139.95Y-68.0
X140.1Y-65.0
X140.1Y-66.45
X140.1Y-78.55
X140.5Y-61.25
X140.7Y-83.1
X141.2Y-66.75
X141.25Y-69.3
X141.3Y-74.5
X141.55Y-60.5
X141.65Y-84.25
X141.7Y-63.5
X141.7Y-78.15
X142.5Y-81.425
X142.5Y-83.45
X142.655Y-77.89
X142.775Y-70.875
X142.8Y-75.3
X142.9Y-77.0
X142.95Y-67.45
X143.05Y-79.85
X143.35Y-61.9
X143.5Y-65.55
X143.65Y-60.45
X143.9Y-80.75
X144.0Y-83.4
X144.1Y-72.5
X144.1Y-73.2
X144.1Y-73.9
X144.1Y-79.4
X144.8Y-72.5
X144.8Y-73.2
X144.8Y-73.9
X144.85Y-62.0
X145.05Y-67.3
X145.25Y-68.65
X145.3Y-65.104
X145.45Y-83.5
X145.5Y-72.5
X145.5Y-73.2
X145.5Y-73.9
X145.65Y-65.85
X145.7Y-63.0
X146.4Y-60.5
X146.6Y-67.3
X146.7Y-64.55
X146.7Y-78.8
X146.75Y-80.75
X147.15Y-75.55
X147.25Y-63.1
X147.3Y-66.4
X147.45Y-62.2
X147.7Y-71.0
X147.7Y-73.45
X147.8Y-64.05
X147.8Y-72.25
X147.85Y-84.25
X148.15Y-65.65
X148.2Y-76.95
X148.4Y-68.95
X148.9Y-79.05
X148.95Y-64.95
X148.95Y-67.5
X149.0Y-62.2
X149.15Y-72.65
X149.15Y-76.05
X149.2Y-84.6
X149.3Y-63.1
X149.6Y-68.95
X149.7Y-82.25
X149.75Y-75.15
X149.8Y-64.05
X150.0Y-66.8
X150.55Y-62.2
X150.55Y-63.2
X150.55Y-71.55
X150.55Y-73.05
X150.6Y-74.7
X150.65Y-60.45
X150.7Y-76.0
X150.7Y-77.4
X150.8Y-65.65
X150.8Y-79.15
X150.95Y-80.7
X150.95Y-83.95
T2
X137.209Y-61.111
X137.209Y-63.651
X137.209Y-66.191
X137.209Y-68.731
X137.209Y-71.271
X137.209Y-73.811
X137.209Y-76.351
X137.209Y-78.891
X137.209Y-81.431
X137.209Y-83.971
X152.449Y-61.111
X152.449Y-63.651
X152.449Y-66.191
X152.449Y-68.731
X152.449Y-71.271
X152.449Y-73.811
X152.449Y-76.351
X152.449Y-78.891
X152.449Y-81.431
X152.449Y-83.971
M30
