%TF.GenerationSoftware,KiCad,Pcbnew,9.0.7*%
%TF.CreationDate,2026-03-16T15:34:49-04:00*%
%TF.ProjectId,tad5212-board,74616435-3231-4322-9d62-6f6172642e6b,rev?*%
%TF.SameCoordinates,Original*%
%TF.FileFunction,Legend,Bot*%
%TF.FilePolarity,Positive*%
%FSLAX46Y46*%
G04 Gerber Fmt 4.6, Leading zero omitted, Abs format (unit mm)*
G04 Created by KiCad (PCBNEW 9.0.7) date 2026-03-16 15:34:49*
%MOMM*%
%LPD*%
G01*
G04 APERTURE LIST*
%ADD10C,0.152400*%
%ADD11C,0.101600*%
%ADD12R,1.700000X1.700000*%
%ADD13C,1.700000*%
G04 APERTURE END LIST*
D10*
X141622327Y-68450737D02*
X141312689Y-68450737D01*
X141506213Y-68992603D02*
X141506213Y-68295918D01*
X141506213Y-68295918D02*
X141467508Y-68218508D01*
X141467508Y-68218508D02*
X141390098Y-68179803D01*
X141390098Y-68179803D02*
X141312689Y-68179803D01*
X141080460Y-68953899D02*
X141003051Y-68992603D01*
X141003051Y-68992603D02*
X140848232Y-68992603D01*
X140848232Y-68992603D02*
X140770822Y-68953899D01*
X140770822Y-68953899D02*
X140732118Y-68876489D01*
X140732118Y-68876489D02*
X140732118Y-68837784D01*
X140732118Y-68837784D02*
X140770822Y-68760375D01*
X140770822Y-68760375D02*
X140848232Y-68721670D01*
X140848232Y-68721670D02*
X140964346Y-68721670D01*
X140964346Y-68721670D02*
X141041756Y-68682965D01*
X141041756Y-68682965D02*
X141080460Y-68605556D01*
X141080460Y-68605556D02*
X141080460Y-68566851D01*
X141080460Y-68566851D02*
X141041756Y-68489441D01*
X141041756Y-68489441D02*
X140964346Y-68450737D01*
X140964346Y-68450737D02*
X140848232Y-68450737D01*
X140848232Y-68450737D02*
X140770822Y-68489441D01*
X140461184Y-68450737D02*
X140267660Y-68992603D01*
X140074137Y-68450737D02*
X140267660Y-68992603D01*
X140267660Y-68992603D02*
X140345070Y-69186127D01*
X140345070Y-69186127D02*
X140383775Y-69224832D01*
X140383775Y-69224832D02*
X140461184Y-69263537D01*
X139764499Y-68450737D02*
X139764499Y-68992603D01*
X139764499Y-68528146D02*
X139725794Y-68489441D01*
X139725794Y-68489441D02*
X139648384Y-68450737D01*
X139648384Y-68450737D02*
X139532270Y-68450737D01*
X139532270Y-68450737D02*
X139454861Y-68489441D01*
X139454861Y-68489441D02*
X139416156Y-68566851D01*
X139416156Y-68566851D02*
X139416156Y-68992603D01*
X138680766Y-68953899D02*
X138758175Y-68992603D01*
X138758175Y-68992603D02*
X138912994Y-68992603D01*
X138912994Y-68992603D02*
X138990404Y-68953899D01*
X138990404Y-68953899D02*
X139029109Y-68915194D01*
X139029109Y-68915194D02*
X139067813Y-68837784D01*
X139067813Y-68837784D02*
X139067813Y-68605556D01*
X139067813Y-68605556D02*
X139029109Y-68528146D01*
X139029109Y-68528146D02*
X138990404Y-68489441D01*
X138990404Y-68489441D02*
X138912994Y-68450737D01*
X138912994Y-68450737D02*
X138758175Y-68450737D01*
X138758175Y-68450737D02*
X138680766Y-68489441D01*
X140244917Y-79053899D02*
X140167508Y-79092603D01*
X140167508Y-79092603D02*
X140012689Y-79092603D01*
X140012689Y-79092603D02*
X139935279Y-79053899D01*
X139935279Y-79053899D02*
X139896575Y-78976489D01*
X139896575Y-78976489D02*
X139896575Y-78937784D01*
X139896575Y-78937784D02*
X139935279Y-78860375D01*
X139935279Y-78860375D02*
X140012689Y-78821670D01*
X140012689Y-78821670D02*
X140128803Y-78821670D01*
X140128803Y-78821670D02*
X140206213Y-78782965D01*
X140206213Y-78782965D02*
X140244917Y-78705556D01*
X140244917Y-78705556D02*
X140244917Y-78666851D01*
X140244917Y-78666851D02*
X140206213Y-78589441D01*
X140206213Y-78589441D02*
X140128803Y-78550737D01*
X140128803Y-78550737D02*
X140012689Y-78550737D01*
X140012689Y-78550737D02*
X139935279Y-78589441D01*
X139199889Y-79053899D02*
X139277298Y-79092603D01*
X139277298Y-79092603D02*
X139432117Y-79092603D01*
X139432117Y-79092603D02*
X139509527Y-79053899D01*
X139509527Y-79053899D02*
X139548232Y-79015194D01*
X139548232Y-79015194D02*
X139586936Y-78937784D01*
X139586936Y-78937784D02*
X139586936Y-78705556D01*
X139586936Y-78705556D02*
X139548232Y-78628146D01*
X139548232Y-78628146D02*
X139509527Y-78589441D01*
X139509527Y-78589441D02*
X139432117Y-78550737D01*
X139432117Y-78550737D02*
X139277298Y-78550737D01*
X139277298Y-78550737D02*
X139199889Y-78589441D01*
X138735431Y-79092603D02*
X138812841Y-79053899D01*
X138812841Y-79053899D02*
X138851546Y-78976489D01*
X138851546Y-78976489D02*
X138851546Y-78279803D01*
X150590098Y-66592603D02*
X150667508Y-66553899D01*
X150667508Y-66553899D02*
X150706213Y-66515194D01*
X150706213Y-66515194D02*
X150744917Y-66437784D01*
X150744917Y-66437784D02*
X150744917Y-66205556D01*
X150744917Y-66205556D02*
X150706213Y-66128146D01*
X150706213Y-66128146D02*
X150667508Y-66089441D01*
X150667508Y-66089441D02*
X150590098Y-66050737D01*
X150590098Y-66050737D02*
X150473984Y-66050737D01*
X150473984Y-66050737D02*
X150396575Y-66089441D01*
X150396575Y-66089441D02*
X150357870Y-66128146D01*
X150357870Y-66128146D02*
X150319165Y-66205556D01*
X150319165Y-66205556D02*
X150319165Y-66437784D01*
X150319165Y-66437784D02*
X150357870Y-66515194D01*
X150357870Y-66515194D02*
X150396575Y-66553899D01*
X150396575Y-66553899D02*
X150473984Y-66592603D01*
X150473984Y-66592603D02*
X150590098Y-66592603D01*
X149622480Y-66050737D02*
X149622480Y-66592603D01*
X149970823Y-66050737D02*
X149970823Y-66476489D01*
X149970823Y-66476489D02*
X149932118Y-66553899D01*
X149932118Y-66553899D02*
X149854708Y-66592603D01*
X149854708Y-66592603D02*
X149738594Y-66592603D01*
X149738594Y-66592603D02*
X149661185Y-66553899D01*
X149661185Y-66553899D02*
X149622480Y-66515194D01*
X149351547Y-66050737D02*
X149041909Y-66050737D01*
X149235433Y-65779803D02*
X149235433Y-66476489D01*
X149235433Y-66476489D02*
X149196728Y-66553899D01*
X149196728Y-66553899D02*
X149119318Y-66592603D01*
X149119318Y-66592603D02*
X149041909Y-66592603D01*
X148345223Y-66592603D02*
X148809680Y-66592603D01*
X148577452Y-66592603D02*
X148577452Y-65779803D01*
X148577452Y-65779803D02*
X148654861Y-65895918D01*
X148654861Y-65895918D02*
X148732271Y-65973327D01*
X148732271Y-65973327D02*
X148809680Y-66012032D01*
X147996881Y-66050737D02*
X147996881Y-66863537D01*
X147996881Y-66089441D02*
X147919471Y-66050737D01*
X147919471Y-66050737D02*
X147764652Y-66050737D01*
X147764652Y-66050737D02*
X147687243Y-66089441D01*
X147687243Y-66089441D02*
X147648538Y-66128146D01*
X147648538Y-66128146D02*
X147609833Y-66205556D01*
X147609833Y-66205556D02*
X147609833Y-66437784D01*
X147609833Y-66437784D02*
X147648538Y-66515194D01*
X147648538Y-66515194D02*
X147687243Y-66553899D01*
X147687243Y-66553899D02*
X147764652Y-66592603D01*
X147764652Y-66592603D02*
X147919471Y-66592603D01*
X147919471Y-66592603D02*
X147996881Y-66553899D01*
X141157870Y-81150737D02*
X141157870Y-81808718D01*
X141157870Y-81808718D02*
X141196575Y-81886127D01*
X141196575Y-81886127D02*
X141235279Y-81924832D01*
X141235279Y-81924832D02*
X141312689Y-81963537D01*
X141312689Y-81963537D02*
X141428803Y-81963537D01*
X141428803Y-81963537D02*
X141506213Y-81924832D01*
X141157870Y-81653899D02*
X141235279Y-81692603D01*
X141235279Y-81692603D02*
X141390098Y-81692603D01*
X141390098Y-81692603D02*
X141467508Y-81653899D01*
X141467508Y-81653899D02*
X141506213Y-81615194D01*
X141506213Y-81615194D02*
X141544917Y-81537784D01*
X141544917Y-81537784D02*
X141544917Y-81305556D01*
X141544917Y-81305556D02*
X141506213Y-81228146D01*
X141506213Y-81228146D02*
X141467508Y-81189441D01*
X141467508Y-81189441D02*
X141390098Y-81150737D01*
X141390098Y-81150737D02*
X141235279Y-81150737D01*
X141235279Y-81150737D02*
X141157870Y-81189441D01*
X140770823Y-81150737D02*
X140770823Y-81963537D01*
X140770823Y-81189441D02*
X140693413Y-81150737D01*
X140693413Y-81150737D02*
X140538594Y-81150737D01*
X140538594Y-81150737D02*
X140461185Y-81189441D01*
X140461185Y-81189441D02*
X140422480Y-81228146D01*
X140422480Y-81228146D02*
X140383775Y-81305556D01*
X140383775Y-81305556D02*
X140383775Y-81537784D01*
X140383775Y-81537784D02*
X140422480Y-81615194D01*
X140422480Y-81615194D02*
X140461185Y-81653899D01*
X140461185Y-81653899D02*
X140538594Y-81692603D01*
X140538594Y-81692603D02*
X140693413Y-81692603D01*
X140693413Y-81692603D02*
X140770823Y-81653899D01*
X140035433Y-81692603D02*
X140035433Y-81150737D01*
X140035433Y-80879803D02*
X140074137Y-80918508D01*
X140074137Y-80918508D02*
X140035433Y-80957213D01*
X140035433Y-80957213D02*
X139996728Y-80918508D01*
X139996728Y-80918508D02*
X140035433Y-80879803D01*
X140035433Y-80879803D02*
X140035433Y-80957213D01*
X139532270Y-81692603D02*
X139609680Y-81653899D01*
X139609680Y-81653899D02*
X139648385Y-81615194D01*
X139648385Y-81615194D02*
X139687089Y-81537784D01*
X139687089Y-81537784D02*
X139687089Y-81305556D01*
X139687089Y-81305556D02*
X139648385Y-81228146D01*
X139648385Y-81228146D02*
X139609680Y-81189441D01*
X139609680Y-81189441D02*
X139532270Y-81150737D01*
X139532270Y-81150737D02*
X139416156Y-81150737D01*
X139416156Y-81150737D02*
X139338747Y-81189441D01*
X139338747Y-81189441D02*
X139300042Y-81228146D01*
X139300042Y-81228146D02*
X139261337Y-81305556D01*
X139261337Y-81305556D02*
X139261337Y-81537784D01*
X139261337Y-81537784D02*
X139300042Y-81615194D01*
X139300042Y-81615194D02*
X139338747Y-81653899D01*
X139338747Y-81653899D02*
X139416156Y-81692603D01*
X139416156Y-81692603D02*
X139532270Y-81692603D01*
X138487242Y-81692603D02*
X138951699Y-81692603D01*
X138719471Y-81692603D02*
X138719471Y-80879803D01*
X138719471Y-80879803D02*
X138796880Y-80995918D01*
X138796880Y-80995918D02*
X138874290Y-81073327D01*
X138874290Y-81073327D02*
X138951699Y-81112032D01*
X141083622Y-60579803D02*
X140580460Y-60579803D01*
X140580460Y-60579803D02*
X140851394Y-60889441D01*
X140851394Y-60889441D02*
X140735279Y-60889441D01*
X140735279Y-60889441D02*
X140657870Y-60928146D01*
X140657870Y-60928146D02*
X140619165Y-60966851D01*
X140619165Y-60966851D02*
X140580460Y-61044260D01*
X140580460Y-61044260D02*
X140580460Y-61237784D01*
X140580460Y-61237784D02*
X140619165Y-61315194D01*
X140619165Y-61315194D02*
X140657870Y-61353899D01*
X140657870Y-61353899D02*
X140735279Y-61392603D01*
X140735279Y-61392603D02*
X140967508Y-61392603D01*
X140967508Y-61392603D02*
X141044917Y-61353899D01*
X141044917Y-61353899D02*
X141083622Y-61315194D01*
X140232118Y-61315194D02*
X140193413Y-61353899D01*
X140193413Y-61353899D02*
X140232118Y-61392603D01*
X140232118Y-61392603D02*
X140270822Y-61353899D01*
X140270822Y-61353899D02*
X140232118Y-61315194D01*
X140232118Y-61315194D02*
X140232118Y-61392603D01*
X139922479Y-60579803D02*
X139419317Y-60579803D01*
X139419317Y-60579803D02*
X139690251Y-60889441D01*
X139690251Y-60889441D02*
X139574136Y-60889441D01*
X139574136Y-60889441D02*
X139496727Y-60928146D01*
X139496727Y-60928146D02*
X139458022Y-60966851D01*
X139458022Y-60966851D02*
X139419317Y-61044260D01*
X139419317Y-61044260D02*
X139419317Y-61237784D01*
X139419317Y-61237784D02*
X139458022Y-61315194D01*
X139458022Y-61315194D02*
X139496727Y-61353899D01*
X139496727Y-61353899D02*
X139574136Y-61392603D01*
X139574136Y-61392603D02*
X139806365Y-61392603D01*
X139806365Y-61392603D02*
X139883774Y-61353899D01*
X139883774Y-61353899D02*
X139922479Y-61315194D01*
X139148384Y-60850737D02*
X138954860Y-61392603D01*
X138954860Y-61392603D02*
X138761337Y-60850737D01*
X150590098Y-68992603D02*
X150667508Y-68953899D01*
X150667508Y-68953899D02*
X150706213Y-68915194D01*
X150706213Y-68915194D02*
X150744917Y-68837784D01*
X150744917Y-68837784D02*
X150744917Y-68605556D01*
X150744917Y-68605556D02*
X150706213Y-68528146D01*
X150706213Y-68528146D02*
X150667508Y-68489441D01*
X150667508Y-68489441D02*
X150590098Y-68450737D01*
X150590098Y-68450737D02*
X150473984Y-68450737D01*
X150473984Y-68450737D02*
X150396575Y-68489441D01*
X150396575Y-68489441D02*
X150357870Y-68528146D01*
X150357870Y-68528146D02*
X150319165Y-68605556D01*
X150319165Y-68605556D02*
X150319165Y-68837784D01*
X150319165Y-68837784D02*
X150357870Y-68915194D01*
X150357870Y-68915194D02*
X150396575Y-68953899D01*
X150396575Y-68953899D02*
X150473984Y-68992603D01*
X150473984Y-68992603D02*
X150590098Y-68992603D01*
X149622480Y-68450737D02*
X149622480Y-68992603D01*
X149970823Y-68450737D02*
X149970823Y-68876489D01*
X149970823Y-68876489D02*
X149932118Y-68953899D01*
X149932118Y-68953899D02*
X149854708Y-68992603D01*
X149854708Y-68992603D02*
X149738594Y-68992603D01*
X149738594Y-68992603D02*
X149661185Y-68953899D01*
X149661185Y-68953899D02*
X149622480Y-68915194D01*
X149351547Y-68450737D02*
X149041909Y-68450737D01*
X149235433Y-68179803D02*
X149235433Y-68876489D01*
X149235433Y-68876489D02*
X149196728Y-68953899D01*
X149196728Y-68953899D02*
X149119318Y-68992603D01*
X149119318Y-68992603D02*
X149041909Y-68992603D01*
X148345223Y-68992603D02*
X148809680Y-68992603D01*
X148577452Y-68992603D02*
X148577452Y-68179803D01*
X148577452Y-68179803D02*
X148654861Y-68295918D01*
X148654861Y-68295918D02*
X148732271Y-68373327D01*
X148732271Y-68373327D02*
X148809680Y-68412032D01*
X147996881Y-68992603D02*
X147996881Y-68450737D01*
X147996881Y-68528146D02*
X147958176Y-68489441D01*
X147958176Y-68489441D02*
X147880766Y-68450737D01*
X147880766Y-68450737D02*
X147764652Y-68450737D01*
X147764652Y-68450737D02*
X147687243Y-68489441D01*
X147687243Y-68489441D02*
X147648538Y-68566851D01*
X147648538Y-68566851D02*
X147648538Y-68992603D01*
X147648538Y-68566851D02*
X147609833Y-68489441D01*
X147609833Y-68489441D02*
X147532424Y-68450737D01*
X147532424Y-68450737D02*
X147416309Y-68450737D01*
X147416309Y-68450737D02*
X147338900Y-68489441D01*
X147338900Y-68489441D02*
X147300195Y-68566851D01*
X147300195Y-68566851D02*
X147300195Y-68992603D01*
X139857870Y-74092603D02*
X139857870Y-73279803D01*
X139857870Y-74053899D02*
X139935279Y-74092603D01*
X139935279Y-74092603D02*
X140090098Y-74092603D01*
X140090098Y-74092603D02*
X140167508Y-74053899D01*
X140167508Y-74053899D02*
X140206213Y-74015194D01*
X140206213Y-74015194D02*
X140244917Y-73937784D01*
X140244917Y-73937784D02*
X140244917Y-73705556D01*
X140244917Y-73705556D02*
X140206213Y-73628146D01*
X140206213Y-73628146D02*
X140167508Y-73589441D01*
X140167508Y-73589441D02*
X140090098Y-73550737D01*
X140090098Y-73550737D02*
X139935279Y-73550737D01*
X139935279Y-73550737D02*
X139857870Y-73589441D01*
X139470823Y-74092603D02*
X139470823Y-73550737D01*
X139470823Y-73279803D02*
X139509527Y-73318508D01*
X139509527Y-73318508D02*
X139470823Y-73357213D01*
X139470823Y-73357213D02*
X139432118Y-73318508D01*
X139432118Y-73318508D02*
X139470823Y-73279803D01*
X139470823Y-73279803D02*
X139470823Y-73357213D01*
X139083775Y-73550737D02*
X139083775Y-74092603D01*
X139083775Y-73628146D02*
X139045070Y-73589441D01*
X139045070Y-73589441D02*
X138967660Y-73550737D01*
X138967660Y-73550737D02*
X138851546Y-73550737D01*
X138851546Y-73550737D02*
X138774137Y-73589441D01*
X138774137Y-73589441D02*
X138735432Y-73666851D01*
X138735432Y-73666851D02*
X138735432Y-74092603D01*
X140544917Y-76553899D02*
X140467508Y-76592603D01*
X140467508Y-76592603D02*
X140312689Y-76592603D01*
X140312689Y-76592603D02*
X140235279Y-76553899D01*
X140235279Y-76553899D02*
X140196575Y-76476489D01*
X140196575Y-76476489D02*
X140196575Y-76437784D01*
X140196575Y-76437784D02*
X140235279Y-76360375D01*
X140235279Y-76360375D02*
X140312689Y-76321670D01*
X140312689Y-76321670D02*
X140428803Y-76321670D01*
X140428803Y-76321670D02*
X140506213Y-76282965D01*
X140506213Y-76282965D02*
X140544917Y-76205556D01*
X140544917Y-76205556D02*
X140544917Y-76166851D01*
X140544917Y-76166851D02*
X140506213Y-76089441D01*
X140506213Y-76089441D02*
X140428803Y-76050737D01*
X140428803Y-76050737D02*
X140312689Y-76050737D01*
X140312689Y-76050737D02*
X140235279Y-76089441D01*
X139499889Y-76592603D02*
X139499889Y-75779803D01*
X139499889Y-76553899D02*
X139577298Y-76592603D01*
X139577298Y-76592603D02*
X139732117Y-76592603D01*
X139732117Y-76592603D02*
X139809527Y-76553899D01*
X139809527Y-76553899D02*
X139848232Y-76515194D01*
X139848232Y-76515194D02*
X139886936Y-76437784D01*
X139886936Y-76437784D02*
X139886936Y-76205556D01*
X139886936Y-76205556D02*
X139848232Y-76128146D01*
X139848232Y-76128146D02*
X139809527Y-76089441D01*
X139809527Y-76089441D02*
X139732117Y-76050737D01*
X139732117Y-76050737D02*
X139577298Y-76050737D01*
X139577298Y-76050737D02*
X139499889Y-76089441D01*
X138764499Y-76592603D02*
X138764499Y-76166851D01*
X138764499Y-76166851D02*
X138803204Y-76089441D01*
X138803204Y-76089441D02*
X138880613Y-76050737D01*
X138880613Y-76050737D02*
X139035432Y-76050737D01*
X139035432Y-76050737D02*
X139112842Y-76089441D01*
X138764499Y-76553899D02*
X138841908Y-76592603D01*
X138841908Y-76592603D02*
X139035432Y-76592603D01*
X139035432Y-76592603D02*
X139112842Y-76553899D01*
X139112842Y-76553899D02*
X139151546Y-76476489D01*
X139151546Y-76476489D02*
X139151546Y-76399079D01*
X139151546Y-76399079D02*
X139112842Y-76321670D01*
X139112842Y-76321670D02*
X139035432Y-76282965D01*
X139035432Y-76282965D02*
X138841908Y-76282965D01*
X138841908Y-76282965D02*
X138764499Y-76244260D01*
X140906213Y-66392603D02*
X140906213Y-65579803D01*
X140906213Y-65889441D02*
X140828803Y-65850737D01*
X140828803Y-65850737D02*
X140673984Y-65850737D01*
X140673984Y-65850737D02*
X140596575Y-65889441D01*
X140596575Y-65889441D02*
X140557870Y-65928146D01*
X140557870Y-65928146D02*
X140519165Y-66005556D01*
X140519165Y-66005556D02*
X140519165Y-66237784D01*
X140519165Y-66237784D02*
X140557870Y-66315194D01*
X140557870Y-66315194D02*
X140596575Y-66353899D01*
X140596575Y-66353899D02*
X140673984Y-66392603D01*
X140673984Y-66392603D02*
X140828803Y-66392603D01*
X140828803Y-66392603D02*
X140906213Y-66353899D01*
X139822480Y-66353899D02*
X139899889Y-66392603D01*
X139899889Y-66392603D02*
X140054708Y-66392603D01*
X140054708Y-66392603D02*
X140132118Y-66353899D01*
X140132118Y-66353899D02*
X140170823Y-66315194D01*
X140170823Y-66315194D02*
X140209527Y-66237784D01*
X140209527Y-66237784D02*
X140209527Y-66005556D01*
X140209527Y-66005556D02*
X140170823Y-65928146D01*
X140170823Y-65928146D02*
X140132118Y-65889441D01*
X140132118Y-65889441D02*
X140054708Y-65850737D01*
X140054708Y-65850737D02*
X139899889Y-65850737D01*
X139899889Y-65850737D02*
X139822480Y-65889441D01*
X139358022Y-66392603D02*
X139435432Y-66353899D01*
X139435432Y-66353899D02*
X139474137Y-66276489D01*
X139474137Y-66276489D02*
X139474137Y-65579803D01*
X139048385Y-66392603D02*
X139048385Y-65579803D01*
X138970975Y-66082965D02*
X138738747Y-66392603D01*
X138738747Y-65850737D02*
X139048385Y-66160375D01*
X150590098Y-63992603D02*
X150667508Y-63953899D01*
X150667508Y-63953899D02*
X150706213Y-63915194D01*
X150706213Y-63915194D02*
X150744917Y-63837784D01*
X150744917Y-63837784D02*
X150744917Y-63605556D01*
X150744917Y-63605556D02*
X150706213Y-63528146D01*
X150706213Y-63528146D02*
X150667508Y-63489441D01*
X150667508Y-63489441D02*
X150590098Y-63450737D01*
X150590098Y-63450737D02*
X150473984Y-63450737D01*
X150473984Y-63450737D02*
X150396575Y-63489441D01*
X150396575Y-63489441D02*
X150357870Y-63528146D01*
X150357870Y-63528146D02*
X150319165Y-63605556D01*
X150319165Y-63605556D02*
X150319165Y-63837784D01*
X150319165Y-63837784D02*
X150357870Y-63915194D01*
X150357870Y-63915194D02*
X150396575Y-63953899D01*
X150396575Y-63953899D02*
X150473984Y-63992603D01*
X150473984Y-63992603D02*
X150590098Y-63992603D01*
X149622480Y-63450737D02*
X149622480Y-63992603D01*
X149970823Y-63450737D02*
X149970823Y-63876489D01*
X149970823Y-63876489D02*
X149932118Y-63953899D01*
X149932118Y-63953899D02*
X149854708Y-63992603D01*
X149854708Y-63992603D02*
X149738594Y-63992603D01*
X149738594Y-63992603D02*
X149661185Y-63953899D01*
X149661185Y-63953899D02*
X149622480Y-63915194D01*
X149351547Y-63450737D02*
X149041909Y-63450737D01*
X149235433Y-63179803D02*
X149235433Y-63876489D01*
X149235433Y-63876489D02*
X149196728Y-63953899D01*
X149196728Y-63953899D02*
X149119318Y-63992603D01*
X149119318Y-63992603D02*
X149041909Y-63992603D01*
X148809680Y-63257213D02*
X148770976Y-63218508D01*
X148770976Y-63218508D02*
X148693566Y-63179803D01*
X148693566Y-63179803D02*
X148500042Y-63179803D01*
X148500042Y-63179803D02*
X148422633Y-63218508D01*
X148422633Y-63218508D02*
X148383928Y-63257213D01*
X148383928Y-63257213D02*
X148345223Y-63334622D01*
X148345223Y-63334622D02*
X148345223Y-63412032D01*
X148345223Y-63412032D02*
X148383928Y-63528146D01*
X148383928Y-63528146D02*
X148848385Y-63992603D01*
X148848385Y-63992603D02*
X148345223Y-63992603D01*
X147996881Y-63450737D02*
X147996881Y-64263537D01*
X147996881Y-63489441D02*
X147919471Y-63450737D01*
X147919471Y-63450737D02*
X147764652Y-63450737D01*
X147764652Y-63450737D02*
X147687243Y-63489441D01*
X147687243Y-63489441D02*
X147648538Y-63528146D01*
X147648538Y-63528146D02*
X147609833Y-63605556D01*
X147609833Y-63605556D02*
X147609833Y-63837784D01*
X147609833Y-63837784D02*
X147648538Y-63915194D01*
X147648538Y-63915194D02*
X147687243Y-63953899D01*
X147687243Y-63953899D02*
X147764652Y-63992603D01*
X147764652Y-63992603D02*
X147919471Y-63992603D01*
X147919471Y-63992603D02*
X147996881Y-63953899D01*
X150357870Y-81250737D02*
X150357870Y-81908718D01*
X150357870Y-81908718D02*
X150396575Y-81986127D01*
X150396575Y-81986127D02*
X150435279Y-82024832D01*
X150435279Y-82024832D02*
X150512689Y-82063537D01*
X150512689Y-82063537D02*
X150628803Y-82063537D01*
X150628803Y-82063537D02*
X150706213Y-82024832D01*
X150357870Y-81753899D02*
X150435279Y-81792603D01*
X150435279Y-81792603D02*
X150590098Y-81792603D01*
X150590098Y-81792603D02*
X150667508Y-81753899D01*
X150667508Y-81753899D02*
X150706213Y-81715194D01*
X150706213Y-81715194D02*
X150744917Y-81637784D01*
X150744917Y-81637784D02*
X150744917Y-81405556D01*
X150744917Y-81405556D02*
X150706213Y-81328146D01*
X150706213Y-81328146D02*
X150667508Y-81289441D01*
X150667508Y-81289441D02*
X150590098Y-81250737D01*
X150590098Y-81250737D02*
X150435279Y-81250737D01*
X150435279Y-81250737D02*
X150357870Y-81289441D01*
X149970823Y-81250737D02*
X149970823Y-82063537D01*
X149970823Y-81289441D02*
X149893413Y-81250737D01*
X149893413Y-81250737D02*
X149738594Y-81250737D01*
X149738594Y-81250737D02*
X149661185Y-81289441D01*
X149661185Y-81289441D02*
X149622480Y-81328146D01*
X149622480Y-81328146D02*
X149583775Y-81405556D01*
X149583775Y-81405556D02*
X149583775Y-81637784D01*
X149583775Y-81637784D02*
X149622480Y-81715194D01*
X149622480Y-81715194D02*
X149661185Y-81753899D01*
X149661185Y-81753899D02*
X149738594Y-81792603D01*
X149738594Y-81792603D02*
X149893413Y-81792603D01*
X149893413Y-81792603D02*
X149970823Y-81753899D01*
X149235433Y-81792603D02*
X149235433Y-81250737D01*
X149235433Y-80979803D02*
X149274137Y-81018508D01*
X149274137Y-81018508D02*
X149235433Y-81057213D01*
X149235433Y-81057213D02*
X149196728Y-81018508D01*
X149196728Y-81018508D02*
X149235433Y-80979803D01*
X149235433Y-80979803D02*
X149235433Y-81057213D01*
X148422632Y-81792603D02*
X148887089Y-81792603D01*
X148654861Y-81792603D02*
X148654861Y-80979803D01*
X148654861Y-80979803D02*
X148732270Y-81095918D01*
X148732270Y-81095918D02*
X148809680Y-81173327D01*
X148809680Y-81173327D02*
X148887089Y-81212032D01*
X140457870Y-63450737D02*
X140457870Y-64108718D01*
X140457870Y-64108718D02*
X140496575Y-64186127D01*
X140496575Y-64186127D02*
X140535279Y-64224832D01*
X140535279Y-64224832D02*
X140612689Y-64263537D01*
X140612689Y-64263537D02*
X140728803Y-64263537D01*
X140728803Y-64263537D02*
X140806213Y-64224832D01*
X140457870Y-63953899D02*
X140535279Y-63992603D01*
X140535279Y-63992603D02*
X140690098Y-63992603D01*
X140690098Y-63992603D02*
X140767508Y-63953899D01*
X140767508Y-63953899D02*
X140806213Y-63915194D01*
X140806213Y-63915194D02*
X140844917Y-63837784D01*
X140844917Y-63837784D02*
X140844917Y-63605556D01*
X140844917Y-63605556D02*
X140806213Y-63528146D01*
X140806213Y-63528146D02*
X140767508Y-63489441D01*
X140767508Y-63489441D02*
X140690098Y-63450737D01*
X140690098Y-63450737D02*
X140535279Y-63450737D01*
X140535279Y-63450737D02*
X140457870Y-63489441D01*
X140070823Y-63450737D02*
X140070823Y-63992603D01*
X140070823Y-63528146D02*
X140032118Y-63489441D01*
X140032118Y-63489441D02*
X139954708Y-63450737D01*
X139954708Y-63450737D02*
X139838594Y-63450737D01*
X139838594Y-63450737D02*
X139761185Y-63489441D01*
X139761185Y-63489441D02*
X139722480Y-63566851D01*
X139722480Y-63566851D02*
X139722480Y-63992603D01*
X138987090Y-63992603D02*
X138987090Y-63179803D01*
X138987090Y-63953899D02*
X139064499Y-63992603D01*
X139064499Y-63992603D02*
X139219318Y-63992603D01*
X139219318Y-63992603D02*
X139296728Y-63953899D01*
X139296728Y-63953899D02*
X139335433Y-63915194D01*
X139335433Y-63915194D02*
X139374137Y-63837784D01*
X139374137Y-63837784D02*
X139374137Y-63605556D01*
X139374137Y-63605556D02*
X139335433Y-63528146D01*
X139335433Y-63528146D02*
X139296728Y-63489441D01*
X139296728Y-63489441D02*
X139219318Y-63450737D01*
X139219318Y-63450737D02*
X139064499Y-63450737D01*
X139064499Y-63450737D02*
X138987090Y-63489441D01*
X141157870Y-83550737D02*
X141157870Y-84208718D01*
X141157870Y-84208718D02*
X141196575Y-84286127D01*
X141196575Y-84286127D02*
X141235279Y-84324832D01*
X141235279Y-84324832D02*
X141312689Y-84363537D01*
X141312689Y-84363537D02*
X141428803Y-84363537D01*
X141428803Y-84363537D02*
X141506213Y-84324832D01*
X141157870Y-84053899D02*
X141235279Y-84092603D01*
X141235279Y-84092603D02*
X141390098Y-84092603D01*
X141390098Y-84092603D02*
X141467508Y-84053899D01*
X141467508Y-84053899D02*
X141506213Y-84015194D01*
X141506213Y-84015194D02*
X141544917Y-83937784D01*
X141544917Y-83937784D02*
X141544917Y-83705556D01*
X141544917Y-83705556D02*
X141506213Y-83628146D01*
X141506213Y-83628146D02*
X141467508Y-83589441D01*
X141467508Y-83589441D02*
X141390098Y-83550737D01*
X141390098Y-83550737D02*
X141235279Y-83550737D01*
X141235279Y-83550737D02*
X141157870Y-83589441D01*
X140770823Y-83550737D02*
X140770823Y-84363537D01*
X140770823Y-83589441D02*
X140693413Y-83550737D01*
X140693413Y-83550737D02*
X140538594Y-83550737D01*
X140538594Y-83550737D02*
X140461185Y-83589441D01*
X140461185Y-83589441D02*
X140422480Y-83628146D01*
X140422480Y-83628146D02*
X140383775Y-83705556D01*
X140383775Y-83705556D02*
X140383775Y-83937784D01*
X140383775Y-83937784D02*
X140422480Y-84015194D01*
X140422480Y-84015194D02*
X140461185Y-84053899D01*
X140461185Y-84053899D02*
X140538594Y-84092603D01*
X140538594Y-84092603D02*
X140693413Y-84092603D01*
X140693413Y-84092603D02*
X140770823Y-84053899D01*
X140035433Y-84092603D02*
X140035433Y-83550737D01*
X140035433Y-83279803D02*
X140074137Y-83318508D01*
X140074137Y-83318508D02*
X140035433Y-83357213D01*
X140035433Y-83357213D02*
X139996728Y-83318508D01*
X139996728Y-83318508D02*
X140035433Y-83279803D01*
X140035433Y-83279803D02*
X140035433Y-83357213D01*
X139532270Y-84092603D02*
X139609680Y-84053899D01*
X139609680Y-84053899D02*
X139648385Y-84015194D01*
X139648385Y-84015194D02*
X139687089Y-83937784D01*
X139687089Y-83937784D02*
X139687089Y-83705556D01*
X139687089Y-83705556D02*
X139648385Y-83628146D01*
X139648385Y-83628146D02*
X139609680Y-83589441D01*
X139609680Y-83589441D02*
X139532270Y-83550737D01*
X139532270Y-83550737D02*
X139416156Y-83550737D01*
X139416156Y-83550737D02*
X139338747Y-83589441D01*
X139338747Y-83589441D02*
X139300042Y-83628146D01*
X139300042Y-83628146D02*
X139261337Y-83705556D01*
X139261337Y-83705556D02*
X139261337Y-83937784D01*
X139261337Y-83937784D02*
X139300042Y-84015194D01*
X139300042Y-84015194D02*
X139338747Y-84053899D01*
X139338747Y-84053899D02*
X139416156Y-84092603D01*
X139416156Y-84092603D02*
X139532270Y-84092603D01*
X138951699Y-83357213D02*
X138912995Y-83318508D01*
X138912995Y-83318508D02*
X138835585Y-83279803D01*
X138835585Y-83279803D02*
X138642061Y-83279803D01*
X138642061Y-83279803D02*
X138564652Y-83318508D01*
X138564652Y-83318508D02*
X138525947Y-83357213D01*
X138525947Y-83357213D02*
X138487242Y-83434622D01*
X138487242Y-83434622D02*
X138487242Y-83512032D01*
X138487242Y-83512032D02*
X138525947Y-83628146D01*
X138525947Y-83628146D02*
X138990404Y-84092603D01*
X138990404Y-84092603D02*
X138487242Y-84092603D01*
X150690098Y-61392603D02*
X150767508Y-61353899D01*
X150767508Y-61353899D02*
X150806213Y-61315194D01*
X150806213Y-61315194D02*
X150844917Y-61237784D01*
X150844917Y-61237784D02*
X150844917Y-61005556D01*
X150844917Y-61005556D02*
X150806213Y-60928146D01*
X150806213Y-60928146D02*
X150767508Y-60889441D01*
X150767508Y-60889441D02*
X150690098Y-60850737D01*
X150690098Y-60850737D02*
X150573984Y-60850737D01*
X150573984Y-60850737D02*
X150496575Y-60889441D01*
X150496575Y-60889441D02*
X150457870Y-60928146D01*
X150457870Y-60928146D02*
X150419165Y-61005556D01*
X150419165Y-61005556D02*
X150419165Y-61237784D01*
X150419165Y-61237784D02*
X150457870Y-61315194D01*
X150457870Y-61315194D02*
X150496575Y-61353899D01*
X150496575Y-61353899D02*
X150573984Y-61392603D01*
X150573984Y-61392603D02*
X150690098Y-61392603D01*
X149722480Y-60850737D02*
X149722480Y-61392603D01*
X150070823Y-60850737D02*
X150070823Y-61276489D01*
X150070823Y-61276489D02*
X150032118Y-61353899D01*
X150032118Y-61353899D02*
X149954708Y-61392603D01*
X149954708Y-61392603D02*
X149838594Y-61392603D01*
X149838594Y-61392603D02*
X149761185Y-61353899D01*
X149761185Y-61353899D02*
X149722480Y-61315194D01*
X149451547Y-60850737D02*
X149141909Y-60850737D01*
X149335433Y-60579803D02*
X149335433Y-61276489D01*
X149335433Y-61276489D02*
X149296728Y-61353899D01*
X149296728Y-61353899D02*
X149219318Y-61392603D01*
X149219318Y-61392603D02*
X149141909Y-61392603D01*
X148909680Y-60657213D02*
X148870976Y-60618508D01*
X148870976Y-60618508D02*
X148793566Y-60579803D01*
X148793566Y-60579803D02*
X148600042Y-60579803D01*
X148600042Y-60579803D02*
X148522633Y-60618508D01*
X148522633Y-60618508D02*
X148483928Y-60657213D01*
X148483928Y-60657213D02*
X148445223Y-60734622D01*
X148445223Y-60734622D02*
X148445223Y-60812032D01*
X148445223Y-60812032D02*
X148483928Y-60928146D01*
X148483928Y-60928146D02*
X148948385Y-61392603D01*
X148948385Y-61392603D02*
X148445223Y-61392603D01*
X148096881Y-61392603D02*
X148096881Y-60850737D01*
X148096881Y-60928146D02*
X148058176Y-60889441D01*
X148058176Y-60889441D02*
X147980766Y-60850737D01*
X147980766Y-60850737D02*
X147864652Y-60850737D01*
X147864652Y-60850737D02*
X147787243Y-60889441D01*
X147787243Y-60889441D02*
X147748538Y-60966851D01*
X147748538Y-60966851D02*
X147748538Y-61392603D01*
X147748538Y-60966851D02*
X147709833Y-60889441D01*
X147709833Y-60889441D02*
X147632424Y-60850737D01*
X147632424Y-60850737D02*
X147516309Y-60850737D01*
X147516309Y-60850737D02*
X147438900Y-60889441D01*
X147438900Y-60889441D02*
X147400195Y-60966851D01*
X147400195Y-60966851D02*
X147400195Y-61392603D01*
D11*
X148673882Y-69541013D02*
X148673882Y-70005470D01*
X149486682Y-69671642D02*
X148673882Y-69773242D01*
X149254454Y-70165127D02*
X149254454Y-70552175D01*
X149486682Y-70058689D02*
X148673882Y-70431222D01*
X148673882Y-70431222D02*
X149486682Y-70600556D01*
X149486682Y-70871489D02*
X148673882Y-70973089D01*
X148673882Y-70973089D02*
X148673882Y-71166613D01*
X148673882Y-71166613D02*
X148712587Y-71277889D01*
X148712587Y-71277889D02*
X148789997Y-71345623D01*
X148789997Y-71345623D02*
X148867406Y-71374651D01*
X148867406Y-71374651D02*
X149022225Y-71394004D01*
X149022225Y-71394004D02*
X149138339Y-71379489D01*
X149138339Y-71379489D02*
X149293158Y-71321432D01*
X149293158Y-71321432D02*
X149370568Y-71273051D01*
X149370568Y-71273051D02*
X149447978Y-71185965D01*
X149447978Y-71185965D02*
X149486682Y-71065013D01*
X149486682Y-71065013D02*
X149486682Y-70871489D01*
X148673882Y-72172937D02*
X148673882Y-71785889D01*
X148673882Y-71785889D02*
X149060930Y-71698804D01*
X149060930Y-71698804D02*
X149022225Y-71742346D01*
X149022225Y-71742346D02*
X148983520Y-71824594D01*
X148983520Y-71824594D02*
X148983520Y-72018118D01*
X148983520Y-72018118D02*
X149022225Y-72090689D01*
X149022225Y-72090689D02*
X149060930Y-72124556D01*
X149060930Y-72124556D02*
X149138339Y-72153584D01*
X149138339Y-72153584D02*
X149331863Y-72129394D01*
X149331863Y-72129394D02*
X149409273Y-72081013D01*
X149409273Y-72081013D02*
X149447978Y-72037470D01*
X149447978Y-72037470D02*
X149486682Y-71955223D01*
X149486682Y-71955223D02*
X149486682Y-71761699D01*
X149486682Y-71761699D02*
X149447978Y-71689127D01*
X149447978Y-71689127D02*
X149409273Y-71655261D01*
X148751292Y-72511603D02*
X148712587Y-72555146D01*
X148712587Y-72555146D02*
X148673882Y-72637394D01*
X148673882Y-72637394D02*
X148673882Y-72830918D01*
X148673882Y-72830918D02*
X148712587Y-72903489D01*
X148712587Y-72903489D02*
X148751292Y-72937356D01*
X148751292Y-72937356D02*
X148828701Y-72966384D01*
X148828701Y-72966384D02*
X148906111Y-72956708D01*
X148906111Y-72956708D02*
X149022225Y-72903489D01*
X149022225Y-72903489D02*
X149486682Y-72380975D01*
X149486682Y-72380975D02*
X149486682Y-72884137D01*
X149486682Y-73658232D02*
X149486682Y-73193774D01*
X149486682Y-73426003D02*
X148673882Y-73527603D01*
X148673882Y-73527603D02*
X148789997Y-73435679D01*
X148789997Y-73435679D02*
X148867406Y-73348594D01*
X148867406Y-73348594D02*
X148906111Y-73266346D01*
X148751292Y-74059793D02*
X148712587Y-74103336D01*
X148712587Y-74103336D02*
X148673882Y-74185584D01*
X148673882Y-74185584D02*
X148673882Y-74379108D01*
X148673882Y-74379108D02*
X148712587Y-74451679D01*
X148712587Y-74451679D02*
X148751292Y-74485546D01*
X148751292Y-74485546D02*
X148828701Y-74514574D01*
X148828701Y-74514574D02*
X148906111Y-74504898D01*
X148906111Y-74504898D02*
X149022225Y-74451679D01*
X149022225Y-74451679D02*
X149486682Y-73929165D01*
X149486682Y-73929165D02*
X149486682Y-74432327D01*
X149060930Y-75724098D02*
X149099635Y-75835374D01*
X149099635Y-75835374D02*
X149138339Y-75869240D01*
X149138339Y-75869240D02*
X149215749Y-75898269D01*
X149215749Y-75898269D02*
X149331863Y-75883755D01*
X149331863Y-75883755D02*
X149409273Y-75835374D01*
X149409273Y-75835374D02*
X149447978Y-75791831D01*
X149447978Y-75791831D02*
X149486682Y-75709583D01*
X149486682Y-75709583D02*
X149486682Y-75399945D01*
X149486682Y-75399945D02*
X148673882Y-75501545D01*
X148673882Y-75501545D02*
X148673882Y-75772479D01*
X148673882Y-75772479D02*
X148712587Y-75845050D01*
X148712587Y-75845050D02*
X148751292Y-75878917D01*
X148751292Y-75878917D02*
X148828701Y-75907945D01*
X148828701Y-75907945D02*
X148906111Y-75898269D01*
X148906111Y-75898269D02*
X148983520Y-75849888D01*
X148983520Y-75849888D02*
X149022225Y-75806345D01*
X149022225Y-75806345D02*
X149060930Y-75724098D01*
X149060930Y-75724098D02*
X149060930Y-75453164D01*
X149486682Y-76328860D02*
X149447978Y-76256288D01*
X149447978Y-76256288D02*
X149409273Y-76222421D01*
X149409273Y-76222421D02*
X149331863Y-76193393D01*
X149331863Y-76193393D02*
X149099635Y-76222421D01*
X149099635Y-76222421D02*
X149022225Y-76270802D01*
X149022225Y-76270802D02*
X148983520Y-76314345D01*
X148983520Y-76314345D02*
X148944816Y-76396593D01*
X148944816Y-76396593D02*
X148944816Y-76512707D01*
X148944816Y-76512707D02*
X148983520Y-76585279D01*
X148983520Y-76585279D02*
X149022225Y-76619145D01*
X149022225Y-76619145D02*
X149099635Y-76648174D01*
X149099635Y-76648174D02*
X149331863Y-76619145D01*
X149331863Y-76619145D02*
X149409273Y-76570764D01*
X149409273Y-76570764D02*
X149447978Y-76527221D01*
X149447978Y-76527221D02*
X149486682Y-76444974D01*
X149486682Y-76444974D02*
X149486682Y-76328860D01*
X149486682Y-77296478D02*
X149060930Y-77349697D01*
X149060930Y-77349697D02*
X148983520Y-77320669D01*
X148983520Y-77320669D02*
X148944816Y-77248097D01*
X148944816Y-77248097D02*
X148944816Y-77093278D01*
X148944816Y-77093278D02*
X148983520Y-77011030D01*
X149447978Y-77301316D02*
X149486682Y-77219069D01*
X149486682Y-77219069D02*
X149486682Y-77025545D01*
X149486682Y-77025545D02*
X149447978Y-76952973D01*
X149447978Y-76952973D02*
X149370568Y-76923945D01*
X149370568Y-76923945D02*
X149293158Y-76933621D01*
X149293158Y-76933621D02*
X149215749Y-76982002D01*
X149215749Y-76982002D02*
X149177044Y-77064250D01*
X149177044Y-77064250D02*
X149177044Y-77257773D01*
X149177044Y-77257773D02*
X149138339Y-77340021D01*
X149486682Y-77683525D02*
X148944816Y-77751259D01*
X149099635Y-77731906D02*
X149022225Y-77780287D01*
X149022225Y-77780287D02*
X148983520Y-77823830D01*
X148983520Y-77823830D02*
X148944816Y-77906078D01*
X148944816Y-77906078D02*
X148944816Y-77983487D01*
X149486682Y-78535030D02*
X148673882Y-78636630D01*
X149447978Y-78539868D02*
X149486682Y-78457621D01*
X149486682Y-78457621D02*
X149486682Y-78302802D01*
X149486682Y-78302802D02*
X149447978Y-78230230D01*
X149447978Y-78230230D02*
X149409273Y-78196363D01*
X149409273Y-78196363D02*
X149331863Y-78167335D01*
X149331863Y-78167335D02*
X149099635Y-78196363D01*
X149099635Y-78196363D02*
X149022225Y-78244744D01*
X149022225Y-78244744D02*
X148983520Y-78288287D01*
X148983520Y-78288287D02*
X148944816Y-78370535D01*
X148944816Y-78370535D02*
X148944816Y-78525354D01*
X148944816Y-78525354D02*
X148983520Y-78597925D01*
X148944816Y-79531677D02*
X149486682Y-79657468D01*
X149486682Y-79657468D02*
X148944816Y-79918725D01*
X148751292Y-80213848D02*
X148712587Y-80257391D01*
X148712587Y-80257391D02*
X148673882Y-80339639D01*
X148673882Y-80339639D02*
X148673882Y-80533163D01*
X148673882Y-80533163D02*
X148712587Y-80605734D01*
X148712587Y-80605734D02*
X148751292Y-80639601D01*
X148751292Y-80639601D02*
X148828701Y-80668629D01*
X148828701Y-80668629D02*
X148906111Y-80658953D01*
X148906111Y-80658953D02*
X149022225Y-80605734D01*
X149022225Y-80605734D02*
X149486682Y-80083220D01*
X149486682Y-80083220D02*
X149486682Y-80586382D01*
X150369492Y-69879680D02*
X150408197Y-69990956D01*
X150408197Y-69990956D02*
X150446901Y-70024822D01*
X150446901Y-70024822D02*
X150524311Y-70053851D01*
X150524311Y-70053851D02*
X150640425Y-70039337D01*
X150640425Y-70039337D02*
X150717835Y-69990956D01*
X150717835Y-69990956D02*
X150756540Y-69947413D01*
X150756540Y-69947413D02*
X150795244Y-69865165D01*
X150795244Y-69865165D02*
X150795244Y-69555527D01*
X150795244Y-69555527D02*
X149982444Y-69657127D01*
X149982444Y-69657127D02*
X149982444Y-69928061D01*
X149982444Y-69928061D02*
X150021149Y-70000632D01*
X150021149Y-70000632D02*
X150059854Y-70034499D01*
X150059854Y-70034499D02*
X150137263Y-70063527D01*
X150137263Y-70063527D02*
X150214673Y-70053851D01*
X150214673Y-70053851D02*
X150292082Y-70005470D01*
X150292082Y-70005470D02*
X150330787Y-69961927D01*
X150330787Y-69961927D02*
X150369492Y-69879680D01*
X150369492Y-69879680D02*
X150369492Y-69608746D01*
X150253378Y-70358651D02*
X150795244Y-70484442D01*
X150253378Y-70745699D02*
X150795244Y-70484442D01*
X150795244Y-70484442D02*
X150988768Y-70382842D01*
X150988768Y-70382842D02*
X151027473Y-70339299D01*
X151027473Y-70339299D02*
X151066178Y-70257051D01*
X150795244Y-71606879D02*
X149982444Y-71708479D01*
X150756540Y-71960061D02*
X150795244Y-72032632D01*
X150795244Y-72032632D02*
X150795244Y-72187451D01*
X150795244Y-72187451D02*
X150756540Y-72269699D01*
X150756540Y-72269699D02*
X150679130Y-72318080D01*
X150679130Y-72318080D02*
X150640425Y-72322918D01*
X150640425Y-72322918D02*
X150563016Y-72293889D01*
X150563016Y-72293889D02*
X150524311Y-72221318D01*
X150524311Y-72221318D02*
X150524311Y-72105203D01*
X150524311Y-72105203D02*
X150485606Y-72032632D01*
X150485606Y-72032632D02*
X150408197Y-72003603D01*
X150408197Y-72003603D02*
X150369492Y-72008442D01*
X150369492Y-72008442D02*
X150292082Y-72056822D01*
X150292082Y-72056822D02*
X150253378Y-72139070D01*
X150253378Y-72139070D02*
X150253378Y-72255184D01*
X150253378Y-72255184D02*
X150292082Y-72327756D01*
X150795244Y-73000251D02*
X150369492Y-73053470D01*
X150369492Y-73053470D02*
X150292082Y-73024442D01*
X150292082Y-73024442D02*
X150253378Y-72951870D01*
X150253378Y-72951870D02*
X150253378Y-72797051D01*
X150253378Y-72797051D02*
X150292082Y-72714803D01*
X150756540Y-73005089D02*
X150795244Y-72922842D01*
X150795244Y-72922842D02*
X150795244Y-72729318D01*
X150795244Y-72729318D02*
X150756540Y-72656746D01*
X150756540Y-72656746D02*
X150679130Y-72627718D01*
X150679130Y-72627718D02*
X150601720Y-72637394D01*
X150601720Y-72637394D02*
X150524311Y-72685775D01*
X150524311Y-72685775D02*
X150485606Y-72768023D01*
X150485606Y-72768023D02*
X150485606Y-72961546D01*
X150485606Y-72961546D02*
X150446901Y-73043794D01*
X150795244Y-73387298D02*
X150253378Y-73455032D01*
X149982444Y-73488898D02*
X150021149Y-73445355D01*
X150021149Y-73445355D02*
X150059854Y-73479222D01*
X150059854Y-73479222D02*
X150021149Y-73522765D01*
X150021149Y-73522765D02*
X149982444Y-73488898D01*
X149982444Y-73488898D02*
X150059854Y-73479222D01*
X150795244Y-74122689D02*
X150369492Y-74175908D01*
X150369492Y-74175908D02*
X150292082Y-74146880D01*
X150292082Y-74146880D02*
X150253378Y-74074308D01*
X150253378Y-74074308D02*
X150253378Y-73919489D01*
X150253378Y-73919489D02*
X150292082Y-73837241D01*
X150756540Y-74127527D02*
X150795244Y-74045280D01*
X150795244Y-74045280D02*
X150795244Y-73851756D01*
X150795244Y-73851756D02*
X150756540Y-73779184D01*
X150756540Y-73779184D02*
X150679130Y-73750156D01*
X150679130Y-73750156D02*
X150601720Y-73759832D01*
X150601720Y-73759832D02*
X150524311Y-73808213D01*
X150524311Y-73808213D02*
X150485606Y-73890461D01*
X150485606Y-73890461D02*
X150485606Y-74083984D01*
X150485606Y-74083984D02*
X150446901Y-74166232D01*
X150795244Y-74509736D02*
X149982444Y-74611336D01*
X150795244Y-74858079D02*
X150369492Y-74911298D01*
X150369492Y-74911298D02*
X150292082Y-74882270D01*
X150292082Y-74882270D02*
X150253378Y-74809698D01*
X150253378Y-74809698D02*
X150253378Y-74693584D01*
X150253378Y-74693584D02*
X150292082Y-74611336D01*
X150292082Y-74611336D02*
X150330787Y-74567793D01*
X150021149Y-76386917D02*
X149982444Y-76314345D01*
X149982444Y-76314345D02*
X149982444Y-76198231D01*
X149982444Y-76198231D02*
X150021149Y-76077278D01*
X150021149Y-76077278D02*
X150098559Y-75990193D01*
X150098559Y-75990193D02*
X150175968Y-75941812D01*
X150175968Y-75941812D02*
X150330787Y-75883755D01*
X150330787Y-75883755D02*
X150446901Y-75869240D01*
X150446901Y-75869240D02*
X150601720Y-75888593D01*
X150601720Y-75888593D02*
X150679130Y-75917621D01*
X150679130Y-75917621D02*
X150756540Y-75985355D01*
X150756540Y-75985355D02*
X150795244Y-76096631D01*
X150795244Y-76096631D02*
X150795244Y-76174040D01*
X150795244Y-76174040D02*
X150756540Y-76294993D01*
X150756540Y-76294993D02*
X150717835Y-76338536D01*
X150717835Y-76338536D02*
X150446901Y-76372402D01*
X150446901Y-76372402D02*
X150446901Y-76217583D01*
X150795244Y-77025545D02*
X150369492Y-77078764D01*
X150369492Y-77078764D02*
X150292082Y-77049736D01*
X150292082Y-77049736D02*
X150253378Y-76977164D01*
X150253378Y-76977164D02*
X150253378Y-76822345D01*
X150253378Y-76822345D02*
X150292082Y-76740097D01*
X150756540Y-77030383D02*
X150795244Y-76948136D01*
X150795244Y-76948136D02*
X150795244Y-76754612D01*
X150795244Y-76754612D02*
X150756540Y-76682040D01*
X150756540Y-76682040D02*
X150679130Y-76653012D01*
X150679130Y-76653012D02*
X150601720Y-76662688D01*
X150601720Y-76662688D02*
X150524311Y-76711069D01*
X150524311Y-76711069D02*
X150485606Y-76793317D01*
X150485606Y-76793317D02*
X150485606Y-76986840D01*
X150485606Y-76986840D02*
X150446901Y-77069088D01*
X150795244Y-77412592D02*
X150253378Y-77480326D01*
X150330787Y-77470649D02*
X150292082Y-77514192D01*
X150292082Y-77514192D02*
X150253378Y-77596440D01*
X150253378Y-77596440D02*
X150253378Y-77712554D01*
X150253378Y-77712554D02*
X150292082Y-77785126D01*
X150292082Y-77785126D02*
X150369492Y-77814154D01*
X150369492Y-77814154D02*
X150795244Y-77760935D01*
X150369492Y-77814154D02*
X150292082Y-77862535D01*
X150292082Y-77862535D02*
X150253378Y-77944783D01*
X150253378Y-77944783D02*
X150253378Y-78060897D01*
X150253378Y-78060897D02*
X150292082Y-78133468D01*
X150292082Y-78133468D02*
X150369492Y-78162497D01*
X150369492Y-78162497D02*
X150795244Y-78109278D01*
X150795244Y-78496325D02*
X149982444Y-78597925D01*
X150292082Y-78559220D02*
X150253378Y-78641468D01*
X150253378Y-78641468D02*
X150253378Y-78796287D01*
X150253378Y-78796287D02*
X150292082Y-78868859D01*
X150292082Y-78868859D02*
X150330787Y-78902725D01*
X150330787Y-78902725D02*
X150408197Y-78931754D01*
X150408197Y-78931754D02*
X150640425Y-78902725D01*
X150640425Y-78902725D02*
X150717835Y-78854344D01*
X150717835Y-78854344D02*
X150756540Y-78810801D01*
X150756540Y-78810801D02*
X150795244Y-78728554D01*
X150795244Y-78728554D02*
X150795244Y-78573735D01*
X150795244Y-78573735D02*
X150756540Y-78501163D01*
X150795244Y-79347830D02*
X150756540Y-79275258D01*
X150756540Y-79275258D02*
X150679130Y-79246230D01*
X150679130Y-79246230D02*
X149982444Y-79333315D01*
X150756540Y-79971943D02*
X150795244Y-79889696D01*
X150795244Y-79889696D02*
X150795244Y-79734877D01*
X150795244Y-79734877D02*
X150756540Y-79662305D01*
X150756540Y-79662305D02*
X150679130Y-79633277D01*
X150679130Y-79633277D02*
X150369492Y-79671982D01*
X150369492Y-79671982D02*
X150292082Y-79720362D01*
X150292082Y-79720362D02*
X150253378Y-79802610D01*
X150253378Y-79802610D02*
X150253378Y-79957429D01*
X150253378Y-79957429D02*
X150292082Y-80030001D01*
X150292082Y-80030001D02*
X150369492Y-80059029D01*
X150369492Y-80059029D02*
X150446901Y-80049353D01*
X150446901Y-80049353D02*
X150524311Y-79652629D01*
D10*
X150357870Y-83550737D02*
X150357870Y-84208718D01*
X150357870Y-84208718D02*
X150396575Y-84286127D01*
X150396575Y-84286127D02*
X150435279Y-84324832D01*
X150435279Y-84324832D02*
X150512689Y-84363537D01*
X150512689Y-84363537D02*
X150628803Y-84363537D01*
X150628803Y-84363537D02*
X150706213Y-84324832D01*
X150357870Y-84053899D02*
X150435279Y-84092603D01*
X150435279Y-84092603D02*
X150590098Y-84092603D01*
X150590098Y-84092603D02*
X150667508Y-84053899D01*
X150667508Y-84053899D02*
X150706213Y-84015194D01*
X150706213Y-84015194D02*
X150744917Y-83937784D01*
X150744917Y-83937784D02*
X150744917Y-83705556D01*
X150744917Y-83705556D02*
X150706213Y-83628146D01*
X150706213Y-83628146D02*
X150667508Y-83589441D01*
X150667508Y-83589441D02*
X150590098Y-83550737D01*
X150590098Y-83550737D02*
X150435279Y-83550737D01*
X150435279Y-83550737D02*
X150357870Y-83589441D01*
X149970823Y-83550737D02*
X149970823Y-84363537D01*
X149970823Y-83589441D02*
X149893413Y-83550737D01*
X149893413Y-83550737D02*
X149738594Y-83550737D01*
X149738594Y-83550737D02*
X149661185Y-83589441D01*
X149661185Y-83589441D02*
X149622480Y-83628146D01*
X149622480Y-83628146D02*
X149583775Y-83705556D01*
X149583775Y-83705556D02*
X149583775Y-83937784D01*
X149583775Y-83937784D02*
X149622480Y-84015194D01*
X149622480Y-84015194D02*
X149661185Y-84053899D01*
X149661185Y-84053899D02*
X149738594Y-84092603D01*
X149738594Y-84092603D02*
X149893413Y-84092603D01*
X149893413Y-84092603D02*
X149970823Y-84053899D01*
X149119318Y-84092603D02*
X149196728Y-84053899D01*
X149196728Y-84053899D02*
X149235433Y-84015194D01*
X149235433Y-84015194D02*
X149274137Y-83937784D01*
X149274137Y-83937784D02*
X149274137Y-83705556D01*
X149274137Y-83705556D02*
X149235433Y-83628146D01*
X149235433Y-83628146D02*
X149196728Y-83589441D01*
X149196728Y-83589441D02*
X149119318Y-83550737D01*
X149119318Y-83550737D02*
X149003204Y-83550737D01*
X149003204Y-83550737D02*
X148925795Y-83589441D01*
X148925795Y-83589441D02*
X148887090Y-83628146D01*
X148887090Y-83628146D02*
X148848385Y-83705556D01*
X148848385Y-83705556D02*
X148848385Y-83937784D01*
X148848385Y-83937784D02*
X148887090Y-84015194D01*
X148887090Y-84015194D02*
X148925795Y-84053899D01*
X148925795Y-84053899D02*
X149003204Y-84092603D01*
X149003204Y-84092603D02*
X149119318Y-84092603D01*
X148074290Y-84092603D02*
X148538747Y-84092603D01*
X148306519Y-84092603D02*
X148306519Y-83279803D01*
X148306519Y-83279803D02*
X148383928Y-83395918D01*
X148383928Y-83395918D02*
X148461338Y-83473327D01*
X148461338Y-83473327D02*
X148538747Y-83512032D01*
X140757870Y-71592603D02*
X140757870Y-70779803D01*
X140757870Y-71553899D02*
X140835279Y-71592603D01*
X140835279Y-71592603D02*
X140990098Y-71592603D01*
X140990098Y-71592603D02*
X141067508Y-71553899D01*
X141067508Y-71553899D02*
X141106213Y-71515194D01*
X141106213Y-71515194D02*
X141144917Y-71437784D01*
X141144917Y-71437784D02*
X141144917Y-71205556D01*
X141144917Y-71205556D02*
X141106213Y-71128146D01*
X141106213Y-71128146D02*
X141067508Y-71089441D01*
X141067508Y-71089441D02*
X140990098Y-71050737D01*
X140990098Y-71050737D02*
X140835279Y-71050737D01*
X140835279Y-71050737D02*
X140757870Y-71089441D01*
X140254708Y-71592603D02*
X140332118Y-71553899D01*
X140332118Y-71553899D02*
X140370823Y-71515194D01*
X140370823Y-71515194D02*
X140409527Y-71437784D01*
X140409527Y-71437784D02*
X140409527Y-71205556D01*
X140409527Y-71205556D02*
X140370823Y-71128146D01*
X140370823Y-71128146D02*
X140332118Y-71089441D01*
X140332118Y-71089441D02*
X140254708Y-71050737D01*
X140254708Y-71050737D02*
X140138594Y-71050737D01*
X140138594Y-71050737D02*
X140061185Y-71089441D01*
X140061185Y-71089441D02*
X140022480Y-71128146D01*
X140022480Y-71128146D02*
X139983775Y-71205556D01*
X139983775Y-71205556D02*
X139983775Y-71437784D01*
X139983775Y-71437784D02*
X140022480Y-71515194D01*
X140022480Y-71515194D02*
X140061185Y-71553899D01*
X140061185Y-71553899D02*
X140138594Y-71592603D01*
X140138594Y-71592603D02*
X140254708Y-71592603D01*
X139287090Y-71050737D02*
X139287090Y-71592603D01*
X139635433Y-71050737D02*
X139635433Y-71476489D01*
X139635433Y-71476489D02*
X139596728Y-71553899D01*
X139596728Y-71553899D02*
X139519318Y-71592603D01*
X139519318Y-71592603D02*
X139403204Y-71592603D01*
X139403204Y-71592603D02*
X139325795Y-71553899D01*
X139325795Y-71553899D02*
X139287090Y-71515194D01*
X139016157Y-71050737D02*
X138706519Y-71050737D01*
X138900043Y-70779803D02*
X138900043Y-71476489D01*
X138900043Y-71476489D02*
X138861338Y-71553899D01*
X138861338Y-71553899D02*
X138783928Y-71592603D01*
X138783928Y-71592603D02*
X138706519Y-71592603D01*
%LPC*%
D12*
%TO.C,J1*%
X137209300Y-61111443D03*
D13*
X137209300Y-63651443D03*
X137209300Y-66191443D03*
X137209300Y-68731443D03*
X137209300Y-71271443D03*
X137209300Y-73811443D03*
X137209300Y-76351443D03*
X137209300Y-78891443D03*
X137209300Y-81431443D03*
X137209300Y-83971443D03*
%TD*%
D12*
%TO.C,J2*%
X152449300Y-61111443D03*
D13*
X152449300Y-63651443D03*
X152449300Y-66191443D03*
X152449300Y-68731443D03*
X152449300Y-71271443D03*
X152449300Y-73811443D03*
X152449300Y-76351443D03*
X152449300Y-78891443D03*
X152449300Y-81431443D03*
X152449300Y-83971443D03*
%TD*%
%LPD*%
M02*
