%TF.GenerationSoftware,KiCad,Pcbnew,10.0.0*%
%TF.CreationDate,2026-03-24T01:09:45-04:00*%
%TF.ProjectId,tad5212-board,74616435-3231-4322-9d62-6f6172642e6b,rev?*%
%TF.SameCoordinates,Original*%
%TF.FileFunction,Soldermask,Top*%
%TF.FilePolarity,Negative*%
%FSLAX46Y46*%
G04 Gerber Fmt 4.6, Leading zero omitted, Abs format (unit mm)*
G04 Created by KiCad (PCBNEW 10.0.0) date 2026-03-24 01:09:45*
%MOMM*%
%LPD*%
G01*
G04 APERTURE LIST*
G04 Aperture macros list*
%AMRoundRect*
0 Rectangle with rounded corners*
0 $1 Rounding radius*
0 $2 $3 $4 $5 $6 $7 $8 $9 X,Y pos of 4 corners*
0 Add a 4 corners polygon primitive as box body*
4,1,4,$2,$3,$4,$5,$6,$7,$8,$9,$2,$3,0*
0 Add four circle primitives for the rounded corners*
1,1,$1+$1,$2,$3*
1,1,$1+$1,$4,$5*
1,1,$1+$1,$6,$7*
1,1,$1+$1,$8,$9*
0 Add four rect primitives between the rounded corners*
20,1,$1+$1,$2,$3,$4,$5,0*
20,1,$1+$1,$4,$5,$6,$7,0*
20,1,$1+$1,$6,$7,$8,$9,0*
20,1,$1+$1,$8,$9,$2,$3,0*%
G04 Aperture macros list end*
%ADD10R,1.700000X1.700000*%
%ADD11C,1.700000*%
%ADD12RoundRect,0.250000X-0.159099X0.512652X-0.512652X0.159099X0.159099X-0.512652X0.512652X-0.159099X0*%
%ADD13RoundRect,0.225000X0.250000X-0.225000X0.250000X0.225000X-0.250000X0.225000X-0.250000X-0.225000X0*%
%ADD14RoundRect,0.225000X-0.335876X-0.017678X-0.017678X-0.335876X0.335876X0.017678X0.017678X0.335876X0*%
%ADD15R,0.812800X0.254000*%
%ADD16R,0.254000X0.812800*%
%ADD17R,2.209800X2.209800*%
%ADD18R,0.254000X0.254000*%
%ADD19RoundRect,0.250000X-0.512652X-0.159099X-0.159099X-0.512652X0.512652X0.159099X0.159099X0.512652X0*%
%ADD20RoundRect,0.250000X0.475000X-0.250000X0.475000X0.250000X-0.475000X0.250000X-0.475000X-0.250000X0*%
%ADD21RoundRect,0.225000X-0.017678X0.335876X-0.335876X0.017678X0.017678X-0.335876X0.335876X-0.017678X0*%
%ADD22RoundRect,0.150000X0.256326X0.468458X-0.468458X-0.256326X-0.256326X-0.468458X0.468458X0.256326X0*%
G04 APERTURE END LIST*
D10*
%TO.C,J1*%
X137209300Y-61111443D03*
D11*
X137209300Y-63651443D03*
X137209300Y-66191443D03*
X137209300Y-68731443D03*
X137209300Y-71271443D03*
X137209300Y-73811443D03*
X137209300Y-76351443D03*
X137209300Y-78891443D03*
X137209300Y-81431443D03*
X137209300Y-83971443D03*
%TD*%
D12*
%TO.C,C8*%
X145871751Y-68028249D03*
X144528249Y-69371751D03*
%TD*%
D13*
%TO.C,C5*%
X148450000Y-76475000D03*
X148450000Y-74925000D03*
%TD*%
%TO.C,C1*%
X141700000Y-77375000D03*
X141700000Y-75825000D03*
%TD*%
D14*
%TO.C,C3*%
X140001992Y-70501992D03*
X141098008Y-71598008D03*
%TD*%
D15*
%TO.C,U1*%
X142856900Y-71949685D03*
X142856900Y-72449811D03*
X142856900Y-72949937D03*
X142856900Y-73450063D03*
X142856900Y-73950189D03*
X142856900Y-74450315D03*
D16*
X143549685Y-75143100D03*
X144049811Y-75143100D03*
X144549937Y-75143100D03*
X145050063Y-75143100D03*
X145550189Y-75143100D03*
X146050315Y-75143100D03*
D15*
X146743100Y-74450315D03*
X146743100Y-73950189D03*
X146743100Y-73450063D03*
X146743100Y-72949937D03*
X146743100Y-72449811D03*
X146743100Y-71949685D03*
D16*
X146050315Y-71256900D03*
X145550189Y-71256900D03*
X145050063Y-71256900D03*
X144549937Y-71256900D03*
X144049811Y-71256900D03*
X143549685Y-71256900D03*
D17*
X144800000Y-73200000D03*
D18*
X143074000Y-71473943D03*
X143074000Y-74926057D03*
X146526000Y-74926057D03*
X146526000Y-71473943D03*
%TD*%
D10*
%TO.C,J2*%
X152449300Y-61111443D03*
D11*
X152449300Y-63651443D03*
X152449300Y-66191443D03*
X152449300Y-68731443D03*
X152449300Y-71271443D03*
X152449300Y-73811443D03*
X152449300Y-76351443D03*
X152449300Y-78891443D03*
X152449300Y-81431443D03*
X152449300Y-83971443D03*
%TD*%
D19*
%TO.C,C4*%
X140628249Y-68678249D03*
X141971751Y-70021751D03*
%TD*%
D20*
%TO.C,C2*%
X139950000Y-77550000D03*
X139950000Y-75650000D03*
%TD*%
D14*
%TO.C,C6*%
X141851992Y-67451992D03*
X142948008Y-68548008D03*
%TD*%
D21*
%TO.C,C7*%
X145048008Y-66401992D03*
X143951992Y-67498008D03*
%TD*%
D22*
%TO.C,U2*%
X144076085Y-64067417D03*
X143404334Y-63395666D03*
X142732583Y-62723915D03*
X141123915Y-64332583D03*
X142467417Y-65676085D03*
%TD*%
M02*
