%TF.GenerationSoftware,KiCad,Pcbnew,10.0.0*%
%TF.CreationDate,2026-04-05T23:22:58-04:00*%
%TF.ProjectId,tad5212-board,74616435-3231-4322-9d62-6f6172642e6b,rev?*%
%TF.SameCoordinates,Original*%
%TF.FileFunction,Legend,Top*%
%TF.FilePolarity,Positive*%
%FSLAX46Y46*%
G04 Gerber Fmt 4.6, Leading zero omitted, Abs format (unit mm)*
G04 Created by KiCad (PCBNEW 10.0.0) date 2026-04-05 23:22:58*
%MOMM*%
%LPD*%
G01*
G04 APERTURE LIST*
%ADD10C,0.150000*%
%ADD11C,0.120000*%
%ADD12C,0.000000*%
%ADD13C,0.127000*%
%ADD14C,0.200000*%
G04 APERTURE END LIST*
D10*
X136875966Y-58186262D02*
X136875966Y-58900547D01*
X136875966Y-58900547D02*
X136828347Y-59043404D01*
X136828347Y-59043404D02*
X136733109Y-59138643D01*
X136733109Y-59138643D02*
X136590252Y-59186262D01*
X136590252Y-59186262D02*
X136495014Y-59186262D01*
X137875966Y-59186262D02*
X137304538Y-59186262D01*
X137590252Y-59186262D02*
X137590252Y-58186262D01*
X137590252Y-58186262D02*
X137495014Y-58329119D01*
X137495014Y-58329119D02*
X137399776Y-58424357D01*
X137399776Y-58424357D02*
X137304538Y-58471976D01*
X147936411Y-61322112D02*
X147936411Y-61389456D01*
X147936411Y-61389456D02*
X147869067Y-61524143D01*
X147869067Y-61524143D02*
X147801724Y-61591486D01*
X147801724Y-61591486D02*
X147667037Y-61658830D01*
X147667037Y-61658830D02*
X147532350Y-61658830D01*
X147532350Y-61658830D02*
X147431335Y-61625158D01*
X147431335Y-61625158D02*
X147262976Y-61524143D01*
X147262976Y-61524143D02*
X147161961Y-61423128D01*
X147161961Y-61423128D02*
X147060945Y-61254769D01*
X147060945Y-61254769D02*
X147027274Y-61153754D01*
X147027274Y-61153754D02*
X147027274Y-61019067D01*
X147027274Y-61019067D02*
X147094617Y-60884380D01*
X147094617Y-60884380D02*
X147161961Y-60817036D01*
X147161961Y-60817036D02*
X147296648Y-60749693D01*
X147296648Y-60749693D02*
X147363991Y-60749693D01*
X147532350Y-60446647D02*
X148003754Y-59975242D01*
X148003754Y-59975242D02*
X148407815Y-60985395D01*
X146599693Y-70108830D02*
X146599693Y-70176174D01*
X146599693Y-70176174D02*
X146532349Y-70310861D01*
X146532349Y-70310861D02*
X146465006Y-70378204D01*
X146465006Y-70378204D02*
X146330319Y-70445548D01*
X146330319Y-70445548D02*
X146195632Y-70445548D01*
X146195632Y-70445548D02*
X146094617Y-70411876D01*
X146094617Y-70411876D02*
X145926258Y-70310861D01*
X145926258Y-70310861D02*
X145825243Y-70209846D01*
X145825243Y-70209846D02*
X145724227Y-70041487D01*
X145724227Y-70041487D02*
X145690556Y-69940472D01*
X145690556Y-69940472D02*
X145690556Y-69805785D01*
X145690556Y-69805785D02*
X145757899Y-69671098D01*
X145757899Y-69671098D02*
X145825243Y-69603754D01*
X145825243Y-69603754D02*
X145959930Y-69536411D01*
X145959930Y-69536411D02*
X146027273Y-69536411D01*
X147340471Y-69502739D02*
X146936410Y-69906800D01*
X147138441Y-69704769D02*
X146431334Y-68997663D01*
X146431334Y-68997663D02*
X146465006Y-69166021D01*
X146465006Y-69166021D02*
X146465006Y-69300708D01*
X146465006Y-69300708D02*
X146431334Y-69401724D01*
X148013907Y-68829304D02*
X147609846Y-69233365D01*
X147811876Y-69031334D02*
X147104769Y-68324227D01*
X147104769Y-68324227D02*
X147138441Y-68492586D01*
X147138441Y-68492586D02*
X147138441Y-68627273D01*
X147138441Y-68627273D02*
X147104769Y-68728288D01*
X139833333Y-82454819D02*
X139500000Y-81978628D01*
X139261905Y-82454819D02*
X139261905Y-81454819D01*
X139261905Y-81454819D02*
X139642857Y-81454819D01*
X139642857Y-81454819D02*
X139738095Y-81502438D01*
X139738095Y-81502438D02*
X139785714Y-81550057D01*
X139785714Y-81550057D02*
X139833333Y-81645295D01*
X139833333Y-81645295D02*
X139833333Y-81788152D01*
X139833333Y-81788152D02*
X139785714Y-81883390D01*
X139785714Y-81883390D02*
X139738095Y-81931009D01*
X139738095Y-81931009D02*
X139642857Y-81978628D01*
X139642857Y-81978628D02*
X139261905Y-81978628D01*
X140214286Y-81550057D02*
X140261905Y-81502438D01*
X140261905Y-81502438D02*
X140357143Y-81454819D01*
X140357143Y-81454819D02*
X140595238Y-81454819D01*
X140595238Y-81454819D02*
X140690476Y-81502438D01*
X140690476Y-81502438D02*
X140738095Y-81550057D01*
X140738095Y-81550057D02*
X140785714Y-81645295D01*
X140785714Y-81645295D02*
X140785714Y-81740533D01*
X140785714Y-81740533D02*
X140738095Y-81883390D01*
X140738095Y-81883390D02*
X140166667Y-82454819D01*
X140166667Y-82454819D02*
X140785714Y-82454819D01*
X149683333Y-75609580D02*
X149635714Y-75657200D01*
X149635714Y-75657200D02*
X149492857Y-75704819D01*
X149492857Y-75704819D02*
X149397619Y-75704819D01*
X149397619Y-75704819D02*
X149254762Y-75657200D01*
X149254762Y-75657200D02*
X149159524Y-75561961D01*
X149159524Y-75561961D02*
X149111905Y-75466723D01*
X149111905Y-75466723D02*
X149064286Y-75276247D01*
X149064286Y-75276247D02*
X149064286Y-75133390D01*
X149064286Y-75133390D02*
X149111905Y-74942914D01*
X149111905Y-74942914D02*
X149159524Y-74847676D01*
X149159524Y-74847676D02*
X149254762Y-74752438D01*
X149254762Y-74752438D02*
X149397619Y-74704819D01*
X149397619Y-74704819D02*
X149492857Y-74704819D01*
X149492857Y-74704819D02*
X149635714Y-74752438D01*
X149635714Y-74752438D02*
X149683333Y-74800057D01*
X150540476Y-74704819D02*
X150350000Y-74704819D01*
X150350000Y-74704819D02*
X150254762Y-74752438D01*
X150254762Y-74752438D02*
X150207143Y-74800057D01*
X150207143Y-74800057D02*
X150111905Y-74942914D01*
X150111905Y-74942914D02*
X150064286Y-75133390D01*
X150064286Y-75133390D02*
X150064286Y-75514342D01*
X150064286Y-75514342D02*
X150111905Y-75609580D01*
X150111905Y-75609580D02*
X150159524Y-75657200D01*
X150159524Y-75657200D02*
X150254762Y-75704819D01*
X150254762Y-75704819D02*
X150445238Y-75704819D01*
X150445238Y-75704819D02*
X150540476Y-75657200D01*
X150540476Y-75657200D02*
X150588095Y-75609580D01*
X150588095Y-75609580D02*
X150635714Y-75514342D01*
X150635714Y-75514342D02*
X150635714Y-75276247D01*
X150635714Y-75276247D02*
X150588095Y-75181009D01*
X150588095Y-75181009D02*
X150540476Y-75133390D01*
X150540476Y-75133390D02*
X150445238Y-75085771D01*
X150445238Y-75085771D02*
X150254762Y-75085771D01*
X150254762Y-75085771D02*
X150159524Y-75133390D01*
X150159524Y-75133390D02*
X150111905Y-75181009D01*
X150111905Y-75181009D02*
X150064286Y-75276247D01*
X141783333Y-79359580D02*
X141735714Y-79407200D01*
X141735714Y-79407200D02*
X141592857Y-79454819D01*
X141592857Y-79454819D02*
X141497619Y-79454819D01*
X141497619Y-79454819D02*
X141354762Y-79407200D01*
X141354762Y-79407200D02*
X141259524Y-79311961D01*
X141259524Y-79311961D02*
X141211905Y-79216723D01*
X141211905Y-79216723D02*
X141164286Y-79026247D01*
X141164286Y-79026247D02*
X141164286Y-78883390D01*
X141164286Y-78883390D02*
X141211905Y-78692914D01*
X141211905Y-78692914D02*
X141259524Y-78597676D01*
X141259524Y-78597676D02*
X141354762Y-78502438D01*
X141354762Y-78502438D02*
X141497619Y-78454819D01*
X141497619Y-78454819D02*
X141592857Y-78454819D01*
X141592857Y-78454819D02*
X141735714Y-78502438D01*
X141735714Y-78502438D02*
X141783333Y-78550057D01*
X142735714Y-79454819D02*
X142164286Y-79454819D01*
X142450000Y-79454819D02*
X142450000Y-78454819D01*
X142450000Y-78454819D02*
X142354762Y-78597676D01*
X142354762Y-78597676D02*
X142259524Y-78692914D01*
X142259524Y-78692914D02*
X142164286Y-78740533D01*
X139227887Y-72236411D02*
X139160543Y-72236411D01*
X139160543Y-72236411D02*
X139025856Y-72169067D01*
X139025856Y-72169067D02*
X138958513Y-72101724D01*
X138958513Y-72101724D02*
X138891169Y-71967037D01*
X138891169Y-71967037D02*
X138891169Y-71832350D01*
X138891169Y-71832350D02*
X138924841Y-71731335D01*
X138924841Y-71731335D02*
X139025856Y-71562976D01*
X139025856Y-71562976D02*
X139126871Y-71461961D01*
X139126871Y-71461961D02*
X139295230Y-71360945D01*
X139295230Y-71360945D02*
X139396245Y-71327274D01*
X139396245Y-71327274D02*
X139530932Y-71327274D01*
X139530932Y-71327274D02*
X139665619Y-71394617D01*
X139665619Y-71394617D02*
X139732963Y-71461961D01*
X139732963Y-71461961D02*
X139800306Y-71596648D01*
X139800306Y-71596648D02*
X139800306Y-71663991D01*
X140103352Y-71832350D02*
X140541085Y-72270083D01*
X140541085Y-72270083D02*
X140036009Y-72303754D01*
X140036009Y-72303754D02*
X140137024Y-72404770D01*
X140137024Y-72404770D02*
X140170696Y-72505785D01*
X140170696Y-72505785D02*
X140170696Y-72573128D01*
X140170696Y-72573128D02*
X140137024Y-72674144D01*
X140137024Y-72674144D02*
X139968665Y-72842502D01*
X139968665Y-72842502D02*
X139867650Y-72876174D01*
X139867650Y-72876174D02*
X139800306Y-72876174D01*
X139800306Y-72876174D02*
X139699291Y-72842502D01*
X139699291Y-72842502D02*
X139497261Y-72640472D01*
X139497261Y-72640472D02*
X139463589Y-72539457D01*
X139463589Y-72539457D02*
X139463589Y-72472113D01*
X140407142Y-84609580D02*
X140359523Y-84657200D01*
X140359523Y-84657200D02*
X140216666Y-84704819D01*
X140216666Y-84704819D02*
X140121428Y-84704819D01*
X140121428Y-84704819D02*
X139978571Y-84657200D01*
X139978571Y-84657200D02*
X139883333Y-84561961D01*
X139883333Y-84561961D02*
X139835714Y-84466723D01*
X139835714Y-84466723D02*
X139788095Y-84276247D01*
X139788095Y-84276247D02*
X139788095Y-84133390D01*
X139788095Y-84133390D02*
X139835714Y-83942914D01*
X139835714Y-83942914D02*
X139883333Y-83847676D01*
X139883333Y-83847676D02*
X139978571Y-83752438D01*
X139978571Y-83752438D02*
X140121428Y-83704819D01*
X140121428Y-83704819D02*
X140216666Y-83704819D01*
X140216666Y-83704819D02*
X140359523Y-83752438D01*
X140359523Y-83752438D02*
X140407142Y-83800057D01*
X141359523Y-84704819D02*
X140788095Y-84704819D01*
X141073809Y-84704819D02*
X141073809Y-83704819D01*
X141073809Y-83704819D02*
X140978571Y-83847676D01*
X140978571Y-83847676D02*
X140883333Y-83942914D01*
X140883333Y-83942914D02*
X140788095Y-83990533D01*
X141692857Y-83704819D02*
X142311904Y-83704819D01*
X142311904Y-83704819D02*
X141978571Y-84085771D01*
X141978571Y-84085771D02*
X142121428Y-84085771D01*
X142121428Y-84085771D02*
X142216666Y-84133390D01*
X142216666Y-84133390D02*
X142264285Y-84181009D01*
X142264285Y-84181009D02*
X142311904Y-84276247D01*
X142311904Y-84276247D02*
X142311904Y-84514342D01*
X142311904Y-84514342D02*
X142264285Y-84609580D01*
X142264285Y-84609580D02*
X142216666Y-84657200D01*
X142216666Y-84657200D02*
X142121428Y-84704819D01*
X142121428Y-84704819D02*
X141835714Y-84704819D01*
X141835714Y-84704819D02*
X141740476Y-84657200D01*
X141740476Y-84657200D02*
X141692857Y-84609580D01*
X145988095Y-75854819D02*
X145988095Y-76664342D01*
X145988095Y-76664342D02*
X146035714Y-76759580D01*
X146035714Y-76759580D02*
X146083333Y-76807200D01*
X146083333Y-76807200D02*
X146178571Y-76854819D01*
X146178571Y-76854819D02*
X146369047Y-76854819D01*
X146369047Y-76854819D02*
X146464285Y-76807200D01*
X146464285Y-76807200D02*
X146511904Y-76759580D01*
X146511904Y-76759580D02*
X146559523Y-76664342D01*
X146559523Y-76664342D02*
X146559523Y-75854819D01*
X147559523Y-76854819D02*
X146988095Y-76854819D01*
X147273809Y-76854819D02*
X147273809Y-75854819D01*
X147273809Y-75854819D02*
X147178571Y-75997676D01*
X147178571Y-75997676D02*
X147083333Y-76092914D01*
X147083333Y-76092914D02*
X146988095Y-76140533D01*
X141815500Y-70904819D02*
X141815500Y-71142914D01*
X141577405Y-71047676D02*
X141815500Y-71142914D01*
X141815500Y-71142914D02*
X142053595Y-71047676D01*
X141672643Y-71333390D02*
X141815500Y-71142914D01*
X141815500Y-71142914D02*
X141958357Y-71333390D01*
X152115966Y-58186262D02*
X152115966Y-58900547D01*
X152115966Y-58900547D02*
X152068347Y-59043404D01*
X152068347Y-59043404D02*
X151973109Y-59138643D01*
X151973109Y-59138643D02*
X151830252Y-59186262D01*
X151830252Y-59186262D02*
X151735014Y-59186262D01*
X152544538Y-58281500D02*
X152592157Y-58233881D01*
X152592157Y-58233881D02*
X152687395Y-58186262D01*
X152687395Y-58186262D02*
X152925490Y-58186262D01*
X152925490Y-58186262D02*
X153020728Y-58233881D01*
X153020728Y-58233881D02*
X153068347Y-58281500D01*
X153068347Y-58281500D02*
X153115966Y-58376738D01*
X153115966Y-58376738D02*
X153115966Y-58471976D01*
X153115966Y-58471976D02*
X153068347Y-58614833D01*
X153068347Y-58614833D02*
X152496919Y-59186262D01*
X152496919Y-59186262D02*
X153115966Y-59186262D01*
X146275047Y-80631514D02*
X146275047Y-81006467D01*
X146012579Y-80219065D02*
X146275047Y-80631514D01*
X146275047Y-80631514D02*
X146537514Y-80219065D01*
X147212430Y-81006467D02*
X146762486Y-81006467D01*
X146987458Y-81006467D02*
X146987458Y-80219065D01*
X146987458Y-80219065D02*
X146912467Y-80331551D01*
X146912467Y-80331551D02*
X146837477Y-80406542D01*
X146837477Y-80406542D02*
X146762486Y-80444037D01*
X139127887Y-67736411D02*
X139060543Y-67736411D01*
X139060543Y-67736411D02*
X138925856Y-67669067D01*
X138925856Y-67669067D02*
X138858513Y-67601724D01*
X138858513Y-67601724D02*
X138791169Y-67467037D01*
X138791169Y-67467037D02*
X138791169Y-67332350D01*
X138791169Y-67332350D02*
X138824841Y-67231335D01*
X138824841Y-67231335D02*
X138925856Y-67062976D01*
X138925856Y-67062976D02*
X139026871Y-66961961D01*
X139026871Y-66961961D02*
X139195230Y-66860945D01*
X139195230Y-66860945D02*
X139296245Y-66827274D01*
X139296245Y-66827274D02*
X139430932Y-66827274D01*
X139430932Y-66827274D02*
X139565619Y-66894617D01*
X139565619Y-66894617D02*
X139632963Y-66961961D01*
X139632963Y-66961961D02*
X139700306Y-67096648D01*
X139700306Y-67096648D02*
X139700306Y-67163991D01*
X140138039Y-67938441D02*
X139666635Y-68409846D01*
X140239054Y-67500709D02*
X139565619Y-67837426D01*
X139565619Y-67837426D02*
X140003352Y-68275159D01*
X148257142Y-84609580D02*
X148209523Y-84657200D01*
X148209523Y-84657200D02*
X148066666Y-84704819D01*
X148066666Y-84704819D02*
X147971428Y-84704819D01*
X147971428Y-84704819D02*
X147828571Y-84657200D01*
X147828571Y-84657200D02*
X147733333Y-84561961D01*
X147733333Y-84561961D02*
X147685714Y-84466723D01*
X147685714Y-84466723D02*
X147638095Y-84276247D01*
X147638095Y-84276247D02*
X147638095Y-84133390D01*
X147638095Y-84133390D02*
X147685714Y-83942914D01*
X147685714Y-83942914D02*
X147733333Y-83847676D01*
X147733333Y-83847676D02*
X147828571Y-83752438D01*
X147828571Y-83752438D02*
X147971428Y-83704819D01*
X147971428Y-83704819D02*
X148066666Y-83704819D01*
X148066666Y-83704819D02*
X148209523Y-83752438D01*
X148209523Y-83752438D02*
X148257142Y-83800057D01*
X149209523Y-84704819D02*
X148638095Y-84704819D01*
X148923809Y-84704819D02*
X148923809Y-83704819D01*
X148923809Y-83704819D02*
X148828571Y-83847676D01*
X148828571Y-83847676D02*
X148733333Y-83942914D01*
X148733333Y-83942914D02*
X148638095Y-83990533D01*
X149590476Y-83800057D02*
X149638095Y-83752438D01*
X149638095Y-83752438D02*
X149733333Y-83704819D01*
X149733333Y-83704819D02*
X149971428Y-83704819D01*
X149971428Y-83704819D02*
X150066666Y-83752438D01*
X150066666Y-83752438D02*
X150114285Y-83800057D01*
X150114285Y-83800057D02*
X150161904Y-83895295D01*
X150161904Y-83895295D02*
X150161904Y-83990533D01*
X150161904Y-83990533D02*
X150114285Y-84133390D01*
X150114285Y-84133390D02*
X149542857Y-84704819D01*
X149542857Y-84704819D02*
X150161904Y-84704819D01*
X150283333Y-81904819D02*
X149950000Y-81428628D01*
X149711905Y-81904819D02*
X149711905Y-80904819D01*
X149711905Y-80904819D02*
X150092857Y-80904819D01*
X150092857Y-80904819D02*
X150188095Y-80952438D01*
X150188095Y-80952438D02*
X150235714Y-81000057D01*
X150235714Y-81000057D02*
X150283333Y-81095295D01*
X150283333Y-81095295D02*
X150283333Y-81238152D01*
X150283333Y-81238152D02*
X150235714Y-81333390D01*
X150235714Y-81333390D02*
X150188095Y-81381009D01*
X150188095Y-81381009D02*
X150092857Y-81428628D01*
X150092857Y-81428628D02*
X149711905Y-81428628D01*
X151235714Y-81904819D02*
X150664286Y-81904819D01*
X150950000Y-81904819D02*
X150950000Y-80904819D01*
X150950000Y-80904819D02*
X150854762Y-81047676D01*
X150854762Y-81047676D02*
X150759524Y-81142914D01*
X150759524Y-81142914D02*
X150664286Y-81190533D01*
X140086411Y-62272112D02*
X140086411Y-62339456D01*
X140086411Y-62339456D02*
X140019067Y-62474143D01*
X140019067Y-62474143D02*
X139951724Y-62541486D01*
X139951724Y-62541486D02*
X139817037Y-62608830D01*
X139817037Y-62608830D02*
X139682350Y-62608830D01*
X139682350Y-62608830D02*
X139581335Y-62575158D01*
X139581335Y-62575158D02*
X139412976Y-62474143D01*
X139412976Y-62474143D02*
X139311961Y-62373128D01*
X139311961Y-62373128D02*
X139210945Y-62204769D01*
X139210945Y-62204769D02*
X139177274Y-62103754D01*
X139177274Y-62103754D02*
X139177274Y-61969067D01*
X139177274Y-61969067D02*
X139244617Y-61834380D01*
X139244617Y-61834380D02*
X139311961Y-61767036D01*
X139311961Y-61767036D02*
X139446648Y-61699693D01*
X139446648Y-61699693D02*
X139513991Y-61699693D01*
X140153754Y-61531334D02*
X140052739Y-61565006D01*
X140052739Y-61565006D02*
X139985396Y-61565006D01*
X139985396Y-61565006D02*
X139884380Y-61531334D01*
X139884380Y-61531334D02*
X139850709Y-61497662D01*
X139850709Y-61497662D02*
X139817037Y-61396647D01*
X139817037Y-61396647D02*
X139817037Y-61329303D01*
X139817037Y-61329303D02*
X139850709Y-61228288D01*
X139850709Y-61228288D02*
X139985396Y-61093601D01*
X139985396Y-61093601D02*
X140086411Y-61059929D01*
X140086411Y-61059929D02*
X140153754Y-61059929D01*
X140153754Y-61059929D02*
X140254770Y-61093601D01*
X140254770Y-61093601D02*
X140288441Y-61127273D01*
X140288441Y-61127273D02*
X140322113Y-61228288D01*
X140322113Y-61228288D02*
X140322113Y-61295632D01*
X140322113Y-61295632D02*
X140288441Y-61396647D01*
X140288441Y-61396647D02*
X140153754Y-61531334D01*
X140153754Y-61531334D02*
X140120083Y-61632349D01*
X140120083Y-61632349D02*
X140120083Y-61699693D01*
X140120083Y-61699693D02*
X140153754Y-61800708D01*
X140153754Y-61800708D02*
X140288441Y-61935395D01*
X140288441Y-61935395D02*
X140389457Y-61969067D01*
X140389457Y-61969067D02*
X140456800Y-61969067D01*
X140456800Y-61969067D02*
X140557815Y-61935395D01*
X140557815Y-61935395D02*
X140692502Y-61800708D01*
X140692502Y-61800708D02*
X140726174Y-61699693D01*
X140726174Y-61699693D02*
X140726174Y-61632349D01*
X140726174Y-61632349D02*
X140692502Y-61531334D01*
X140692502Y-61531334D02*
X140557815Y-61396647D01*
X140557815Y-61396647D02*
X140456800Y-61362975D01*
X140456800Y-61362975D02*
X140389457Y-61362975D01*
X140389457Y-61362975D02*
X140288441Y-61396647D01*
X138275750Y-60903246D02*
X138848170Y-61475666D01*
X138848170Y-61475666D02*
X138949185Y-61509338D01*
X138949185Y-61509338D02*
X139016529Y-61509338D01*
X139016529Y-61509338D02*
X139117544Y-61475666D01*
X139117544Y-61475666D02*
X139252231Y-61340979D01*
X139252231Y-61340979D02*
X139285903Y-61239964D01*
X139285903Y-61239964D02*
X139285903Y-61172620D01*
X139285903Y-61172620D02*
X139252231Y-61071605D01*
X139252231Y-61071605D02*
X138679811Y-60499185D01*
X139050201Y-60263483D02*
X139050201Y-60196140D01*
X139050201Y-60196140D02*
X139083872Y-60095124D01*
X139083872Y-60095124D02*
X139252231Y-59926766D01*
X139252231Y-59926766D02*
X139353246Y-59893094D01*
X139353246Y-59893094D02*
X139420590Y-59893094D01*
X139420590Y-59893094D02*
X139521605Y-59926766D01*
X139521605Y-59926766D02*
X139588949Y-59994109D01*
X139588949Y-59994109D02*
X139656292Y-60128796D01*
X139656292Y-60128796D02*
X139656292Y-60936918D01*
X139656292Y-60936918D02*
X140094025Y-60499185D01*
X143425047Y-80631514D02*
X143425047Y-81006467D01*
X143162579Y-80219065D02*
X143425047Y-80631514D01*
X143425047Y-80631514D02*
X143687514Y-80219065D01*
X143912486Y-80294056D02*
X143949981Y-80256560D01*
X143949981Y-80256560D02*
X144024972Y-80219065D01*
X144024972Y-80219065D02*
X144212449Y-80219065D01*
X144212449Y-80219065D02*
X144287439Y-80256560D01*
X144287439Y-80256560D02*
X144324935Y-80294056D01*
X144324935Y-80294056D02*
X144362430Y-80369046D01*
X144362430Y-80369046D02*
X144362430Y-80444037D01*
X144362430Y-80444037D02*
X144324935Y-80556523D01*
X144324935Y-80556523D02*
X143874991Y-81006467D01*
X143874991Y-81006467D02*
X144362430Y-81006467D01*
X147333333Y-78559580D02*
X147285714Y-78607200D01*
X147285714Y-78607200D02*
X147142857Y-78654819D01*
X147142857Y-78654819D02*
X147047619Y-78654819D01*
X147047619Y-78654819D02*
X146904762Y-78607200D01*
X146904762Y-78607200D02*
X146809524Y-78511961D01*
X146809524Y-78511961D02*
X146761905Y-78416723D01*
X146761905Y-78416723D02*
X146714286Y-78226247D01*
X146714286Y-78226247D02*
X146714286Y-78083390D01*
X146714286Y-78083390D02*
X146761905Y-77892914D01*
X146761905Y-77892914D02*
X146809524Y-77797676D01*
X146809524Y-77797676D02*
X146904762Y-77702438D01*
X146904762Y-77702438D02*
X147047619Y-77654819D01*
X147047619Y-77654819D02*
X147142857Y-77654819D01*
X147142857Y-77654819D02*
X147285714Y-77702438D01*
X147285714Y-77702438D02*
X147333333Y-77750057D01*
X148238095Y-77654819D02*
X147761905Y-77654819D01*
X147761905Y-77654819D02*
X147714286Y-78131009D01*
X147714286Y-78131009D02*
X147761905Y-78083390D01*
X147761905Y-78083390D02*
X147857143Y-78035771D01*
X147857143Y-78035771D02*
X148095238Y-78035771D01*
X148095238Y-78035771D02*
X148190476Y-78083390D01*
X148190476Y-78083390D02*
X148238095Y-78131009D01*
X148238095Y-78131009D02*
X148285714Y-78226247D01*
X148285714Y-78226247D02*
X148285714Y-78464342D01*
X148285714Y-78464342D02*
X148238095Y-78559580D01*
X148238095Y-78559580D02*
X148190476Y-78607200D01*
X148190476Y-78607200D02*
X148095238Y-78654819D01*
X148095238Y-78654819D02*
X147857143Y-78654819D01*
X147857143Y-78654819D02*
X147761905Y-78607200D01*
X147761905Y-78607200D02*
X147714286Y-78559580D01*
X139833333Y-79559580D02*
X139785714Y-79607200D01*
X139785714Y-79607200D02*
X139642857Y-79654819D01*
X139642857Y-79654819D02*
X139547619Y-79654819D01*
X139547619Y-79654819D02*
X139404762Y-79607200D01*
X139404762Y-79607200D02*
X139309524Y-79511961D01*
X139309524Y-79511961D02*
X139261905Y-79416723D01*
X139261905Y-79416723D02*
X139214286Y-79226247D01*
X139214286Y-79226247D02*
X139214286Y-79083390D01*
X139214286Y-79083390D02*
X139261905Y-78892914D01*
X139261905Y-78892914D02*
X139309524Y-78797676D01*
X139309524Y-78797676D02*
X139404762Y-78702438D01*
X139404762Y-78702438D02*
X139547619Y-78654819D01*
X139547619Y-78654819D02*
X139642857Y-78654819D01*
X139642857Y-78654819D02*
X139785714Y-78702438D01*
X139785714Y-78702438D02*
X139833333Y-78750057D01*
X140214286Y-78750057D02*
X140261905Y-78702438D01*
X140261905Y-78702438D02*
X140357143Y-78654819D01*
X140357143Y-78654819D02*
X140595238Y-78654819D01*
X140595238Y-78654819D02*
X140690476Y-78702438D01*
X140690476Y-78702438D02*
X140738095Y-78750057D01*
X140738095Y-78750057D02*
X140785714Y-78845295D01*
X140785714Y-78845295D02*
X140785714Y-78940533D01*
X140785714Y-78940533D02*
X140738095Y-79083390D01*
X140738095Y-79083390D02*
X140166667Y-79654819D01*
X140166667Y-79654819D02*
X140785714Y-79654819D01*
X140127888Y-66286411D02*
X140060544Y-66286411D01*
X140060544Y-66286411D02*
X139925857Y-66219067D01*
X139925857Y-66219067D02*
X139858514Y-66151724D01*
X139858514Y-66151724D02*
X139791170Y-66017037D01*
X139791170Y-66017037D02*
X139791170Y-65882350D01*
X139791170Y-65882350D02*
X139824842Y-65781335D01*
X139824842Y-65781335D02*
X139925857Y-65612976D01*
X139925857Y-65612976D02*
X140026872Y-65511961D01*
X140026872Y-65511961D02*
X140195231Y-65410945D01*
X140195231Y-65410945D02*
X140296246Y-65377274D01*
X140296246Y-65377274D02*
X140430933Y-65377274D01*
X140430933Y-65377274D02*
X140565620Y-65444617D01*
X140565620Y-65444617D02*
X140632964Y-65511961D01*
X140632964Y-65511961D02*
X140700307Y-65646648D01*
X140700307Y-65646648D02*
X140700307Y-65713991D01*
X140397262Y-66690472D02*
X140531949Y-66825159D01*
X140531949Y-66825159D02*
X140632964Y-66858831D01*
X140632964Y-66858831D02*
X140700307Y-66858831D01*
X140700307Y-66858831D02*
X140868666Y-66825159D01*
X140868666Y-66825159D02*
X141037025Y-66724144D01*
X141037025Y-66724144D02*
X141306399Y-66454770D01*
X141306399Y-66454770D02*
X141340071Y-66353754D01*
X141340071Y-66353754D02*
X141340071Y-66286411D01*
X141340071Y-66286411D02*
X141306399Y-66185396D01*
X141306399Y-66185396D02*
X141171712Y-66050709D01*
X141171712Y-66050709D02*
X141070697Y-66017037D01*
X141070697Y-66017037D02*
X141003353Y-66017037D01*
X141003353Y-66017037D02*
X140902338Y-66050709D01*
X140902338Y-66050709D02*
X140733979Y-66219067D01*
X140733979Y-66219067D02*
X140700307Y-66320083D01*
X140700307Y-66320083D02*
X140700307Y-66387426D01*
X140700307Y-66387426D02*
X140733979Y-66488441D01*
X140733979Y-66488441D02*
X140868666Y-66623128D01*
X140868666Y-66623128D02*
X140969681Y-66656800D01*
X140969681Y-66656800D02*
X141037025Y-66656800D01*
X141037025Y-66656800D02*
X141138040Y-66623128D01*
X145999693Y-66008830D02*
X145999693Y-66076174D01*
X145999693Y-66076174D02*
X145932349Y-66210861D01*
X145932349Y-66210861D02*
X145865006Y-66278204D01*
X145865006Y-66278204D02*
X145730319Y-66345548D01*
X145730319Y-66345548D02*
X145595632Y-66345548D01*
X145595632Y-66345548D02*
X145494617Y-66311876D01*
X145494617Y-66311876D02*
X145326258Y-66210861D01*
X145326258Y-66210861D02*
X145225243Y-66109846D01*
X145225243Y-66109846D02*
X145124227Y-65941487D01*
X145124227Y-65941487D02*
X145090556Y-65840472D01*
X145090556Y-65840472D02*
X145090556Y-65705785D01*
X145090556Y-65705785D02*
X145157899Y-65571098D01*
X145157899Y-65571098D02*
X145225243Y-65503754D01*
X145225243Y-65503754D02*
X145359930Y-65436411D01*
X145359930Y-65436411D02*
X145427273Y-65436411D01*
X146740471Y-65402739D02*
X146336410Y-65806800D01*
X146538441Y-65604769D02*
X145831334Y-64897663D01*
X145831334Y-64897663D02*
X145865006Y-65066021D01*
X145865006Y-65066021D02*
X145865006Y-65200708D01*
X145865006Y-65200708D02*
X145831334Y-65301724D01*
X146471098Y-64257899D02*
X146538441Y-64190556D01*
X146538441Y-64190556D02*
X146639456Y-64156884D01*
X146639456Y-64156884D02*
X146706800Y-64156884D01*
X146706800Y-64156884D02*
X146807815Y-64190556D01*
X146807815Y-64190556D02*
X146976174Y-64291571D01*
X146976174Y-64291571D02*
X147144533Y-64459930D01*
X147144533Y-64459930D02*
X147245548Y-64628288D01*
X147245548Y-64628288D02*
X147279220Y-64729304D01*
X147279220Y-64729304D02*
X147279220Y-64796647D01*
X147279220Y-64796647D02*
X147245548Y-64897662D01*
X147245548Y-64897662D02*
X147178204Y-64965006D01*
X147178204Y-64965006D02*
X147077189Y-64998678D01*
X147077189Y-64998678D02*
X147009846Y-64998678D01*
X147009846Y-64998678D02*
X146908830Y-64965006D01*
X146908830Y-64965006D02*
X146740472Y-64863991D01*
X146740472Y-64863991D02*
X146572113Y-64695632D01*
X146572113Y-64695632D02*
X146471098Y-64527273D01*
X146471098Y-64527273D02*
X146437426Y-64426258D01*
X146437426Y-64426258D02*
X146437426Y-64358914D01*
X146437426Y-64358914D02*
X146471098Y-64257899D01*
%TO.C,C7*%
D11*
X144995543Y-62665010D02*
X145365010Y-62295543D01*
X146034990Y-63704457D02*
X146404457Y-63334990D01*
%TO.C,C11*%
X144865010Y-67995543D02*
X144495543Y-68365010D01*
X145904457Y-69034990D02*
X145534990Y-69404457D01*
%TO.C,R2*%
X141127500Y-82237258D02*
X141127500Y-81762742D01*
X142172500Y-82237258D02*
X142172500Y-81762742D01*
%TO.C,C6*%
X147690000Y-75390580D02*
X147690000Y-75109420D01*
X148710000Y-75390580D02*
X148710000Y-75109420D01*
%TO.C,C1*%
X141240000Y-76590580D02*
X141240000Y-76309420D01*
X142260000Y-76590580D02*
X142260000Y-76309420D01*
%TO.C,C3*%
X140089970Y-71411219D02*
X140288781Y-71610030D01*
X140811219Y-70689970D02*
X141010030Y-70888781D01*
%TO.C,C13*%
X143390580Y-83740000D02*
X143109420Y-83740000D01*
X143390580Y-84760000D02*
X143109420Y-84760000D01*
D12*
%TO.C,U1*%
G36*
X145240563Y-76057500D02*
G01*
X144859563Y-76057500D01*
X144859563Y-75803500D01*
X145240563Y-75803500D01*
X145240563Y-76057500D01*
G37*
G36*
X145740689Y-70596500D02*
G01*
X145359689Y-70596500D01*
X145359689Y-70342500D01*
X145740689Y-70342500D01*
X145740689Y-70596500D01*
G37*
%TO.C,Y1*%
D13*
X146225000Y-81650000D02*
X146225000Y-81850000D01*
X147065000Y-81650000D02*
X147065000Y-81850000D01*
D14*
X145745000Y-81000000D02*
G75*
G02*
X145545000Y-81000000I-100000J0D01*
G01*
X145545000Y-81000000D02*
G75*
G02*
X145745000Y-81000000I100000J0D01*
G01*
%TO.C,C4*%
D11*
X140595543Y-69684990D02*
X140965010Y-70054457D01*
X141634990Y-68645543D02*
X142004457Y-69015010D01*
%TO.C,C12*%
X146390580Y-83740000D02*
X146109420Y-83740000D01*
X146390580Y-84760000D02*
X146109420Y-84760000D01*
%TO.C,R1*%
X148277500Y-81687258D02*
X148277500Y-81212742D01*
X149322500Y-81687258D02*
X149322500Y-81212742D01*
%TO.C,C8*%
X142745543Y-65215010D02*
X143115010Y-64845543D01*
X143784990Y-66254457D02*
X144154457Y-65884990D01*
%TO.C,U2*%
X140003446Y-62990381D02*
X141290381Y-61703446D01*
X140038802Y-63025736D02*
X140003446Y-62990381D01*
X141290381Y-61703446D02*
X141325736Y-61738802D01*
X141382304Y-64369239D02*
X140830761Y-63817696D01*
X142209619Y-65196554D02*
X142174264Y-65161198D01*
X143461198Y-63874264D02*
X143496554Y-63909619D01*
X143496554Y-63909619D02*
X142209619Y-65196554D01*
X144246087Y-63556066D02*
X143906676Y-63895477D01*
X143843036Y-63492426D01*
X144246087Y-63556066D01*
G36*
X144246087Y-63556066D02*
G01*
X143906676Y-63895477D01*
X143843036Y-63492426D01*
X144246087Y-63556066D01*
G37*
%TO.C,Y2*%
D13*
X143375000Y-81650000D02*
X143375000Y-81850000D01*
X144215000Y-81650000D02*
X144215000Y-81850000D01*
D14*
X142895000Y-81000000D02*
G75*
G02*
X142695000Y-81000000I-100000J0D01*
G01*
X142695000Y-81000000D02*
G75*
G02*
X142895000Y-81000000I100000J0D01*
G01*
%TO.C,C5*%
D11*
X144890000Y-78340580D02*
X144890000Y-78059420D01*
X145910000Y-78340580D02*
X145910000Y-78059420D01*
%TO.C,C2*%
X139265000Y-76861252D02*
X139265000Y-76338748D01*
X140735000Y-76861252D02*
X140735000Y-76338748D01*
%TO.C,C9*%
X141939970Y-68261219D02*
X142138781Y-68460030D01*
X142661219Y-67539970D02*
X142860030Y-67738781D01*
%TO.C,C10*%
X144238781Y-66489970D02*
X144039970Y-66688781D01*
X144960030Y-67211219D02*
X144761219Y-67410030D01*
%TD*%
M02*
