%TF.GenerationSoftware,KiCad,Pcbnew,9.0.7*%
%TF.CreationDate,2026-02-14T20:26:59-05:00*%
%TF.ProjectId,tad5212-board,74616435-3231-4322-9d62-6f6172642e6b,rev?*%
%TF.SameCoordinates,Original*%
%TF.FileFunction,Copper,L1,Top*%
%TF.FilePolarity,Positive*%
%FSLAX46Y46*%
G04 Gerber Fmt 4.6, Leading zero omitted, Abs format (unit mm)*
G04 Created by KiCad (PCBNEW 9.0.7) date 2026-02-14 20:26:59*
%MOMM*%
%LPD*%
G01*
G04 APERTURE LIST*
G04 Aperture macros list*
%AMRoundRect*
0 Rectangle with rounded corners*
0 $1 Rounding radius*
0 $2 $3 $4 $5 $6 $7 $8 $9 X,Y pos of 4 corners*
0 Add a 4 corners polygon primitive as box body*
4,1,4,$2,$3,$4,$5,$6,$7,$8,$9,$2,$3,0*
0 Add four circle primitives for the rounded corners*
1,1,$1+$1,$2,$3*
1,1,$1+$1,$4,$5*
1,1,$1+$1,$6,$7*
1,1,$1+$1,$8,$9*
0 Add four rect primitives between the rounded corners*
20,1,$1+$1,$2,$3,$4,$5,0*
20,1,$1+$1,$4,$5,$6,$7,0*
20,1,$1+$1,$6,$7,$8,$9,0*
20,1,$1+$1,$8,$9,$2,$3,0*%
G04 Aperture macros list end*
%TA.AperFunction,SMDPad,CuDef*%
%ADD10RoundRect,0.225000X0.250000X-0.225000X0.250000X0.225000X-0.250000X0.225000X-0.250000X-0.225000X0*%
%TD*%
%TA.AperFunction,ComponentPad*%
%ADD11C,1.700000*%
%TD*%
%TA.AperFunction,ComponentPad*%
%ADD12R,1.700000X1.700000*%
%TD*%
%TA.AperFunction,SMDPad,CuDef*%
%ADD13R,0.812800X0.254000*%
%TD*%
%TA.AperFunction,SMDPad,CuDef*%
%ADD14R,0.254000X0.812800*%
%TD*%
%TA.AperFunction,SMDPad,CuDef*%
%ADD15R,0.254000X0.254000*%
%TD*%
%TA.AperFunction,SMDPad,CuDef*%
%ADD16R,2.209800X2.209800*%
%TD*%
%TA.AperFunction,SMDPad,CuDef*%
%ADD17RoundRect,0.225000X0.225000X0.250000X-0.225000X0.250000X-0.225000X-0.250000X0.225000X-0.250000X0*%
%TD*%
%TA.AperFunction,SMDPad,CuDef*%
%ADD18RoundRect,0.225000X-0.250000X0.225000X-0.250000X-0.225000X0.250000X-0.225000X0.250000X0.225000X0*%
%TD*%
%TA.AperFunction,SMDPad,CuDef*%
%ADD19RoundRect,0.225000X-0.225000X-0.250000X0.225000X-0.250000X0.225000X0.250000X-0.225000X0.250000X0*%
%TD*%
%TA.AperFunction,ViaPad*%
%ADD20C,0.600000*%
%TD*%
%TA.AperFunction,Conductor*%
%ADD21C,0.127000*%
%TD*%
G04 APERTURE END LIST*
D10*
%TO.P,C2,2*%
%TO.N,+3.3V*%
X140100000Y-75825000D03*
%TO.P,C2,1*%
%TO.N,GND*%
X140100000Y-77375000D03*
%TD*%
D11*
%TO.P,J2,10,Pin_10*%
%TO.N,/GPO1*%
X152449300Y-83971443D03*
%TO.P,J2,9,Pin_9*%
%TO.N,/GPI1*%
X152449300Y-81431443D03*
%TO.P,J2,8,Pin_8*%
%TO.N,unconnected-(J2-Pin_8-Pad8)*%
X152449300Y-78891443D03*
%TO.P,J2,7,Pin_7*%
%TO.N,unconnected-(J2-Pin_7-Pad7)*%
X152449300Y-76351443D03*
%TO.P,J2,6,Pin_6*%
%TO.N,unconnected-(J2-Pin_6-Pad6)*%
X152449300Y-73811443D03*
%TO.P,J2,5,Pin_5*%
%TO.N,unconnected-(J2-Pin_5-Pad5)*%
X152449300Y-71271443D03*
%TO.P,J2,4,Pin_4*%
%TO.N,/OUT1M*%
X152449300Y-68731443D03*
%TO.P,J2,3,Pin_3*%
%TO.N,/OUT1P*%
X152449300Y-66191443D03*
%TO.P,J2,2,Pin_2*%
%TO.N,/OUT2P*%
X152449300Y-63651443D03*
D12*
%TO.P,J2,1,Pin_1*%
%TO.N,/OUT2M*%
X152449300Y-61111443D03*
%TD*%
D11*
%TO.P,J1,10,Pin_10*%
%TO.N,/GPIO2*%
X137209300Y-83971443D03*
%TO.P,J1,9,Pin_9*%
%TO.N,/GPIO1*%
X137209300Y-81431443D03*
%TO.P,J1,8,Pin_8*%
%TO.N,/SCL*%
X137209300Y-78891443D03*
%TO.P,J1,7,Pin_7*%
%TO.N,/SDA*%
X137209300Y-76351443D03*
%TO.P,J1,6,Pin_6*%
%TO.N,/DIN*%
X137209300Y-73811443D03*
%TO.P,J1,5,Pin_5*%
%TO.N,/DOUT*%
X137209300Y-71271443D03*
%TO.P,J1,4,Pin_4*%
%TO.N,/FSYNC*%
X137209300Y-68731443D03*
%TO.P,J1,3,Pin_3*%
%TO.N,/BCLK*%
X137209300Y-66191443D03*
%TO.P,J1,2,Pin_2*%
%TO.N,GND*%
X137209300Y-63651443D03*
D12*
%TO.P,J1,1,Pin_1*%
%TO.N,+3.3V*%
X137209300Y-61111443D03*
%TD*%
D13*
%TO.P,U1,1,DREG*%
%TO.N,/DREG*%
X142856900Y-71949685D03*
%TO.P,U1,2,BCLK*%
%TO.N,/BCLK*%
X142856900Y-72449811D03*
%TO.P,U1,3,FSYNC*%
%TO.N,/FSYNC*%
X142856900Y-72949937D03*
%TO.P,U1,4,DOUT*%
%TO.N,/DOUT*%
X142856900Y-73450063D03*
%TO.P,U1,5,DIN*%
%TO.N,/DIN*%
X142856900Y-73950189D03*
%TO.P,U1,6,IOVDD*%
%TO.N,+3.3V*%
X142856900Y-74450315D03*
D14*
%TO.P,U1,7,SCL*%
%TO.N,/SDA*%
X143549685Y-75143100D03*
%TO.P,U1,8,SDA*%
%TO.N,/SCL*%
X144049811Y-75143100D03*
%TO.P,U1,9,GPIO1*%
%TO.N,/GPIO1*%
X144549937Y-75143100D03*
%TO.P,U1,10,GPIO2*%
%TO.N,/GPIO2*%
X145050063Y-75143100D03*
%TO.P,U1,11,GPO1*%
%TO.N,/GPO1*%
X145550189Y-75143100D03*
%TO.P,U1,12,GPI1*%
%TO.N,/GPI1*%
X146050315Y-75143100D03*
D13*
%TO.P,U1,13,ADDR*%
%TO.N,GND*%
X146743100Y-74450315D03*
%TO.P,U1,14,MICBIAS*%
%TO.N,Net-(U1-MICBIAS)*%
X146743100Y-73950189D03*
%TO.P,U1,15,IN1P*%
%TO.N,GND*%
X146743100Y-73450063D03*
%TO.P,U1,16,IN1M*%
X146743100Y-72949937D03*
%TO.P,U1,17,IN2P*%
X146743100Y-72449811D03*
%TO.P,U1,18,IN2M*%
X146743100Y-71949685D03*
D14*
%TO.P,U1,19,OUT1M*%
%TO.N,/OUT1M*%
X146050315Y-71256900D03*
%TO.P,U1,20,OUT1P*%
%TO.N,/OUT1P*%
X145550189Y-71256900D03*
%TO.P,U1,21,OUT2P*%
%TO.N,/OUT2P*%
X145050063Y-71256900D03*
%TO.P,U1,22,OUT2M*%
%TO.N,/OUT2M*%
X144549937Y-71256900D03*
%TO.P,U1,23,AVDD*%
%TO.N,+3.3V*%
X144049811Y-71256900D03*
%TO.P,U1,24,VREF*%
%TO.N,Net-(U1-VREF)*%
X143549685Y-71256900D03*
D15*
%TO.P,U1,A1,VSS*%
%TO.N,GND*%
X143074000Y-71473943D03*
%TO.P,U1,A2,VSS*%
X143074000Y-74926057D03*
%TO.P,U1,A3,VSS*%
X146526000Y-74926057D03*
%TO.P,U1,A4,VSS*%
X146526000Y-71473943D03*
D16*
%TO.P,U1,29,EPAD*%
X144800000Y-73200000D03*
%TD*%
D17*
%TO.P,C8,1*%
%TO.N,GND*%
X145375000Y-69000000D03*
%TO.P,C8,2*%
%TO.N,+3.3V*%
X143825000Y-69000000D03*
%TD*%
%TO.P,C7,1*%
%TO.N,GND*%
X145375000Y-67500000D03*
%TO.P,C7,2*%
%TO.N,+3.3V*%
X143825000Y-67500000D03*
%TD*%
D18*
%TO.P,C6,1*%
%TO.N,GND*%
X142400000Y-64425000D03*
%TO.P,C6,2*%
%TO.N,Net-(U1-VREF)*%
X142400000Y-65975000D03*
%TD*%
D10*
%TO.P,C5,1*%
%TO.N,GND*%
X149300000Y-77575000D03*
%TO.P,C5,2*%
%TO.N,Net-(U1-MICBIAS)*%
X149300000Y-76025000D03*
%TD*%
D19*
%TO.P,C4,1*%
%TO.N,GND*%
X140225000Y-69100000D03*
%TO.P,C4,2*%
%TO.N,/DREG*%
X141775000Y-69100000D03*
%TD*%
%TO.P,C3,1*%
%TO.N,GND*%
X140225000Y-67600000D03*
%TO.P,C3,2*%
%TO.N,/DREG*%
X141775000Y-67600000D03*
%TD*%
D10*
%TO.P,C1,1*%
%TO.N,GND*%
X141600000Y-77375000D03*
%TO.P,C1,2*%
%TO.N,+3.3V*%
X141600000Y-75825000D03*
%TD*%
D20*
%TO.N,GND*%
X144100000Y-72500000D03*
X144800000Y-73200000D03*
X144100000Y-73900000D03*
X144800000Y-73200000D03*
X145500000Y-72500000D03*
X144800000Y-73200000D03*
X145500000Y-73900000D03*
X145500000Y-73900000D03*
X144800000Y-73200000D03*
X144800000Y-73200000D03*
X144800000Y-73200000D03*
X144800000Y-73200000D03*
X147000000Y-67000000D03*
X147700000Y-71000000D03*
X140800000Y-65400000D03*
X142300000Y-70400000D03*
X142700000Y-78700000D03*
X141200000Y-78800000D03*
%TO.N,+3.3V*%
X139600000Y-75100000D03*
X139600000Y-66400000D03*
%TO.N,GND*%
X147900000Y-77200000D03*
%TO.N,/SCL*%
X143903268Y-77004902D03*
%TO.N,/SDA*%
X143500000Y-76400000D03*
%TD*%
D21*
%TO.N,/OUT2M*%
X144549937Y-71256900D02*
X144549937Y-70723500D01*
X144549937Y-70723500D02*
X145160766Y-70112671D01*
X145160766Y-70112671D02*
X146112672Y-70112671D01*
X146112672Y-70112671D02*
X150137984Y-66087359D01*
X150137984Y-66087359D02*
X150137984Y-63422759D01*
X150137984Y-63422759D02*
X152449300Y-61111443D01*
%TO.N,GND*%
X147900000Y-75400000D02*
X147900000Y-76300000D01*
X146526000Y-74926057D02*
X146526057Y-74926057D01*
X146526057Y-74926057D02*
X147900000Y-76300000D01*
X147700000Y-72400000D02*
X147700000Y-71900000D01*
X147650315Y-71949685D02*
X147700000Y-71900000D01*
X146743100Y-71949685D02*
X147650315Y-71949685D01*
X147700000Y-72900000D02*
X147700000Y-72400000D01*
X146743100Y-72449811D02*
X147650189Y-72449811D01*
X147650189Y-72449811D02*
X147700000Y-72400000D01*
X147700000Y-73300000D02*
X147700000Y-72900000D01*
X146743100Y-72949937D02*
X147650063Y-72949937D01*
X147650063Y-72949937D02*
X147700000Y-72900000D01*
X147549937Y-73450063D02*
X147700000Y-73300000D01*
X146743100Y-73450063D02*
X147549937Y-73450063D01*
X147700000Y-71900000D02*
X147700000Y-71000000D01*
X147226057Y-71473943D02*
X147700000Y-71000000D01*
X146526000Y-71473943D02*
X147226057Y-71473943D01*
X140800000Y-67025000D02*
X140800000Y-65400000D01*
X140225000Y-67600000D02*
X140800000Y-67025000D01*
X140225000Y-69100000D02*
X140225000Y-67600000D01*
%TO.N,/DREG*%
X141775000Y-69100000D02*
X141775000Y-67600000D01*
X142856900Y-71949685D02*
X141775000Y-70867785D01*
X141775000Y-70867785D02*
X141775000Y-69100000D01*
%TO.N,GND*%
X143074000Y-71174000D02*
X142300000Y-70400000D01*
X143074000Y-71473943D02*
X143074000Y-71174000D01*
X140100000Y-77700000D02*
X141200000Y-78800000D01*
X140100000Y-77375000D02*
X140100000Y-77700000D01*
X141200000Y-78800000D02*
X141600000Y-78400000D01*
X141600000Y-78400000D02*
X141600000Y-77375000D01*
X142700000Y-75300057D02*
X142700000Y-78700000D01*
X143074000Y-74926057D02*
X142700000Y-75300057D01*
%TO.N,+3.3V*%
X139600000Y-75100000D02*
X139600000Y-75325000D01*
X139600000Y-75325000D02*
X140100000Y-75825000D01*
X141600000Y-75825000D02*
X140100000Y-75825000D01*
X142856900Y-74450315D02*
X142249685Y-74450315D01*
X142249685Y-74450315D02*
X141600000Y-75100000D01*
X141600000Y-75100000D02*
X141600000Y-75825000D01*
X139600000Y-61111443D02*
X141111443Y-61111443D01*
X139600000Y-61111443D02*
X139600000Y-66400000D01*
%TO.N,/DIN*%
X142856900Y-73950189D02*
X137348046Y-73950189D01*
X137348046Y-73950189D02*
X137209300Y-73811443D01*
%TO.N,/DOUT*%
X137209300Y-71271443D02*
X139387920Y-73450063D01*
X139387920Y-73450063D02*
X142856900Y-73450063D01*
%TO.N,/FSYNC*%
X142856900Y-72949937D02*
X141427794Y-72949937D01*
X141427794Y-72949937D02*
X137209300Y-68731443D01*
%TO.N,/BCLK*%
X137209300Y-66191443D02*
X139100000Y-68082143D01*
X139100000Y-68082143D02*
X139100000Y-70200000D01*
X139100000Y-70200000D02*
X141349811Y-72449811D01*
X141349811Y-72449811D02*
X142856900Y-72449811D01*
%TO.N,+3.3V*%
X137209300Y-61111443D02*
X139600000Y-61111443D01*
X141111443Y-61111443D02*
X143825000Y-63825000D01*
X143825000Y-63825000D02*
X143825000Y-67500000D01*
%TO.N,Net-(U1-VREF)*%
X142800000Y-66800000D02*
X142400000Y-66400000D01*
X142400000Y-66400000D02*
X142400000Y-65975000D01*
%TO.N,+3.3V*%
X143825000Y-69000000D02*
X143825000Y-67500000D01*
X144049811Y-71256900D02*
X144049811Y-69224811D01*
X144049811Y-69224811D02*
X143825000Y-69000000D01*
%TO.N,/OUT2P*%
X145050063Y-71256900D02*
X145050063Y-70723500D01*
X145050063Y-70723500D02*
X145369563Y-70404000D01*
X146181967Y-70404000D02*
X150392984Y-66192983D01*
X145369563Y-70404000D02*
X146181967Y-70404000D01*
X150392984Y-66192983D02*
X150392984Y-65707759D01*
X150392984Y-65707759D02*
X152449300Y-63651443D01*
%TO.N,/OUT1P*%
X145614689Y-70659000D02*
X146287591Y-70659000D01*
X145550189Y-70723500D02*
X145614689Y-70659000D01*
X145550189Y-71256900D02*
X145550189Y-70723500D01*
X146287591Y-70659000D02*
X150755148Y-66191443D01*
X150755148Y-66191443D02*
X152449300Y-66191443D01*
%TO.N,/OUT1M*%
X146050315Y-71256900D02*
X148575772Y-68731443D01*
X148575772Y-68731443D02*
X152449300Y-68731443D01*
%TO.N,Net-(U1-VREF)*%
X142800000Y-70100000D02*
X142800000Y-66800000D01*
X143549685Y-71256900D02*
X143549685Y-70849685D01*
X143549685Y-70849685D02*
X142800000Y-70100000D01*
%TO.N,GND*%
X147900000Y-74985624D02*
X147900000Y-75100000D01*
X147364691Y-74450315D02*
X147657188Y-74742812D01*
X147900000Y-76300000D02*
X147900000Y-77200000D01*
X146743100Y-74450315D02*
X147364691Y-74450315D01*
X147657188Y-74742812D02*
X147900000Y-74985624D01*
X147900000Y-75100000D02*
X147900000Y-75400000D01*
%TO.N,Net-(U1-MICBIAS)*%
X146743100Y-73950189D02*
X147225189Y-73950189D01*
X147225189Y-73950189D02*
X149300000Y-76025000D01*
%TO.N,/GPI1*%
X146050315Y-75143100D02*
X146050315Y-77211834D01*
X146050315Y-77211834D02*
X150269924Y-81431443D01*
X150269924Y-81431443D02*
X152449300Y-81431443D01*
%TO.N,/GPO1*%
X145550189Y-75143100D02*
X145550189Y-77072332D01*
X145550189Y-77072332D02*
X152449300Y-83971443D01*
%TO.N,/GPIO2*%
X145050063Y-75143100D02*
X145050063Y-78510561D01*
X145050063Y-78510561D02*
X139589181Y-83971443D01*
X139589181Y-83971443D02*
X137209300Y-83971443D01*
%TO.N,/GPIO1*%
X144549937Y-75143100D02*
X144549937Y-78650063D01*
X144549937Y-78650063D02*
X141768557Y-81431443D01*
X141768557Y-81431443D02*
X137209300Y-81431443D01*
%TO.N,/SCL*%
X144049811Y-76858359D02*
X143903268Y-77004902D01*
X144049811Y-75143100D02*
X144049811Y-76858359D01*
%TO.N,/SDA*%
X143549685Y-76350315D02*
X143500000Y-76400000D01*
X143549685Y-75143100D02*
X143549685Y-76350315D01*
%TD*%
%TA.AperFunction,Conductor*%
%TO.N,GND*%
G36*
X138863724Y-74533874D02*
G01*
X138909479Y-74586678D01*
X138919423Y-74655836D01*
X138899787Y-74707081D01*
X138890606Y-74720820D01*
X138890602Y-74720827D01*
X138830264Y-74866498D01*
X138830261Y-74866510D01*
X138799500Y-75021153D01*
X138799500Y-75178846D01*
X138830261Y-75333489D01*
X138830264Y-75333501D01*
X138890602Y-75479172D01*
X138890609Y-75479185D01*
X138978210Y-75610288D01*
X138978213Y-75610292D01*
X139088181Y-75720260D01*
X139121666Y-75781583D01*
X139124500Y-75807941D01*
X139124500Y-76098336D01*
X139124501Y-76098355D01*
X139134650Y-76197707D01*
X139134651Y-76197710D01*
X139187996Y-76358694D01*
X139188001Y-76358705D01*
X139277029Y-76503040D01*
X139277032Y-76503044D01*
X139396955Y-76622967D01*
X139396959Y-76622970D01*
X139451977Y-76656906D01*
X139498702Y-76708854D01*
X139509923Y-76777816D01*
X139486147Y-76836755D01*
X139425267Y-76918079D01*
X139377134Y-77047127D01*
X139377133Y-77047132D01*
X139371000Y-77104163D01*
X139371000Y-77248000D01*
X142329000Y-77248000D01*
X142329000Y-77104180D01*
X142328999Y-77104163D01*
X142322866Y-77047132D01*
X142322865Y-77047127D01*
X142274732Y-76918079D01*
X142213853Y-76836756D01*
X142189435Y-76771292D01*
X142204286Y-76703018D01*
X142248021Y-76656906D01*
X142303044Y-76622968D01*
X142422968Y-76503044D01*
X142470559Y-76425886D01*
X142522505Y-76379165D01*
X142591468Y-76367942D01*
X142655550Y-76395786D01*
X142694406Y-76453854D01*
X142698283Y-76472873D01*
X142698311Y-76472868D01*
X142699454Y-76478618D01*
X142699499Y-76478835D01*
X142699500Y-76478845D01*
X142730261Y-76633489D01*
X142730264Y-76633501D01*
X142790602Y-76779172D01*
X142790609Y-76779185D01*
X142878210Y-76910288D01*
X142878212Y-76910291D01*
X142989707Y-77021786D01*
X142989715Y-77021792D01*
X143063177Y-77070878D01*
X143107983Y-77124490D01*
X143115904Y-77149788D01*
X143133529Y-77238393D01*
X143133531Y-77238401D01*
X143193870Y-77384074D01*
X143193877Y-77384087D01*
X143281478Y-77515190D01*
X143281481Y-77515194D01*
X143392975Y-77626688D01*
X143392979Y-77626691D01*
X143524082Y-77714292D01*
X143524095Y-77714299D01*
X143669766Y-77774637D01*
X143669771Y-77774639D01*
X143820595Y-77804640D01*
X143824421Y-77805401D01*
X143824424Y-77805402D01*
X143861937Y-77805402D01*
X143928976Y-77825087D01*
X143974731Y-77877891D01*
X143985937Y-77929402D01*
X143985937Y-78365085D01*
X143966252Y-78432124D01*
X143949618Y-78452766D01*
X141571260Y-80831124D01*
X141509937Y-80864609D01*
X141483579Y-80867443D01*
X138513616Y-80867443D01*
X138446577Y-80847758D01*
X138403131Y-80799737D01*
X138364350Y-80723625D01*
X138239409Y-80551656D01*
X138089086Y-80401333D01*
X137917120Y-80276394D01*
X137916415Y-80276034D01*
X137908354Y-80271928D01*
X137857559Y-80223955D01*
X137840763Y-80156135D01*
X137863299Y-80089999D01*
X137908354Y-80050958D01*
X137917116Y-80046494D01*
X137939089Y-80030529D01*
X138089086Y-79921552D01*
X138089088Y-79921549D01*
X138089092Y-79921547D01*
X138239404Y-79771235D01*
X138239406Y-79771231D01*
X138239409Y-79771229D01*
X138364348Y-79599263D01*
X138364347Y-79599263D01*
X138364351Y-79599259D01*
X138460857Y-79409855D01*
X138526546Y-79207686D01*
X138559800Y-78997730D01*
X138559800Y-78785156D01*
X138526546Y-78575200D01*
X138460857Y-78373031D01*
X138364351Y-78183627D01*
X138364349Y-78183624D01*
X138364348Y-78183622D01*
X138239409Y-78011656D01*
X138089086Y-77861333D01*
X137917120Y-77736394D01*
X137916415Y-77736034D01*
X137908354Y-77731928D01*
X137857559Y-77683955D01*
X137848119Y-77645836D01*
X139371000Y-77645836D01*
X139377133Y-77702867D01*
X139377134Y-77702872D01*
X139425267Y-77831921D01*
X139425269Y-77831924D01*
X139507811Y-77942185D01*
X139507814Y-77942188D01*
X139618075Y-78024730D01*
X139618078Y-78024732D01*
X139747127Y-78072865D01*
X139747132Y-78072866D01*
X139804163Y-78078999D01*
X139804180Y-78079000D01*
X139973000Y-78079000D01*
X140227000Y-78079000D01*
X140395820Y-78079000D01*
X140395836Y-78078999D01*
X140452867Y-78072866D01*
X140452872Y-78072865D01*
X140581921Y-78024732D01*
X140581924Y-78024730D01*
X140692184Y-77942188D01*
X140750733Y-77863979D01*
X140806667Y-77822108D01*
X140876359Y-77817124D01*
X140937682Y-77850609D01*
X140949267Y-77863979D01*
X141007815Y-77942188D01*
X141118075Y-78024730D01*
X141118078Y-78024732D01*
X141247127Y-78072865D01*
X141247132Y-78072866D01*
X141304163Y-78078999D01*
X141304180Y-78079000D01*
X141473000Y-78079000D01*
X141727000Y-78079000D01*
X141895820Y-78079000D01*
X141895836Y-78078999D01*
X141952867Y-78072866D01*
X141952872Y-78072865D01*
X142081921Y-78024732D01*
X142081924Y-78024730D01*
X142192185Y-77942188D01*
X142192188Y-77942185D01*
X142274730Y-77831924D01*
X142274732Y-77831921D01*
X142322865Y-77702872D01*
X142322866Y-77702867D01*
X142328999Y-77645836D01*
X142329000Y-77645819D01*
X142329000Y-77502000D01*
X141727000Y-77502000D01*
X141727000Y-78079000D01*
X141473000Y-78079000D01*
X141473000Y-77502000D01*
X140227000Y-77502000D01*
X140227000Y-78079000D01*
X139973000Y-78079000D01*
X139973000Y-77502000D01*
X139371000Y-77502000D01*
X139371000Y-77645836D01*
X137848119Y-77645836D01*
X137840763Y-77616135D01*
X137863299Y-77549999D01*
X137908354Y-77510958D01*
X137917116Y-77506494D01*
X137997627Y-77448000D01*
X138089086Y-77381552D01*
X138089088Y-77381549D01*
X138089092Y-77381547D01*
X138239404Y-77231235D01*
X138239406Y-77231231D01*
X138239409Y-77231229D01*
X138364348Y-77059263D01*
X138364347Y-77059263D01*
X138364351Y-77059259D01*
X138460857Y-76869855D01*
X138526546Y-76667686D01*
X138559800Y-76457730D01*
X138559800Y-76245156D01*
X138526546Y-76035200D01*
X138460857Y-75833031D01*
X138364351Y-75643627D01*
X138364349Y-75643624D01*
X138364348Y-75643622D01*
X138239409Y-75471656D01*
X138089086Y-75321333D01*
X137917120Y-75196394D01*
X137916415Y-75196034D01*
X137908354Y-75191928D01*
X137857559Y-75143955D01*
X137840763Y-75076135D01*
X137863299Y-75009999D01*
X137908354Y-74970958D01*
X137917116Y-74966494D01*
X137956339Y-74937997D01*
X138089086Y-74841552D01*
X138089088Y-74841549D01*
X138089092Y-74841547D01*
X138239404Y-74691235D01*
X138330898Y-74565302D01*
X138386227Y-74522638D01*
X138431216Y-74514189D01*
X138796685Y-74514189D01*
X138863724Y-74533874D01*
G37*
%TD.AperFunction*%
%TA.AperFunction,Conductor*%
G36*
X151159586Y-69299730D02*
G01*
X151174792Y-69299079D01*
X151192430Y-69309374D01*
X151212023Y-69315128D01*
X151222919Y-69327172D01*
X151235134Y-69334302D01*
X151255469Y-69363149D01*
X151294249Y-69439260D01*
X151419190Y-69611229D01*
X151569513Y-69761552D01*
X151741482Y-69886493D01*
X151750246Y-69890959D01*
X151801042Y-69938934D01*
X151817836Y-70006755D01*
X151795298Y-70072890D01*
X151750246Y-70111927D01*
X151741482Y-70116392D01*
X151569513Y-70241333D01*
X151419190Y-70391656D01*
X151294251Y-70563622D01*
X151197744Y-70753028D01*
X151132053Y-70955203D01*
X151098800Y-71165156D01*
X151098800Y-71377729D01*
X151132052Y-71587678D01*
X151132054Y-71587686D01*
X151179465Y-71733602D01*
X151197744Y-71789857D01*
X151294251Y-71979263D01*
X151419190Y-72151229D01*
X151569513Y-72301552D01*
X151741482Y-72426493D01*
X151750246Y-72430959D01*
X151801042Y-72478934D01*
X151817836Y-72546755D01*
X151795298Y-72612890D01*
X151750246Y-72651927D01*
X151741482Y-72656392D01*
X151569513Y-72781333D01*
X151419190Y-72931656D01*
X151294251Y-73103622D01*
X151197744Y-73293028D01*
X151197743Y-73293030D01*
X151197743Y-73293031D01*
X151188106Y-73322690D01*
X151132053Y-73495203D01*
X151102064Y-73684546D01*
X151098800Y-73705156D01*
X151098800Y-73917730D01*
X151132054Y-74127686D01*
X151155632Y-74200252D01*
X151197744Y-74329857D01*
X151294251Y-74519263D01*
X151419190Y-74691229D01*
X151569513Y-74841552D01*
X151741482Y-74966493D01*
X151750246Y-74970959D01*
X151801042Y-75018934D01*
X151817836Y-75086755D01*
X151795298Y-75152890D01*
X151750246Y-75191927D01*
X151741482Y-75196392D01*
X151569513Y-75321333D01*
X151419190Y-75471656D01*
X151294251Y-75643622D01*
X151197744Y-75833028D01*
X151197743Y-75833030D01*
X151197743Y-75833031D01*
X151185042Y-75872120D01*
X151132053Y-76035203D01*
X151122051Y-76098355D01*
X151098800Y-76245156D01*
X151098800Y-76457730D01*
X151102108Y-76478618D01*
X151130346Y-76656906D01*
X151132054Y-76667686D01*
X151193535Y-76856905D01*
X151197744Y-76869857D01*
X151294251Y-77059263D01*
X151419190Y-77231229D01*
X151569513Y-77381552D01*
X151741482Y-77506493D01*
X151750246Y-77510959D01*
X151801042Y-77558934D01*
X151817836Y-77626755D01*
X151795298Y-77692890D01*
X151750246Y-77731927D01*
X151741482Y-77736392D01*
X151569513Y-77861333D01*
X151419190Y-78011656D01*
X151294251Y-78183622D01*
X151197744Y-78373028D01*
X151132053Y-78575203D01*
X151098800Y-78785156D01*
X151098800Y-78997729D01*
X151132053Y-79207682D01*
X151197744Y-79409857D01*
X151294251Y-79599263D01*
X151419190Y-79771229D01*
X151569513Y-79921552D01*
X151741482Y-80046493D01*
X151750246Y-80050959D01*
X151801042Y-80098934D01*
X151817836Y-80166755D01*
X151795298Y-80232890D01*
X151750246Y-80271927D01*
X151741482Y-80276392D01*
X151569513Y-80401333D01*
X151419190Y-80551656D01*
X151294249Y-80723625D01*
X151255469Y-80799737D01*
X151207495Y-80850534D01*
X151144984Y-80867443D01*
X150554902Y-80867443D01*
X150487863Y-80847758D01*
X150467221Y-80831124D01*
X147481933Y-77845836D01*
X148571000Y-77845836D01*
X148577133Y-77902867D01*
X148577134Y-77902872D01*
X148625267Y-78031921D01*
X148625269Y-78031924D01*
X148707811Y-78142185D01*
X148707814Y-78142188D01*
X148818075Y-78224730D01*
X148818078Y-78224732D01*
X148947127Y-78272865D01*
X148947132Y-78272866D01*
X149004163Y-78278999D01*
X149004180Y-78279000D01*
X149173000Y-78279000D01*
X149427000Y-78279000D01*
X149595820Y-78279000D01*
X149595836Y-78278999D01*
X149652867Y-78272866D01*
X149652872Y-78272865D01*
X149781921Y-78224732D01*
X149781924Y-78224730D01*
X149892185Y-78142188D01*
X149892188Y-78142185D01*
X149974730Y-78031924D01*
X149974732Y-78031921D01*
X150022865Y-77902872D01*
X150022866Y-77902867D01*
X150028999Y-77845836D01*
X150029000Y-77845819D01*
X150029000Y-77702000D01*
X149427000Y-77702000D01*
X149427000Y-78279000D01*
X149173000Y-78279000D01*
X149173000Y-77702000D01*
X148571000Y-77702000D01*
X148571000Y-77845836D01*
X147481933Y-77845836D01*
X146650634Y-77014537D01*
X146617149Y-76953214D01*
X146614315Y-76926856D01*
X146614315Y-75832422D01*
X146622131Y-75789093D01*
X146671406Y-75656983D01*
X146677815Y-75597373D01*
X146677814Y-75405944D01*
X146697498Y-75338907D01*
X146742493Y-75299918D01*
X146741951Y-75299106D01*
X146748416Y-75294785D01*
X146750302Y-75293152D01*
X146751907Y-75292453D01*
X146836123Y-75236180D01*
X146892263Y-75152161D01*
X146892264Y-75152160D01*
X146906999Y-75078078D01*
X146907000Y-75078075D01*
X146907000Y-75053057D01*
X146801814Y-75053057D01*
X146793128Y-75050506D01*
X146784167Y-75051795D01*
X146760126Y-75040816D01*
X146734775Y-75033372D01*
X146728847Y-75026531D01*
X146720611Y-75022770D01*
X146706321Y-75000535D01*
X146689020Y-74980568D01*
X146686732Y-74970053D01*
X146682837Y-74963992D01*
X146677814Y-74929057D01*
X146677814Y-74923057D01*
X146697499Y-74856018D01*
X146750303Y-74810263D01*
X146801814Y-74799057D01*
X146953381Y-74799057D01*
X147020420Y-74818742D01*
X147036021Y-74831314D01*
X147174514Y-74831314D01*
X147221432Y-74821982D01*
X147291024Y-74828211D01*
X147333303Y-74855919D01*
X148288181Y-75810797D01*
X148321666Y-75872120D01*
X148324500Y-75898478D01*
X148324500Y-76298337D01*
X148324501Y-76298355D01*
X148334650Y-76397707D01*
X148334651Y-76397710D01*
X148387996Y-76558694D01*
X148388001Y-76558705D01*
X148477029Y-76703040D01*
X148477032Y-76703044D01*
X148596955Y-76822967D01*
X148596959Y-76822970D01*
X148651977Y-76856906D01*
X148698702Y-76908854D01*
X148709923Y-76977816D01*
X148686147Y-77036755D01*
X148625267Y-77118079D01*
X148577134Y-77247127D01*
X148577133Y-77247132D01*
X148571000Y-77304163D01*
X148571000Y-77448000D01*
X150029000Y-77448000D01*
X150029000Y-77304180D01*
X150028999Y-77304163D01*
X150022866Y-77247132D01*
X150022865Y-77247127D01*
X149974732Y-77118079D01*
X149913853Y-77036756D01*
X149889435Y-76971292D01*
X149904286Y-76903018D01*
X149948021Y-76856906D01*
X150003044Y-76822968D01*
X150122968Y-76703044D01*
X150212003Y-76558697D01*
X150265349Y-76397708D01*
X150275500Y-76298345D01*
X150275499Y-75751656D01*
X150273645Y-75733511D01*
X150265349Y-75652292D01*
X150265348Y-75652289D01*
X150247148Y-75597364D01*
X150212003Y-75491303D01*
X150211999Y-75491297D01*
X150211998Y-75491294D01*
X150122970Y-75346959D01*
X150122967Y-75346955D01*
X150003044Y-75227032D01*
X150003040Y-75227029D01*
X149858705Y-75138001D01*
X149858699Y-75137998D01*
X149858697Y-75137997D01*
X149858694Y-75137996D01*
X149697709Y-75084651D01*
X149598352Y-75074500D01*
X149598345Y-75074500D01*
X149198478Y-75074500D01*
X149131439Y-75054815D01*
X149110797Y-75038181D01*
X147683572Y-73610956D01*
X147683570Y-73610953D01*
X147571494Y-73498877D01*
X147571489Y-73498873D01*
X147490224Y-73451955D01*
X147477911Y-73443833D01*
X147453186Y-73425323D01*
X147411316Y-73369388D01*
X147403499Y-73326058D01*
X147403499Y-73298047D01*
X147388809Y-73224189D01*
X147388810Y-73175809D01*
X147403499Y-73101958D01*
X147403500Y-73101955D01*
X147403500Y-73076937D01*
X146870100Y-73076937D01*
X146870100Y-73198689D01*
X146867549Y-73207374D01*
X146868838Y-73216336D01*
X146857859Y-73240376D01*
X146850415Y-73265728D01*
X146843574Y-73271655D01*
X146839813Y-73279892D01*
X146817578Y-73294181D01*
X146797611Y-73311483D01*
X146787096Y-73313770D01*
X146781035Y-73317666D01*
X146746100Y-73322689D01*
X146740100Y-73322689D01*
X146673061Y-73303004D01*
X146627306Y-73250200D01*
X146616100Y-73198689D01*
X146616100Y-72822937D01*
X146870100Y-72822937D01*
X147403499Y-72822937D01*
X147403499Y-72797921D01*
X147388809Y-72724063D01*
X147388810Y-72675683D01*
X147403499Y-72601832D01*
X147403500Y-72601829D01*
X147403500Y-72576811D01*
X146870100Y-72576811D01*
X146870100Y-72822937D01*
X146616100Y-72822937D01*
X146616100Y-72322811D01*
X146870100Y-72322811D01*
X147403499Y-72322811D01*
X147403499Y-72297795D01*
X147388809Y-72223937D01*
X147388810Y-72175557D01*
X147403499Y-72101706D01*
X147403500Y-72101703D01*
X147403500Y-72076685D01*
X146870100Y-72076685D01*
X146870100Y-72322811D01*
X146616100Y-72322811D01*
X146616100Y-72073685D01*
X146635785Y-72006646D01*
X146688589Y-71960891D01*
X146740100Y-71949685D01*
X146743100Y-71949685D01*
X146743100Y-71946685D01*
X146762785Y-71879646D01*
X146815589Y-71833891D01*
X146867100Y-71822685D01*
X147403499Y-71822685D01*
X147403499Y-71797670D01*
X147388762Y-71723578D01*
X147388761Y-71723575D01*
X147332623Y-71639561D01*
X147248604Y-71583421D01*
X147248603Y-71583420D01*
X147174521Y-71568685D01*
X147033624Y-71568685D01*
X146979738Y-71598109D01*
X146953380Y-71600943D01*
X146803249Y-71600943D01*
X146782003Y-71594704D01*
X146759915Y-71593125D01*
X146749131Y-71585052D01*
X146736210Y-71581258D01*
X146721710Y-71564524D01*
X146703982Y-71551253D01*
X146699274Y-71538632D01*
X146690455Y-71528454D01*
X146687303Y-71506536D01*
X146679565Y-71485789D01*
X146682427Y-71472628D01*
X146680511Y-71459296D01*
X146689710Y-71439152D01*
X146694417Y-71417516D01*
X146707685Y-71399790D01*
X146709536Y-71395740D01*
X146715568Y-71389262D01*
X146721568Y-71383262D01*
X146782891Y-71349777D01*
X146809249Y-71346943D01*
X146906999Y-71346943D01*
X146906999Y-71321929D01*
X146899340Y-71283422D01*
X146905569Y-71213830D01*
X146933272Y-71171557D01*
X148773070Y-69331762D01*
X148834393Y-69298277D01*
X148860751Y-69295443D01*
X151144984Y-69295443D01*
X151159586Y-69299730D01*
G37*
%TD.AperFunction*%
%TA.AperFunction,Conductor*%
G36*
X142648508Y-75146675D02*
G01*
X142681441Y-75150260D01*
X142682947Y-75151477D01*
X142684868Y-75151745D01*
X142714640Y-75170700D01*
X142878988Y-75311888D01*
X142917012Y-75370505D01*
X142922185Y-75405945D01*
X142922185Y-75597369D01*
X142922186Y-75597376D01*
X142928593Y-75656983D01*
X142950280Y-75715128D01*
X142950977Y-75724877D01*
X142955562Y-75733511D01*
X142953428Y-75759154D01*
X142955264Y-75784819D01*
X142950425Y-75795253D01*
X142949769Y-75803140D01*
X142939331Y-75819174D01*
X142932495Y-75833918D01*
X142927532Y-75840388D01*
X142878211Y-75889711D01*
X142800371Y-76006206D01*
X142797896Y-76009434D01*
X142772821Y-76027754D01*
X142748988Y-76047672D01*
X142744848Y-76048191D01*
X142741480Y-76050653D01*
X142710476Y-76052508D01*
X142679663Y-76056379D01*
X142675900Y-76054578D01*
X142671735Y-76054828D01*
X142644647Y-76039625D01*
X142616636Y-76026224D01*
X142614443Y-76022675D01*
X142610805Y-76020633D01*
X142596238Y-75993202D01*
X142579917Y-75966781D01*
X142579138Y-75961003D01*
X142578035Y-75958925D01*
X142578349Y-75955142D01*
X142575499Y-75933981D01*
X142575499Y-75551656D01*
X142568095Y-75479179D01*
X142565349Y-75452292D01*
X142565348Y-75452289D01*
X142549991Y-75405945D01*
X142516130Y-75303760D01*
X142516064Y-75301824D01*
X142515010Y-75300199D01*
X142514868Y-75267065D01*
X142513729Y-75233934D01*
X142514720Y-75232268D01*
X142514712Y-75230330D01*
X142532513Y-75202370D01*
X142549461Y-75173892D01*
X142551195Y-75173026D01*
X142552236Y-75171392D01*
X142582319Y-75157498D01*
X142611981Y-75142699D01*
X142613908Y-75142908D01*
X142615668Y-75142096D01*
X142648508Y-75146675D01*
G37*
%TD.AperFunction*%
%TA.AperFunction,Conductor*%
G36*
X140295039Y-67619685D02*
G01*
X140340794Y-67672489D01*
X140352000Y-67724000D01*
X140352000Y-69829000D01*
X140495820Y-69829000D01*
X140495836Y-69828999D01*
X140552867Y-69822866D01*
X140552872Y-69822865D01*
X140681920Y-69774732D01*
X140763243Y-69713853D01*
X140828707Y-69689435D01*
X140896980Y-69704286D01*
X140943093Y-69748021D01*
X140977031Y-69803043D01*
X141096955Y-69922967D01*
X141096959Y-69922970D01*
X141152097Y-69956980D01*
X141198822Y-70008928D01*
X141211000Y-70062518D01*
X141211000Y-70942040D01*
X141221066Y-70979608D01*
X141221067Y-70979608D01*
X141249435Y-71085482D01*
X141249436Y-71085483D01*
X141323687Y-71214089D01*
X141323689Y-71214091D01*
X141435761Y-71326163D01*
X141435767Y-71326168D01*
X141783729Y-71674130D01*
X141794341Y-71693566D01*
X141808842Y-71710300D01*
X141810758Y-71723631D01*
X141817214Y-71735453D01*
X141815634Y-71757539D01*
X141818786Y-71779458D01*
X141813190Y-71791709D01*
X141812230Y-71805145D01*
X141798959Y-71822871D01*
X141789761Y-71843014D01*
X141778429Y-71850296D01*
X141770358Y-71861078D01*
X141749612Y-71868815D01*
X141730983Y-71880788D01*
X141709064Y-71883939D01*
X141704894Y-71885495D01*
X141696048Y-71885811D01*
X141634789Y-71885811D01*
X141567750Y-71866126D01*
X141547108Y-71849492D01*
X139700319Y-70002703D01*
X139666834Y-69941380D01*
X139664000Y-69915022D01*
X139664000Y-69914506D01*
X139683685Y-69847467D01*
X139736489Y-69801712D01*
X139805647Y-69791768D01*
X139831335Y-69798325D01*
X139897131Y-69822866D01*
X139954163Y-69828999D01*
X139954180Y-69829000D01*
X140098000Y-69829000D01*
X140098000Y-67724000D01*
X140100550Y-67715314D01*
X140099262Y-67706353D01*
X140110240Y-67682312D01*
X140117685Y-67656961D01*
X140124525Y-67651033D01*
X140128287Y-67642797D01*
X140150521Y-67628507D01*
X140170489Y-67611206D01*
X140181003Y-67608918D01*
X140187065Y-67605023D01*
X140222000Y-67600000D01*
X140228000Y-67600000D01*
X140295039Y-67619685D01*
G37*
%TD.AperFunction*%
%TA.AperFunction,Conductor*%
G36*
X151041839Y-60220185D02*
G01*
X151087594Y-60272989D01*
X151098800Y-60324500D01*
X151098800Y-61612964D01*
X151079115Y-61680003D01*
X151062481Y-61700645D01*
X149686673Y-63076452D01*
X149686669Y-63076458D01*
X149612418Y-63205064D01*
X149612417Y-63205065D01*
X149577551Y-63335195D01*
X149577550Y-63335200D01*
X149573984Y-63348506D01*
X149573984Y-65802380D01*
X149554299Y-65869419D01*
X149537665Y-65890061D01*
X146277544Y-69150182D01*
X146216221Y-69183667D01*
X146146529Y-69178683D01*
X146102182Y-69150182D01*
X146079000Y-69127000D01*
X145499000Y-69127000D01*
X145490314Y-69124449D01*
X145481353Y-69125738D01*
X145457312Y-69114759D01*
X145431961Y-69107315D01*
X145426033Y-69100474D01*
X145417797Y-69096713D01*
X145403507Y-69074478D01*
X145386206Y-69054511D01*
X145383918Y-69043996D01*
X145380023Y-69037935D01*
X145375000Y-69003000D01*
X145375000Y-69000000D01*
X145372000Y-69000000D01*
X145304961Y-68980315D01*
X145259206Y-68927511D01*
X145248000Y-68876000D01*
X145248000Y-68873000D01*
X145502000Y-68873000D01*
X146079000Y-68873000D01*
X146079000Y-68704180D01*
X146078999Y-68704163D01*
X146072866Y-68647132D01*
X146072865Y-68647127D01*
X146024732Y-68518078D01*
X146024730Y-68518075D01*
X145942188Y-68407815D01*
X145863979Y-68349267D01*
X145822108Y-68293333D01*
X145817124Y-68223641D01*
X145850609Y-68162318D01*
X145863979Y-68150733D01*
X145942188Y-68092184D01*
X146024730Y-67981924D01*
X146024732Y-67981921D01*
X146072865Y-67852872D01*
X146072866Y-67852867D01*
X146078999Y-67795836D01*
X146079000Y-67795819D01*
X146079000Y-67627000D01*
X145502000Y-67627000D01*
X145502000Y-68873000D01*
X145248000Y-68873000D01*
X145248000Y-67373000D01*
X145502000Y-67373000D01*
X146079000Y-67373000D01*
X146079000Y-67204180D01*
X146078999Y-67204163D01*
X146072866Y-67147132D01*
X146072865Y-67147127D01*
X146024732Y-67018078D01*
X146024730Y-67018075D01*
X145942188Y-66907814D01*
X145942185Y-66907811D01*
X145831924Y-66825269D01*
X145831921Y-66825267D01*
X145702872Y-66777134D01*
X145702867Y-66777133D01*
X145645836Y-66771000D01*
X145502000Y-66771000D01*
X145502000Y-67373000D01*
X145248000Y-67373000D01*
X145248000Y-66771000D01*
X145104163Y-66771000D01*
X145047132Y-66777133D01*
X145047127Y-66777134D01*
X144918079Y-66825267D01*
X144836755Y-66886147D01*
X144771291Y-66910564D01*
X144703018Y-66895712D01*
X144656906Y-66851977D01*
X144622970Y-66796959D01*
X144622967Y-66796955D01*
X144503043Y-66677031D01*
X144447902Y-66643019D01*
X144401178Y-66591070D01*
X144389000Y-66537481D01*
X144389000Y-63750749D01*
X144388999Y-63750746D01*
X144388794Y-63749980D01*
X144388796Y-63749979D01*
X144388783Y-63749941D01*
X144350565Y-63607304D01*
X144276313Y-63478696D01*
X144171304Y-63373687D01*
X144171303Y-63373686D01*
X144166973Y-63369356D01*
X144166962Y-63369346D01*
X141569826Y-60772210D01*
X141569824Y-60772207D01*
X141457749Y-60660132D01*
X141457747Y-60660130D01*
X141329139Y-60585878D01*
X141185696Y-60547443D01*
X141185695Y-60547443D01*
X138683799Y-60547443D01*
X138675113Y-60544892D01*
X138666152Y-60546181D01*
X138642111Y-60535202D01*
X138616760Y-60527758D01*
X138610832Y-60520917D01*
X138602596Y-60517156D01*
X138588306Y-60494921D01*
X138571005Y-60474954D01*
X138568717Y-60464439D01*
X138564822Y-60458378D01*
X138559799Y-60423443D01*
X138559799Y-60324500D01*
X138579484Y-60257461D01*
X138632288Y-60211706D01*
X138683799Y-60200500D01*
X150974800Y-60200500D01*
X151041839Y-60220185D01*
G37*
%TD.AperFunction*%
%TA.AperFunction,Conductor*%
G36*
X140893504Y-61695128D02*
G01*
X140914146Y-61711762D01*
X142711703Y-63509319D01*
X142745188Y-63570642D01*
X142740204Y-63640334D01*
X142698332Y-63696267D01*
X142632868Y-63720684D01*
X142624022Y-63721000D01*
X142527000Y-63721000D01*
X142527000Y-64301000D01*
X142524449Y-64309685D01*
X142525738Y-64318647D01*
X142514759Y-64342687D01*
X142507315Y-64368039D01*
X142500474Y-64373966D01*
X142496713Y-64382203D01*
X142474478Y-64396492D01*
X142454511Y-64413794D01*
X142443996Y-64416081D01*
X142437935Y-64419977D01*
X142403000Y-64425000D01*
X142400000Y-64425000D01*
X142400000Y-64428000D01*
X142380315Y-64495039D01*
X142327511Y-64540794D01*
X142276000Y-64552000D01*
X141671000Y-64552000D01*
X141671000Y-64695836D01*
X141677133Y-64752867D01*
X141677134Y-64752872D01*
X141725267Y-64881921D01*
X141725269Y-64881924D01*
X141786146Y-64963244D01*
X141810564Y-65028708D01*
X141795713Y-65096981D01*
X141751978Y-65143093D01*
X141696956Y-65177031D01*
X141577032Y-65296955D01*
X141577029Y-65296959D01*
X141488001Y-65441294D01*
X141487996Y-65441305D01*
X141434651Y-65602290D01*
X141424500Y-65701647D01*
X141424500Y-66248337D01*
X141424501Y-66248355D01*
X141434650Y-66347707D01*
X141434651Y-66347710D01*
X141464218Y-66436937D01*
X141478105Y-66478846D01*
X141478121Y-66478892D01*
X141480523Y-66548720D01*
X141444791Y-66608762D01*
X141399420Y-66635602D01*
X141241303Y-66687997D01*
X141241294Y-66688001D01*
X141096959Y-66777029D01*
X141096955Y-66777032D01*
X140977031Y-66896956D01*
X140943093Y-66951978D01*
X140891144Y-66998702D01*
X140822181Y-67009923D01*
X140763244Y-66986146D01*
X140681924Y-66925269D01*
X140681921Y-66925267D01*
X140552872Y-66877134D01*
X140552867Y-66877133D01*
X140495836Y-66871000D01*
X140456939Y-66871000D01*
X140389900Y-66851315D01*
X140344145Y-66798511D01*
X140334201Y-66729353D01*
X140342378Y-66699547D01*
X140369737Y-66633497D01*
X140400500Y-66478842D01*
X140400500Y-66321158D01*
X140400500Y-66321155D01*
X140400499Y-66321153D01*
X140369738Y-66166510D01*
X140369738Y-66166508D01*
X140369737Y-66166503D01*
X140369735Y-66166498D01*
X140309397Y-66020827D01*
X140309390Y-66020814D01*
X140221789Y-65889711D01*
X140221786Y-65889707D01*
X140200319Y-65868240D01*
X140166834Y-65806917D01*
X140164000Y-65780559D01*
X140164000Y-64154163D01*
X141671000Y-64154163D01*
X141671000Y-64298000D01*
X142273000Y-64298000D01*
X142273000Y-63721000D01*
X142104163Y-63721000D01*
X142047132Y-63727133D01*
X142047127Y-63727134D01*
X141918078Y-63775267D01*
X141918075Y-63775269D01*
X141807814Y-63857811D01*
X141807811Y-63857814D01*
X141725269Y-63968075D01*
X141725267Y-63968078D01*
X141677134Y-64097127D01*
X141677133Y-64097132D01*
X141671000Y-64154163D01*
X140164000Y-64154163D01*
X140164000Y-61799443D01*
X140183685Y-61732404D01*
X140236489Y-61686649D01*
X140288000Y-61675443D01*
X140826465Y-61675443D01*
X140893504Y-61695128D01*
G37*
%TD.AperFunction*%
%TA.AperFunction,Conductor*%
G36*
X138979039Y-61695128D02*
G01*
X139024794Y-61747932D01*
X139036000Y-61799443D01*
X139036000Y-65780559D01*
X139016315Y-65847598D01*
X138999681Y-65868240D01*
X138978213Y-65889707D01*
X138978210Y-65889711D01*
X138890609Y-66020814D01*
X138890602Y-66020827D01*
X138830264Y-66166498D01*
X138830261Y-66166508D01*
X138807335Y-66281764D01*
X138807334Y-66281770D01*
X138799500Y-66321158D01*
X138799500Y-66478842D01*
X138799770Y-66480200D01*
X138799770Y-66480204D01*
X138830261Y-66633489D01*
X138830264Y-66633501D01*
X138861316Y-66708468D01*
X138862520Y-66719671D01*
X138867921Y-66729562D01*
X138866188Y-66753787D01*
X138868785Y-66777938D01*
X138863740Y-66788014D01*
X138862937Y-66799254D01*
X138848381Y-66818697D01*
X138837509Y-66840417D01*
X138827817Y-66846167D01*
X138821065Y-66855187D01*
X138798308Y-66863674D01*
X138777420Y-66876068D01*
X138766159Y-66875665D01*
X138755601Y-66879604D01*
X138731867Y-66874440D01*
X138707595Y-66873574D01*
X138696567Y-66866761D01*
X138687328Y-66864752D01*
X138659074Y-66843601D01*
X138530398Y-66714925D01*
X138496913Y-66653602D01*
X138500147Y-66588929D01*
X138526546Y-66507686D01*
X138559800Y-66297730D01*
X138559800Y-66085156D01*
X138526546Y-65875200D01*
X138460857Y-65673031D01*
X138364351Y-65483627D01*
X138364349Y-65483624D01*
X138364348Y-65483622D01*
X138239409Y-65311656D01*
X138089086Y-65161333D01*
X137917120Y-65036394D01*
X137727716Y-64939887D01*
X137677343Y-64923520D01*
X137635057Y-64909780D01*
X137577383Y-64870343D01*
X137550185Y-64805984D01*
X137562100Y-64737138D01*
X137609344Y-64685662D01*
X137628753Y-64676800D01*
X137628596Y-64676421D01*
X137633087Y-64674561D01*
X137787914Y-64595672D01*
X137787920Y-64595668D01*
X137895649Y-64517398D01*
X137895650Y-64517397D01*
X137461460Y-64083207D01*
X137516307Y-64051542D01*
X137609399Y-63958450D01*
X137641064Y-63903603D01*
X138075254Y-64337793D01*
X138075255Y-64337792D01*
X138153525Y-64230063D01*
X138153529Y-64230057D01*
X138232415Y-64075236D01*
X138286116Y-63909964D01*
X138313300Y-63738335D01*
X138313300Y-63564550D01*
X138286116Y-63392921D01*
X138232415Y-63227649D01*
X138153525Y-63072820D01*
X138075255Y-62965092D01*
X138075255Y-62965091D01*
X137641064Y-63399282D01*
X137609399Y-63344436D01*
X137516307Y-63251344D01*
X137461459Y-63219677D01*
X137895650Y-62785487D01*
X137895649Y-62785486D01*
X137787922Y-62707217D01*
X137766745Y-62696427D01*
X137715949Y-62648453D01*
X137699154Y-62580632D01*
X137721691Y-62514497D01*
X137776406Y-62471045D01*
X137823039Y-62461942D01*
X138107172Y-62461942D01*
X138166783Y-62455534D01*
X138301631Y-62405239D01*
X138416846Y-62318989D01*
X138503096Y-62203774D01*
X138553391Y-62068926D01*
X138559800Y-62009316D01*
X138559800Y-61799443D01*
X138562350Y-61790757D01*
X138561062Y-61781796D01*
X138572040Y-61757755D01*
X138579485Y-61732404D01*
X138586325Y-61726476D01*
X138590087Y-61718240D01*
X138612321Y-61703950D01*
X138632289Y-61686649D01*
X138642803Y-61684361D01*
X138648865Y-61680466D01*
X138683800Y-61675443D01*
X138912000Y-61675443D01*
X138979039Y-61695128D01*
G37*
%TD.AperFunction*%
%TA.AperFunction,Conductor*%
G36*
X136809201Y-63958450D02*
G01*
X136902293Y-64051542D01*
X136957139Y-64083207D01*
X136522949Y-64517397D01*
X136630677Y-64595668D01*
X136785512Y-64674561D01*
X136790004Y-64676421D01*
X136789384Y-64677918D01*
X136841209Y-64713348D01*
X136868412Y-64777704D01*
X136856504Y-64846552D01*
X136809265Y-64898032D01*
X136783541Y-64909781D01*
X136690883Y-64939887D01*
X136501478Y-65036395D01*
X136497382Y-65039371D01*
X136431575Y-65062849D01*
X136363522Y-65047022D01*
X136314828Y-64996914D01*
X136300500Y-64939051D01*
X136300500Y-64599143D01*
X136320185Y-64532104D01*
X136333241Y-64520790D01*
X136325233Y-64514795D01*
X136317495Y-64494049D01*
X136305523Y-64475420D01*
X136302371Y-64453501D01*
X136300816Y-64449331D01*
X136300500Y-64440485D01*
X136300500Y-64431998D01*
X136320185Y-64364959D01*
X136336819Y-64344317D01*
X136777534Y-63903602D01*
X136809201Y-63958450D01*
G37*
%TD.AperFunction*%
%TA.AperFunction,Conductor*%
G36*
X136505703Y-62768686D02*
G01*
X136512181Y-62774718D01*
X136957140Y-63219677D01*
X136902293Y-63251344D01*
X136809201Y-63344436D01*
X136777534Y-63399283D01*
X136336819Y-62958568D01*
X136322115Y-62931640D01*
X136305523Y-62905822D01*
X136304631Y-62899621D01*
X136303334Y-62897245D01*
X136300500Y-62870887D01*
X136300500Y-62862399D01*
X136320185Y-62795360D01*
X136372989Y-62749605D01*
X136442147Y-62739661D01*
X136505703Y-62768686D01*
G37*
%TD.AperFunction*%
%TD*%
M02*
