%TF.GenerationSoftware,KiCad,Pcbnew,9.0.7*%
%TF.CreationDate,2026-03-16T15:34:49-04:00*%
%TF.ProjectId,tad5212-board,74616435-3231-4322-9d62-6f6172642e6b,rev?*%
%TF.SameCoordinates,Original*%
%TF.FileFunction,Legend,Top*%
%TF.FilePolarity,Positive*%
%FSLAX46Y46*%
G04 Gerber Fmt 4.6, Leading zero omitted, Abs format (unit mm)*
G04 Created by KiCad (PCBNEW 9.0.7) date 2026-03-16 15:34:49*
%MOMM*%
%LPD*%
G01*
G04 APERTURE LIST*
G04 Aperture macros list*
%AMRoundRect*
0 Rectangle with rounded corners*
0 $1 Rounding radius*
0 $2 $3 $4 $5 $6 $7 $8 $9 X,Y pos of 4 corners*
0 Add a 4 corners polygon primitive as box body*
4,1,4,$2,$3,$4,$5,$6,$7,$8,$9,$2,$3,0*
0 Add four circle primitives for the rounded corners*
1,1,$1+$1,$2,$3*
1,1,$1+$1,$4,$5*
1,1,$1+$1,$6,$7*
1,1,$1+$1,$8,$9*
0 Add four rect primitives between the rounded corners*
20,1,$1+$1,$2,$3,$4,$5,0*
20,1,$1+$1,$4,$5,$6,$7,0*
20,1,$1+$1,$6,$7,$8,$9,0*
20,1,$1+$1,$8,$9,$2,$3,0*%
G04 Aperture macros list end*
%ADD10C,0.150000*%
%ADD11C,0.120000*%
%ADD12C,0.000000*%
%ADD13R,1.700000X1.700000*%
%ADD14C,1.700000*%
%ADD15RoundRect,0.250000X-0.159099X0.512652X-0.512652X0.159099X0.159099X-0.512652X0.512652X-0.159099X0*%
%ADD16RoundRect,0.225000X0.250000X-0.225000X0.250000X0.225000X-0.250000X0.225000X-0.250000X-0.225000X0*%
%ADD17RoundRect,0.225000X-0.335876X-0.017678X-0.017678X-0.335876X0.335876X0.017678X0.017678X0.335876X0*%
%ADD18R,0.812800X0.254000*%
%ADD19R,0.254000X0.812800*%
%ADD20R,2.209800X2.209800*%
%ADD21R,0.254000X0.254000*%
%ADD22RoundRect,0.250000X-0.512652X-0.159099X-0.159099X-0.512652X0.512652X0.159099X0.159099X0.512652X0*%
%ADD23RoundRect,0.250000X0.475000X-0.250000X0.475000X0.250000X-0.475000X0.250000X-0.475000X-0.250000X0*%
%ADD24RoundRect,0.225000X-0.017678X0.335876X-0.335876X0.017678X0.017678X-0.335876X0.335876X-0.017678X0*%
G04 APERTURE END LIST*
D10*
X136875966Y-58186262D02*
X136875966Y-58900547D01*
X136875966Y-58900547D02*
X136828347Y-59043404D01*
X136828347Y-59043404D02*
X136733109Y-59138643D01*
X136733109Y-59138643D02*
X136590252Y-59186262D01*
X136590252Y-59186262D02*
X136495014Y-59186262D01*
X137875966Y-59186262D02*
X137304538Y-59186262D01*
X137590252Y-59186262D02*
X137590252Y-58186262D01*
X137590252Y-58186262D02*
X137495014Y-58329119D01*
X137495014Y-58329119D02*
X137399776Y-58424357D01*
X137399776Y-58424357D02*
X137304538Y-58471976D01*
X146924350Y-69860051D02*
X146924350Y-69927395D01*
X146924350Y-69927395D02*
X146857006Y-70062082D01*
X146857006Y-70062082D02*
X146789663Y-70129425D01*
X146789663Y-70129425D02*
X146654976Y-70196769D01*
X146654976Y-70196769D02*
X146520289Y-70196769D01*
X146520289Y-70196769D02*
X146419274Y-70163097D01*
X146419274Y-70163097D02*
X146250915Y-70062082D01*
X146250915Y-70062082D02*
X146149900Y-69961067D01*
X146149900Y-69961067D02*
X146048884Y-69792708D01*
X146048884Y-69792708D02*
X146015213Y-69691693D01*
X146015213Y-69691693D02*
X146015213Y-69557006D01*
X146015213Y-69557006D02*
X146082556Y-69422319D01*
X146082556Y-69422319D02*
X146149900Y-69354975D01*
X146149900Y-69354975D02*
X146284587Y-69287632D01*
X146284587Y-69287632D02*
X146351930Y-69287632D01*
X146991693Y-69119273D02*
X146890678Y-69152945D01*
X146890678Y-69152945D02*
X146823335Y-69152945D01*
X146823335Y-69152945D02*
X146722319Y-69119273D01*
X146722319Y-69119273D02*
X146688648Y-69085601D01*
X146688648Y-69085601D02*
X146654976Y-68984586D01*
X146654976Y-68984586D02*
X146654976Y-68917242D01*
X146654976Y-68917242D02*
X146688648Y-68816227D01*
X146688648Y-68816227D02*
X146823335Y-68681540D01*
X146823335Y-68681540D02*
X146924350Y-68647868D01*
X146924350Y-68647868D02*
X146991693Y-68647868D01*
X146991693Y-68647868D02*
X147092709Y-68681540D01*
X147092709Y-68681540D02*
X147126380Y-68715212D01*
X147126380Y-68715212D02*
X147160052Y-68816227D01*
X147160052Y-68816227D02*
X147160052Y-68883571D01*
X147160052Y-68883571D02*
X147126380Y-68984586D01*
X147126380Y-68984586D02*
X146991693Y-69119273D01*
X146991693Y-69119273D02*
X146958022Y-69220288D01*
X146958022Y-69220288D02*
X146958022Y-69287632D01*
X146958022Y-69287632D02*
X146991693Y-69388647D01*
X146991693Y-69388647D02*
X147126380Y-69523334D01*
X147126380Y-69523334D02*
X147227396Y-69557006D01*
X147227396Y-69557006D02*
X147294739Y-69557006D01*
X147294739Y-69557006D02*
X147395754Y-69523334D01*
X147395754Y-69523334D02*
X147530441Y-69388647D01*
X147530441Y-69388647D02*
X147564113Y-69287632D01*
X147564113Y-69287632D02*
X147564113Y-69220288D01*
X147564113Y-69220288D02*
X147530441Y-69119273D01*
X147530441Y-69119273D02*
X147395754Y-68984586D01*
X147395754Y-68984586D02*
X147294739Y-68950914D01*
X147294739Y-68950914D02*
X147227396Y-68950914D01*
X147227396Y-68950914D02*
X147126380Y-68984586D01*
X148283333Y-78509580D02*
X148235714Y-78557200D01*
X148235714Y-78557200D02*
X148092857Y-78604819D01*
X148092857Y-78604819D02*
X147997619Y-78604819D01*
X147997619Y-78604819D02*
X147854762Y-78557200D01*
X147854762Y-78557200D02*
X147759524Y-78461961D01*
X147759524Y-78461961D02*
X147711905Y-78366723D01*
X147711905Y-78366723D02*
X147664286Y-78176247D01*
X147664286Y-78176247D02*
X147664286Y-78033390D01*
X147664286Y-78033390D02*
X147711905Y-77842914D01*
X147711905Y-77842914D02*
X147759524Y-77747676D01*
X147759524Y-77747676D02*
X147854762Y-77652438D01*
X147854762Y-77652438D02*
X147997619Y-77604819D01*
X147997619Y-77604819D02*
X148092857Y-77604819D01*
X148092857Y-77604819D02*
X148235714Y-77652438D01*
X148235714Y-77652438D02*
X148283333Y-77700057D01*
X149188095Y-77604819D02*
X148711905Y-77604819D01*
X148711905Y-77604819D02*
X148664286Y-78081009D01*
X148664286Y-78081009D02*
X148711905Y-78033390D01*
X148711905Y-78033390D02*
X148807143Y-77985771D01*
X148807143Y-77985771D02*
X149045238Y-77985771D01*
X149045238Y-77985771D02*
X149140476Y-78033390D01*
X149140476Y-78033390D02*
X149188095Y-78081009D01*
X149188095Y-78081009D02*
X149235714Y-78176247D01*
X149235714Y-78176247D02*
X149235714Y-78414342D01*
X149235714Y-78414342D02*
X149188095Y-78509580D01*
X149188095Y-78509580D02*
X149140476Y-78557200D01*
X149140476Y-78557200D02*
X149045238Y-78604819D01*
X149045238Y-78604819D02*
X148807143Y-78604819D01*
X148807143Y-78604819D02*
X148711905Y-78557200D01*
X148711905Y-78557200D02*
X148664286Y-78509580D01*
X141733333Y-79509580D02*
X141685714Y-79557200D01*
X141685714Y-79557200D02*
X141542857Y-79604819D01*
X141542857Y-79604819D02*
X141447619Y-79604819D01*
X141447619Y-79604819D02*
X141304762Y-79557200D01*
X141304762Y-79557200D02*
X141209524Y-79461961D01*
X141209524Y-79461961D02*
X141161905Y-79366723D01*
X141161905Y-79366723D02*
X141114286Y-79176247D01*
X141114286Y-79176247D02*
X141114286Y-79033390D01*
X141114286Y-79033390D02*
X141161905Y-78842914D01*
X141161905Y-78842914D02*
X141209524Y-78747676D01*
X141209524Y-78747676D02*
X141304762Y-78652438D01*
X141304762Y-78652438D02*
X141447619Y-78604819D01*
X141447619Y-78604819D02*
X141542857Y-78604819D01*
X141542857Y-78604819D02*
X141685714Y-78652438D01*
X141685714Y-78652438D02*
X141733333Y-78700057D01*
X142685714Y-79604819D02*
X142114286Y-79604819D01*
X142400000Y-79604819D02*
X142400000Y-78604819D01*
X142400000Y-78604819D02*
X142304762Y-78747676D01*
X142304762Y-78747676D02*
X142209524Y-78842914D01*
X142209524Y-78842914D02*
X142114286Y-78890533D01*
X139227887Y-72136411D02*
X139160543Y-72136411D01*
X139160543Y-72136411D02*
X139025856Y-72069067D01*
X139025856Y-72069067D02*
X138958513Y-72001724D01*
X138958513Y-72001724D02*
X138891169Y-71867037D01*
X138891169Y-71867037D02*
X138891169Y-71732350D01*
X138891169Y-71732350D02*
X138924841Y-71631335D01*
X138924841Y-71631335D02*
X139025856Y-71462976D01*
X139025856Y-71462976D02*
X139126871Y-71361961D01*
X139126871Y-71361961D02*
X139295230Y-71260945D01*
X139295230Y-71260945D02*
X139396245Y-71227274D01*
X139396245Y-71227274D02*
X139530932Y-71227274D01*
X139530932Y-71227274D02*
X139665619Y-71294617D01*
X139665619Y-71294617D02*
X139732963Y-71361961D01*
X139732963Y-71361961D02*
X139800306Y-71496648D01*
X139800306Y-71496648D02*
X139800306Y-71563991D01*
X140103352Y-71732350D02*
X140541085Y-72170083D01*
X140541085Y-72170083D02*
X140036009Y-72203754D01*
X140036009Y-72203754D02*
X140137024Y-72304770D01*
X140137024Y-72304770D02*
X140170696Y-72405785D01*
X140170696Y-72405785D02*
X140170696Y-72473128D01*
X140170696Y-72473128D02*
X140137024Y-72574144D01*
X140137024Y-72574144D02*
X139968665Y-72742502D01*
X139968665Y-72742502D02*
X139867650Y-72776174D01*
X139867650Y-72776174D02*
X139800306Y-72776174D01*
X139800306Y-72776174D02*
X139699291Y-72742502D01*
X139699291Y-72742502D02*
X139497261Y-72540472D01*
X139497261Y-72540472D02*
X139463589Y-72439457D01*
X139463589Y-72439457D02*
X139463589Y-72372113D01*
X144588095Y-76204819D02*
X144588095Y-77014342D01*
X144588095Y-77014342D02*
X144635714Y-77109580D01*
X144635714Y-77109580D02*
X144683333Y-77157200D01*
X144683333Y-77157200D02*
X144778571Y-77204819D01*
X144778571Y-77204819D02*
X144969047Y-77204819D01*
X144969047Y-77204819D02*
X145064285Y-77157200D01*
X145064285Y-77157200D02*
X145111904Y-77109580D01*
X145111904Y-77109580D02*
X145159523Y-77014342D01*
X145159523Y-77014342D02*
X145159523Y-76204819D01*
X146159523Y-77204819D02*
X145588095Y-77204819D01*
X145873809Y-77204819D02*
X145873809Y-76204819D01*
X145873809Y-76204819D02*
X145778571Y-76347676D01*
X145778571Y-76347676D02*
X145683333Y-76442914D01*
X145683333Y-76442914D02*
X145588095Y-76490533D01*
X141815500Y-70904819D02*
X141815500Y-71142914D01*
X141577405Y-71047676D02*
X141815500Y-71142914D01*
X141815500Y-71142914D02*
X142053595Y-71047676D01*
X141672643Y-71333390D02*
X141815500Y-71142914D01*
X141815500Y-71142914D02*
X141958357Y-71333390D01*
X152115966Y-58186262D02*
X152115966Y-58900547D01*
X152115966Y-58900547D02*
X152068347Y-59043404D01*
X152068347Y-59043404D02*
X151973109Y-59138643D01*
X151973109Y-59138643D02*
X151830252Y-59186262D01*
X151830252Y-59186262D02*
X151735014Y-59186262D01*
X152544538Y-58281500D02*
X152592157Y-58233881D01*
X152592157Y-58233881D02*
X152687395Y-58186262D01*
X152687395Y-58186262D02*
X152925490Y-58186262D01*
X152925490Y-58186262D02*
X153020728Y-58233881D01*
X153020728Y-58233881D02*
X153068347Y-58281500D01*
X153068347Y-58281500D02*
X153115966Y-58376738D01*
X153115966Y-58376738D02*
X153115966Y-58471976D01*
X153115966Y-58471976D02*
X153068347Y-58614833D01*
X153068347Y-58614833D02*
X152496919Y-59186262D01*
X152496919Y-59186262D02*
X153115966Y-59186262D01*
X139127887Y-67736411D02*
X139060543Y-67736411D01*
X139060543Y-67736411D02*
X138925856Y-67669067D01*
X138925856Y-67669067D02*
X138858513Y-67601724D01*
X138858513Y-67601724D02*
X138791169Y-67467037D01*
X138791169Y-67467037D02*
X138791169Y-67332350D01*
X138791169Y-67332350D02*
X138824841Y-67231335D01*
X138824841Y-67231335D02*
X138925856Y-67062976D01*
X138925856Y-67062976D02*
X139026871Y-66961961D01*
X139026871Y-66961961D02*
X139195230Y-66860945D01*
X139195230Y-66860945D02*
X139296245Y-66827274D01*
X139296245Y-66827274D02*
X139430932Y-66827274D01*
X139430932Y-66827274D02*
X139565619Y-66894617D01*
X139565619Y-66894617D02*
X139632963Y-66961961D01*
X139632963Y-66961961D02*
X139700306Y-67096648D01*
X139700306Y-67096648D02*
X139700306Y-67163991D01*
X140138039Y-67938441D02*
X139666635Y-68409846D01*
X140239054Y-67500709D02*
X139565619Y-67837426D01*
X139565619Y-67837426D02*
X140003352Y-68275159D01*
X139783333Y-79559580D02*
X139735714Y-79607200D01*
X139735714Y-79607200D02*
X139592857Y-79654819D01*
X139592857Y-79654819D02*
X139497619Y-79654819D01*
X139497619Y-79654819D02*
X139354762Y-79607200D01*
X139354762Y-79607200D02*
X139259524Y-79511961D01*
X139259524Y-79511961D02*
X139211905Y-79416723D01*
X139211905Y-79416723D02*
X139164286Y-79226247D01*
X139164286Y-79226247D02*
X139164286Y-79083390D01*
X139164286Y-79083390D02*
X139211905Y-78892914D01*
X139211905Y-78892914D02*
X139259524Y-78797676D01*
X139259524Y-78797676D02*
X139354762Y-78702438D01*
X139354762Y-78702438D02*
X139497619Y-78654819D01*
X139497619Y-78654819D02*
X139592857Y-78654819D01*
X139592857Y-78654819D02*
X139735714Y-78702438D01*
X139735714Y-78702438D02*
X139783333Y-78750057D01*
X140164286Y-78750057D02*
X140211905Y-78702438D01*
X140211905Y-78702438D02*
X140307143Y-78654819D01*
X140307143Y-78654819D02*
X140545238Y-78654819D01*
X140545238Y-78654819D02*
X140640476Y-78702438D01*
X140640476Y-78702438D02*
X140688095Y-78750057D01*
X140688095Y-78750057D02*
X140735714Y-78845295D01*
X140735714Y-78845295D02*
X140735714Y-78940533D01*
X140735714Y-78940533D02*
X140688095Y-79083390D01*
X140688095Y-79083390D02*
X140116667Y-79654819D01*
X140116667Y-79654819D02*
X140735714Y-79654819D01*
X140127888Y-66286411D02*
X140060544Y-66286411D01*
X140060544Y-66286411D02*
X139925857Y-66219067D01*
X139925857Y-66219067D02*
X139858514Y-66151724D01*
X139858514Y-66151724D02*
X139791170Y-66017037D01*
X139791170Y-66017037D02*
X139791170Y-65882350D01*
X139791170Y-65882350D02*
X139824842Y-65781335D01*
X139824842Y-65781335D02*
X139925857Y-65612976D01*
X139925857Y-65612976D02*
X140026872Y-65511961D01*
X140026872Y-65511961D02*
X140195231Y-65410945D01*
X140195231Y-65410945D02*
X140296246Y-65377274D01*
X140296246Y-65377274D02*
X140430933Y-65377274D01*
X140430933Y-65377274D02*
X140565620Y-65444617D01*
X140565620Y-65444617D02*
X140632964Y-65511961D01*
X140632964Y-65511961D02*
X140700307Y-65646648D01*
X140700307Y-65646648D02*
X140700307Y-65713991D01*
X141373742Y-66252739D02*
X141239055Y-66118052D01*
X141239055Y-66118052D02*
X141138040Y-66084380D01*
X141138040Y-66084380D02*
X141070697Y-66084380D01*
X141070697Y-66084380D02*
X140902338Y-66118052D01*
X140902338Y-66118052D02*
X140733979Y-66219067D01*
X140733979Y-66219067D02*
X140464605Y-66488441D01*
X140464605Y-66488441D02*
X140430933Y-66589457D01*
X140430933Y-66589457D02*
X140430933Y-66656800D01*
X140430933Y-66656800D02*
X140464605Y-66757815D01*
X140464605Y-66757815D02*
X140599292Y-66892502D01*
X140599292Y-66892502D02*
X140700307Y-66926174D01*
X140700307Y-66926174D02*
X140767651Y-66926174D01*
X140767651Y-66926174D02*
X140868666Y-66892502D01*
X140868666Y-66892502D02*
X141037025Y-66724144D01*
X141037025Y-66724144D02*
X141070697Y-66623128D01*
X141070697Y-66623128D02*
X141070697Y-66555785D01*
X141070697Y-66555785D02*
X141037025Y-66454770D01*
X141037025Y-66454770D02*
X140902338Y-66320083D01*
X140902338Y-66320083D02*
X140801323Y-66286411D01*
X140801323Y-66286411D02*
X140733979Y-66286411D01*
X140733979Y-66286411D02*
X140632964Y-66320083D01*
X143536411Y-66222112D02*
X143536411Y-66289456D01*
X143536411Y-66289456D02*
X143469067Y-66424143D01*
X143469067Y-66424143D02*
X143401724Y-66491486D01*
X143401724Y-66491486D02*
X143267037Y-66558830D01*
X143267037Y-66558830D02*
X143132350Y-66558830D01*
X143132350Y-66558830D02*
X143031335Y-66525158D01*
X143031335Y-66525158D02*
X142862976Y-66424143D01*
X142862976Y-66424143D02*
X142761961Y-66323128D01*
X142761961Y-66323128D02*
X142660945Y-66154769D01*
X142660945Y-66154769D02*
X142627274Y-66053754D01*
X142627274Y-66053754D02*
X142627274Y-65919067D01*
X142627274Y-65919067D02*
X142694617Y-65784380D01*
X142694617Y-65784380D02*
X142761961Y-65717036D01*
X142761961Y-65717036D02*
X142896648Y-65649693D01*
X142896648Y-65649693D02*
X142963991Y-65649693D01*
X143132350Y-65346647D02*
X143603754Y-64875242D01*
X143603754Y-64875242D02*
X144007815Y-65885395D01*
D11*
%TO.C,J1*%
X135829300Y-59731443D02*
X137209300Y-59731443D01*
X135829300Y-61111443D02*
X135829300Y-59731443D01*
X135829300Y-62381443D02*
X135829300Y-85351443D01*
X135829300Y-62381443D02*
X138589300Y-62381443D01*
X135829300Y-85351443D02*
X138589300Y-85351443D01*
X138589300Y-62381443D02*
X138589300Y-85351443D01*
%TO.C,C8*%
X145265010Y-67595543D02*
X144895543Y-67965010D01*
X146304457Y-68634990D02*
X145934990Y-69004457D01*
%TO.C,C5*%
X147940000Y-75840580D02*
X147940000Y-75559420D01*
X148960000Y-75840580D02*
X148960000Y-75559420D01*
%TO.C,C1*%
X141190000Y-76740580D02*
X141190000Y-76459420D01*
X142210000Y-76740580D02*
X142210000Y-76459420D01*
%TO.C,C3*%
X140089970Y-71311219D02*
X140288781Y-71510030D01*
X140811219Y-70589970D02*
X141010030Y-70788781D01*
D12*
%TO.C,U1*%
G36*
X145240563Y-76057500D02*
G01*
X144859563Y-76057500D01*
X144859563Y-75803500D01*
X145240563Y-75803500D01*
X145240563Y-76057500D01*
G37*
G36*
X145740689Y-70596500D02*
G01*
X145359689Y-70596500D01*
X145359689Y-70342500D01*
X145740689Y-70342500D01*
X145740689Y-70596500D01*
G37*
D11*
%TO.C,J2*%
X151069300Y-59731443D02*
X152449300Y-59731443D01*
X151069300Y-61111443D02*
X151069300Y-59731443D01*
X151069300Y-62381443D02*
X151069300Y-85351443D01*
X151069300Y-62381443D02*
X153829300Y-62381443D01*
X151069300Y-85351443D02*
X153829300Y-85351443D01*
X153829300Y-62381443D02*
X153829300Y-85351443D01*
%TO.C,C4*%
X140595543Y-69684990D02*
X140965010Y-70054457D01*
X141634990Y-68645543D02*
X142004457Y-69015010D01*
%TO.C,C2*%
X139215000Y-76861252D02*
X139215000Y-76338748D01*
X140685000Y-76861252D02*
X140685000Y-76338748D01*
%TO.C,C6*%
X141939970Y-68261219D02*
X142138781Y-68460030D01*
X142661219Y-67539970D02*
X142860030Y-67738781D01*
%TO.C,C7*%
X144238781Y-66489970D02*
X144039970Y-66688781D01*
X144960030Y-67211219D02*
X144761219Y-67410030D01*
%TD*%
%LPC*%
D13*
%TO.C,J1*%
X137209300Y-61111443D03*
D14*
X137209300Y-63651443D03*
X137209300Y-66191443D03*
X137209300Y-68731443D03*
X137209300Y-71271443D03*
X137209300Y-73811443D03*
X137209300Y-76351443D03*
X137209300Y-78891443D03*
X137209300Y-81431443D03*
X137209300Y-83971443D03*
%TD*%
D15*
%TO.C,C8*%
X146271751Y-67628249D03*
X144928249Y-68971751D03*
%TD*%
D16*
%TO.C,C5*%
X148450000Y-76475000D03*
X148450000Y-74925000D03*
%TD*%
%TO.C,C1*%
X141700000Y-77375000D03*
X141700000Y-75825000D03*
%TD*%
D17*
%TO.C,C3*%
X140001992Y-70501992D03*
X141098008Y-71598008D03*
%TD*%
D18*
%TO.C,U1*%
X142856900Y-71949685D03*
X142856900Y-72449811D03*
X142856900Y-72949937D03*
X142856900Y-73450063D03*
X142856900Y-73950189D03*
X142856900Y-74450315D03*
D19*
X143549685Y-75143100D03*
X144049811Y-75143100D03*
X144549937Y-75143100D03*
X145050063Y-75143100D03*
X145550189Y-75143100D03*
X146050315Y-75143100D03*
D18*
X146743100Y-74450315D03*
X146743100Y-73950189D03*
X146743100Y-73450063D03*
X146743100Y-72949937D03*
X146743100Y-72449811D03*
X146743100Y-71949685D03*
D19*
X146050315Y-71256900D03*
X145550189Y-71256900D03*
X145050063Y-71256900D03*
X144549937Y-71256900D03*
X144049811Y-71256900D03*
X143549685Y-71256900D03*
D20*
X144800000Y-73200000D03*
D21*
X143074000Y-71473943D03*
X143074000Y-74926057D03*
X146526000Y-74926057D03*
X146526000Y-71473943D03*
%TD*%
D13*
%TO.C,J2*%
X152449300Y-61111443D03*
D14*
X152449300Y-63651443D03*
X152449300Y-66191443D03*
X152449300Y-68731443D03*
X152449300Y-71271443D03*
X152449300Y-73811443D03*
X152449300Y-76351443D03*
X152449300Y-78891443D03*
X152449300Y-81431443D03*
X152449300Y-83971443D03*
%TD*%
D22*
%TO.C,C4*%
X140628249Y-68678249D03*
X141971751Y-70021751D03*
%TD*%
D23*
%TO.C,C2*%
X139950000Y-77550000D03*
X139950000Y-75650000D03*
%TD*%
D17*
%TO.C,C6*%
X141851992Y-67451992D03*
X142948008Y-68548008D03*
%TD*%
D24*
%TO.C,C7*%
X145048008Y-66401992D03*
X143951992Y-67498008D03*
%TD*%
%LPD*%
M02*
