%TF.GenerationSoftware,KiCad,Pcbnew,9.0.7*%
%TF.CreationDate,2026-03-16T15:34:49-04:00*%
%TF.ProjectId,tad5212-board,74616435-3231-4322-9d62-6f6172642e6b,rev?*%
%TF.SameCoordinates,Original*%
%TF.FileFunction,Copper,L2,Bot*%
%TF.FilePolarity,Positive*%
%FSLAX46Y46*%
G04 Gerber Fmt 4.6, Leading zero omitted, Abs format (unit mm)*
G04 Created by KiCad (PCBNEW 9.0.7) date 2026-03-16 15:34:49*
%MOMM*%
%LPD*%
G01*
G04 APERTURE LIST*
%TA.AperFunction,ComponentPad*%
%ADD10R,1.700000X1.700000*%
%TD*%
%TA.AperFunction,ComponentPad*%
%ADD11C,1.700000*%
%TD*%
%TA.AperFunction,ViaPad*%
%ADD12C,0.600000*%
%TD*%
%TA.AperFunction,Conductor*%
%ADD13C,0.200000*%
%TD*%
%TA.AperFunction,Conductor*%
%ADD14C,0.127000*%
%TD*%
G04 APERTURE END LIST*
D10*
%TO.P,J1,1,Pin_1*%
%TO.N,+3.3V*%
X137209300Y-61111443D03*
D11*
%TO.P,J1,2,Pin_2*%
%TO.N,GND*%
X137209300Y-63651443D03*
%TO.P,J1,3,Pin_3*%
%TO.N,/BCLK*%
X137209300Y-66191443D03*
%TO.P,J1,4,Pin_4*%
%TO.N,/FSYNC*%
X137209300Y-68731443D03*
%TO.P,J1,5,Pin_5*%
%TO.N,/DOUT*%
X137209300Y-71271443D03*
%TO.P,J1,6,Pin_6*%
%TO.N,/DIN*%
X137209300Y-73811443D03*
%TO.P,J1,7,Pin_7*%
%TO.N,/SDA*%
X137209300Y-76351443D03*
%TO.P,J1,8,Pin_8*%
%TO.N,/SCL*%
X137209300Y-78891443D03*
%TO.P,J1,9,Pin_9*%
%TO.N,/GPIO1*%
X137209300Y-81431443D03*
%TO.P,J1,10,Pin_10*%
%TO.N,/GPIO2*%
X137209300Y-83971443D03*
%TD*%
D10*
%TO.P,J2,1,Pin_1*%
%TO.N,/OUT2M*%
X152449300Y-61111443D03*
D11*
%TO.P,J2,2,Pin_2*%
%TO.N,/OUT2P*%
X152449300Y-63651443D03*
%TO.P,J2,3,Pin_3*%
%TO.N,/OUT1P*%
X152449300Y-66191443D03*
%TO.P,J2,4,Pin_4*%
%TO.N,/OUT1M*%
X152449300Y-68731443D03*
%TO.P,J2,5,Pin_5*%
%TO.N,unconnected-(J2-Pin_5-Pad5)*%
X152449300Y-71271443D03*
%TO.P,J2,6,Pin_6*%
%TO.N,unconnected-(J2-Pin_6-Pad6)*%
X152449300Y-73811443D03*
%TO.P,J2,7,Pin_7*%
%TO.N,unconnected-(J2-Pin_7-Pad7)*%
X152449300Y-76351443D03*
%TO.P,J2,8,Pin_8*%
%TO.N,unconnected-(J2-Pin_8-Pad8)*%
X152449300Y-78891443D03*
%TO.P,J2,9,Pin_9*%
%TO.N,/GPI1*%
X152449300Y-81431443D03*
%TO.P,J2,10,Pin_10*%
%TO.N,/GPO1*%
X152449300Y-83971443D03*
%TD*%
D12*
%TO.N,GND*%
X140700000Y-67400000D03*
X142800000Y-75300000D03*
%TO.N,+3.3V*%
X139600000Y-65800000D03*
X139600000Y-74650000D03*
%TO.N,GND*%
X145550000Y-73950000D03*
X142650000Y-70750000D03*
X145550000Y-73200000D03*
X141050000Y-66650000D03*
X144800000Y-73200000D03*
X147350000Y-76500000D03*
X148400000Y-71450000D03*
X144100000Y-73900000D03*
X147700000Y-71000000D03*
X144800000Y-73950000D03*
X148450000Y-77500000D03*
X142350000Y-78550000D03*
X149500000Y-76450000D03*
X138650000Y-64350000D03*
X138600000Y-62550000D03*
X147150000Y-66700000D03*
X144250000Y-65600000D03*
X138700000Y-63150000D03*
X145500000Y-72500000D03*
X148400000Y-72400000D03*
X144100000Y-73250000D03*
X148350000Y-73350000D03*
X144100000Y-72500000D03*
X140100000Y-78550000D03*
X147150000Y-75550000D03*
X144800000Y-72500000D03*
X139150000Y-78600000D03*
X138700000Y-63750000D03*
X141400000Y-78600000D03*
X145850000Y-65550000D03*
%TO.N,/SCL*%
X143800000Y-77350000D03*
%TO.N,/SDA*%
X144050000Y-76500000D03*
%TD*%
D13*
%TO.N,+3.3V*%
X139600000Y-65800000D02*
X139600000Y-74650000D01*
D14*
%TO.N,/SCL*%
X143500000Y-77050000D02*
X139050743Y-77050000D01*
X143800000Y-77350000D02*
X143500000Y-77050000D01*
X139050743Y-77050000D02*
X137209300Y-78891443D01*
%TO.N,/SDA*%
X144050000Y-76500000D02*
X143901443Y-76351443D01*
X143901443Y-76351443D02*
X137209300Y-76351443D01*
%TD*%
%TA.AperFunction,Conductor*%
%TO.N,GND*%
G36*
X151041839Y-60170185D02*
G01*
X151087594Y-60222989D01*
X151098800Y-60274500D01*
X151098800Y-62009313D01*
X151098801Y-62009319D01*
X151105208Y-62068926D01*
X151155502Y-62203771D01*
X151155506Y-62203778D01*
X151241752Y-62318987D01*
X151241755Y-62318990D01*
X151356964Y-62405236D01*
X151356971Y-62405240D01*
X151488382Y-62454253D01*
X151544316Y-62496124D01*
X151568733Y-62561588D01*
X151553882Y-62629861D01*
X151532731Y-62658116D01*
X151419189Y-62771658D01*
X151294251Y-62943622D01*
X151197744Y-63133028D01*
X151132053Y-63335203D01*
X151098800Y-63545156D01*
X151098800Y-63757729D01*
X151122911Y-63909964D01*
X151132054Y-63967686D01*
X151166999Y-64075236D01*
X151197744Y-64169857D01*
X151294251Y-64359263D01*
X151419190Y-64531229D01*
X151569513Y-64681552D01*
X151741482Y-64806493D01*
X151750246Y-64810959D01*
X151801042Y-64858934D01*
X151817836Y-64926755D01*
X151795298Y-64992890D01*
X151750246Y-65031927D01*
X151741482Y-65036392D01*
X151569513Y-65161333D01*
X151419190Y-65311656D01*
X151294251Y-65483622D01*
X151197744Y-65673028D01*
X151197743Y-65673030D01*
X151197743Y-65673031D01*
X151182106Y-65721158D01*
X151132053Y-65875203D01*
X151098800Y-66085156D01*
X151098800Y-66297729D01*
X151132053Y-66507682D01*
X151197744Y-66709857D01*
X151294251Y-66899263D01*
X151419190Y-67071229D01*
X151569513Y-67221552D01*
X151741482Y-67346493D01*
X151750246Y-67350959D01*
X151801042Y-67398934D01*
X151817836Y-67466755D01*
X151795298Y-67532890D01*
X151750246Y-67571927D01*
X151741482Y-67576392D01*
X151569513Y-67701333D01*
X151419190Y-67851656D01*
X151294251Y-68023622D01*
X151197744Y-68213028D01*
X151132053Y-68415203D01*
X151098800Y-68625156D01*
X151098800Y-68837729D01*
X151132053Y-69047682D01*
X151197744Y-69249857D01*
X151294251Y-69439263D01*
X151419190Y-69611229D01*
X151569513Y-69761552D01*
X151741482Y-69886493D01*
X151750246Y-69890959D01*
X151801042Y-69938934D01*
X151817836Y-70006755D01*
X151795298Y-70072890D01*
X151750246Y-70111927D01*
X151741482Y-70116392D01*
X151569513Y-70241333D01*
X151419190Y-70391656D01*
X151294251Y-70563622D01*
X151197744Y-70753028D01*
X151132053Y-70955203D01*
X151098800Y-71165156D01*
X151098800Y-71377729D01*
X151132053Y-71587682D01*
X151197744Y-71789857D01*
X151294251Y-71979263D01*
X151419190Y-72151229D01*
X151569513Y-72301552D01*
X151741482Y-72426493D01*
X151750246Y-72430959D01*
X151801042Y-72478934D01*
X151817836Y-72546755D01*
X151795298Y-72612890D01*
X151750246Y-72651927D01*
X151741482Y-72656392D01*
X151569513Y-72781333D01*
X151419190Y-72931656D01*
X151294251Y-73103622D01*
X151197744Y-73293028D01*
X151132053Y-73495203D01*
X151098800Y-73705156D01*
X151098800Y-73917729D01*
X151130586Y-74118422D01*
X151132054Y-74127686D01*
X151178559Y-74270814D01*
X151197744Y-74329857D01*
X151294251Y-74519263D01*
X151419190Y-74691229D01*
X151569513Y-74841552D01*
X151741482Y-74966493D01*
X151750246Y-74970959D01*
X151801042Y-75018934D01*
X151817836Y-75086755D01*
X151795298Y-75152890D01*
X151750246Y-75191927D01*
X151741482Y-75196392D01*
X151569513Y-75321333D01*
X151419190Y-75471656D01*
X151294251Y-75643622D01*
X151197744Y-75833028D01*
X151132053Y-76035203D01*
X151118494Y-76120814D01*
X151098800Y-76245156D01*
X151098800Y-76457730D01*
X151132054Y-76667686D01*
X151153437Y-76733497D01*
X151197744Y-76869857D01*
X151294251Y-77059263D01*
X151419190Y-77231229D01*
X151569513Y-77381552D01*
X151741482Y-77506493D01*
X151750246Y-77510959D01*
X151801042Y-77558934D01*
X151817836Y-77626755D01*
X151795298Y-77692890D01*
X151750246Y-77731927D01*
X151741482Y-77736392D01*
X151569513Y-77861333D01*
X151419190Y-78011656D01*
X151294251Y-78183622D01*
X151197744Y-78373028D01*
X151132053Y-78575203D01*
X151098800Y-78785156D01*
X151098800Y-78997729D01*
X151132053Y-79207682D01*
X151197744Y-79409857D01*
X151294251Y-79599263D01*
X151419190Y-79771229D01*
X151569513Y-79921552D01*
X151741482Y-80046493D01*
X151750246Y-80050959D01*
X151801042Y-80098934D01*
X151817836Y-80166755D01*
X151795298Y-80232890D01*
X151750246Y-80271927D01*
X151741482Y-80276392D01*
X151569513Y-80401333D01*
X151419190Y-80551656D01*
X151294251Y-80723622D01*
X151197744Y-80913028D01*
X151132053Y-81115203D01*
X151098800Y-81325156D01*
X151098800Y-81537729D01*
X151132053Y-81747682D01*
X151197744Y-81949857D01*
X151294251Y-82139263D01*
X151419190Y-82311229D01*
X151569513Y-82461552D01*
X151741482Y-82586493D01*
X151750246Y-82590959D01*
X151801042Y-82638934D01*
X151817836Y-82706755D01*
X151795298Y-82772890D01*
X151750246Y-82811927D01*
X151741482Y-82816392D01*
X151569513Y-82941333D01*
X151419190Y-83091656D01*
X151294251Y-83263622D01*
X151197744Y-83453028D01*
X151132053Y-83655203D01*
X151098800Y-83865156D01*
X151098800Y-84077729D01*
X151132053Y-84287682D01*
X151197744Y-84489857D01*
X151294251Y-84679263D01*
X151347544Y-84752615D01*
X151371024Y-84818422D01*
X151355198Y-84886475D01*
X151305092Y-84935170D01*
X151247226Y-84949500D01*
X138411374Y-84949500D01*
X138344335Y-84929815D01*
X138298580Y-84877011D01*
X138288636Y-84807853D01*
X138311056Y-84752615D01*
X138364348Y-84679263D01*
X138364347Y-84679263D01*
X138364351Y-84679259D01*
X138460857Y-84489855D01*
X138526546Y-84287686D01*
X138559800Y-84077730D01*
X138559800Y-83865156D01*
X138526546Y-83655200D01*
X138460857Y-83453031D01*
X138364351Y-83263627D01*
X138364349Y-83263624D01*
X138364348Y-83263622D01*
X138239409Y-83091656D01*
X138089086Y-82941333D01*
X137917120Y-82816394D01*
X137916415Y-82816034D01*
X137908354Y-82811928D01*
X137857559Y-82763955D01*
X137840763Y-82696135D01*
X137863299Y-82629999D01*
X137908354Y-82590958D01*
X137917116Y-82586494D01*
X137939089Y-82570529D01*
X138089086Y-82461552D01*
X138089088Y-82461549D01*
X138089092Y-82461547D01*
X138239404Y-82311235D01*
X138239406Y-82311231D01*
X138239409Y-82311229D01*
X138364348Y-82139263D01*
X138364347Y-82139263D01*
X138364351Y-82139259D01*
X138460857Y-81949855D01*
X138526546Y-81747686D01*
X138559800Y-81537730D01*
X138559800Y-81325156D01*
X138526546Y-81115200D01*
X138460857Y-80913031D01*
X138364351Y-80723627D01*
X138364349Y-80723624D01*
X138364348Y-80723622D01*
X138239409Y-80551656D01*
X138089086Y-80401333D01*
X137917120Y-80276394D01*
X137916415Y-80276034D01*
X137908354Y-80271928D01*
X137857559Y-80223955D01*
X137840763Y-80156135D01*
X137863299Y-80089999D01*
X137908354Y-80050958D01*
X137917116Y-80046494D01*
X137939089Y-80030529D01*
X138089086Y-79921552D01*
X138089088Y-79921549D01*
X138089092Y-79921547D01*
X138239404Y-79771235D01*
X138239406Y-79771231D01*
X138239409Y-79771229D01*
X138364348Y-79599263D01*
X138364347Y-79599263D01*
X138364351Y-79599259D01*
X138460857Y-79409855D01*
X138526546Y-79207686D01*
X138559800Y-78997730D01*
X138559800Y-78785156D01*
X138526546Y-78575200D01*
X138500147Y-78493956D01*
X138498153Y-78424118D01*
X138530396Y-78367961D01*
X139248041Y-77650319D01*
X139309364Y-77616834D01*
X139335722Y-77614000D01*
X142960044Y-77614000D01*
X143027083Y-77633685D01*
X143072838Y-77686489D01*
X143074588Y-77690509D01*
X143090603Y-77729172D01*
X143090608Y-77729183D01*
X143178210Y-77860288D01*
X143178213Y-77860292D01*
X143289707Y-77971786D01*
X143289711Y-77971789D01*
X143420814Y-78059390D01*
X143420827Y-78059397D01*
X143566498Y-78119735D01*
X143566503Y-78119737D01*
X143721153Y-78150499D01*
X143721156Y-78150500D01*
X143721158Y-78150500D01*
X143878844Y-78150500D01*
X143878845Y-78150499D01*
X144033497Y-78119737D01*
X144179179Y-78059394D01*
X144310289Y-77971789D01*
X144421789Y-77860289D01*
X144509394Y-77729179D01*
X144569737Y-77583497D01*
X144600500Y-77428842D01*
X144600500Y-77271158D01*
X144600500Y-77271155D01*
X144581977Y-77178037D01*
X144588204Y-77108445D01*
X144615910Y-77066167D01*
X144671789Y-77010289D01*
X144759394Y-76879179D01*
X144819737Y-76733497D01*
X144850500Y-76578842D01*
X144850500Y-76421158D01*
X144850500Y-76421155D01*
X144850499Y-76421153D01*
X144819738Y-76266510D01*
X144819737Y-76266503D01*
X144810895Y-76245156D01*
X144759397Y-76120827D01*
X144759390Y-76120814D01*
X144671789Y-75989711D01*
X144671786Y-75989707D01*
X144560292Y-75878213D01*
X144560288Y-75878210D01*
X144429185Y-75790609D01*
X144429172Y-75790602D01*
X144283501Y-75730264D01*
X144283489Y-75730261D01*
X144128845Y-75699500D01*
X144128842Y-75699500D01*
X143971158Y-75699500D01*
X143971155Y-75699500D01*
X143816511Y-75730260D01*
X143816501Y-75730263D01*
X143701245Y-75778004D01*
X143653793Y-75787443D01*
X138513616Y-75787443D01*
X138446577Y-75767758D01*
X138403131Y-75719737D01*
X138364350Y-75643625D01*
X138239409Y-75471656D01*
X138089086Y-75321333D01*
X137917120Y-75196394D01*
X137916415Y-75196034D01*
X137908354Y-75191928D01*
X137857559Y-75143955D01*
X137840763Y-75076135D01*
X137863299Y-75009999D01*
X137908354Y-74970958D01*
X137917116Y-74966494D01*
X138031347Y-74883501D01*
X138089086Y-74841552D01*
X138089088Y-74841549D01*
X138089092Y-74841547D01*
X138239404Y-74691235D01*
X138239406Y-74691231D01*
X138239409Y-74691229D01*
X138364348Y-74519263D01*
X138364347Y-74519263D01*
X138364351Y-74519259D01*
X138460857Y-74329855D01*
X138526546Y-74127686D01*
X138559800Y-73917730D01*
X138559800Y-73705156D01*
X138526546Y-73495200D01*
X138460857Y-73293031D01*
X138364351Y-73103627D01*
X138364349Y-73103624D01*
X138364348Y-73103622D01*
X138239409Y-72931656D01*
X138089086Y-72781333D01*
X137917120Y-72656394D01*
X137916415Y-72656034D01*
X137908354Y-72651928D01*
X137857559Y-72603955D01*
X137840763Y-72536135D01*
X137863299Y-72469999D01*
X137908354Y-72430958D01*
X137917116Y-72426494D01*
X137939089Y-72410529D01*
X138089086Y-72301552D01*
X138089088Y-72301549D01*
X138089092Y-72301547D01*
X138239404Y-72151235D01*
X138239406Y-72151231D01*
X138239409Y-72151229D01*
X138364348Y-71979263D01*
X138364347Y-71979263D01*
X138364351Y-71979259D01*
X138460857Y-71789855D01*
X138526546Y-71587686D01*
X138559800Y-71377730D01*
X138559800Y-71165156D01*
X138526546Y-70955200D01*
X138460857Y-70753031D01*
X138364351Y-70563627D01*
X138364349Y-70563624D01*
X138364348Y-70563622D01*
X138239409Y-70391656D01*
X138089086Y-70241333D01*
X137917120Y-70116394D01*
X137916415Y-70116034D01*
X137908354Y-70111928D01*
X137857559Y-70063955D01*
X137840763Y-69996135D01*
X137863299Y-69929999D01*
X137908354Y-69890958D01*
X137917116Y-69886494D01*
X137939089Y-69870529D01*
X138089086Y-69761552D01*
X138089088Y-69761549D01*
X138089092Y-69761547D01*
X138239404Y-69611235D01*
X138239406Y-69611231D01*
X138239409Y-69611229D01*
X138364348Y-69439263D01*
X138364347Y-69439263D01*
X138364351Y-69439259D01*
X138460857Y-69249855D01*
X138526546Y-69047686D01*
X138559800Y-68837730D01*
X138559800Y-68625156D01*
X138526546Y-68415200D01*
X138460857Y-68213031D01*
X138364351Y-68023627D01*
X138364349Y-68023624D01*
X138364348Y-68023622D01*
X138239409Y-67851656D01*
X138089086Y-67701333D01*
X137917120Y-67576394D01*
X137916415Y-67576034D01*
X137908354Y-67571928D01*
X137857559Y-67523955D01*
X137840763Y-67456135D01*
X137863299Y-67389999D01*
X137908354Y-67350958D01*
X137917116Y-67346494D01*
X137939089Y-67330529D01*
X138089086Y-67221552D01*
X138089088Y-67221549D01*
X138089092Y-67221547D01*
X138239404Y-67071235D01*
X138239406Y-67071231D01*
X138239409Y-67071229D01*
X138364348Y-66899263D01*
X138364347Y-66899263D01*
X138364351Y-66899259D01*
X138460857Y-66709855D01*
X138526546Y-66507686D01*
X138559800Y-66297730D01*
X138559800Y-66085156D01*
X138526546Y-65875200D01*
X138476493Y-65721153D01*
X138799500Y-65721153D01*
X138799500Y-65878846D01*
X138830261Y-66033489D01*
X138830264Y-66033501D01*
X138890602Y-66179172D01*
X138890609Y-66179185D01*
X138978602Y-66310874D01*
X138999480Y-66377551D01*
X138999500Y-66379765D01*
X138999500Y-74070234D01*
X138979815Y-74137273D01*
X138978602Y-74139125D01*
X138890609Y-74270814D01*
X138890602Y-74270827D01*
X138830264Y-74416498D01*
X138830261Y-74416510D01*
X138799500Y-74571153D01*
X138799500Y-74728846D01*
X138830261Y-74883489D01*
X138830264Y-74883501D01*
X138890602Y-75029172D01*
X138890609Y-75029185D01*
X138978210Y-75160288D01*
X138978213Y-75160292D01*
X139089707Y-75271786D01*
X139089711Y-75271789D01*
X139220814Y-75359390D01*
X139220827Y-75359397D01*
X139366498Y-75419735D01*
X139366503Y-75419737D01*
X139520389Y-75450347D01*
X139521153Y-75450499D01*
X139521156Y-75450500D01*
X139521158Y-75450500D01*
X139678844Y-75450500D01*
X139678845Y-75450499D01*
X139833497Y-75419737D01*
X139979179Y-75359394D01*
X140110289Y-75271789D01*
X140221789Y-75160289D01*
X140309394Y-75029179D01*
X140369737Y-74883497D01*
X140400500Y-74728842D01*
X140400500Y-74571158D01*
X140400500Y-74571155D01*
X140400499Y-74571153D01*
X140390177Y-74519263D01*
X140369737Y-74416503D01*
X140369735Y-74416498D01*
X140309397Y-74270827D01*
X140309390Y-74270814D01*
X140221398Y-74139125D01*
X140200520Y-74072447D01*
X140200500Y-74070234D01*
X140200500Y-66379765D01*
X140220185Y-66312726D01*
X140221398Y-66310874D01*
X140309390Y-66179185D01*
X140309390Y-66179184D01*
X140309394Y-66179179D01*
X140369737Y-66033497D01*
X140400500Y-65878842D01*
X140400500Y-65721158D01*
X140400500Y-65721155D01*
X140400499Y-65721153D01*
X140369738Y-65566510D01*
X140369737Y-65566503D01*
X140335407Y-65483622D01*
X140309397Y-65420827D01*
X140309390Y-65420814D01*
X140221789Y-65289711D01*
X140221786Y-65289707D01*
X140110292Y-65178213D01*
X140110288Y-65178210D01*
X139979185Y-65090609D01*
X139979172Y-65090602D01*
X139833501Y-65030264D01*
X139833489Y-65030261D01*
X139678845Y-64999500D01*
X139678842Y-64999500D01*
X139521158Y-64999500D01*
X139521155Y-64999500D01*
X139366510Y-65030261D01*
X139366498Y-65030264D01*
X139220827Y-65090602D01*
X139220814Y-65090609D01*
X139089711Y-65178210D01*
X139089707Y-65178213D01*
X138978213Y-65289707D01*
X138978210Y-65289711D01*
X138890609Y-65420814D01*
X138890602Y-65420827D01*
X138830264Y-65566498D01*
X138830261Y-65566510D01*
X138799500Y-65721153D01*
X138476493Y-65721153D01*
X138460857Y-65673031D01*
X138364351Y-65483627D01*
X138364349Y-65483624D01*
X138364348Y-65483622D01*
X138239409Y-65311656D01*
X138089086Y-65161333D01*
X137917120Y-65036394D01*
X137727716Y-64939887D01*
X137677343Y-64923520D01*
X137635057Y-64909780D01*
X137577383Y-64870343D01*
X137550185Y-64805984D01*
X137562100Y-64737138D01*
X137609344Y-64685662D01*
X137628753Y-64676800D01*
X137628596Y-64676421D01*
X137633087Y-64674561D01*
X137787914Y-64595672D01*
X137787920Y-64595668D01*
X137895649Y-64517398D01*
X137895650Y-64517397D01*
X137461460Y-64083207D01*
X137516307Y-64051542D01*
X137609399Y-63958450D01*
X137641064Y-63903603D01*
X138075254Y-64337793D01*
X138075255Y-64337792D01*
X138153525Y-64230063D01*
X138153529Y-64230057D01*
X138232415Y-64075236D01*
X138286116Y-63909964D01*
X138313300Y-63738335D01*
X138313300Y-63564550D01*
X138286116Y-63392921D01*
X138232415Y-63227649D01*
X138153525Y-63072820D01*
X138075255Y-62965092D01*
X138075255Y-62965091D01*
X137641064Y-63399282D01*
X137609399Y-63344436D01*
X137516307Y-63251344D01*
X137461459Y-63219677D01*
X137895650Y-62785487D01*
X137895649Y-62785486D01*
X137787922Y-62707217D01*
X137766745Y-62696427D01*
X137715949Y-62648453D01*
X137699154Y-62580632D01*
X137721691Y-62514497D01*
X137776406Y-62471045D01*
X137823039Y-62461942D01*
X138107172Y-62461942D01*
X138166783Y-62455534D01*
X138301631Y-62405239D01*
X138416846Y-62318989D01*
X138503096Y-62203774D01*
X138553391Y-62068926D01*
X138559800Y-62009316D01*
X138559799Y-60274499D01*
X138579484Y-60207461D01*
X138632287Y-60161706D01*
X138683799Y-60150500D01*
X150974800Y-60150500D01*
X151041839Y-60170185D01*
G37*
%TD.AperFunction*%
%TA.AperFunction,Conductor*%
G36*
X136809201Y-63958450D02*
G01*
X136902293Y-64051542D01*
X136957139Y-64083207D01*
X136522948Y-64517398D01*
X136630677Y-64595668D01*
X136785512Y-64674561D01*
X136790004Y-64676421D01*
X136789384Y-64677918D01*
X136841209Y-64713348D01*
X136868412Y-64777704D01*
X136856504Y-64846552D01*
X136809265Y-64898032D01*
X136783541Y-64909781D01*
X136690883Y-64939887D01*
X136501481Y-65036393D01*
X136397384Y-65112023D01*
X136331578Y-65135502D01*
X136263524Y-65119676D01*
X136214830Y-65069570D01*
X136200500Y-65011704D01*
X136200500Y-64460693D01*
X136220185Y-64393654D01*
X136272989Y-64347899D01*
X136334230Y-64337075D01*
X136343344Y-64337792D01*
X136777534Y-63903602D01*
X136809201Y-63958450D01*
G37*
%TD.AperFunction*%
%TA.AperFunction,Conductor*%
G36*
X136662597Y-62481627D02*
G01*
X136708352Y-62534431D01*
X136718296Y-62603589D01*
X136689271Y-62667145D01*
X136651856Y-62696425D01*
X136630685Y-62707212D01*
X136630675Y-62707218D01*
X136522949Y-62785485D01*
X136522949Y-62785487D01*
X136957140Y-63219677D01*
X136902293Y-63251344D01*
X136809201Y-63344436D01*
X136777535Y-63399283D01*
X136343343Y-62965091D01*
X136334228Y-62965809D01*
X136265851Y-62951444D01*
X136216095Y-62902393D01*
X136200500Y-62842191D01*
X136200500Y-62585942D01*
X136220185Y-62518903D01*
X136272989Y-62473148D01*
X136324495Y-62461942D01*
X136595560Y-62461942D01*
X136662597Y-62481627D01*
G37*
%TD.AperFunction*%
%TD*%
M02*
