M48
; DRILL file KiCad 10.0.0 date 2026-03-24T01:09:46
; FORMAT={-:-/ absolute / metric / decimal}
; #@! TF.CreationDate,2026-03-24T01:09:46-04:00
; #@! TF.GenerationSoftware,Kicad,Pcbnew,10.0.0
; #@! TF.FileFunction,Plated,1,4,PTH
FMAT,2
METRIC
; #@! TA.AperFunction,Plated,PTH,ViaDrill
T1C0.300
; #@! TA.AperFunction,Plated,PTH,ComponentDrill
T2C1.000
%
G90
G05
T1
X138.6Y-62.55
X138.65Y-64.35
X138.7Y-63.15
X138.7Y-63.75
X138.8Y-75.1
X139.15Y-78.6
X139.6Y-62.15
X140.1Y-78.55
X140.7Y-67.4
X141.05Y-66.65
X141.4Y-78.6
X142.35Y-78.55
X142.65Y-70.75
X142.8Y-75.3
X142.9Y-77.0
X143.414Y-77.514
X144.1Y-62.7
X144.1Y-72.5
X144.1Y-73.2
X144.1Y-73.9
X144.25Y-65.6
X144.8Y-72.5
X144.8Y-73.2
X144.8Y-73.9
X145.2Y-64.4
X145.5Y-72.5
X145.5Y-73.2
X145.5Y-73.9
X145.85Y-65.55
X146.6Y-67.3
X147.15Y-75.55
X147.35Y-76.5
X147.7Y-71.0
X148.35Y-73.35
X148.4Y-71.45
X148.4Y-72.4
X148.45Y-77.5
X149.5Y-76.45
T2
X137.209Y-61.111
X137.209Y-63.651
X137.209Y-66.191
X137.209Y-68.731
X137.209Y-71.271
X137.209Y-73.811
X137.209Y-76.351
X137.209Y-78.891
X137.209Y-81.431
X137.209Y-83.971
X152.449Y-61.111
X152.449Y-63.651
X152.449Y-66.191
X152.449Y-68.731
X152.449Y-71.271
X152.449Y-73.811
X152.449Y-76.351
X152.449Y-78.891
X152.449Y-81.431
X152.449Y-83.971
M30
